<svg width="100%" height="100%" xmlns="http://www.w3.org/2000/svg"><polyline points=" 500,700 512.345678962963,700.0 518.5185184444445,689.3083283911069 506.1728394814815,689.3083283911069 500.0,678.6166567822138 512.345678962963,678.6166567822138 524.691357925926,678.6166567822138 530.8641974074075,689.3083283911069 543.2098763703705,689.3083283911069 549.3827158518519,678.6166567822138 555.5555553333334,667.9249851733207 543.2098763703704,667.9249851733207 537.0370368888889,678.6166567822138 530.8641974074075,667.9249851733207 537.0370368888889,657.2333135644276 530.8641974074075,646.5416419555345 518.5185184444445,646.5416419555345 506.1728394814815,646.5416419555345 512.345678962963,657.2333135644276 524.691357925926,657.2333135644276 518.5185184444446,667.9249851733207 506.1728394814816,667.9249851733207 500.0000000000001,657.2333135644276 487.65432103703716,657.2333135644276 493.8271605185186,667.9249851733207 487.6543210370371,678.6166567822138 481.4814815555556,667.9249851733207 475.3086420740741,657.2333135644276 481.4814815555556,646.5416419555345 493.82716051851855,646.5416419555345 500.00000000000006,635.8499703466414 487.6543210370371,635.8499703466414 481.4814815555556,625.1582987377483 493.82716051851855,625.1582987377483 506.1728394814815,625.1582987377483 512.345678962963,635.8499703466414 524.691357925926,635.8499703466414 530.8641974074075,625.1582987377483 518.5185184444445,625.1582987377483 512.345678962963,614.4666271288552 524.691357925926,614.4666271288552 537.037036888889,614.4666271288552 543.2098763703705,625.1582987377483 537.037036888889,635.8499703466414 543.2098763703705,646.5416419555345 549.3827158518519,657.2333135644276 555.5555553333334,646.5416419555345 549.3827158518519,635.8499703466414 561.7283948148149,635.8499703466414 567.9012342962964,646.5416419555345 580.2469132592594,646.5416419555345 586.4197527407408,635.8499703466414 574.0740737777778,635.8499703466414 567.9012342962964,625.1582987377483 580.2469132592594,625.1582987377483 592.5925922222224,625.1582987377483 598.7654317037038,635.8499703466414 611.1111106666668,635.8499703466414 617.2839501481483,625.1582987377483 623.4567896296297,614.4666271288552 611.1111106666667,614.4666271288552 604.9382711851853,625.1582987377483 598.7654317037038,614.4666271288552 604.9382711851853,603.7749555199621 617.2839501481483,603.7749555199621 623.4567896296297,593.083283911069 629.6296291111112,582.3916123021759 617.2839501481482,582.3916123021759 611.1111106666667,593.083283911069 604.9382711851853,582.3916123021759 611.1111106666667,571.6999406932828 604.9382711851853,561.0082690843897 592.5925922222223,561.0082690843897 580.2469132592593,561.0082690843897 586.4197527407407,571.6999406932828 598.7654317037037,571.6999406932828 592.5925922222223,582.3916123021759 580.2469132592593,582.3916123021759 574.0740737777778,593.083283911069 580.2469132592593,603.7749555199621 586.4197527407407,593.083283911069 598.7654317037037,593.083283911069 592.5925922222223,603.7749555199621 586.4197527407408,614.4666271288552 574.0740737777778,614.4666271288552 567.9012342962964,603.7749555199621 555.5555553333334,603.7749555199621 561.7283948148148,614.4666271288552 555.5555553333334,625.1582987377483 549.3827158518519,614.4666271288552 543.2098763703705,603.7749555199621 549.3827158518519,593.083283911069 561.7283948148149,593.083283911069 567.9012342962964,582.3916123021759 574.0740737777778,571.6999406932828 561.7283948148148,571.6999406932828 555.5555553333334,582.3916123021759 549.3827158518519,571.6999406932828 555.5555553333334,561.0082690843897 549.3827158518519,550.3165974754966 537.0370368888889,550.3165974754966 543.2098763703704,561.0082690843897 537.0370368888889,571.6999406932828 530.8641974074075,561.0082690843897 524.691357925926,550.3165974754966 530.8641974074075,539.6249258666035 524.691357925926,528.9332542577104 512.345678962963,528.9332542577104 500.00000000000006,528.9332542577104 506.17283948148156,539.6249258666035 518.5185184444446,539.6249258666035 512.3456789629631,550.3165974754966 500.00000000000017,550.3165974754966 493.82716051851867,539.6249258666035 481.4814815555557,539.6249258666035 469.13580259259277,539.6249258666035 475.30864207407427,550.3165974754966 487.6543210370372,550.3165974754966 481.4814815555557,561.0082690843897 469.13580259259277,561.0082690843897 462.96296311111126,571.6999406932828 469.13580259259277,582.3916123021759 475.30864207407427,593.083283911069 481.4814815555558,582.3916123021759 475.3086420740743,571.6999406932828 487.6543210370373,571.6999406932828 493.8271605185188,582.3916123021759 506.17283948148173,582.3916123021759 512.3456789629632,571.6999406932828 500.0000000000003,571.6999406932828 493.82716051851884,561.0082690843897 506.1728394814818,561.0082690843897 518.5185184444448,561.0082690843897 524.6913579259262,571.6999406932828 518.5185184444448,582.3916123021759 524.6913579259262,593.083283911069 530.8641974074077,582.3916123021759 543.2098763703707,582.3916123021759 537.0370368888892,593.083283911069 530.8641974074078,603.7749555199621 518.5185184444448,603.7749555199621 512.3456789629633,593.083283911069 500.0000000000004,593.083283911069 487.65432103703745,593.083283911069 493.82716051851895,603.7749555199621 506.1728394814819,603.7749555199621 500.0000000000004,614.4666271288552 487.65432103703745,614.4666271288552 481.48148155555594,603.7749555199621 469.135802592593,603.7749555199621 475.3086420740745,614.4666271288552 469.135802592593,625.1582987377483 462.9629631111115,614.4666271288552 456.79012362963,603.7749555199621 462.9629631111115,593.083283911069 456.79012362963,582.3916123021759 444.44444466666704,582.3916123021759 432.0987657037041,582.3916123021759 438.2716051851856,593.083283911069 450.61728414814854,593.083283911069 444.44444466666704,603.7749555199621 432.0987657037041,603.7749555199621 425.9259262222226,614.4666271288552 432.0987657037041,625.1582987377483 438.2716051851856,635.8499703466414 444.4444446666671,625.1582987377483 438.27160518518565,614.4666271288552 450.6172841481486,614.4666271288552 456.7901236296301,625.1582987377483 450.6172841481486,635.8499703466414 456.7901236296301,646.5416419555345 462.9629631111116,635.8499703466414 475.30864207407456,635.8499703466414 469.13580259259305,646.5416419555345 462.96296311111155,657.2333135644276 450.6172841481486,657.2333135644276 444.4444446666671,646.5416419555345 432.09876570370415,646.5416419555345 438.27160518518565,657.2333135644276 432.09876570370415,667.9249851733207 425.92592622222264,657.2333135644276 419.75308674074114,646.5416419555345 425.92592622222264,635.8499703466414 419.75308674074114,625.1582987377483 407.4074077777782,625.1582987377483 413.5802472592597,635.8499703466414 407.4074077777782,646.5416419555345 401.2345682962967,635.8499703466414 395.0617288148152,625.1582987377483 401.2345682962967,614.4666271288552 413.58024725925964,614.4666271288552 419.75308674074114,603.7749555199621 425.92592622222264,593.083283911069 413.5802472592597,593.083283911069 407.4074077777782,603.7749555199621 401.2345682962967,593.083283911069 407.4074077777782,582.3916123021759 419.75308674074114,582.3916123021759 425.92592622222264,571.6999406932828 413.5802472592597,571.6999406932828 407.4074077777782,561.0082690843897 419.75308674074114,561.0082690843897 432.0987657037041,561.0082690843897 438.2716051851856,571.6999406932828 450.61728414814854,571.6999406932828 456.79012362963005,561.0082690843897 462.96296311111155,550.3165974754966 450.6172841481486,550.3165974754966 444.4444446666671,561.0082690843897 438.2716051851856,550.3165974754966 444.4444446666671,539.6249258666035 438.2716051851856,528.9332542577104 425.92592622222264,528.9332542577104 413.5802472592597,528.9332542577104 419.7530867407412,539.6249258666035 432.09876570370415,539.6249258666035 425.92592622222264,550.3165974754966 413.5802472592597,550.3165974754966 407.4074077777782,539.6249258666035 395.06172881481524,539.6249258666035 401.23456829629674,550.3165974754966 395.06172881481524,561.0082690843897 388.88888933333374,550.3165974754966 382.71604985185223,539.6249258666035 388.88888933333374,528.9332542577104 401.2345682962967,528.9332542577104 407.4074077777782,518.2415826488173 395.06172881481524,518.2415826488173 388.88888933333374,507.5499110399242 401.2345682962967,507.5499110399242 413.58024725925964,507.5499110399242 419.75308674074114,518.2415826488173 432.0987657037041,518.2415826488173 438.2716051851856,507.5499110399242 425.92592622222264,507.5499110399242 419.75308674074114,496.85823943103117 432.0987657037041,496.85823943103117 444.44444466666704,496.85823943103117 450.61728414814854,507.5499110399242 444.44444466666704,518.2415826488173 450.61728414814854,528.9332542577104 456.79012362963005,539.6249258666035 462.96296311111155,528.9332542577104 456.79012362963005,518.2415826488173 469.135802592593,518.2415826488173 475.3086420740745,528.9332542577104 487.65432103703745,528.9332542577104 493.82716051851895,518.2415826488173 481.481481555556,518.2415826488173 475.3086420740745,507.5499110399242 487.65432103703745,507.5499110399242 500.0000000000004,507.5499110399242 506.1728394814819,518.2415826488173 518.5185184444449,518.2415826488173 524.6913579259264,507.5499110399242 530.8641974074078,496.85823943103117 518.5185184444448,496.85823943103117 512.3456789629633,507.5499110399242 506.17283948148184,496.85823943103117 512.3456789629633,486.1665678221381 506.17283948148184,475.4748962132451 493.8271605185189,475.4748962132451 481.48148155555594,475.4748962132451 487.65432103703745,486.1665678221381 500.0000000000004,486.1665678221381 493.8271605185189,496.85823943103117 481.48148155555594,496.85823943103117 475.30864207407444,486.1665678221381 462.9629631111115,486.1665678221381 469.135802592593,496.85823943103117 462.9629631111115,507.5499110399242 456.79012362963,496.85823943103117 450.6172841481485,486.1665678221381 456.79012362963,475.4748962132451 469.13580259259294,475.4748962132451 475.30864207407444,464.78322460435203 462.9629631111115,464.78322460435203 456.79012362963,454.091552995459 469.13580259259294,454.091552995459 481.4814815555559,454.091552995459 487.6543210370374,464.78322460435203 500.00000000000034,464.78322460435203 506.17283948148184,454.091552995459 493.8271605185189,454.091552995459 487.6543210370374,443.39988138656594 500.00000000000034,443.39988138656594 512.3456789629633,443.39988138656594 518.5185184444448,454.091552995459 512.3456789629633,464.78322460435203 518.5185184444448,475.4748962132451 524.6913579259262,486.1665678221381 530.8641974074077,475.4748962132451 524.6913579259262,464.78322460435203 537.0370368888892,464.78322460435203 543.2098763703707,475.4748962132451 537.0370368888892,486.1665678221381 543.2098763703707,496.85823943103117 549.3827158518521,486.1665678221381 561.7283948148151,486.1665678221381 555.5555553333337,496.85823943103117 549.3827158518523,507.5499110399242 537.0370368888892,507.5499110399242 530.8641974074078,518.2415826488173 537.0370368888892,528.9332542577104 543.2098763703707,539.6249258666035 549.3827158518521,528.9332542577104 543.2098763703707,518.2415826488173 555.5555553333337,518.2415826488173 561.7283948148151,528.9332542577104 555.5555553333337,539.6249258666035 561.7283948148151,550.3165974754966 567.9012342962966,561.0082690843897 574.074073777778,550.3165974754966 567.9012342962966,539.6249258666035 580.2469132592596,539.6249258666035 586.419752740741,550.3165974754966 598.765431703704,550.3165974754966 604.9382711851855,539.6249258666035 611.111110666667,528.9332542577104 598.7654317037039,528.9332542577104 592.5925922222225,539.6249258666035 586.419752740741,528.9332542577104 592.5925922222225,518.2415826488173 586.419752740741,507.5499110399242 574.074073777778,507.5499110399242 580.2469132592595,518.2415826488173 574.074073777778,528.9332542577104 567.9012342962966,518.2415826488173 561.7283948148151,507.5499110399242 567.9012342962966,496.85823943103117 580.2469132592596,496.85823943103117 586.419752740741,486.1665678221381 574.074073777778,486.1665678221381 567.9012342962966,475.4748962132451 580.2469132592596,475.4748962132451 592.5925922222226,475.4748962132451 598.765431703704,486.1665678221381 592.5925922222226,496.85823943103117 598.765431703704,507.5499110399242 604.9382711851855,518.2415826488173 611.111110666667,507.5499110399242 604.9382711851855,496.85823943103117 617.2839501481485,496.85823943103117 623.45678962963,507.5499110399242 635.802468592593,507.5499110399242 641.9753080740744,496.85823943103117 629.6296291111114,496.85823943103117 623.45678962963,486.1665678221381 635.802468592593,486.1665678221381 648.148147555556,486.1665678221381 654.3209870370374,496.85823943103117 666.6666660000004,496.85823943103117 672.8395054814819,486.1665678221381 679.0123449629633,475.4748962132451 666.6666660000003,475.4748962132451 660.4938265185189,486.1665678221381 654.3209870370374,475.4748962132451 660.4938265185189,464.78322460435203 654.3209870370374,454.091552995459 641.9753080740744,454.091552995459 629.6296291111114,454.091552995459 635.8024685925928,464.78322460435203 648.1481475555559,464.78322460435203 641.9753080740744,475.4748962132451 629.6296291111114,475.4748962132451 623.45678962963,464.78322460435203 611.111110666667,464.78322460435203 617.2839501481484,475.4748962132451 611.111110666667,486.1665678221381 604.9382711851855,475.4748962132451 598.765431703704,464.78322460435203 604.9382711851855,454.091552995459 617.2839501481485,454.091552995459 623.45678962963,443.39988138656594 611.111110666667,443.39988138656594 604.9382711851855,432.7082097776729 617.2839501481485,432.7082097776729 629.6296291111115,432.7082097776729 635.802468592593,443.39988138656594 648.148147555556,443.39988138656594 654.3209870370374,432.7082097776729 641.9753080740744,432.7082097776729 635.802468592593,422.01653816877985 648.148147555556,422.01653816877985 660.493826518519,422.01653816877985 666.6666660000004,432.7082097776729 660.493826518519,443.39988138656594 666.6666660000004,454.091552995459 672.8395054814819,464.78322460435203 679.0123449629633,454.091552995459 672.8395054814819,443.39988138656594 685.1851844444449,443.39988138656594 691.3580239259263,454.091552995459 703.7037028888893,454.091552995459 709.8765423703708,443.39988138656594 697.5308634074078,443.39988138656594 691.3580239259263,432.7082097776729 703.7037028888893,432.7082097776729 716.0493818518523,432.7082097776729 722.2222213333338,443.39988138656594 734.5679002962968,443.39988138656594 740.7407397777782,432.7082097776729 746.9135792592597,422.01653816877985 734.5679002962967,422.01653816877985 728.3950608148152,432.7082097776729 722.2222213333338,422.01653816877985 728.3950608148152,411.3248665598868 740.7407397777782,411.3248665598868 746.9135792592597,400.63319495099375 753.0864187407411,389.9415233421007 740.7407397777781,389.9415233421007 734.5679002962967,400.63319495099375 728.3950608148152,389.9415233421007 734.5679002962967,379.24985173320766 728.3950608148152,368.5581801243146 716.0493818518522,368.5581801243146 703.7037028888892,368.5581801243146 709.8765423703707,379.24985173320766 722.2222213333337,379.24985173320766 716.0493818518522,389.9415233421007 703.7037028888892,389.9415233421007 697.5308634074078,400.63319495099375 703.7037028888892,411.3248665598868 709.8765423703707,400.63319495099375 722.2222213333337,400.63319495099375 716.0493818518522,411.3248665598868 709.8765423703708,422.01653816877985 697.5308634074078,422.01653816877985 691.3580239259263,411.3248665598868 679.0123449629633,411.3248665598868 685.1851844444448,422.01653816877985 679.0123449629633,432.7082097776729 672.8395054814819,422.01653816877985 666.6666660000004,411.3248665598868 672.8395054814819,400.63319495099375 685.1851844444449,400.63319495099375 691.3580239259263,389.9415233421007 697.5308634074078,379.24985173320766 685.1851844444448,379.24985173320766 679.0123449629633,389.9415233421007 672.8395054814819,379.24985173320766 679.0123449629633,368.5581801243146 691.3580239259263,368.5581801243146 697.5308634074078,357.8665085154216 685.1851844444448,357.8665085154216 679.0123449629633,347.1748369065285 691.3580239259263,347.1748369065285 703.7037028888893,347.1748369065285 709.8765423703708,357.8665085154216 722.2222213333338,357.8665085154216 728.3950608148152,347.1748369065285 734.5679002962967,336.4831652976355 722.2222213333337,336.4831652976355 716.0493818518522,347.1748369065285 709.8765423703708,336.4831652976355 716.0493818518522,325.79149368874243 728.3950608148152,325.79149368874243 734.5679002962967,315.0998220798494 740.7407397777781,304.40815047095634 728.3950608148151,304.40815047095634 722.2222213333337,315.0998220798494 716.0493818518522,304.40815047095634 722.2222213333337,293.7164788620633 716.0493818518522,283.02480725317025 703.7037028888892,283.02480725317025 691.3580239259262,283.02480725317025 697.5308634074077,293.7164788620633 709.8765423703707,293.7164788620633 703.7037028888892,304.40815047095634 691.3580239259262,304.40815047095634 685.1851844444448,315.0998220798494 691.3580239259262,325.79149368874243 697.5308634074077,315.0998220798494 709.8765423703707,315.0998220798494 703.7037028888892,325.79149368874243 697.5308634074078,336.4831652976355 685.1851844444448,336.4831652976355 679.0123449629633,325.79149368874243 666.6666660000003,325.79149368874243 672.8395054814818,336.4831652976355 666.6666660000003,347.1748369065285 660.4938265185189,336.4831652976355 654.3209870370374,325.79149368874243 660.4938265185189,315.0998220798494 672.8395054814819,315.0998220798494 679.0123449629633,304.40815047095634 685.1851844444448,293.7164788620633 672.8395054814818,293.7164788620633 666.6666660000003,304.40815047095634 660.4938265185189,293.7164788620633 666.6666660000003,283.02480725317025 660.4938265185189,272.3331356442772 648.1481475555559,272.3331356442772 654.3209870370373,283.02480725317025 648.1481475555559,293.7164788620633 641.9753080740744,283.02480725317025 635.802468592593,272.3331356442772 641.9753080740744,261.64146403538416 635.802468592593,250.94979242649111 623.45678962963,250.94979242649111 611.111110666667,250.94979242649111 617.2839501481484,261.64146403538416 629.6296291111114,261.64146403538416 623.45678962963,272.3331356442772 611.111110666667,272.3331356442772 604.9382711851855,261.64146403538416 592.5925922222225,261.64146403538416 580.2469132592595,261.64146403538416 586.4197527407409,272.3331356442772 598.7654317037039,272.3331356442772 592.5925922222225,283.02480725317025 580.2469132592595,283.02480725317025 574.074073777778,293.7164788620633 580.2469132592595,304.40815047095634 586.4197527407409,315.0998220798494 592.5925922222224,304.40815047095634 586.4197527407409,293.7164788620633 598.7654317037039,293.7164788620633 604.9382711851854,304.40815047095634 617.2839501481484,304.40815047095634 623.4567896296298,293.7164788620633 611.1111106666668,293.7164788620633 604.9382711851854,283.02480725317025 617.2839501481484,283.02480725317025 629.6296291111114,283.02480725317025 635.8024685925928,293.7164788620633 629.6296291111114,304.40815047095634 635.8024685925928,315.0998220798494 641.9753080740743,304.40815047095634 654.3209870370373,304.40815047095634 648.1481475555559,315.0998220798494 641.9753080740744,325.79149368874243 629.6296291111114,325.79149368874243 623.45678962963,315.0998220798494 611.111110666667,315.0998220798494 598.7654317037039,315.0998220798494 604.9382711851854,325.79149368874243 617.2839501481484,325.79149368874243 611.111110666667,336.4831652976355 598.7654317037039,336.4831652976355 592.5925922222225,347.1748369065285 598.7654317037039,357.8665085154216 604.9382711851854,347.1748369065285 617.2839501481484,347.1748369065285 611.111110666667,357.8665085154216 604.9382711851855,368.5581801243146 592.5925922222225,368.5581801243146 586.419752740741,379.24985173320766 592.5925922222225,389.9415233421007 598.7654317037039,400.63319495099375 604.9382711851854,389.9415233421007 598.7654317037039,379.24985173320766 611.111110666667,379.24985173320766 617.2839501481484,389.9415233421007 629.6296291111114,389.9415233421007 635.8024685925928,379.24985173320766 641.9753080740743,368.5581801243146 629.6296291111113,368.5581801243146 623.4567896296298,379.24985173320766 617.2839501481484,368.5581801243146 623.4567896296298,357.8665085154216 635.8024685925928,357.8665085154216 641.9753080740743,347.1748369065285 629.6296291111113,347.1748369065285 623.4567896296298,336.4831652976355 635.8024685925928,336.4831652976355 648.1481475555559,336.4831652976355 654.3209870370373,347.1748369065285 648.1481475555559,357.8665085154216 654.3209870370373,368.5581801243146 660.4938265185187,357.8665085154216 672.8395054814818,357.8665085154216 666.6666660000003,368.5581801243146 660.4938265185189,379.24985173320766 648.1481475555559,379.24985173320766 641.9753080740744,389.9415233421007 648.1481475555559,400.63319495099375 654.3209870370373,389.9415233421007 666.6666660000003,389.9415233421007 660.4938265185189,400.63319495099375 654.3209870370374,411.3248665598868 641.9753080740744,411.3248665598868 635.802468592593,400.63319495099375 623.45678962963,400.63319495099375 611.111110666667,400.63319495099375 617.2839501481484,411.3248665598868 629.6296291111114,411.3248665598868 623.45678962963,422.01653816877985 611.111110666667,422.01653816877985 604.9382711851855,411.3248665598868 592.5925922222225,411.3248665598868 598.7654317037039,422.01653816877985 592.5925922222225,432.7082097776729 586.419752740741,422.01653816877985 580.2469132592596,411.3248665598868 586.419752740741,400.63319495099375 580.2469132592596,389.9415233421007 567.9012342962966,389.9415233421007 555.5555553333336,389.9415233421007 561.728394814815,400.63319495099375 574.074073777778,400.63319495099375 567.9012342962966,411.3248665598868 555.5555553333336,411.3248665598868 549.3827158518521,422.01653816877985 555.5555553333336,432.7082097776729 561.728394814815,443.39988138656594 567.9012342962965,432.7082097776729 561.728394814815,422.01653816877985 574.074073777778,422.01653816877985 580.2469132592595,432.7082097776729 574.074073777778,443.39988138656594 580.2469132592595,454.091552995459 586.4197527407409,443.39988138656594 598.7654317037039,443.39988138656594 592.5925922222225,454.091552995459 586.419752740741,464.78322460435203 574.074073777778,464.78322460435203 567.9012342962966,454.091552995459 555.5555553333336,454.091552995459 561.728394814815,464.78322460435203 555.5555553333336,475.4748962132451 549.3827158518521,464.78322460435203 543.2098763703707,454.091552995459 549.3827158518521,443.39988138656594 543.2098763703707,432.7082097776729 530.8641974074077,432.7082097776729 537.0370368888891,443.39988138656594 530.8641974074077,454.091552995459 524.6913579259262,443.39988138656594 518.5185184444448,432.7082097776729 524.6913579259262,422.01653816877985 537.0370368888892,422.01653816877985 543.2098763703707,411.3248665598868 549.3827158518521,400.63319495099375 537.0370368888891,400.63319495099375 530.8641974074077,411.3248665598868 524.6913579259262,400.63319495099375 530.8641974074077,389.9415233421007 543.2098763703707,389.9415233421007 549.3827158518521,379.24985173320766 537.0370368888891,379.24985173320766 530.8641974074077,368.5581801243146 543.2098763703707,368.5581801243146 555.5555553333337,368.5581801243146 561.7283948148151,379.24985173320766 574.0740737777782,379.24985173320766 580.2469132592596,368.5581801243146 586.419752740741,357.8665085154216 574.074073777778,357.8665085154216 567.9012342962966,368.5581801243146 561.7283948148151,357.8665085154216 567.9012342962966,347.1748369065285 580.2469132592596,347.1748369065285 586.419752740741,336.4831652976355 592.5925922222225,325.79149368874243 580.2469132592595,325.79149368874243 574.074073777778,336.4831652976355 567.9012342962966,325.79149368874243 574.074073777778,315.0998220798494 567.9012342962966,304.40815047095634 555.5555553333336,304.40815047095634 543.2098763703706,304.40815047095634 549.382715851852,315.0998220798494 561.728394814815,315.0998220798494 555.5555553333336,325.79149368874243 543.2098763703706,325.79149368874243 537.0370368888891,336.4831652976355 543.2098763703706,347.1748369065285 549.382715851852,336.4831652976355 561.728394814815,336.4831652976355 555.5555553333336,347.1748369065285 549.3827158518521,357.8665085154216 537.0370368888891,357.8665085154216 530.8641974074077,347.1748369065285 518.5185184444447,347.1748369065285 524.6913579259261,357.8665085154216 518.5185184444447,368.5581801243146 512.3456789629632,357.8665085154216 506.17283948148173,347.1748369065285 512.3456789629632,336.4831652976355 524.6913579259262,336.4831652976355 530.8641974074077,325.79149368874243 537.0370368888891,315.0998220798494 524.6913579259261,315.0998220798494 518.5185184444447,325.79149368874243 512.3456789629632,315.0998220798494 518.5185184444447,304.40815047095634 512.3456789629632,293.7164788620633 500.0000000000003,293.7164788620633 506.1728394814818,304.40815047095634 500.0000000000003,315.0998220798494 493.8271605185188,304.40815047095634 487.6543210370373,293.7164788620633 493.8271605185188,283.02480725317025 487.6543210370373,272.3331356442772 475.3086420740743,272.3331356442772 462.9629631111114,272.3331356442772 469.1358025925929,283.02480725317025 481.48148155555583,283.02480725317025 475.3086420740743,293.7164788620633 462.9629631111114,293.7164788620633 456.7901236296299,304.40815047095634 462.9629631111114,315.0998220798494 469.1358025925929,325.79149368874243 475.3086420740744,315.0998220798494 469.13580259259294,304.40815047095634 481.4814815555559,304.40815047095634 487.65432103703733,315.0998220798494 481.48148155555583,325.79149368874243 487.65432103703733,336.4831652976355 493.82716051851884,325.79149368874243 506.1728394814818,325.79149368874243 500.0000000000003,336.4831652976355 493.8271605185188,347.1748369065285 481.48148155555583,347.1748369065285 475.3086420740743,336.4831652976355 462.9629631111114,336.4831652976355 469.1358025925929,347.1748369065285 462.9629631111114,357.8665085154216 456.7901236296299,347.1748369065285 450.61728414814837,336.4831652976355 456.7901236296299,325.79149368874243 450.61728414814837,315.0998220798494 438.2716051851854,315.0998220798494 444.4444446666669,325.79149368874243 438.2716051851854,336.4831652976355 432.0987657037039,325.79149368874243 425.9259262222224,315.0998220798494 432.0987657037039,304.40815047095634 444.44444466666687,304.40815047095634 450.61728414814837,293.7164788620633 456.7901236296299,283.02480725317025 444.4444446666669,283.02480725317025 438.2716051851854,293.7164788620633 432.0987657037039,283.02480725317025 438.2716051851854,272.3331356442772 432.0987657037039,261.64146403538416 419.75308674074097,261.64146403538416 425.9259262222225,272.3331356442772 419.75308674074097,283.02480725317025 413.58024725925947,272.3331356442772 407.40740777777796,261.64146403538416 413.58024725925947,250.94979242649111 407.40740777777796,240.25812081759807 395.061728814815,240.25812081759807 382.71604985185206,240.25812081759807 388.88888933333357,250.94979242649114 401.2345682962965,250.94979242649114 395.061728814815,261.6414640353842 382.71604985185206,261.6414640353842 376.54321037037056,250.94979242649117 364.1975314074076,250.94979242649117 351.85185244444466,250.94979242649117 358.02469192592616,261.6414640353842 370.3703708888891,261.6414640353842 364.1975314074076,272.33313564427726 351.85185244444466,272.33313564427726 345.67901296296316,283.0248072531703 351.85185244444466,293.71647886206335 358.02469192592616,304.4081504709564 364.19753140740767,293.71647886206335 358.0246919259262,283.0248072531703 370.37037088888917,283.0248072531703 376.5432103703706,293.71647886206335 388.88888933333357,293.71647886206335 395.06172881481507,283.0248072531703 382.7160498518521,283.0248072531703 376.5432103703707,272.33313564427726 388.8888893333336,272.33313564427726 401.2345682962966,272.33313564427726 407.4074077777781,283.0248072531703 401.2345682962966,293.71647886206335 407.4074077777781,304.4081504709564 413.5802472592596,293.71647886206335 425.92592622222253,293.71647886206335 419.753086740741,304.4081504709564 413.5802472592595,315.09982207984945 401.2345682962966,315.09982207984945 395.06172881481507,304.4081504709564 382.7160498518521,304.4081504709564 370.37037088888917,304.4081504709564 376.5432103703707,315.09982207984945 388.8888893333336,315.09982207984945 382.7160498518521,325.7914936887425 370.37037088888917,325.7914936887425 364.19753140740767,315.09982207984945 351.8518524444447,315.09982207984945 358.0246919259262,325.7914936887425 351.8518524444447,336.48316529763554 345.6790129629632,325.7914936887425 339.5061734814817,315.09982207984945 345.6790129629632,304.4081504709564 339.5061734814817,293.71647886206335 327.16049451851876,293.71647886206335 314.8148155555558,293.71647886206335 320.9876550370373,304.4081504709564 333.33333400000026,304.4081504709564 327.16049451851876,315.09982207984945 314.8148155555558,315.09982207984945 308.6419760740743,304.4081504709564 296.29629711111136,304.4081504709564 283.9506181481484,304.4081504709564 290.1234576296299,315.09982207984945 302.46913659259286,315.09982207984945 296.29629711111136,325.7914936887425 283.9506181481484,325.7914936887425 277.7777786666669,336.48316529763554 283.9506181481484,347.1748369065286 290.1234576296299,357.86650851542163 296.2962971111114,347.1748369065286 290.12345762962997,336.48316529763554 302.4691365925929,336.48316529763554 308.64197607407436,347.1748369065286 320.9876550370373,347.1748369065286 327.1604945185188,336.48316529763554 314.81481555555587,336.48316529763554 308.6419760740744,325.7914936887425 320.98765503703737,325.7914936887425 333.3333340000003,325.7914936887425 339.5061734814818,336.48316529763554 333.3333340000003,347.1748369065286 339.5061734814818,357.86650851542163 345.6790129629633,347.1748369065286 358.0246919259263,347.1748369065286 351.8518524444448,357.86650851542163 345.67901296296327,368.5581801243147 333.3333340000003,368.5581801243147 327.1604945185188,357.86650851542163 314.81481555555587,357.86650851542163 302.4691365925929,357.86650851542163 308.6419760740744,368.5581801243147 320.98765503703737,368.5581801243147 314.81481555555587,379.2498517332077 302.4691365925929,379.2498517332077 296.2962971111114,389.94152334210077 302.4691365925929,400.6331949509938 308.6419760740744,389.94152334210077 320.98765503703737,389.94152334210077 314.81481555555587,400.6331949509938 308.64197607407436,411.32486655988686 296.2962971111114,411.32486655988686 290.1234576296299,422.0165381687799 296.2962971111114,432.70820977767295 302.4691365925929,443.399881386566 308.6419760740744,432.70820977767295 302.469136592593,422.0165381687799 314.8148155555559,422.0165381687799 320.98765503703737,432.70820977767295 314.81481555555587,443.399881386566 320.98765503703737,454.09155299545904 327.1604945185189,464.7832246043521 333.3333340000004,454.09155299545904 327.16049451851893,443.399881386566 339.5061734814819,443.399881386566 345.6790129629634,454.09155299545904 358.02469192592633,454.09155299545904 364.19753140740784,443.399881386566 370.37037088888934,432.70820977767295 358.0246919259264,432.70820977767295 351.8518524444449,443.399881386566 345.67901296296344,432.70820977767295 351.85185244444494,422.0165381687799 345.6790129629635,411.32486655988686 333.33333400000055,411.32486655988686 339.506173481482,422.0165381687799 333.3333340000005,432.70820977767295 327.16049451851904,422.0165381687799 320.9876550370376,411.32486655988686 327.1604945185191,400.6331949509938 339.50617348148205,400.6331949509938 345.67901296296355,389.94152334210077 333.3333340000006,389.94152334210077 327.16049451851916,379.2498517332077 339.5061734814821,379.2498517332077 351.85185244444506,379.2498517332077 358.0246919259265,389.94152334210077 351.851852444445,400.6331949509938 358.02469192592645,411.32486655988686 364.1975314074079,422.0165381687799 370.3703708888894,411.32486655988686 364.19753140740795,400.6331949509938 376.5432103703709,400.6331949509938 382.71604985185235,411.32486655988686 395.0617288148153,411.32486655988686 401.2345682962968,400.6331949509938 388.88888933333385,400.6331949509938 382.7160498518524,389.94152334210077 395.06172881481535,389.94152334210077 407.4074077777783,389.94152334210077 413.58024725925975,400.6331949509938 425.9259262222227,400.6331949509938 432.0987657037042,389.94152334210077 438.2716051851857,379.2498517332077 425.92592622222276,379.2498517332077 419.75308674074125,389.94152334210077 413.5802472592598,379.2498517332077 419.7530867407413,368.5581801243147 413.58024725925986,357.86650851542163 401.2345682962969,357.86650851542163 388.88888933333396,357.86650851542163 395.0617288148154,368.5581801243147 407.40740777777836,368.55818012431473 401.23456829629686,379.2498517332078 388.8888893333339,379.2498517332078 382.71604985185246,368.55818012431473 370.3703708888895,368.55818012431473 376.54321037037096,379.2498517332078 370.37037088888945,389.9415233421008 364.197531407408,379.2498517332078 358.02469192592656,368.55818012431473 364.19753140740806,357.8665085154217 376.543210370371,357.8665085154217 382.7160498518525,347.17483690652864 370.37037088888957,347.17483690652864 364.1975314074081,336.4831652976356 376.54321037037107,336.4831652976356 388.888889333334,336.4831652976356 395.06172881481547,347.17483690652864 407.4074077777784,347.17483690652864 413.5802472592599,336.4831652976356 401.23456829629697,336.4831652976356 395.0617288148155,325.79149368874255 407.4074077777785,325.79149368874255 419.7530867407414,325.79149368874255 425.92592622222287,336.4831652976356 419.75308674074137,347.17483690652864 425.9259262222228,357.8665085154217 432.09876570370426,368.55818012431473 438.27160518518576,357.8665085154217 432.0987657037043,347.17483690652864 444.44444466666727,347.17483690652864 450.6172841481487,357.8665085154217 444.4444446666672,368.55818012431473 450.61728414814866,379.2498517332078 456.79012362963016,368.55818012431473 469.1358025925931,368.55818012431473 462.9629631111116,379.2498517332078 456.7901236296301,389.9415233421008 444.44444466666715,389.9415233421008 438.27160518518565,400.63319495099387 444.4444446666671,411.3248665598869 450.61728414814854,422.01653816877996 456.79012362963005,411.3248665598869 450.6172841481486,400.63319495099387 462.96296311111155,400.63319495099387 469.135802592593,411.3248665598869 481.48148155555594,411.3248665598869 487.65432103703745,400.63319495099387 493.82716051851895,389.9415233421008 481.481481555556,389.9415233421008 475.3086420740745,400.63319495099387 469.13580259259305,389.9415233421008 475.30864207407456,379.2498517332078 487.6543210370375,379.2498517332078 493.827160518519,368.55818012431473 481.48148155555606,368.55818012431473 475.3086420740746,357.8665085154217 487.65432103703756,357.8665085154217 500.0000000000005,357.8665085154217 506.17283948148196,368.55818012431473 500.00000000000045,379.2498517332078 506.1728394814819,389.9415233421008 512.3456789629635,379.2498517332078 524.6913579259265,379.2498517332078 518.518518444445,389.9415233421008 512.3456789629636,400.63319495099387 500.0000000000006,400.63319495099387 493.8271605185191,411.3248665598869 500.00000000000057,422.01653816877996 506.1728394814821,411.3248665598869 518.518518444445,411.3248665598869 512.3456789629636,422.01653816877996 506.1728394814821,432.708209777673 493.8271605185191,432.708209777673 487.6543210370377,422.01653816877996 475.3086420740747,422.01653816877996 462.9629631111118,422.01653816877996 469.1358025925932,432.708209777673 481.4814815555562,432.708209777673 475.30864207407467,443.39988138656605 462.9629631111117,443.39988138656605 456.7901236296302,432.708209777673 444.44444466666727,432.708209777673 450.6172841481487,443.39988138656605 444.4444446666672,454.0915529954591 438.27160518518576,443.39988138656605 432.0987657037043,432.708209777673 438.2716051851858,422.01653816877996 432.0987657037043,411.3248665598869 419.75308674074137,411.3248665598869 407.4074077777784,411.3248665598869 413.58024725925986,422.01653816878 425.92592622222287,422.01653816878 419.75308674074137,432.70820977767306 407.40740777777836,432.70820977767306 401.23456829629686,422.01653816878 388.88888933333385,422.01653816878 376.54321037037084,422.01653816878 382.7160498518523,432.7082097776731 395.0617288148153,432.7082097776731 388.8888893333338,443.39988138656616 376.5432103703708,443.39988138656616 370.3703708888893,454.0915529954592 376.54321037037073,464.7832246043523 382.7160498518522,475.4748962132454 388.8888893333337,464.78322460435237 382.71604985185223,454.09155299545927 395.06172881481524,454.09155299545927 401.23456829629674,464.78322460435237 413.58024725925975,464.78322460435237 419.75308674074125,454.0915529954593 407.40740777777825,454.0915529954593 401.2345682962968,443.3998813865662 413.5802472592598,443.3998813865662 425.9259262222228,443.3998813865662 432.0987657037043,454.0915529954593 425.9259262222228,464.78322460435237 432.0987657037043,475.4748962132455 438.2716051851858,464.7832246043524 450.6172841481488,464.7832246043524 444.4444446666673,475.4748962132455 438.2716051851858,486.1665678221385 425.9259262222228,486.1665678221385 419.7530867407413,475.4748962132454 407.4074077777783,475.4748962132454 395.0617288148153,475.4748962132454 401.2345682962968,486.1665678221385 413.5802472592598,486.1665678221385 407.4074077777783,496.85823943103156 395.0617288148153,496.85823943103156 388.8888893333338,486.16656782213846 376.5432103703708,486.16656782213846 382.7160498518523,496.85823943103156 376.5432103703708,507.5499110399246 370.3703708888893,496.8582394310315 364.1975314074078,486.1665678221384 370.3703708888893,475.47489621324536 364.1975314074078,464.78322460435226 351.8518524444448,464.78322460435226 339.50617348148177,464.78322460435226 345.67901296296327,475.47489621324536 358.0246919259263,475.47489621324536 351.8518524444448,486.1665678221384 339.50617348148177,486.1665678221384 333.33333400000026,496.85823943103145 339.50617348148177,507.54991103992455 345.67901296296327,518.2415826488176 351.8518524444448,507.54991103992455 345.67901296296327,496.85823943103145 358.0246919259263,496.85823943103145 364.1975314074078,507.54991103992455 358.0246919259263,518.2415826488176 364.1975314074078,528.9332542577107 370.3703708888893,518.2415826488176 382.7160498518523,518.2415826488176 376.5432103703708,528.9332542577107 370.3703708888893,539.6249258666038 358.0246919259263,539.6249258666038 351.8518524444448,528.9332542577107 339.50617348148177,528.9332542577107 345.67901296296327,539.6249258666038 339.50617348148177,550.3165974754969 333.33333400000026,539.6249258666038 327.16049451851876,528.9332542577107 333.33333400000026,518.2415826488176 327.16049451851876,507.5499110399245 314.81481555555575,507.5499110399245 320.98765503703726,518.2415826488176 314.81481555555575,528.9332542577107 308.64197607407425,518.2415826488176 302.46913659259275,507.5499110399245 308.64197607407425,496.8582394310314 320.98765503703726,496.8582394310314 327.16049451851876,486.1665678221383 333.33333400000026,475.4748962132452 320.98765503703726,475.4748962132452 314.81481555555575,486.1665678221383 308.64197607407425,475.4748962132452 314.81481555555575,464.7832246043521 308.64197607407425,454.091552995459 296.29629711111124,454.091552995459 302.46913659259275,464.7832246043521 296.29629711111124,475.4748962132452 290.12345762962974,464.7832246043521 283.95061814814824,454.091552995459 290.12345762962974,443.3998813865659 283.95061814814824,432.7082097776728 271.60493918518523,432.7082097776728 259.2592602222222,432.7082097776728 265.4320997037037,443.3998813865659 277.77777866666673,443.39988138656594 271.60493918518523,454.09155299545904 259.2592602222222,454.09155299545904 253.08642074074075,443.39988138656594 240.74074177777774,443.39988138656594 228.39506281481474,443.39988138656594 234.5679022962962,454.09155299545904 246.91358125925922,454.0915529954591 240.74074177777769,464.7832246043522 228.39506281481468,464.7832246043522 222.22222333333315,475.4748962132453 228.39506281481462,486.1665678221384 234.5679022962961,496.8582394310315 240.74074177777763,486.1665678221384 234.56790229629615,475.4748962132453 246.91358125925916,475.47489621324536 253.08642074074064,486.16656782213846 265.43209970370367,486.1665678221385 271.60493918518523,475.4748962132454 259.2592602222222,475.47489621324536 253.08642074074075,464.78322460435226 265.4320997037038,464.7832246043523 277.7777786666668,464.78322460435237 283.9506181481483,475.4748962132455 277.77777866666673,486.1665678221386 283.95061814814824,496.8582394310317 290.1234576296298,486.1665678221386 302.4691365925928,486.16656782213863 296.29629711111124,496.85823943103173 290.1234576296297,507.54991103992484 277.7777786666667,507.54991103992484 271.6049391851852,496.85823943103173 259.25926022222217,496.85823943103173 246.91358125925916,496.85823943103173 253.08642074074064,507.54991103992484 265.43209970370367,507.5499110399249 259.2592602222221,518.2415826488179 246.9135812592591,518.2415826488179 240.74074177777757,528.933254257711 246.91358125925905,539.6249258666041 253.08642074074058,528.933254257711 265.4320997037036,528.933254257711 259.25926022222205,539.6249258666041 253.08642074074052,550.3165974754972 240.74074177777752,550.3165974754972 234.56790229629598,561.0082690843903 240.74074177777746,571.6999406932835 246.91358125925893,582.3916123021766 253.08642074074046,571.6999406932835 246.913581259259,561.0082690843903 259.259260222222,561.0082690843903 265.4320997037035,571.6999406932835 259.25926022222194,582.3916123021766 265.43209970370344,593.0832839110697 271.60493918518495,603.7749555199628 277.7777786666665,593.0832839110697 271.604939185185,582.3916123021766 283.950618148148,582.3916123021766 290.1234576296295,593.0832839110697 302.4691365925925,593.0832839110697 308.6419760740741,582.3916123021766 314.81481555555564,571.6999406932835 302.46913659259263,571.6999406932835 296.2962971111111,582.3916123021766 290.12345762962957,571.6999406932835 296.29629711111113,561.0082690843903 290.1234576296296,550.3165974754972 277.7777786666666,550.3165974754972 283.9506181481481,561.0082690843903 277.77777866666656,571.6999406932835 271.60493918518506,561.0082690843903 265.43209970370356,550.3165974754972 271.6049391851851,539.6249258666041 283.9506181481481,539.6249258666041 290.1234576296297,528.933254257711 277.7777786666667,528.933254257711 271.6049391851852,518.2415826488179 283.9506181481482,518.2415826488179 296.2962971111112,518.2415826488179 302.4691365925927,528.933254257711 296.29629711111113,539.6249258666041 302.46913659259263,550.3165974754972 308.64197607407414,561.0082690843903 314.8148155555557,550.3165974754972 308.6419760740742,539.6249258666041 320.9876550370372,539.6249258666041 327.1604945185187,550.3165974754972 320.98765503703714,561.0082690843903 327.16049451851865,571.6999406932835 333.3333340000002,561.0082690843903 345.6790129629632,561.0082690843903 339.50617348148165,571.6999406932835 333.3333340000001,582.3916123021766 320.9876550370371,582.3916123021766 314.8148155555555,593.0832839110697 320.98765503703703,603.7749555199628 327.16049451851853,614.4666271288559 333.3333340000001,603.7749555199628 327.1604945185186,593.0832839110697 339.5061734814816,593.0832839110697 345.6790129629631,603.7749555199628 358.0246919259261,603.7749555199628 364.19753140740767,593.0832839110697 370.3703708888892,582.3916123021766 358.0246919259262,582.3916123021766 351.85185244444466,593.0832839110697 345.67901296296316,582.3916123021766 351.8518524444447,571.6999406932835 364.1975314074077,571.6999406932835 370.3703708888893,561.0082690843903 358.0246919259263,561.0082690843903 351.8518524444448,550.3165974754972 364.1975314074078,550.3165974754972 376.5432103703708,550.3165974754972 382.7160498518523,561.0082690843903 376.54321037037073,571.6999406932835 382.71604985185223,582.3916123021766 388.8888893333338,571.6999406932835 401.2345682962968,571.6999406932835 395.06172881481524,582.3916123021766 388.8888893333337,593.0832839110697 376.5432103703707,593.0832839110697 370.3703708888891,603.7749555199628 376.5432103703706,614.4666271288559 382.7160498518522,603.7749555199628 395.0617288148152,603.7749555199628 388.8888893333336,614.4666271288559 382.71604985185206,625.158298737749 370.37037088888906,625.158298737749 364.19753140740755,614.4666271288559 351.85185244444455,614.4666271288559 339.50617348148154,614.4666271288559 345.67901296296304,625.158298737749 358.02469192592605,625.158298737749 351.8518524444445,635.8499703466421 339.5061734814815,635.8499703466421 333.333334,625.158298737749 320.987655037037,625.158298737749 327.1604945185185,635.8499703466421 320.9876550370369,646.5416419555352 314.8148155555554,635.8499703466421 308.6419760740739,625.158298737749 314.8148155555554,614.4666271288559 308.6419760740739,603.7749555199628 296.2962971111109,603.7749555199628 283.9506181481479,603.7749555199628 290.1234576296294,614.4666271288559 302.4691365925924,614.4666271288559 296.29629711111085,625.158298737749 283.95061814814784,625.158298737749 277.7777786666663,635.8499703466421 283.9506181481478,646.5416419555352 290.1234576296293,657.2333135644283 296.29629711111085,646.5416419555352 290.12345762962934,635.8499703466421 302.46913659259235,635.8499703466421 308.64197607407385,646.5416419555352 302.4691365925923,657.2333135644283 308.6419760740738,667.9249851733214 314.81481555555536,657.2333135644283 327.16049451851836,657.2333135644283 320.9876550370368,667.9249851733214 314.81481555555524,678.6166567822145 302.46913659259224,678.6166567822145 296.29629711111073,667.9249851733214 283.9506181481477,667.9249851733214 290.12345762962923,678.6166567822145 283.95061814814767,689.3083283911076 277.77777866666617,678.6166567822145 271.60493918518466,667.9249851733214 277.7777786666662,657.2333135644283 271.6049391851847,646.5416419555352 259.2592602222217,646.5416419555352 265.4320997037032,657.2333135644283 259.25926022222166,667.9249851733214 253.08642074074018,657.2333135644283 246.9135812592587,646.5416419555352 253.08642074074024,635.8499703466421 265.4320997037033,635.8499703466421 271.60493918518483,625.158298737749 277.7777786666664,614.4666271288559 265.4320997037034,614.4666271288559 259.2592602222218,625.158298737749 253.08642074074035,614.4666271288559 259.2592602222219,603.7749555199628 253.0864207407404,593.0832839110697 240.74074177777737,593.0832839110697 246.91358125925885,603.7749555199628 240.74074177777732,614.4666271288559 234.56790229629584,603.7749555199628 228.39506281481437,593.0832839110697 234.5679022962959,582.3916123021766 228.39506281481442,571.6999406932835 216.0493838518514,571.6999406932835 203.70370488888835,571.6999406932835 209.87654437036983,582.3916123021766 222.22222333333286,582.3916123021766 216.04938385185133,593.0832839110697 203.7037048888883,593.0832839110697 197.53086540740676,603.7749555199628 203.70370488888824,614.4666271288559 209.87654437036971,625.158298737749 216.04938385185125,614.4666271288559 209.87654437036977,603.7749555199628 222.2222233333328,603.7749555199628 228.39506281481428,614.4666271288559 222.22222333333275,625.158298737749 228.39506281481422,635.8499703466421 234.56790229629576,625.158298737749 246.9135812592588,625.158298737749 240.74074177777726,635.8499703466421 234.56790229629573,646.5416419555352 222.2222233333327,646.5416419555352 216.04938385185122,635.8499703466421 203.70370488888818,635.8499703466421 209.87654437036966,646.5416419555352 203.70370488888813,657.2333135644283 197.53086540740665,646.5416419555352 191.35802592592518,635.8499703466421 197.5308654074067,625.158298737749 191.35802592592523,614.4666271288559 179.0123469629622,614.4666271288559 185.18518644444367,625.158298737749 179.01234696296214,635.8499703466421 172.83950748148067,625.158298737749 166.6666679999992,614.4666271288559 172.83950748148072,603.7749555199628 185.18518644444376,603.7749555199628 191.3580259259253,593.0832839110697 197.53086540740682,582.3916123021766 185.1851864444438,582.3916123021766 179.01234696296225,593.0832839110697 172.83950748148078,582.3916123021766 179.0123469629623,571.6999406932835 191.35802592592535,571.6999406932835 197.53086540740688,561.0082690843903 185.18518644444384,561.0082690843903 179.01234696296237,550.3165974754972 191.3580259259254,550.3165974754972 203.70370488888844,550.3165974754972 209.87654437036994,561.0082690843903 222.22222333333298,561.0082690843903 228.3950628148145,550.3165974754972 234.56790229629604,539.6249258666041 222.222223333333,539.6249258666041 216.04938385185147,550.3165974754972 209.87654437037,539.6249258666041 216.04938385185153,528.933254257711 228.39506281481457,528.933254257711 234.5679022962961,518.2415826488179 240.74074177777763,507.54991103992484 228.3950628148146,507.54991103992484 222.22222333333306,518.2415826488179 216.0493838518516,507.54991103992484 222.22222333333312,496.85823943103173 216.04938385185164,486.16656782213863 203.7037048888886,486.16656782213863 191.35802592592557,486.16656782213863 197.53086540740705,496.85823943103173 209.87654437037008,496.8582394310318 203.70370488888855,507.5499110399249 191.35802592592552,507.5499110399249 185.18518644444399,518.2415826488179 191.35802592592546,528.933254257711 197.530865407407,518.2415826488179 209.87654437037003,518.2415826488179 203.7037048888885,528.933254257711 197.53086540740696,539.6249258666041 185.18518644444393,539.6249258666041 179.01234696296245,528.933254257711 166.66666799999942,528.933254257711 172.8395074814809,539.6249258666041 166.66666799999936,550.3165974754972 160.4938285185179,539.6249258666041 154.3209890370364,528.933254257711 160.49382851851794,518.2415826488179 172.83950748148098,518.2415826488179 179.0123469629625,507.54991103992484 185.18518644444404,496.85823943103173 172.839507481481,496.85823943103173 166.66666799999948,507.54991103992484 160.493828518518,496.85823943103173 166.66666799999953,486.16656782213863 179.01234696296257,486.16656782213863 185.1851864444441,475.47489621324553 172.83950748148106,475.47489621324553 166.6666679999996,464.7832246043524 179.01234696296262,464.7832246043524 191.35802592592566,464.7832246043524 197.53086540740716,475.47489621324553 209.8765443703702,475.47489621324553 216.04938385185173,464.7832246043524 222.22222333333326,454.0915529954593 209.87654437037023,454.0915529954593 203.7037048888887,464.7832246043524 197.53086540740722,454.0915529954593 203.70370488888875,443.3998813865662 197.53086540740728,432.7082097776731 185.18518644444424,432.7082097776731 172.8395074814812,432.7082097776731 179.01234696296268,443.3998813865662 191.35802592592572,443.3998813865663 185.18518644444418,454.0915529954594 172.83950748148115,454.0915529954594 166.66666799999967,443.3998813865663 154.32098903703664,443.3998813865663 160.49382851851811,454.0915529954594 154.32098903703658,464.7832246043525 148.1481495555551,454.0915529954594 141.97531007407363,443.3998813865663 148.14814955555516,432.7082097776732 160.4938285185182,432.7082097776732 166.66666799999973,422.0165381687801 154.3209890370367,422.0165381687801 148.14814955555522,411.32486655988697 160.49382851851826,411.32486655988697 172.8395074814813,411.32486655988697 179.0123469629628,422.0165381687801 191.35802592592583,422.0165381687801 197.53086540740736,411.32486655988697 185.18518644444433,411.32486655988697 179.01234696296285,400.63319495099387 191.3580259259259,400.63319495099387 203.70370488888892,400.63319495099387 209.87654437037042,411.32486655988697 203.7037048888889,422.0165381687801 209.8765443703704,432.7082097776732 216.0493838518519,443.3998813865663 222.22222333333343,432.7082097776732 216.04938385185196,422.0165381687801 228.395062814815,422.0165381687801 234.5679022962965,432.7082097776732 246.91358125925953,432.7082097776732 253.08642074074106,422.0165381687801 240.74074177777803,422.0165381687801 234.56790229629655,411.32486655988697 246.9135812592596,411.32486655988697 259.2592602222226,411.32486655988697 265.4320997037041,422.0165381687801 277.77777866666713,422.0165381687801 283.9506181481487,411.32486655988697 290.12345762963025,400.63319495099387 277.77777866666725,400.63319495099387 271.6049391851857,411.32486655988697 265.4320997037042,400.63319495099387 271.60493918518574,389.94152334210077 283.95061814814875,389.94152334210077 290.1234576296303,379.24985173320766 296.29629711111187,368.55818012431456 283.95061814814886,368.55818012431456 277.7777786666673,379.24985173320766 271.6049391851858,368.55818012431456 277.77777866666736,357.86650851542146 271.60493918518586,347.17483690652836 259.25926022222285,347.17483690652836 246.91358125925981,347.17483690652836 253.0864207407413,357.86650851542146 265.4320997037043,357.8665085154215 259.25926022222274,368.5581801243146 246.9135812592597,368.5581801243146 240.74074177777817,379.2498517332077 246.91358125925964,389.9415233421008 253.08642074074118,379.2498517332077 265.4320997037042,379.2498517332078 259.2592602222226,389.9415233421009 253.0864207407411,400.633194950994 240.74074177777806,400.633194950994 234.56790229629658,389.9415233421009 222.22222333333355,389.9415233421009 228.39506281481502,400.633194950994 222.2222233333335,411.3248665598871 216.049383851852,400.633194950994 209.87654437037054,389.9415233421009 216.04938385185207,379.2498517332078 228.3950628148151,379.2498517332078 234.56790229629664,368.5581801243147 240.74074177777817,357.8665085154216 228.39506281481513,357.8665085154216 222.2222233333336,368.5581801243147 216.04938385185213,357.8665085154216 222.22222333333366,347.17483690652847 216.04938385185218,336.48316529763537 203.70370488888915,336.48316529763537 209.87654437037062,347.17483690652847 203.7037048888891,357.8665085154216 197.53086540740762,347.17483690652847 191.35802592592614,336.48316529763537 197.53086540740767,325.79149368874226 191.3580259259262,315.09982207984916 179.01234696296316,315.09982207984916 166.66666800000013,315.09982207984916 172.8395074814816,325.79149368874226 185.18518644444464,325.7914936887423 179.0123469629631,336.4831652976354 166.66666800000007,336.4831652976354 160.4938285185186,325.7914936887423 148.14814955555556,325.7914936887423 135.80247059259253,325.7914936887423 141.975310074074,336.4831652976354 154.32098903703704,336.4831652976355 148.1481495555555,347.1748369065286 135.80247059259247,347.1748369065286 129.62963111111094,357.8665085154217 135.8024705925924,368.5581801243148 141.9753100740739,379.2498517332079 148.14814955555542,368.5581801243148 141.97531007407395,357.8665085154217 154.32098903703698,357.86650851542174 160.49382851851846,368.55818012431484 172.8395074814815,368.5581801243149 179.01234696296302,357.8665085154218 166.666668,357.86650851542174 160.4938285185185,347.17483690652864 172.83950748148155,347.1748369065287 185.18518644444458,347.17483690652875 191.35802592592606,357.86650851542186 185.18518644444453,368.55818012431496 191.358025925926,379.24985173320806 197.53086540740753,368.55818012431496 209.87654437037057,368.558180124315 203.70370488888904,379.2498517332081 197.5308654074075,389.9415233421012 185.18518644444447,389.94152334210116 179.012346962963,379.24985173320806 166.66666799999996,379.249851733208 154.32098903703692,379.24985173320795 160.4938285185184,389.94152334210105 172.83950748148143,389.9415233421011 166.6666679999999,400.6331949509942 154.32098903703687,400.63319495099415 148.1481495555554,389.94152334210105 135.80247059259236,389.941523342101 141.97531007407383,400.6331949509941 135.8024705925923,411.3248665598872 129.62963111111083,400.6331949509941 123.45679162962934,389.941523342101 129.62963111111088,379.2498517332079 123.4567916296294,368.5581801243148 111.11111266666637,368.55818012431473 98.76543370370334,368.5581801243147 104.93827318518483,379.2498517332078 117.28395214814785,379.24985173320783 111.1111126666663,389.94152334210094 98.76543370370328,389.9415233421009 92.59259422222173,400.633194950994 98.76543370370322,411.3248665598871 104.93827318518471,422.0165381687802 111.11111266666626,411.3248665598871 104.93827318518478,400.633194950994 117.28395214814782,400.63319495099404 123.45679162962931,411.32486655988714 117.28395214814776,422.01653816878024 123.45679162962925,432.70820977767335 129.6296311111108,422.01653816878024 141.97531007407383,422.0165381687803 135.80247059259227,432.7082097776734 129.6296311111107,443.3998813865665 117.28395214814768,443.39988138656645 111.11111266666619,432.70820977767335 98.76543370370315,432.7082097776733 104.93827318518464,443.3998813865664 98.7654337037031,454.0915529954595 92.5925942222216,443.3998813865664 86.41975474074012,432.7082097776733 92.59259422222166,422.0165381687802 86.41975474074017,411.3248665598871 74.07407577777714,411.324866559887 80.24691525925863,422.01653816878013 74.07407577777708,432.70820977767323 67.9012362962956,422.01653816878013 61.728396814814104,411.324866559887 67.90123629629565,400.6331949509939 80.24691525925869,400.633194950994 86.41975474074023,389.9415233421009 92.59259422222178,379.2498517332078 80.24691525925874,379.2498517332077 74.0740757777772,389.9415233421008 67.9012362962957,379.2498517332077 74.07407577777725,368.5581801243146 86.41975474074029,368.5581801243147 92.59259422222183,357.8665085154216 80.2469152592588,357.8665085154215 74.07407577777731,347.17483690652836 86.41975474074034,347.1748369065284 98.76543370370338,347.17483690652847 104.93827318518487,357.86650851542163 117.2839521481479,357.8665085154217 123.45679162962945,347.1748369065286 129.629631111111,336.4831652976355 117.28395214814796,336.4831652976354 111.1111126666664,347.1748369065285 104.93827318518491,336.48316529763537 111.11111266666646,325.79149368874226 104.93827318518497,315.0998220798491 92.59259422222193,315.09982207984905 80.2469152592589,315.099822079849 86.41975474074039,325.79149368874215 98.76543370370342,325.7914936887422 92.59259422222186,336.4831652976353 80.24691525925883,336.48316529763525 74.07407577777734,325.7914936887421 61.728396814814296,325.79149368874204 67.90123629629578,336.4831652976352 61.728396814814225,347.1748369065283 55.555557333332736,336.48316529763514 49.38271785185125,325.791493688742 55.55555733333279,315.0998220798489 67.90123629629583,315.09982207984893 74.07407577777738,304.40815047095583 61.72839681481434,304.4081504709558 55.55555733333285,293.7164788620626 67.90123629629589,293.7164788620627 80.24691525925893,293.71647886206273 86.41975474074042,304.4081504709559 98.76543370370345,304.40815047095595 104.938273185185,293.71647886206284 92.59259422222196,293.7164788620628 86.41975474074047,283.0248072531696 98.76543370370351,283.0248072531697 111.11111266666654,283.02480725316974 117.28395214814803,293.7164788620629 111.11111266666649,304.408150470956 117.28395214814799,315.0998220798491 123.45679162962949,325.7914936887422 129.62963111111105,315.0998220798491 123.45679162962956,304.40815047095595 135.8024705925926,304.408150470956 141.97531007407412,315.0998220798491 154.32098903703715,315.09982207984916 160.4938285185187,304.40815047095606 148.14814955555568,304.408150470956 141.97531007407417,293.71647886206284 154.3209890370372,293.7164788620629 166.66666800000024,293.71647886206296 172.83950748148175,304.4081504709561 185.18518644444478,304.4081504709562 191.35802592592634,293.71647886206307 197.5308654074079,283.02480725316997 185.18518644444487,283.0248072531699 179.0123469629633,293.716478862063 172.8395074814818,283.02480725316985 179.01234696296336,272.33313564427675 172.83950748148186,261.6414640353836 160.49382851851882,261.64146403538354 148.1481495555558,261.6414640353835 154.32098903703726,272.33313564427664 166.6666680000003,272.3331356442767 160.49382851851874,283.0248072531698 148.1481495555557,283.02480725316974 141.9753100740742,272.3331356442766 129.62963111111117,272.3331356442765 135.80247059259264,283.0248072531697 129.62963111111108,293.7164788620628 123.45679162962959,283.0248072531696 117.2839521481481,272.33313564427647 123.45679162962965,261.64146403538336 135.8024705925927,261.6414640353834 141.97531007407426,250.94979242649032 129.62963111111122,250.9497924264903 123.45679162962973,240.25812081759716 135.80247059259278,240.2581208175972 148.14814955555582,240.25812081759722 154.32098903703732,250.94979242649035 166.66666800000036,250.94979242649038 172.83950748148192,240.25812081759727 160.49382851851888,240.25812081759724 154.32098903703738,229.5664492087041 166.6666680000004,229.56644920870414 179.01234696296345,229.56644920870417 185.18518644444495,240.2581208175973 179.01234696296342,250.9497924264904 185.18518644444492,261.64146403538354 191.35802592592643,272.3331356442767 197.530865407408,261.6414640353836 191.35802592592648,250.94979242649046 203.70370488888952,250.9497924264905 209.87654437037102,261.6414640353836 203.7037048888895,272.3331356442767 209.876544370371,283.0248072531698 216.04938385185255,272.3331356442767 228.3950628148156,272.33313564427675 222.22222333333406,283.02480725316985 216.04938385185253,293.71647886206296 203.7037048888895,293.71647886206296 197.53086540740796,304.40815047095606 203.70370488888946,315.0998220798492 209.87654437037096,325.7914936887423 216.04938385185253,315.0998220798492 209.87654437037102,304.40815047095606 222.22222333333406,304.4081504709561 228.39506281481556,315.0998220798492 222.22222333333403,325.7914936887423 228.39506281481553,336.4831652976354 234.56790229629704,347.1748369065285 240.7407417777786,336.4831652976354 234.5679022962971,325.79149368874226 246.91358125926013,325.7914936887423 253.08642074074163,336.4831652976354 265.4320997037047,336.4831652976355 271.60493918518625,325.7914936887424 277.7777786666678,315.0998220798493 265.43209970370475,315.0998220798492 259.2592602222232,325.7914936887423 253.0864207407417,315.09982207984916 259.25926022222325,304.40815047095606 253.08642074074174,293.7164788620629 240.7407417777787,293.71647886206284 246.91358125926018,304.408150470956 240.74074177777862,315.0998220798491 234.56790229629712,304.40815047095595 228.39506281481562,293.7164788620628 234.56790229629718,283.0248072531697 246.9135812592602,283.02480725316974 253.08642074074177,272.33313564427664 240.74074177777874,272.3331356442766 234.56790229629723,261.6414640353834 246.91358125926027,261.6414640353835 259.2592602222233,261.64146403538354 265.4320997037048,272.3331356442767 259.25926022222325,283.0248072531698 265.43209970370475,293.7164788620629 271.60493918518625,304.408150470956 277.7777786666678,293.7164788620629 271.6049391851863,283.02480725316974 283.9506181481494,283.0248072531698 290.1234576296309,293.7164788620629 302.46913659259394,293.71647886206296 308.6419760740755,283.02480725316985 296.29629711111244,283.0248072531698 290.12345762963093,272.33313564427664 302.469136592594,272.3331356442767 314.81481555555706,272.33313564427675 320.98765503703856,283.0248072531699 333.3333340000016,283.02480725316997 339.5061734814832,272.33313564427687 345.67901296296475,261.64146403538376 333.3333340000017,261.6414640353837 327.1604945185201,272.3331356442768 320.9876550370386,261.64146403538365 327.1604945185202,250.94979242649055 320.9876550370387,240.25812081759742 308.6419760740756,240.2581208175974 296.29629711111255,240.25812081759736 302.46913659259405,250.9497924264905 314.8148155555571,250.94979242649052 308.64197607407556,261.6414640353836 296.2962971111125,261.64146403538354 290.123457629631,250.9497924264904 277.7777786666679,250.94979242649038 283.95061814814943,261.64146403538354 277.77777866666787,272.33313564427664 271.60493918518637,261.6414640353835 265.43209970370486,250.94979242649035 271.6049391851864,240.25812081759724 283.9506181481495,240.25812081759727 290.12345762963105,229.56644920870417 277.777778666668,229.56644920870414 271.6049391851865,218.874777599811 283.95061814814954,218.87477759981104 296.2962971111126,218.87477759981107 302.4691365925941,229.5664492087042 314.8148155555572,229.56644920870423 320.98765503703873,218.87477759981113 308.64197607407567,218.8747775998111 302.46913659259417,208.18310599091797 314.81481555555723,208.183105990918 327.1604945185203,208.18310599091802 333.3333340000018,218.87477759981115 327.16049451852024,229.56644920870426 333.33333400000174,240.2581208175974 339.50617348148324,250.94979242649052 345.6790129629648,240.25812081759742 339.5061734814833,229.56644920870428 351.85185244444637,229.5664492087043 358.02469192592787,240.25812081759744 370.37037088889093,240.25812081759747 376.5432103703725,229.56644920870437 364.19753140740943,229.56644920870434 358.0246919259279,218.8747775998112 370.370370888891,218.87477759981124 382.71604985185405,218.87477759981127 388.88888933333556,229.5664492087044 401.2345682962986,229.56644920870443 407.4074077777802,218.87477759981132 413.58024725926174,208.18310599091822 401.2345682962987,208.1831059909182 395.0617288148171,218.8747775998113 388.8888893333356,208.18310599091816 395.0617288148172,197.49143438202506 407.40740777778024,197.4914343820251 413.5802472592618,186.799762773132 419.75308674074336,176.10809116423889 407.4074077777803,176.10809116423886 401.23456829629873,186.79976277313196 395.06172881481723,176.10809116423883 401.2345682962988,165.41641955534573 395.0617288148173,154.7247479464526 382.7160498518542,154.72474794645257 370.37037088889116,154.72474794645254 376.54321037037266,165.41641955534567 388.8888893333357,165.4164195553457 382.71604985185417,176.1080911642388 370.3703708888911,176.10809116423877 364.19753140740954,186.79976277313187 370.37037088889105,197.491434382025 376.5432103703726,186.7997627731319 388.88888933333567,186.79976277313193 382.7160498518541,197.49143438202503 376.54321037037255,208.18310599091814 364.1975314074095,208.1831059909181 358.024691925928,197.49143438202498 345.6790129629649,197.49143438202495 351.8518524444464,208.18310599091808 345.67901296296486,218.87477759981118 339.50617348148336,208.18310599091805 333.33333400000186,197.49143438202492 339.5061734814834,186.79976277313182 351.8518524444465,186.79976277313185 358.02469192592804,176.10809116423874 364.1975314074096,165.41641955534564 351.85185244444654,165.4164195553456 345.679012962965,176.10809116423872 339.5061734814835,165.41641955534558 345.67901296296503,154.72474794645248 339.50617348148353,144.03307633755935 327.16049451852047,144.03307633755932 333.33333400000197,154.72474794645245 327.1604945185204,165.41641955534556 320.9876550370389,154.72474794645242 314.8148155555574,144.0330763375593 320.98765503703896,133.3414047286662 314.81481555555746,122.64973311977305 302.4691365925944,122.649733119773 290.12345762963133,122.64973311977296 296.29629711111284,133.3414047286661 308.6419760740759,133.34140472866616 302.46913659259434,144.03307633755927 290.1234576296313,144.03307633755924 283.9506181481498,133.3414047286661 271.6049391851867,133.34140472866608 259.25926022222365,133.34140472866605 265.43209970370515,144.03307633755918 277.7777786666682,144.03307633755924 271.60493918518665,154.72474794645234 259.2592602222236,154.7247479464523 253.08642074074203,165.4164195553454 259.25926022222353,176.10809116423854 265.43209970370503,186.7997627731317 271.6049391851866,176.1080911642386 265.4320997037051,165.41641955534544 277.77777866666815,165.4164195553455 283.95061814814966,176.10809116423866 296.2962971111127,176.10809116423872 302.4691365925943,165.4164195553456 290.1234576296312,165.41641955534556 283.9506181481497,154.7247479464524 296.2962971111128,154.72474794645245 308.64197607407584,154.7247479464525 314.81481555555735,165.41641955534567 308.6419760740758,176.10809116423877 314.8148155555573,186.79976277313193 320.98765503703885,176.10809116423883 333.3333340000019,176.10809116423889 327.16049451852035,186.799762773132 320.9876550370388,197.4914343820251 308.6419760740757,197.49143438202506 302.4691365925942,186.7997627731319 290.12345762963116,186.79976277313187 277.7777786666681,186.79976277313185 283.9506181481496,197.491434382025 296.29629711111266,197.49143438202506 290.1234576296311,208.18310599091816 277.77777866666804,208.18310599091814 271.60493918518654,197.49143438202498 259.2592602222235,197.49143438202492 265.432099703705,208.18310599091808 259.2592602222234,218.87477759981118 253.08642074074194,208.18310599091802 246.91358125926047,197.49143438202486 253.08642074074203,186.79976277313176 246.91358125926055,176.1080911642386 234.5679022962975,176.10809116423854 222.22222333333443,176.1080911642385 228.3950628148159,186.79976277313165 240.74074177777896,186.7997627731317 234.5679022962974,197.4914343820248 222.22222333333434,197.49143438202475 216.04938385185278,208.18310599091785 222.22222333333426,218.874777599811 228.39506281481573,229.56644920870417 234.5679022962973,218.87477759981107 228.39506281481582,208.1831059909179 240.74074177777888,208.18310599091797 246.91358125926035,218.87477759981113 240.7407417777788,229.56644920870423 246.91358125926027,240.2581208175974 253.08642074074183,229.56644920870428 265.43209970370486,229.56644920870434 259.2592602222233,240.25812081759744 253.08642074074174,250.94979242649055 240.74074177777868,250.9497924264905 234.5679022962972,240.25812081759733 222.22222333333414,240.25812081759727 228.39506281481562,250.94979242649043 222.22222333333406,261.64146403538354 216.04938385185258,250.94979242649038 209.8765443703711,240.25812081759722 216.04938385185267,229.5664492087041 209.8765443703712,218.87477759981095 197.53086540740813,218.8747775998109 203.7037048888896,229.56644920870406 197.53086540740804,240.25812081759716 191.35802592592657,229.566449208704 185.1851864444451,218.87477759981084 191.35802592592665,208.18310599091774 203.70370488888972,208.18310599091777 209.87654437037128,197.49143438202466 216.04938385185284,186.79976277313156 203.70370488888977,186.7997627731315 197.5308654074082,197.4914343820246 191.3580259259267,186.79976277313145 197.53086540740827,176.10809116423835 209.87654437037133,176.10809116423837 216.0493838518529,165.41641955534527 203.70370488888983,165.41641955534521 197.53086540740833,154.72474794645206 209.8765443703714,154.72474794645208 222.22222333333445,154.7247479464521 228.39506281481596,165.41641955534527 240.74074177777902,165.4164195553453 246.91358125926058,154.7247479464522 253.08642074074214,144.0330763375591 240.74074177777908,144.03307633755904 234.56790229629752,154.72474794645214 228.39506281481601,144.03307633755898 234.56790229629758,133.34140472866588 228.39506281481607,122.64973311977272 216.049383851853,122.64973311977268 203.70370488888994,122.64973311977263 209.87654437037142,133.3414047286658 222.22222333333448,133.34140472866585 216.04938385185292,144.03307633755895 203.70370488888986,144.0330763375589 197.53086540740838,133.34140472866574 185.18518644444532,133.34140472866568 191.3580259259268,144.03307633755884 185.18518644444524,154.72474794645194 179.01234696296376,144.03307633755878 172.8395074814823,133.34140472866562 179.01234696296385,122.64973311977252 191.3580259259269,122.64973311977256 197.53086540740847,111.95806151087945 185.1851864444454,111.9580615108794 179.0123469629639,101.26638990198626 191.35802592592697,101.2663899019863 203.70370488889003,101.26638990198634 209.87654437037153,111.95806151087949 222.2222233333346,111.95806151087953 228.39506281481616,101.26638990198643 216.0493838518531,101.26638990198639 209.8765443703716,90.57471829309324 222.22222333333465,90.57471829309328 234.56790229629772,90.57471829309333 240.74074177777922,101.26638990198647 234.56790229629766,111.95806151087959 240.74074177777916,122.64973311977275 246.91358125926067,133.3414047286659 253.08642074074223,122.6497331197728 246.91358125926072,111.95806151087965 259.25926022222376,111.95806151087969 265.43209970370526,122.64973311977283 277.7777786666683,122.64973311977288 283.9506181481499,111.95806151087976 271.6049391851868,111.95806151087972 265.4320997037053,101.26638990198657 277.7777786666684,101.26638990198661 290.12345762963145,101.26638990198666 296.29629711111295,111.9580615108798 308.641976074076,111.95806151087984 314.8148155555576,101.26638990198674 320.98765503703913,90.57471829309364 308.64197607407607,90.5747182930936 302.4691365925945,101.2663899019867 296.296297111113,90.57471829309355 302.46913659259457,79.88304668420045 296.29629711111306,69.19137507530729 283.95061814815,69.19137507530725 271.60493918518694,69.1913750753072 277.77777866666844,79.88304668420037 290.1234576296315,79.88304668420042 283.95061814814994,90.57471829309353 271.6049391851869,90.57471829309348 265.4320997037054,79.88304668420034 253.0864207407423,79.8830466842003 259.2592602222238,90.57471829309345 253.08642074074226,101.26638990198656 246.91358125926078,90.57471829309341 240.7407417777793,79.88304668420025 246.91358125926087,69.19137507530715 259.25926022222393,69.19137507530719 265.4320997037055,58.49970346641408 253.08642074074243,58.49970346641404 246.91358125926092,47.80803185752089 259.259260222224,47.80803185752093 271.60493918518705,47.80803185752097 277.77777866666855,58.499703466414125 290.1234576296316,58.49970346641417 296.2962971111132,47.80803185752106 283.9506181481501,47.808031857521016 277.7777786666686,37.11636024862786 290.1234576296317,37.116360248627906 302.46913659259474,37.11636024862795 308.64197607407624,47.8080318575211 302.4691365925947,58.49970346641421 308.6419760740762,69.19137507530736 314.8148155555577,79.88304668420051 320.98765503703925,69.1913750753074 314.81481555555774,58.49970346641425 327.1604945185208,58.499703466414296 333.3333340000023,69.19137507530745 327.16049451852075,79.88304668420056 333.33333400000225,90.57471829309372 339.5061734814838,79.88304668420062 351.8518524444469,79.88304668420066 345.6790129629653,90.57471829309378 339.50617348148376,101.2663899019869 327.1604945185207,101.26638990198686 320.98765503703913,111.95806151087996 327.16049451852064,122.6497331197731 333.33333400000214,133.34140472866625 339.5061734814837,122.64973311977315 333.3333340000022,111.95806151087999 345.67901296296526,111.95806151088003 351.85185244444676,122.64973311977319 345.6790129629652,133.3414047286663 351.8518524444467,144.03307633755946 358.0246919259282,154.72474794645262 364.19753140740977,144.03307633755952 358.02469192592827,133.34140472866636 370.37037088889133,133.34140472866642 376.54321037037283,144.03307633755958 388.8888893333359,144.03307633755963 395.06172881481746,133.34140472866653 401.234568296299,122.64973311977342 388.88888933333595,122.64973311977337 382.7160498518544,133.34140472866648 376.5432103703729,122.64973311977332 382.71604985185445,111.9580615108802 376.54321037037295,101.26638990198704 364.1975314074099,101.266389901987 370.3703708888914,111.95806151088016 364.1975314074098,122.64973311977327 358.0246919259283,111.95806151088011 351.8518524444468,101.26638990198695 358.0246919259284,90.57471829309384 370.37037088889144,90.57471829309388 376.543210370373,79.88304668420076 364.19753140740994,79.88304668420072 358.02469192592844,69.19137507530756 370.3703708888915,69.1913750753076 382.71604985185456,69.19137507530765 388.88888933333607,79.8830466842008 382.7160498518545,90.57471829309392 388.888889333336,101.26638990198708 395.0617288148175,111.95806151088024 401.2345682962991,101.26638990198713 395.06172881481757,90.57471829309397 407.40740777778063,90.57471829309401 413.58024725926214,101.26638990198717 407.4074077777806,111.95806151088028 413.5802472592621,122.64973311977344 419.75308674074364,111.95806151088033 432.0987657037067,111.95806151088037 425.92592622222514,122.64973311977349 419.7530867407436,133.3414047286666 407.4074077777805,133.34140472866656 401.23456829629896,144.0330763375597 407.40740777778046,154.72474794645285 413.58024725926197,165.416419555346 419.7530867407435,154.7247479464529 413.580247259262,144.03307633755975 425.9259262222251,144.0330763375598 432.0987657037066,154.72474794645296 444.44444466666965,154.72474794645302 450.6172841481512,144.03307633755992 456.7901236296328,133.34140472866682 444.4444446666697,133.34140472866676 438.27160518518815,144.03307633755986 432.09876570370665,133.3414047286667 438.2716051851882,122.64973311977359 450.61728414815127,122.64973311977363 456.79012362963283,111.95806151088051 444.44444466666977,111.95806151088047 438.27160518518826,101.26638990198731 450.6172841481513,101.26638990198735 462.9629631111144,101.2663899019874 469.1358025925959,111.95806151088055 462.96296311111433,122.64973311977367 469.13580259259584,133.34140472866682 475.3086420740774,122.6497331197737 487.65432103704046,122.64973311977374 481.4814815555589,133.34140472866687 475.30864207407734,144.03307633755998 462.9629631111143,144.03307633755995 456.7901236296327,154.72474794645308 462.9629631111142,165.41641955534624 469.1358025925958,154.72474794645314 481.48148155555884,154.7247479464532 475.3086420740773,165.4164195553463 469.1358025925957,176.1080911642394 456.79012362963266,176.10809116423937 450.61728414815116,165.4164195553462 438.2716051851881,165.41641955534618 425.92592622222503,165.41641955534615 432.09876570370653,176.1080911642393 444.4444446666696,176.10809116423937 438.27160518518804,186.7997627731325 425.925926222225,186.79976277313247 419.7530867407434,197.4914343820256 425.9259262222249,208.18310599091876 432.0987657037065,197.49143438202566 444.44444466666954,197.49143438202572 438.271605185188,208.18310599091882 432.0987657037064,218.87477759981192 419.75308674074336,218.8747775998119 413.5802472592618,229.56644920870502 419.7530867407433,240.25812081759818 425.9259262222248,250.94979242649134 432.09876570370636,240.25812081759824 425.92592622222486,229.56644920870508 438.2716051851879,229.56644920870514 444.4444446666694,240.2581208175983 438.27160518518787,250.9497924264914 444.44444466666937,261.64146403538456 450.6172841481509,272.3331356442777 456.79012362963243,261.6414640353846 450.61728414815093,250.94979242649146 462.962963111114,250.9497924264915 469.1358025925955,261.6414640353847 481.48148155555856,261.64146403538473 487.6543210370401,250.94979242649163 493.8271605185217,240.25812081759852 481.4814815555586,240.25812081759847 475.30864207407706,250.94979242649157 469.13580259259555,240.2581208175984 475.3086420740771,229.5664492087053 469.1358025925956,218.87477759981215 456.79012362963255,218.8747775998121 462.96296311111405,229.56644920870525 456.7901236296325,240.25812081759835 450.617284148151,229.5664492087052 444.4444446666695,218.87477759981203 450.61728414815104,208.18310599091893 462.9629631111141,208.183105990919 469.13580259259567,197.4914343820259 456.7901236296326,197.49143438202583 450.6172841481511,186.79976277313267 462.96296311111416,186.79976277313273 475.3086420740772,186.79976277313278 481.48148155555873,197.49143438202594 475.30864207407717,208.18310599091905 481.4814815555587,218.8747775998122 487.6543210370402,229.56644920870536 493.82716051852174,218.87477759981226 487.65432103704023,208.1831059909191 500.0000000000033,208.18310599091916 506.1728394814848,218.87477759981232 500.00000000000324,229.56644920870542 506.17283948148474,240.25812081759858 512.3456789629663,229.56644920870548 524.6913579259294,229.56644920870554 518.5185184444479,240.25812081759864 512.3456789629663,250.94979242649174 500.00000000000324,250.9497924264917 493.8271605185217,261.64146403538484 500.0000000000032,272.333135644278 506.1728394814847,283.02480725317116 512.3456789629663,272.33313564427806 506.1728394814848,261.6414640353849 518.5185184444479,261.64146403538496 524.6913579259293,272.3331356442781 518.5185184444477,283.0248072531712 524.6913579259292,293.7164788620644 530.8641974074106,304.40815047095754 537.0370368888922,293.71647886206443 530.8641974074108,283.0248072531713 543.2098763703739,283.02480725317133 549.3827158518553,293.7164788620645 561.7283948148184,293.71647886206455 567.9012342963,283.02480725317145 574.0740737777816,272.33313564427834 561.7283948148184,272.3331356442783 555.5555553333369,283.0248072531714 549.3827158518554,272.33313564427823 555.555555333337,261.6414640353851 549.3827158518556,250.94979242649197 537.0370368888924,250.9497924264919 543.2098763703739,261.64146403538507 537.0370368888923,272.3331356442782 530.8641974074109,261.641464035385 524.6913579259294,250.94979242649185 530.864197407411,240.25812081759875 543.2098763703741,240.2581208175988 549.3827158518557,229.5664492087057 537.0370368888925,229.56644920870565 530.8641974074111,218.8747775998125 543.2098763703742,218.87477759981255 555.5555553333373,218.8747775998126 561.7283948148188,229.56644920870576 555.5555553333372,240.25812081759886 561.7283948148187,250.94979242649202 567.9012342963001,261.6414640353852 574.0740737777817,250.94979242649208 567.9012342963002,240.25812081759892 580.2469132592634,240.25812081759898 586.4197527407448,250.94979242649214 598.7654317037079,250.9497924264922 604.9382711851895,240.2581208175991 592.5925922222264,240.25812081759904 586.4197527407449,229.56644920870588 598.765431703708,229.56644920870593 611.1111106666712,229.566449208706 617.2839501481526,240.25812081759915 629.6296291111157,240.2581208175992 635.8024685925973,229.5664492087061 641.9753080740788,218.874777599813 629.6296291111157,218.87477759981294 623.4567896296342,229.56644920870605 617.2839501481527,218.8747775998129 623.4567896296343,208.18310599091978 635.8024685925974,208.18310599091984 641.975308074079,197.49143438202674 648.1481475555605,186.79976277313364 635.8024685925974,186.79976277313358 629.6296291111158,197.49143438202668 623.4567896296344,186.79976277313352 629.629629111116,176.10809116424042 623.4567896296345,165.41641955534726 611.1111106666714,165.4164195553472 598.7654317037083,165.41641955534715 604.9382711851897,176.1080911642403 617.2839501481528,176.10809116424036 611.1111106666713,186.79976277313347 598.7654317037081,186.7997627731334 592.5925922222266,197.4914343820265 598.765431703708,208.18310599091967 604.9382711851896,197.49143438202657 617.2839501481527,197.49143438202663 611.1111106666712,208.18310599091973 604.9382711851896,218.87477759981283 592.5925922222265,218.87477759981277 586.419752740745,208.18310599091961 574.0740737777819,208.18310599091956 580.2469132592634,218.87477759981272 574.0740737777818,229.56644920870582 567.9012342963003,218.87477759981266 561.7283948148189,208.1831059909195 567.9012342963005,197.4914343820264 580.2469132592636,197.49143438202645 586.4197527407451,186.79976277313335 592.5925922222267,176.10809116424025 580.2469132592636,176.1080911642402 574.074073777782,186.7997627731333 567.9012342963006,176.10809116424014 574.0740737777821,165.41641955534703 567.9012342963007,154.72474794645387 555.5555553333376,154.72474794645382 561.728394814819,165.41641955534698 555.5555553333375,176.10809116424008 549.382715851856,165.41641955534692 543.2098763703746,154.72474794645376 549.3827158518561,144.03307633756066 543.2098763703747,133.3414047286675 530.8641974074116,133.34140472866744 518.5185184444484,133.34140472866738 524.6913579259299,144.03307633756054 537.037036888893,144.0330763375606 530.8641974074114,154.7247479464537 518.5185184444483,154.72474794645365 512.3456789629668,165.41641955534675 518.5185184444482,176.1080911642399 524.6913579259297,186.79976277313307 530.8641974074112,176.10809116423997 524.6913579259298,165.4164195553468 537.0370368888929,165.41641955534686 543.2098763703743,176.10809116424002 537.0370368888928,186.79976277313312 543.2098763703742,197.49143438202628 549.3827158518558,186.79976277313318 561.7283948148189,186.79976277313324 555.5555553333373,197.49143438202634 549.3827158518558,208.18310599091944 537.0370368888927,208.1831059909194 530.8641974074112,197.49143438202623 518.5185184444481,197.49143438202617 524.6913579259295,208.18310599091933 518.518518444448,218.87477759981243 512.3456789629665,208.18310599091927 506.172839481485,197.4914343820261 512.3456789629666,186.799762773133 506.17283948148514,176.10809116423985 493.8271605185221,176.1080911642398 500.0000000000036,186.79976277313295 493.827160518522,197.49143438202606 487.6543210370405,186.7997627731329 481.481481555559,176.10809116423974 487.6543210370406,165.41641955534664 500.00000000000364,165.4164195553467 506.1728394814852,154.7247479464536 512.3456789629668,144.0330763375605 500.0000000000037,144.03307633756043 493.82716051852213,154.72474794645353 487.65432103704063,144.03307633756037 493.8271605185222,133.34140472866727 506.17283948148525,133.34140472866733 512.3456789629669,122.64973311977421 500.0000000000038,122.64973311977417 493.8271605185223,111.95806151088101 506.17283948148537,111.95806151088105 518.5185184444484,111.9580615108811 524.6913579259299,122.64973311977425 537.037036888893,122.6497331197743 543.2098763703746,111.95806151088118 549.3827158518561,101.26638990198806 537.037036888893,101.26638990198802 530.8641974074114,111.95806151088114 524.69135792593,101.26638990198798 530.8641974074116,90.57471829309486 524.6913579259301,79.8830466842017 512.345678962967,79.88304668420166 500.0000000000039,79.88304668420162 506.1728394814854,90.57471829309478 518.5185184444485,90.57471829309483 512.345678962967,101.26638990198795 500.0000000000039,101.2663899019879 493.8271605185224,90.57471829309475 481.48148155555936,90.5747182930947 487.65432103704086,101.26638990198786 481.4814815555593,111.95806151088098 475.3086420740778,101.26638990198782 469.1358025925963,90.57471829309466 475.30864207407785,79.88304668420155 487.6543210370409,79.88304668420159 493.8271605185225,69.19137507530847 481.4814815555594,69.19137507530843 475.3086420740779,58.49970346641527 487.654321037041,58.49970346641531 500.00000000000404,58.499703466415355 506.17283948148554,69.19137507530851 518.5185184444487,69.19137507530856 524.6913579259302,58.49970346641544 512.3456789629671,58.49970346641539 506.1728394814856,47.80803185752223 518.5185184444487,47.80803185752227 530.8641974074118,47.808031857522316 537.0370368888932,58.499703466415475 530.8641974074117,69.1913750753086 537.0370368888931,79.88304668420176 543.2098763703746,90.57471829309492 549.3827158518561,79.8830466842018 543.2098763703747,69.19137507530864 555.5555553333378,69.19137507530868 561.7283948148192,79.88304668420184 555.5555553333377,90.57471829309496 561.7283948148191,101.26638990198812 567.9012342963007,90.574718293095 580.2469132592638,90.57471829309505 574.0740737777822,101.26638990198816 567.9012342963007,111.95806151088128 555.5555553333376,111.95806151088124 549.382715851856,122.64973311977435 555.5555553333375,133.3414047286675 561.7283948148189,144.03307633756066 567.9012342963005,133.34140472866756 561.728394814819,122.6497331197744 574.0740737777821,122.64973311977444 580.2469132592636,133.34140472866758 574.074073777782,144.03307633756071 580.2469132592635,154.72474794645387 586.4197527407449,165.41641955534703 592.5925922222265,154.72474794645393 586.419752740745,144.03307633756077 598.7654317037081,144.03307633756083 604.9382711851896,154.724747946454 617.2839501481527,154.72474794645404 623.4567896296343,144.03307633756094 629.6296291111158,133.34140472866784 617.2839501481527,133.34140472866778 611.1111106666712,144.03307633756089 604.9382711851897,133.34140472866773 611.1111106666713,122.64973311977461 604.9382711851898,111.95806151088145 592.5925922222267,111.95806151088141 598.7654317037081,122.64973311977457 592.5925922222266,133.34140472866767 586.4197527407451,122.64973311977451 580.2469132592637,111.95806151088135 586.4197527407453,101.26638990198823 598.7654317037084,101.26638990198828 604.9382711851899,90.57471829309516 592.5925922222268,90.57471829309512 586.4197527407454,79.88304668420196 598.7654317037085,79.883046684202 611.1111106666716,79.88304668420204 617.283950148153,90.5747182930952 611.1111106666715,101.26638990198832 617.2839501481529,111.95806151088148 623.4567896296344,122.64973311977464 629.629629111116,111.95806151088152 623.4567896296345,101.26638990198836 635.8024685925976,101.2663899019884 641.9753080740791,111.95806151088156" style="stroke: red; fill: none; stroke-width: 1" /></svg>