<svg width="100%" height="100%" xmlns="http://www.w3.org/2000/svg"><polyline points=" 520.0,500.0 530.0,482.6794919243112 510.0,482.6794919243112 500.0,465.3589838486224 520.0,465.3589838486224 540.0,465.3589838486224 550.0,482.6794919243112 570.0,482.6794919243112 580.0,465.3589838486224 590.0,448.0384757729336 570.0,448.0384757729336 560.0,465.3589838486224 550.0,448.0384757729336 560.0,430.71796769724483 550.0,413.39745962155604 530.0,413.39745962155604 510.0,413.39745962155604 520.0,430.71796769724483 540.0,430.71796769724483 530.0,448.0384757729336 510.0,448.0384757729336 500.0,430.71796769724483 480.0,430.71796769724483 490.0,448.0384757729336 480.0,465.3589838486224 470.0,448.0384757729336 460.0,430.71796769724483 470.0,413.39745962155604 490.0,413.39745962155604 500.0,396.07695154586725 480.0,396.07695154586725 470.0,378.75644347017845 490.0,378.75644347017845 510.0,378.75644347017845 520.0,396.07695154586725 540.0,396.07695154586725 550.0,378.75644347017845 530.0,378.75644347017845 520.0,361.43593539448966 540.0,361.43593539448966 560.0,361.43593539448966 570.0,378.75644347017845 560.0,396.07695154586725 570.0,413.39745962155604 580.0,430.71796769724483 590.0,413.39745962155604 580.0,396.07695154586725 600.0,396.07695154586725 610.0,413.39745962155604 630.0,413.39745962155604 640.0,396.07695154586725 620.0,396.07695154586725 610.0,378.75644347017845 630.0,378.75644347017845 650.0,378.75644347017845 660.0,396.07695154586725 680.0,396.07695154586725 690.0,378.75644347017845 700.0,361.43593539448966 680.0,361.43593539448966 670.0,378.75644347017845 660.0,361.43593539448966 670.0,344.11542731880087 690.0,344.11542731880087 700.0,326.7949192431121 710.0,309.4744111674233 690.0,309.4744111674233 680.0,326.7949192431121 670.0,309.4744111674233 680.0,292.1539030917345 670.0,274.8333950160457 650.0,274.8333950160457 630.0,274.8333950160457 640.0,292.1539030917345 660.0,292.1539030917345 650.0,309.4744111674233 630.0,309.4744111674233 620.0,326.7949192431121 630.0,344.11542731880087 640.0,326.7949192431121 660.0,326.7949192431121 650.0,344.11542731880087 640.0,361.43593539448966 620.0,361.43593539448966 610.0,344.11542731880087 590.0,344.11542731880087 600.0,361.43593539448966 590.0,378.75644347017845 580.0,361.43593539448966 570.0,344.11542731880087 580.0,326.7949192431121 600.0,326.7949192431121 610.0,309.4744111674233 620.0,292.1539030917345 600.0,292.1539030917345 590.0,309.4744111674233 580.0,292.1539030917345 590.0,274.8333950160457 580.0,257.5128869403569 560.0,257.5128869403569 570.0,274.8333950160457 560.0,292.1539030917345 550.0,274.8333950160457 540.0,257.5128869403569 550.0,240.19237886466811 540.0,222.87187078897932 520.0,222.87187078897932 500.0,222.87187078897932 510.0,240.19237886466811 530.0,240.19237886466814 520.0,257.5128869403569 500.0,257.5128869403569 490.0,240.19237886466811 470.0,240.19237886466811 450.0,240.19237886466811 460.0,257.5128869403569 480.0,257.5128869403569 470.0,274.8333950160457 450.0,274.8333950160457 440.0,292.1539030917345 450.0,309.4744111674233 460.0,326.7949192431121 470.0,309.4744111674233 460.0,292.1539030917345 480.0,292.1539030917345 490.0,309.4744111674233 510.0,309.4744111674233 520.0,292.1539030917345 500.0,292.15390309173443 490.0,274.83339501604564 510.0,274.83339501604564 530.0,274.83339501604564 540.0,292.15390309173443 530.0,309.4744111674232 540.0,326.794919243112 550.0,309.4744111674232 570.0,309.4744111674232 560.0,326.794919243112 550.0,344.1154273188008 530.0,344.1154273188008 520.0,326.794919243112 500.0,326.794919243112 480.0,326.794919243112 490.0,344.1154273188008 510.0,344.1154273188008 500.0,361.4359353944896 480.0,361.4359353944896 470.0,344.1154273188008 450.0,344.1154273188008 460.0,361.4359353944896 450.0,378.7564434701784 440.0,361.4359353944896 430.0,344.1154273188008 440.0,326.794919243112 430.0,309.4744111674232 410.0,309.4744111674232 390.0,309.4744111674232 400.0,326.794919243112 420.0,326.794919243112 410.0,344.1154273188008 390.0,344.1154273188008 380.0,361.4359353944896 390.0,378.7564434701784 400.0,396.0769515458672 410.0,378.7564434701784 400.0,361.4359353944896 420.0,361.4359353944896 430.0,378.7564434701784 420.0,396.0769515458672 430.0,413.397459621556 440.0,396.0769515458672 460.0,396.0769515458672 450.0,413.397459621556 440.0,430.7179676972448 420.0,430.7179676972448 410.0,413.397459621556 390.0,413.397459621556 400.0,430.7179676972448 390.0,448.03847577293357 380.0,430.7179676972448 370.0,413.397459621556 380.0,396.0769515458672 370.0,378.7564434701784 350.0,378.7564434701784 360.0,396.0769515458672 350.0,413.397459621556 340.0,396.0769515458672 330.0,378.7564434701784 340.0,361.4359353944896 360.0,361.4359353944896 370.0,344.1154273188008 380.0,326.794919243112 360.0,326.794919243112 350.0,344.1154273188008 340.0,326.794919243112 350.0,309.4744111674232 370.0,309.4744111674232 380.0,292.15390309173443 360.0,292.15390309173443 350.0,274.83339501604564 370.0,274.83339501604564 390.0,274.83339501604564 400.0,292.15390309173443 420.0,292.15390309173443 430.0,274.83339501604564 440.0,257.51288694035685 420.0,257.51288694035685 410.0,274.83339501604564 400.0,257.51288694035685 410.0,240.19237886466806 400.0,222.87187078897927 380.0,222.87187078897927 360.0,222.87187078897927 370.0,240.19237886466806 390.0,240.1923788646681 380.0,257.51288694035685 360.0,257.51288694035685 350.0,240.19237886466806 330.0,240.19237886466806 340.0,257.51288694035685 330.0,274.83339501604564 320.0,257.51288694035685 310.0,240.19237886466806 320.0,222.87187078897927 340.0,222.87187078897927 350.0,205.55136271329047 330.0,205.55136271329047 320.0,188.23085463760168 340.0,188.23085463760168 360.0,188.23085463760168 370.0,205.55136271329047 390.0,205.55136271329047 400.0,188.23085463760168 380.0,188.23085463760168 370.0,170.9103465619129 390.0,170.9103465619129 410.0,170.9103465619129 420.0,188.23085463760168 410.0,205.55136271329047 420.0,222.87187078897927 430.0,240.19237886466806 440.0,222.87187078897927 430.0,205.55136271329047 450.0,205.55136271329047 460.0,222.87187078897927 480.0,222.87187078897927 490.0,205.55136271329047 470.0,205.55136271329047 460.0,188.23085463760168 480.0,188.23085463760168 500.0,188.23085463760168 510.0,205.55136271329047 530.0,205.55136271329047 540.0,188.23085463760168 550.0,170.9103465619129 530.0,170.9103465619129 520.0,188.23085463760165 510.0,170.91034656191286 520.0,153.5898384862241 510.0,136.2693304105353 490.0,136.2693304105353 470.0,136.2693304105353 480.0,153.5898384862241 500.0,153.58983848622412 490.0,170.9103465619129 470.0,170.9103465619129 460.0,153.5898384862241 440.0,153.5898384862241 450.0,170.9103465619129 440.0,188.23085463760165 430.0,170.91034656191286 420.0,153.58983848622407 430.0,136.2693304105353 450.0,136.2693304105353 460.0,118.94882233484653 440.0,118.94882233484651 430.0,101.62831425915772 450.0,101.62831425915772 470.0,101.62831425915772 480.0,118.9488223348465 500.0,118.9488223348465 510.0,101.62831425915772 490.0,101.6283142591577 480.0,84.30780618346893 500.0,84.30780618346893 520.0,84.30780618346893 530.0,101.6283142591577 520.0,118.94882233484648 530.0,136.26933041053528 540.0,153.58983848622407 550.0,136.2693304105353 540.0,118.94882233484651 560.0,118.94882233484651 570.0,136.2693304105353 560.0,153.5898384862241 570.0,170.9103465619129 580.0,153.5898384862241 600.0,153.5898384862241 590.0,170.9103465619129 580.0,188.23085463760168 560.0,188.23085463760168 550.0,205.55136271329047 560.0,222.87187078897927 570.0,240.19237886466806 580.0,222.87187078897927 570.0,205.55136271329047 590.0,205.55136271329047 600.0,222.87187078897927 590.0,240.19237886466806 600.0,257.51288694035685 610.0,274.83339501604564 620.0,257.51288694035685 610.0,240.19237886466806 630.0,240.19237886466806 640.0,257.51288694035685 660.0,257.51288694035685 670.0,240.19237886466806 680.0,222.87187078897927 660.0,222.87187078897927 650.0,240.19237886466803 640.0,222.87187078897924 650.0,205.55136271329047 640.0,188.23085463760168 620.0,188.23085463760168 630.0,205.55136271329047 620.0,222.87187078897924 610.0,205.55136271329044 600.0,188.23085463760165 610.0,170.9103465619129 630.0,170.9103465619129 640.0,153.5898384862241 620.0,153.5898384862241 610.0,136.2693304105353 630.0,136.2693304105353 650.0,136.2693304105353 660.0,153.5898384862241 650.0,170.9103465619129 660.0,188.23085463760168 670.0,205.55136271329047 680.0,188.23085463760168 670.0,170.9103465619129 690.0,170.9103465619129 700.0,188.23085463760168 720.0,188.23085463760168 730.0,170.9103465619129 710.0,170.9103465619129 700.0,153.5898384862241 720.0,153.5898384862241 740.0,153.5898384862241 750.0,170.9103465619129 770.0,170.9103465619129 780.0,153.5898384862241 790.0,136.2693304105353 770.0,136.2693304105353 760.0,153.58983848622407 750.0,136.26933041053528 760.0,118.9488223348465 750.0,101.62831425915772 730.0,101.6283142591577 710.0,101.62831425915769 720.0,118.94882233484648 740.0,118.94882233484651 730.0,136.26933041053528 710.0,136.26933041053528 700.0,118.94882233484648 680.0,118.94882233484647 690.0,136.26933041053525 680.0,153.589838486224 670.0,136.26933041053522 660.0,118.94882233484643 670.0,101.62831425915765 690.0,101.62831425915765 700.0,84.30780618346887 680.0,84.30780618346886 670.0,66.98729810778008 690.0,66.98729810778008 710.0,66.98729810778008 720.0,84.30780618346886 740.0,84.30780618346886 750.0,66.98729810778008 730.0,66.98729810778006 720.0,49.66679003209128 740.0,49.66679003209128 760.0,49.66679003209128 770.0,66.98729810778006 760.0,84.30780618346884 770.0,101.62831425915762 780.0,118.9488223348464 790.0,101.62831425915762 780.0,84.30780618346884 800.0,84.30780618346884 810.0,101.62831425915762 830.0,101.62831425915762 840.0,84.30780618346884 820.0,84.30780618346883 810.0,66.98729810778005 830.0,66.98729810778005 850.0,66.98729810778005 860.0,84.30780618346883 880.0,84.30780618346883 890.0,66.98729810778005 900.0,49.66679003209127 880.0,49.66679003209126 870.0,66.98729810778002 860.0,49.666790032091235 870.0,32.34628195640246 890.0,32.34628195640246 900.0,15.025773880713679 910.0,-2.2947341949750992 890.0,-2.2947341949751117 880.0,15.02577388071366 870.0,-2.294734194975126 880.0,-19.615242270663906 870.0,-36.93575034635269 850.0,-36.935750346352705 830.0,-36.93575034635272 840.0,-19.61524227066393 860.0,-19.61524227066391 850.0,-2.2947341949751383 830.0,-2.2947341949751516 820.0,15.025773880713619 830.0,32.34628195640241 840.0,15.02577388071364 860.0,15.025773880713663 850.0,32.346281956402436 840.0,49.66679003209121 820.0,49.66679003209119 810.0,32.34628195640241 790.0,32.34628195640239 800.0,49.666790032091185 790.0,66.98729810777996 780.0,49.66679003209118 770.0,32.34628195640239 780.0,15.025773880713615 800.0,15.025773880713619 810.0,-2.2947341949751596 820.0,-19.615242270663938 800.0,-19.61524227066395 790.0,-2.2947341949751774 780.0,-19.615242270663963 790.0,-36.93575034635274 810.0,-36.93575034635274 820.0,-54.25625842204152 800.0,-54.25625842204153 790.0,-71.57676649773032 810.0,-71.57676649773032 830.0,-71.57676649773032 840.0,-54.25625842204154 860.0,-54.25625842204154 870.0,-71.57676649773032 880.0,-88.8972745734191 860.0,-88.89727457341911 850.0,-71.57676649773035 840.0,-88.89727457341914 850.0,-106.21778264910792 870.0,-106.21778264910792 880.0,-123.5382907247967 890.0,-140.8587988004855 870.0,-140.8587988004855 860.0,-123.53829072479672 850.0,-140.85879880048552 860.0,-158.17930687617428 850.0,-175.49981495186307 830.0,-175.49981495186307 810.0,-175.49981495186307 820.0,-158.17930687617428 840.0,-158.17930687617425 830.0,-140.8587988004855 810.0,-140.8587988004855 800.0,-123.53829072479672 810.0,-106.21778264910793 820.0,-123.5382907247967 840.0,-123.53829072479667 830.0,-106.2177826491079 820.0,-88.89727457341914 800.0,-88.89727457341915 790.0,-106.21778264910793 770.0,-106.21778264910795 780.0,-88.89727457341915 770.0,-71.57676649773038 760.0,-88.89727457341917 750.0,-106.21778264910796 760.0,-123.53829072479674 780.0,-123.53829072479674 790.0,-140.85879880048552 800.0,-158.17930687617428 780.0,-158.17930687617428 770.0,-140.85879880048552 760.0,-158.1793068761743 770.0,-175.49981495186307 760.0,-192.82032302755186 740.0,-192.82032302755186 750.0,-175.49981495186307 740.0,-158.1793068761743 730.0,-175.4998149518631 720.0,-192.8203230275519 730.0,-210.14083110324066 720.0,-227.46133917892945 700.0,-227.46133917892945 680.0,-227.46133917892945 690.0,-210.14083110324066 710.0,-210.14083110324063 700.0,-192.82032302755186 680.0,-192.82032302755186 670.0,-210.14083110324066 650.0,-210.14083110324066 630.0,-210.14083110324066 640.0,-192.82032302755186 660.0,-192.82032302755184 650.0,-175.49981495186307 630.0,-175.49981495186307 620.0,-158.1793068761743 630.0,-140.85879880048552 640.0,-123.53829072479672 650.0,-140.8587988004855 640.0,-158.17930687617428 660.0,-158.17930687617425 670.0,-140.85879880048546 690.0,-140.85879880048543 700.0,-158.1793068761742 680.0,-158.17930687617422 670.0,-175.49981495186302 690.0,-175.499814951863 710.0,-175.49981495186296 720.0,-158.17930687617417 710.0,-140.8587988004854 720.0,-123.53829072479661 730.0,-140.85879880048537 750.0,-140.85879880048535 740.0,-123.53829072479658 730.0,-106.21778264910782 710.0,-106.21778264910783 700.0,-123.53829072479661 680.0,-123.53829072479662 660.0,-123.53829072479664 670.0,-106.21778264910785 690.0,-106.21778264910782 680.0,-88.89727457341905 660.0,-88.89727457341907 650.0,-71.57676649773029 660.0,-54.2562584220415 670.0,-71.57676649773026 690.0,-71.57676649773023 680.0,-54.25625842204146 670.0,-36.93575034635269 650.0,-36.935750346352705 640.0,-19.615242270663934 650.0,-2.2947341949751454 660.0,15.025773880713643 670.0,-2.294734194975124 660.0,-19.615242270663916 680.0,-19.61524227066389 690.0,-2.294734194975103 710.0,-2.2947341949750797 720.0,-19.61524227066385 730.0,-36.93575034635262 710.0,-36.93575034635265 700.0,-19.615242270663884 690.0,-36.93575034635268 700.0,-54.25625842204144 720.0,-54.25625842204142 730.0,-71.57676649773019 710.0,-71.57676649773022 700.0,-88.89727457341901 720.0,-88.89727457341898 740.0,-88.89727457341895 750.0,-71.57676649773016 740.0,-54.25625842204139 750.0,-36.935750346352606 760.0,-54.25625842204137 780.0,-54.25625842204135 770.0,-36.93575034635258 760.0,-19.615242270663806 740.0,-19.61524227066382 730.0,-2.2947341949750495 740.0,15.02577388071374 750.0,-2.294734194975028 770.0,-2.294734194975005 760.0,15.025773880713766 750.0,32.346281956402535 730.0,32.34628195640252 720.0,15.025773880713736 700.0,15.025773880713723 680.0,15.025773880713711 690.0,32.3462819564025 710.0,32.34628195640252 700.0,49.66679003209129 680.0,49.66679003209128 670.0,32.34628195640249 650.0,32.34628195640248 660.0,49.66679003209127 650.0,66.98729810778005 640.0,49.666790032091264 630.0,32.34628195640248 640.0,15.0257738807137 630.0,-2.294734194975085 610.0,-2.2947341949750975 590.0,-2.29473419497511 600.0,15.025773880713679 620.0,15.0257738807137 610.0,32.34628195640247 590.0,32.34628195640246 580.0,49.66679003209123 590.0,66.98729810778002 600.0,84.30780618346881 610.0,66.98729810778005 600.0,49.66679003209126 620.0,49.66679003209128 630.0,66.98729810778006 620.0,84.30780618346884 630.0,101.62831425915763 640.0,84.30780618346887 660.0,84.3078061834689 650.0,101.62831425915766 640.0,118.94882233484643 620.0,118.94882233484641 610.0,101.62831425915763 590.0,101.62831425915762 600.0,118.94882233484641 590.0,136.2693304105352 580.0,118.9488223348464 570.0,101.6283142591576 580.0,84.30780618346883 570.0,66.98729810778005 550.0,66.98729810778003 560.0,84.30780618346883 550.0,101.6283142591576 540.0,84.30780618346881 530.0,66.98729810778002 540.0,49.66679003209124 560.0,49.66679003209124 570.0,32.346281956402464 580.0,15.025773880713686 560.0,15.025773880713674 550.0,32.34628195640244 540.0,15.025773880713658 550.0,-2.2947341949751205 570.0,-2.294734194975117 580.0,-19.615242270663895 560.0,-19.615242270663906 550.0,-36.93575034635269 570.0,-36.93575034635269 590.0,-36.93575034635269 600.0,-19.61524227066391 620.0,-19.615242270663906 630.0,-36.935750346352684 640.0,-54.25625842204146 620.0,-54.256258422041476 610.0,-36.935750346352705 600.0,-54.25625842204149 610.0,-71.57676649773026 630.0,-71.57676649773026 640.0,-88.89727457341904 650.0,-106.21778264910782 630.0,-106.21778264910783 620.0,-88.89727457341905 610.0,-106.21778264910785 620.0,-123.53829072479662 610.0,-140.8587988004854 590.0,-140.8587988004854 570.0,-140.8587988004854 580.0,-123.53829072479661 600.0,-123.53829072479658 590.0,-106.21778264910782 570.0,-106.21778264910783 560.0,-88.89727457341905 570.0,-71.57676649773026 580.0,-88.89727457341903 600.0,-88.897274573419 590.0,-71.57676649773023 580.0,-54.25625842204146 560.0,-54.256258422041476 550.0,-71.57676649773026 530.0,-71.57676649773028 540.0,-54.25625842204148 530.0,-36.93575034635271 520.0,-54.2562584220415 510.0,-71.57676649773029 520.0,-88.89727457341907 540.0,-88.89727457341907 550.0,-106.21778264910785 560.0,-123.53829072479662 540.0,-123.53829072479664 530.0,-106.21778264910787 520.0,-123.53829072479667 530.0,-140.85879880048543 520.0,-158.17930687617422 500.0,-158.17930687617422 510.0,-140.85879880048543 500.0,-123.53829072479667 490.0,-140.85879880048546 480.0,-158.17930687617425 490.0,-175.49981495186302 480.0,-192.8203230275518 460.0,-192.8203230275518 440.0,-192.8203230275518 450.0,-175.49981495186302 470.0,-175.499814951863 460.0,-158.17930687617422 440.0,-158.17930687617422 430.0,-140.85879880048546 440.0,-123.53829072479667 450.0,-106.21778264910787 460.0,-123.53829072479664 450.0,-140.85879880048543 470.0,-140.8587988004854 480.0,-123.53829072479661 470.0,-106.21778264910785 480.0,-88.89727457341905 490.0,-106.21778264910782 510.0,-106.21778264910779 500.0,-88.89727457341903 490.0,-71.57676649773026 470.0,-71.57676649773028 460.0,-88.89727457341905 440.0,-88.89727457341907 450.0,-71.57676649773028 440.0,-54.256258422041505 430.0,-71.57676649773029 420.0,-88.89727457341908 430.0,-106.21778264910786 420.0,-123.53829072479664 400.0,-123.53829072479665 410.0,-106.21778264910786 400.0,-88.89727457341908 390.0,-106.21778264910787 380.0,-123.53829072479667 390.0,-140.85879880048543 410.0,-140.85879880048543 420.0,-158.17930687617422 430.0,-175.49981495186302 410.0,-175.49981495186302 400.0,-158.17930687617425 390.0,-175.49981495186304 400.0,-192.8203230275518 390.0,-210.1408311032406 370.0,-210.1408311032406 380.0,-192.8203230275518 370.0,-175.49981495186304 360.0,-192.82032302755184 350.0,-210.14083110324063 360.0,-227.4613391789294 350.0,-244.78184725461819 330.0,-244.78184725461819 310.0,-244.78184725461819 320.0,-227.4613391789294 340.0,-227.46133917892936 330.0,-210.1408311032406 310.0,-210.1408311032406 300.0,-227.4613391789294 280.0,-227.4613391789294 260.0,-227.4613391789294 270.0,-210.1408311032406 290.0,-210.14083110324057 280.0,-192.8203230275518 260.0,-192.8203230275518 249.99999999999997,-175.49981495186304 259.99999999999994,-158.17930687617425 269.99999999999994,-140.85879880048546 279.99999999999994,-158.17930687617422 269.99999999999994,-175.49981495186302 289.99999999999994,-175.499814951863 299.99999999999994,-158.1793068761742 319.99999999999994,-158.17930687617417 329.99999999999994,-175.49981495186293 309.99999999999994,-175.49981495186296 299.99999999999994,-192.82032302755175 319.99999999999994,-192.82032302755172 339.99999999999994,-192.8203230275517 349.99999999999994,-175.4998149518629 339.99999999999994,-158.17930687617414 349.99999999999994,-140.85879880048535 359.99999999999994,-158.1793068761741 379.99999999999994,-158.17930687617408 369.99999999999994,-140.85879880048532 359.99999999999994,-123.53829072479655 339.99999999999994,-123.53829072479657 329.99999999999994,-140.85879880048535 309.99999999999994,-140.85879880048535 289.99999999999994,-140.85879880048535 299.99999999999994,-123.53829072479655 319.99999999999994,-123.53829072479652 309.99999999999994,-106.21778264910776 289.99999999999994,-106.21778264910778 279.99999999999994,-123.53829072479655 259.99999999999994,-123.53829072479657 269.99999999999994,-106.21778264910778 259.99999999999994,-88.897274573419 249.99999999999994,-106.21778264910779 239.99999999999994,-123.53829072479658 249.99999999999994,-140.85879880048537 239.99999999999994,-158.17930687617417 219.99999999999994,-158.17930687617417 199.99999999999994,-158.17930687617417 209.99999999999994,-140.85879880048537 229.99999999999994,-140.85879880048535 219.99999999999991,-123.53829072479658 199.99999999999991,-123.5382907247966 189.99999999999991,-140.85879880048537 169.99999999999991,-140.85879880048537 149.99999999999991,-140.85879880048537 159.99999999999991,-123.53829072479658 179.99999999999991,-123.53829072479655 169.9999999999999,-106.21778264910779 149.9999999999999,-106.2177826491078 139.99999999999986,-88.89727457341903 149.99999999999986,-71.57676649773023 159.99999999999986,-54.25625842204144 169.9999999999999,-71.5767664977302 159.99999999999991,-88.897274573419 179.99999999999991,-88.89727457341897 189.9999999999999,-71.57676649773018 209.9999999999999,-71.57676649773015 219.99999999999991,-88.89727457341891 199.99999999999991,-88.89727457341894 189.99999999999994,-106.21778264910773 209.99999999999994,-106.2177826491077 229.99999999999994,-106.21778264910768 239.99999999999994,-88.89727457341888 229.99999999999991,-71.57676649773012 239.99999999999991,-54.25625842204133 249.99999999999994,-71.57676649773009 269.99999999999994,-71.57676649773006 259.99999999999994,-54.25625842204129 249.99999999999991,-36.93575034635252 229.99999999999991,-36.935750346352535 219.99999999999991,-54.25625842204132 199.99999999999991,-54.256258422041334 179.99999999999991,-54.25625842204135 189.99999999999991,-36.93575034635256 209.99999999999991,-36.93575034635254 199.9999999999999,-19.61524227066377 179.9999999999999,-19.615242270663785 169.99999999999986,-2.294734194975014 179.99999999999986,15.025773880713775 189.9999999999999,-2.2947341949749926 209.9999999999999,-2.2947341949749696 199.99999999999986,15.025773880713801 189.99999999999983,32.34628195640257 169.99999999999983,32.34628195640256 159.9999999999998,49.66679003209133 169.9999999999998,66.98729810778012 179.9999999999998,84.30780618346891 189.99999999999983,66.98729810778015 179.99999999999986,49.666790032091356 199.99999999999986,49.66679003209138 209.99999999999983,66.98729810778016 199.9999999999998,84.30780618346893 209.9999999999998,101.62831425915772 219.9999999999998,118.94882233484651 229.99999999999983,101.62831425915775 219.99999999999986,84.30780618346895 239.99999999999986,84.30780618346898 249.99999999999983,101.62831425915778 269.99999999999983,101.6283142591578 279.99999999999983,84.30780618346904 289.99999999999983,66.98729810778028 269.99999999999983,66.98729810778025 259.9999999999998,84.30780618346901 249.9999999999998,66.98729810778022 259.99999999999983,49.666790032091455 249.99999999999986,32.34628195640266 229.99999999999986,32.346281956402635 239.99999999999983,49.666790032091434 229.9999999999998,66.98729810778019 219.99999999999983,49.6667900320914 209.99999999999986,32.346281956402606 219.9999999999999,15.025773880713839 239.9999999999999,15.025773880713867 249.99999999999991,-2.2947341949748967 229.99999999999991,-2.294734194974933 219.99999999999994,-19.615242270663728 239.99999999999994,-19.6152422706637 259.99999999999994,-19.61524227066367 269.99999999999994,-2.294734194974879 259.99999999999994,15.025773880713889 269.99999999999994,32.34628195640268 279.99999999999994,49.66679003209147 290.0,32.346281956402706 280.0,15.025773880713906 300.0,15.02577388071394 310.0,32.346281956402734 330.0,32.34628195640277 340.00000000000006,15.02577388071401 320.00000000000006,15.025773880713968 310.0000000000001,-2.294734194974831 330.0000000000001,-2.2947341949747977 350.0000000000001,-2.2947341949747644 360.0000000000001,15.02577388071403 380.0000000000001,15.025773880714064 390.00000000000017,-2.294734194974696 400.0000000000002,-19.615242270663458 380.0000000000002,-19.6152422706635 370.00000000000017,-2.294734194974744 360.0000000000002,-19.615242270663543 370.0000000000003,-36.93575034635231 360.00000000000034,-54.25625842204111 340.00000000000034,-54.25625842204115 320.00000000000034,-54.25625842204119 330.0000000000003,-36.93575034635239 350.0000000000003,-36.93575034635234 340.0000000000002,-19.615242270663586 320.0000000000002,-19.615242270663625 310.0000000000002,-36.93575034635242 290.0000000000002,-36.93575034635246 300.00000000000017,-19.615242270663654 290.0000000000001,-2.2947341949748967 280.0000000000001,-19.615242270663696 270.0000000000001,-36.93575034635249 280.00000000000017,-54.256258422041256 300.00000000000017,-54.25625842204122 310.0000000000002,-71.57676649772998 290.0000000000002,-71.57676649773002 280.0000000000002,-88.89727457341883 300.0000000000002,-88.8972745734188 320.0000000000002,-88.89727457341877 330.0000000000002,-71.57676649772998 350.0000000000002,-71.57676649772995 360.0000000000003,-88.89727457341871 340.0000000000003,-88.89727457341876 330.00000000000034,-106.21778264910756 350.00000000000034,-106.21778264910753 370.00000000000034,-106.2177826491075 380.00000000000034,-88.89727457341871 370.0000000000003,-71.57676649772995 380.0000000000003,-54.25625842204115 390.0000000000003,-36.93575034635235 400.00000000000034,-54.256258422041114 390.00000000000034,-71.57676649772992 410.00000000000034,-71.57676649772989 420.00000000000034,-54.25625842204109 410.0000000000003,-36.93575034635232 420.0000000000003,-19.615242270663522 430.00000000000034,-36.935750346352286 450.00000000000034,-36.93575034635225 440.0000000000003,-19.61524227066348 430.0000000000002,-2.2947341949747084 410.0000000000002,-2.294734194974733 400.00000000000017,15.025773880714038 410.00000000000017,32.346281956402834 420.00000000000017,49.66679003209163 430.0000000000002,32.34628195640287 420.0000000000002,15.025773880714066 440.0000000000002,15.025773880714098 450.0000000000002,32.3462819564029 470.0000000000002,32.346281956402926 480.0000000000003,15.025773880714159 490.00000000000034,-2.294734194974609 470.00000000000034,-2.294734194974649 460.0000000000003,15.025773880714116 450.0000000000003,-2.294734194974687 460.00000000000034,-19.615242270663455 480.00000000000034,-19.615242270663423 490.0000000000004,-36.935750346352194 470.0000000000004,-36.935750346352236 460.0000000000004,-54.25625842204104 480.0000000000004,-54.256258422041014 500.0000000000004,-54.256258422040986 510.0000000000004,-36.93575034635219 500.00000000000034,-19.615242270663416 510.00000000000034,-2.294734194974616 520.0000000000003,-19.61524227066338 540.0000000000003,-19.615242270663348 530.0000000000003,-2.294734194974577 520.0000000000003,15.025773880714194 500.00000000000034,15.02577388071417 490.0000000000003,32.34628195640294 500.0000000000003,49.66679003209174 510.00000000000034,32.346281956402976 530.0000000000003,32.34628195640301 520.0000000000003,49.66679003209178 510.0000000000003,66.98729810778056 490.0000000000003,66.98729810778053 480.0000000000003,49.66679003209174 460.0000000000003,49.66679003209171 440.0000000000003,49.66679003209168 450.0000000000003,66.98729810778048 470.0000000000003,66.9872981077805 460.0000000000002,84.30780618346927 440.0000000000002,84.30780618346924 430.0000000000002,66.98729810778045 410.0000000000002,66.98729810778042 420.0000000000002,84.30780618346921 410.00000000000017,101.62831425915797 400.00000000000017,84.30780618346918 390.00000000000017,66.98729810778039 400.00000000000017,49.66679003209161 390.00000000000017,32.34628195640281 370.00000000000017,32.346281956402784 350.00000000000017,32.346281956402755 360.00000000000017,49.66679003209156 380.00000000000017,49.6667900320916 370.0000000000001,66.98729810778038 350.0000000000001,66.98729810778035 340.0000000000001,49.66679003209154 320.0000000000001,49.66679003209151 300.0000000000001,49.666790032091484 310.0000000000001,66.9872981077803 330.0000000000001,66.98729810778035 320.00000000000006,84.30780618346913 300.0,84.3078061834691 289.99999999999994,101.62831425915789 299.99999999999994,118.94882233484671 309.99999999999994,136.26933041053553 320.0,118.94882233484675 310.0,101.62831425915792 330.00000000000006,101.62831425915796 340.00000000000006,118.94882233484678 360.0000000000001,118.94882233484682 370.00000000000017,101.62831425915805 350.0000000000001,101.628314259158 340.0000000000001,84.30780618346918 360.00000000000017,84.30780618346922 380.0000000000002,84.30780618346927 390.0000000000002,101.62831425915809 380.00000000000017,118.94882233484688 390.00000000000017,136.2693304105357 400.0000000000002,118.94882233484691 420.0000000000003,118.94882233484695 410.0000000000002,136.26933041053573 400.00000000000017,153.58983848622452 380.0000000000001,153.5898384862245 370.0000000000001,136.26933041053567 350.00000000000006,136.26933041053564 330.0,136.26933041053562 340.0,153.58983848622444 360.00000000000006,153.58983848622447 350.0,170.91034656191326 329.99999999999994,170.91034656191323 319.99999999999994,153.5898384862244 299.9999999999999,153.58983848622438 309.9999999999999,170.9103465619132 299.99999999999983,188.230854637602 289.99999999999983,170.91034656191317 279.99999999999983,153.58983848622435 289.9999999999999,136.26933041053556 279.9999999999999,118.94882233484672 259.99999999999983,118.94882233484668 239.99999999999977,118.94882233484665 249.99999999999977,136.26933041053547 269.99999999999983,136.26933041053553 259.9999999999998,153.58983848622432 239.99999999999972,153.5898384862243 229.99999999999966,170.9103465619131 239.99999999999966,188.23085463760194 249.99999999999966,205.55136271329079 259.9999999999997,188.230854637602 249.99999999999972,170.91034656191314 269.9999999999998,170.91034656191317 279.9999999999998,188.23085463760202 269.9999999999997,205.5513627132908 279.9999999999997,222.87187078897966 289.9999999999998,205.55136271329087 309.99999999999983,205.55136271329093 299.9999999999998,222.87187078897972 289.9999999999997,240.1923788646685 269.99999999999966,240.19237886466848 259.99999999999966,222.87187078897963 239.9999999999996,222.8718707889796 249.9999999999996,240.19237886466846 239.99999999999955,257.51288694035725 229.99999999999955,240.1923788646684 219.99999999999955,222.87187078897955 229.9999999999996,205.55136271329073 219.9999999999996,188.23085463760188 199.99999999999955,188.23085463760185 209.99999999999955,205.5513627132907 199.9999999999995,222.87187078897952 189.9999999999995,205.55136271329067 179.9999999999995,188.23085463760182 189.99999999999955,170.910346561913 209.99999999999963,170.91034656191303 219.9999999999997,153.5898384862242 229.99999999999974,136.2693304105354 209.99999999999966,136.26933041053536 199.99999999999957,153.58983848622418 189.99999999999957,136.26933041053533 199.99999999999963,118.94882233484651 189.99999999999963,101.62831425915766 169.99999999999955,101.62831425915762 179.99999999999955,118.94882233484648 169.99999999999946,136.2693304105353 159.99999999999946,118.94882233484645 149.99999999999946,101.6283142591576 159.99999999999952,84.30780618346878 149.99999999999952,66.98729810777994 129.99999999999943,66.98729810777989 109.99999999999936,66.98729810777985 119.99999999999936,84.30780618346871 139.99999999999943,84.30780618346876 129.99999999999935,101.62831425915758 109.99999999999928,101.62831425915753 99.99999999999928,84.30780618346867 79.9999999999992,84.30780618346863 59.99999999999913,84.30780618346859 69.99999999999913,101.62831425915745 89.9999999999992,101.62831425915749 79.99999999999913,118.94882233484631 59.99999999999906,118.94882233484627 49.99999999999899,136.26933041053508 59.99999999999899,153.58983848622393 69.99999999999899,170.91034656191277 79.99999999999908,153.58983848622395 69.99999999999909,136.26933041053508 89.99999999999916,136.26933041053513 99.99999999999916,153.58983848622398 119.99999999999923,153.58983848622404 129.99999999999932,136.26933041053522 109.99999999999925,136.26933041053516 99.99999999999926,118.9488223348463 119.99999999999933,118.94882233484635 139.9999999999994,118.94882233484641 149.9999999999994,136.26933041053528 139.99999999999932,153.5898384862241 149.99999999999932,170.91034656191295 159.9999999999994,153.58983848622412 179.9999999999995,153.58983848622418 169.9999999999994,170.910346561913 159.99999999999932,188.23085463760182 139.99999999999923,188.23085463760177 129.99999999999923,170.9103465619129 109.99999999999915,170.91034656191283 89.99999999999906,170.91034656191277 99.99999999999906,188.23085463760162 119.99999999999915,188.23085463760168 109.99999999999906,205.5513627132905 89.99999999999898,205.55136271329044 79.99999999999889,222.87187078897927 89.99999999999889,240.19237886466811 99.99999999999898,222.8718707889793 119.99999999999906,222.87187078897935 109.99999999999898,240.19237886466817 99.99999999999889,257.51288694035696 79.9999999999988,257.5128869403569 69.99999999999872,274.8333950160457 79.99999999999872,292.15390309173455 89.99999999999872,309.4744111674234 99.9999999999988,292.1539030917346 89.99999999999882,274.83339501604576 109.99999999999889,274.8333950160458 119.99999999999889,292.15390309173466 109.9999999999988,309.47441116742345 119.9999999999988,326.7949192431123 129.9999999999988,344.11542731880115 139.9999999999989,326.79491924311236 129.9999999999989,309.4744111674235 149.99999999999898,309.47441116742357 159.99999999999898,326.7949192431124 179.99999999999906,326.7949192431125 189.99999999999915,309.4744111674237 199.99999999999923,292.1539030917349 179.99999999999915,292.15390309173483 169.99999999999906,309.4744111674236 159.99999999999906,292.1539030917348 169.99999999999915,274.833395016046 159.99999999999915,257.51288694035713 139.99999999999906,257.5128869403571 149.99999999999903,274.8333950160459 139.99999999999895,292.1539030917347 129.99999999999895,274.83339501604587 119.99999999999895,257.512886940357 129.99999999999903,240.1923788646682 149.99999999999912,240.19237886466826 159.9999999999992,222.87187078897944 139.99999999999912,222.87187078897938 129.99999999999912,205.5513627132905 149.9999999999992,205.55136271329056 169.9999999999993,205.55136271329062 179.9999999999993,222.8718707889795 169.9999999999992,240.1923788646683 179.9999999999992,257.5128869403572 189.9999999999992,274.83339501604604 199.9999999999993,257.51288694035725 189.9999999999993,240.19237886466837 209.99999999999937,240.19237886466843 219.99999999999937,257.5128869403573 209.9999999999993,274.83339501604615 219.9999999999993,292.153903091735 229.99999999999937,274.8333950160462 249.99999999999946,274.83339501604627 239.99999999999937,292.1539030917351 229.9999999999993,309.47441116742397 209.9999999999992,309.4744111674239 199.99999999999912,326.79491924311276 209.99999999999912,344.1154273188016 219.99999999999912,361.43593539449046 229.9999999999992,344.1154273188016 219.9999999999992,326.79491924311276 239.9999999999993,326.7949192431128 249.9999999999993,344.11542731880166 269.9999999999994,344.1154273188017 279.9999999999995,326.7949192431129 289.9999999999996,309.474411167424 269.99999999999955,309.47441116742397 259.99999999999943,326.79491924311276 249.99999999999943,309.4744111674239 259.99999999999955,292.15390309173506 279.99999999999966,292.1539030917351 289.9999999999998,274.8333950160463 269.99999999999966,274.83339501604627 259.99999999999966,257.5128869403574 279.9999999999998,257.5128869403575 299.9999999999999,257.51288694035753 309.9999999999999,274.8333950160464 299.99999999999983,292.15390309173523 309.99999999999983,309.4744111674241 319.99999999999994,292.1539030917353 340.0,292.15390309173534 329.99999999999994,309.4744111674242 319.9999999999999,326.79491924311304 299.9999999999998,326.794919243113 289.9999999999997,344.11542731880184 299.9999999999997,361.4359353944907 309.99999999999983,344.11542731880184 329.9999999999999,344.1154273188019 319.99999999999983,361.43593539449074 309.9999999999998,378.7564434701796 289.99999999999966,378.75644347017953 279.99999999999966,361.4359353944907 259.99999999999955,361.4359353944906 239.99999999999946,361.43593539449057 249.99999999999946,378.7564434701794 269.99999999999955,378.7564434701795 259.9999999999995,396.0769515458683 239.9999999999994,396.07695154586827 229.9999999999994,378.7564434701794 209.99999999999932,378.75644347017936 219.99999999999932,396.0769515458682 209.99999999999923,413.39745962155706 199.99999999999923,396.0769515458682 189.99999999999923,378.75644347017936 199.99999999999932,361.4359353944905 189.99999999999932,344.11542731880166 169.99999999999923,344.1154273188016 149.99999999999915,344.11542731880155 159.99999999999915,361.4359353944904 179.99999999999923,361.43593539449046 169.99999999999915,378.7564434701793 149.99999999999906,378.75644347017925 139.99999999999898,396.0769515458681 149.99999999999898,413.397459621557 159.99999999999898,430.71796769724585 169.99999999999906,413.397459621557 159.99999999999906,396.0769515458681 179.99999999999915,396.07695154586816 189.99999999999915,413.397459621557 179.99999999999906,430.71796769724585 189.99999999999906,448.0384757729347 199.99999999999915,430.71796769724585 219.99999999999923,430.7179676972459 209.99999999999915,448.03847577293476 199.99999999999906,465.3589838486236 179.99999999999898,465.35898384862355 169.99999999999898,448.0384757729347 149.9999999999989,448.03847577293465 159.9999999999989,465.35898384862355 149.9999999999988,482.6794919243124 139.9999999999988,465.35898384862355 129.9999999999988,448.0384757729347 139.9999999999989,430.71796769724585 129.9999999999989,413.397459621557 109.9999999999988,413.39745962155695 119.9999999999988,430.71796769724585 109.99999999999872,448.0384757729347 99.9999999999987,430.71796769724585 89.99999999999869,413.397459621557 99.99999999999878,396.07695154586816 119.99999999999886,396.0769515458682 129.99999999999895,378.75644347017936 139.99999999999903,361.4359353944905 119.99999999999895,361.43593539449046 109.99999999999886,378.7564434701793 99.99999999999885,361.43593539449046 109.99999999999893,344.1154273188016 99.99999999999892,326.79491924311276 79.99999999999883,326.7949192431127 89.99999999999883,344.1154273188016 79.99999999999875,361.43593539449046 69.99999999999874,344.1154273188016 59.99999999999873,326.79491924311276 69.9999999999988,309.4744111674239 59.9999999999988,292.15390309173506 39.99999999999871,292.153903091735 19.999999999998614,292.15390309173495 29.999999999998618,309.4744111674238 49.99999999999871,309.47441116742385 39.99999999999862,326.7949192431127 19.99999999999853,326.79491924311264 9.99999999999844,344.1154273188015 19.999999999998444,361.43593539449034 29.999999999998447,378.7564434701792 39.999999999998536,361.43593539449034 29.99999999999854,344.11542731880144 49.999999999998636,344.1154273188015 59.999999999998636,361.43593539449034 49.99999999999855,378.7564434701792 59.99999999999855,396.07695154586804 69.99999999999864,378.7564434701792 89.99999999999872,378.75644347017925 79.99999999999864,396.0769515458681 69.99999999999855,413.39745962155695 49.99999999999846,413.3974596215569 39.99999999999845,396.07695154586804 19.99999999999836,396.076951545868 29.999999999998362,413.3974596215569 19.999999999998273,430.71796769724574 9.999999999998264,413.3974596215569 -1.744382416291046e-12,396.07695154586804 9.999999999998336,378.7564434701792 -1.673328142715036e-12,361.43593539449034 -20.000000000001766,361.4359353944903 -10.000000000001762,378.7564434701792 -20.00000000000185,396.07695154586804 -30.00000000000186,378.7564434701792 -40.00000000000187,361.43593539449034 -30.00000000000179,344.1154273188015 -10.000000000001698,344.11542731880155 -1.6182610806936282e-12,326.7949192431127 9.999999999998462,309.47441116742385 -10.00000000000163,309.4744111674238 -20.00000000000172,326.79491924311264 -30.000000000001727,309.4744111674238 -20.00000000000165,292.15390309173495 -1.5560885913146194e-12,292.153903091735 9.999999999998524,274.83339501604615 -10.000000000001569,274.8333950160461 -20.000000000001577,257.51288694035725 -1.4850343177386094e-12,257.5128869403573 19.999999999998607,257.51288694035736 29.999999999998625,274.8333950160462 49.99999999999872,274.83339501604627 59.9999999999988,257.5128869403574 69.99999999999888,240.19237886466857 49.999999999998785,240.1923788646685 39.99999999999869,257.51288694035736 29.999999999998685,240.19237886466848 39.999999999998764,222.87187078897966 59.999999999998856,222.8718707889797 69.99999999999893,205.55136271329087 79.99999999999902,188.23085463760202 59.99999999999893,188.23085463760196 49.999999999998835,205.55136271329079 39.99999999999883,188.2308546376019 49.999999999998906,170.91034656191306 39.9999999999989,153.58983848622418 19.999999999998806,153.58983848622412 -1.2860823517257813e-12,153.58983848622407 9.999999999998717,170.91034656191295 29.99999999999881,170.910346561913 19.99999999999872,188.23085463760182 -1.3713474800169934e-12,188.23085463760177 -10.00000000000146,205.5513627132906 -1.4566126083082054e-12,222.87187078897946 9.999999999998636,205.55136271329064 29.999999999998728,205.5513627132907 19.99999999999864,222.87187078897952 9.99999999999855,240.19237886466834 -10.000000000001542,240.19237886466829 -20.00000000000155,222.8718707889794 -40.00000000000164,222.87187078897935 -30.000000000001638,240.19237886466823 -40.00000000000173,257.5128869403571 -50.000000000001734,240.1923788646682 -60.00000000000174,222.87187078897932 -50.00000000000166,205.55136271329047 -30.00000000000157,205.5513627132905 -20.000000000001492,188.23085463760168 -10.000000000001412,170.91034656191283 -30.000000000001506,170.91034656191277 -40.00000000000159,188.2308546376016 -50.0000000000016,170.91034656191272 -40.00000000000152,153.58983848622387 -20.000000000001428,153.5898384862239 -10.000000000001348,136.26933041053508 -30.000000000001442,136.26933041053502 -40.00000000000145,118.94882233484614 -20.000000000001357,118.94882233484617 -1.2647660696529783e-12,118.9488223348462 9.999999999998753,136.26933041053508 29.999999999998845,136.2693304105351 39.99999999999893,118.94882233484627 49.999999999999005,101.62831425915743 29.999999999998913,101.62831425915739 19.999999999998824,118.94882233484623 9.999999999998815,101.62831425915735 19.999999999998895,84.30780618346851 9.999999999998886,66.98729810777964 -10.000000000001206,66.9872981077796 -30.0000000000013,66.98729810777955 -20.000000000001297,84.30780618346843 -1.2043699371133698e-12,84.30780618346849 -10.000000000001293,101.62831425915732 -30.000000000001386,101.62831425915728 -40.00000000000139,84.3078061834684 -60.000000000001485,84.30780618346836 -50.00000000000148,101.62831425915724 -60.00000000000156,118.94882233484606 -70.00000000000158,101.62831425915718 -80.00000000000159,84.3078061834683 -70.0000000000015,66.98729810777947 -50.000000000001414,66.98729810777951 -40.000000000001336,49.666790032090674 -60.00000000000143,49.66679003209063 -70.00000000000144,32.346281956401754 -50.00000000000134,32.34628195640179 -30.00000000000125,32.346281956401825 -20.000000000001233,49.666790032090695 -1.1404210908949608e-12,49.66679003209073 9.99999999999894,32.346281956401896 -10.000000000001153,32.34628195640185 -20.00000000000116,15.025773880712979 -1.0693668173189508e-12,15.025773880713015 19.999999999999023,15.02577388071305 29.99999999999904,32.346281956401924 19.99999999999897,49.66679003209076 29.999999999998987,66.98729810777962 39.999999999999005,84.3078061834685 49.99999999999908,66.98729810777967 39.999999999999076,49.66679003209079 59.99999999999917,49.66679003209082 69.99999999999919,66.9872981077797 89.99999999999929,66.98729810777974 99.99999999999937,49.6667900320909 79.99999999999929,49.66679003209086 69.99999999999928,32.34628195640198 89.99999999999937,32.34628195640202 109.99999999999946,32.34628195640205 119.99999999999947,49.66679003209092 139.99999999999957,49.66679003209096 149.99999999999966,32.34628195640212 159.99999999999974,15.025773880713288 139.99999999999966,15.025773880713242 129.99999999999957,32.346281956402066 119.99999999999956,15.025773880713192 129.99999999999963,-2.294734194975643 149.99999999999972,-2.2947341949756073 159.9999999999998,-19.615242270664442 169.9999999999999,-36.935750346353274 149.9999999999998,-36.935750346353316 139.99999999999972,-19.61524227066449 129.99999999999972,-36.93575034635336 139.9999999999998,-54.256258422042194 129.9999999999998,-71.57676649773107 109.99999999999972,-71.57676649773111 89.99999999999963,-71.57676649773116 99.99999999999963,-54.25625842204228 119.99999999999972,-54.25625842204223 109.99999999999963,-36.9357503463534 89.99999999999955,-36.935750346353444 79.99999999999946,-19.615242270664616 89.99999999999946,-2.2947341949757387 99.99999999999955,-19.615242270664563 119.99999999999963,-19.61524227066451 109.99999999999955,-2.294734194975682 99.99999999999946,15.025773880713146 79.99999999999937,15.0257738807131 69.99999999999936,-2.2947341949757742 49.99999999999927,-2.2947341949758195 59.999999999999275,15.025773880713057 49.99999999999919,32.34628195640188 39.99999999999918,15.025773880713007 29.999999999999176,-2.2947341949758666 39.999999999999254,-19.6152422706647 59.999999999999346,-19.615242270664666 69.99999999999943,-36.9357503463535 79.99999999999952,-54.256258422042336 59.999999999999424,-54.25625842204238 49.99999999999933,-36.93575034635355 39.999999999999325,-54.25625842204242 49.9999999999994,-71.57676649773126 39.999999999999396,-88.89727457342013 19.999999999999304,-88.89727457342018 29.999999999999307,-71.5767664977313 19.99999999999922,-54.25625842204247 9.99999999999921,-71.57676649773134 -7.993605777301127e-13,-88.89727457342022 9.99999999999928,-106.21778264910905 -7.283063041541027e-13,-123.53829072479793 -20.00000000000082,-123.53829072479797 -40.00000000000091,-123.53829072479802 -30.000000000000906,-106.21778264910914 -10.000000000000814,-106.21778264910908 -20.000000000000902,-88.89727457342025 -40.000000000000995,-88.89727457342029 -50.000000000001,-106.21778264910917 -70.0000000000011,-106.21778264910921 -90.0000000000012,-106.21778264910925 -80.0000000000012,-88.89727457342038 -60.0000000000011,-88.89727457342032 -70.0000000000012,-71.57676649773148 -90.00000000000128,-71.57676649773153 -100.00000000000136,-54.2562584220427 -90.00000000000136,-36.93575034635382 -80.00000000000136,-19.615242270664943 -70.00000000000128,-36.93575034635377 -80.00000000000128,-54.256258422042656 -60.00000000000119,-54.256258422042606 -50.00000000000119,-36.93575034635373 -30.000000000001094,-36.93575034635367 -20.000000000001,-54.25625842204249 -40.000000000001094,-54.256258422042556 -50.000000000001094,-71.57676649773144 -30.000000000001002,-71.57676649773138 -10.00000000000091,-71.57676649773133 -9.094947017729282e-13,-54.25625842204245 -10.000000000001002,-36.93575034635362 -1.0018652574217413e-12,-19.615242270664737 9.999999999999101,-36.935750346353565 29.9999999999992,-36.93575034635351 19.99999999999911,-19.61524227066468 9.999999999999016,-2.2947341949758524 -10.000000000001084,-2.294734194975902 -20.000000000001094,-19.615242270664783 -40.000000000001194,-19.615242270664833 -60.00000000000129,-19.615242270664883 -50.00000000000129,-2.294734194975998 -30.000000000001194,-2.2947341949759426 -40.000000000001286,15.025773880712892 -60.000000000001386,15.025773880712844 -70.00000000000139,-2.294734194976037 -90.00000000000149,-2.294734194976086 -80.00000000000149,15.025773880712798 -90.00000000000159,32.34628195640163 -100.0000000000016,15.025773880712752 -110.00000000000162,-2.2947341949761295 -100.00000000000153,-19.615242270664965 -110.00000000000155,-36.93575034635385 -130.00000000000165,-36.9357503463539 -150.00000000000176,-36.93575034635395 -140.00000000000176,-19.61524227066506 -120.00000000000166,-19.615242270665004 -130.00000000000176,-2.2947341949761686 -150.00000000000188,-2.2947341949762183 -160.00000000000196,15.025773880712617 -150.00000000000196,32.346281956401505 -140.00000000000196,49.66679003209039 -130.00000000000185,32.346281956401555 -140.00000000000185,15.025773880712663 -120.00000000000175,15.025773880712718 -110.00000000000175,32.346281956401604 -120.00000000000185,49.66679003209044 -110.00000000000185,66.98729810777934 -100.00000000000173,49.6667900320905 -80.00000000000162,49.66679003209056 -90.00000000000172,66.9872981077794 -100.00000000000182,84.30780618346823 -120.00000000000193,84.30780618346817 -130.00000000000193,66.98729810777928 -150.00000000000205,66.98729810777922 -140.00000000000205,84.30780618346812 -150.00000000000216,101.62831425915695 -160.00000000000216,84.30780618346806 -170.00000000000216,66.98729810777917 -160.00000000000207,49.666790032090326 -170.00000000000207,32.34628195640143 -190.0000000000022,32.34628195640137 -180.0000000000022,49.66679003209027 -190.0000000000023,66.98729810777911 -200.0000000000023,49.66679003209022 -210.0000000000023,32.34628195640133 -200.0000000000022,15.025773880712485 -180.00000000000207,15.025773880712535 -170.00000000000196,-2.2947341949763143 -160.00000000000185,-19.615242270665163 -180.00000000000196,-19.61524227066522 -190.00000000000207,-2.294734194976378 -200.00000000000207,-19.615242270665277 -190.00000000000196,-36.935750346354126 -170.00000000000185,-36.93575034635408 -160.00000000000173,-54.25625842204293 -180.00000000000185,-54.25625842204299 -190.00000000000185,-71.5767664977319 -170.00000000000173,-71.57676649773184 -150.00000000000162,-71.57676649773178 -140.0000000000016,-54.25625842204288 -120.00000000000148,-54.25625842204283 -110.00000000000138,-71.57676649773168 -100.00000000000128,-88.89727457342053 -120.00000000000139,-88.89727457342059 -130.0000000000015,-71.57676649773174 -140.00000000000153,-88.89727457342065 -130.00000000000142,-106.2177826491095 -140.00000000000142,-123.5382907247984 -160.00000000000153,-123.53829072479846 -180.00000000000165,-123.53829072479851 -170.00000000000165,-106.21778264910961 -150.00000000000153,-106.21778264910954 -160.00000000000165,-88.89727457342069 -180.00000000000176,-88.89727457342075 -190.00000000000176,-106.21778264910965 -210.00000000000188,-106.21778264910971 -200.00000000000188,-88.89727457342079 -210.000000000002,-71.57676649773194 -220.000000000002,-88.89727457342084 -230.000000000002,-106.21778264910975 -220.00000000000188,-123.5382907247986 -200.00000000000176,-123.53829072479854 -190.00000000000165,-140.8587988004874 -210.00000000000176,-140.85879880048745 -220.00000000000176,-158.17930687617635 -200.00000000000165,-158.1793068761763 -180.00000000000153,-158.17930687617624 -170.0000000000015,-140.85879880048734 -150.0000000000014,-140.85879880048728 -140.00000000000128,-158.17930687617613 -160.0000000000014,-158.17930687617618 -170.0000000000014,-175.4998149518651 -150.00000000000128,-175.49981495186503 -130.00000000000117,-175.49981495186498 -120.00000000000115,-158.17930687617607 -130.00000000000125,-140.85879880048722 -120.00000000000122,-123.53829072479832 -110.0000000000012,-106.21778264910941 -100.0000000000011,-123.53829072479826 -110.00000000000111,-140.85879880048716 -90.000000000001,-140.8587988004871 -80.00000000000098,-123.5382907247982 -60.00000000000086,-123.53829072479816 -50.00000000000075,-140.85879880048702 -70.00000000000088,-140.85879880048708 -80.0000000000009,-158.17930687617599 -60.000000000000774,-158.17930687617593 -40.000000000000654,-158.17930687617587 -30.000000000000632,-140.85879880048697 -10.000000000000512,-140.8587988004869 -4.0678571622265736e-13,-158.17930687617576 9.999999999999698,-175.4998149518646 -10.000000000000423,-175.49981495186466 -20.000000000000536,-158.17930687617581 -30.00000000000055,-175.49981495186472 -20.000000000000444,-192.82032302755357 -30.000000000000455,-210.14083110324248 -50.000000000000576,-210.14083110324253 -70.0000000000007,-210.1408311032426 -60.00000000000069,-192.82032302755368 -40.00000000000057,-192.82032302755363 -50.00000000000068,-175.49981495186478 -70.00000000000081,-175.49981495186483 -80.00000000000082,-192.82032302755374 -100.00000000000095,-192.8203230275538 -90.00000000000094,-175.4998149518649 -100.00000000000105,-158.17930687617604 -110.00000000000107,-175.49981495186495 -120.00000000000108,-192.82032302755385 -110.00000000000097,-210.1408311032427 -90.00000000000085,-210.14083110324265 -80.00000000000075,-227.4613391789315 -100.00000000000088,-227.46133917893155 -110.0000000000009,-244.78184725462046 -90.00000000000077,-244.7818472546204 -70.00000000000065,-244.78184725462035 -60.00000000000063,-227.46133917893144 -40.00000000000051,-227.46133917893138 -30.000000000000405,-244.78184725462023 -50.000000000000526,-244.7818472546203 -60.00000000000054,-262.1023553303092 -40.00000000000042,-262.10235533030914 -20.0000000000003,-262.1023553303091 -10.000000000000279,-244.78184725462017 -20.000000000000377,-227.46133917893133 -10.000000000000355,-210.14083110324242 -3.339550858072471e-13,-192.8203230275535 9.99999999999977,-210.14083110324236 -2.433608869978343e-13,-227.46133917893127 19.99999999999988,-227.4613391789312 29.9999999999999,-210.1408311032423 19.9999999999998,-192.82032302755346 29.999999999999822,-175.49981495186455 39.99999999999993,-192.8203230275534 60.00000000000005,-192.82032302755334 49.99999999999995,-175.4998149518645 39.99999999999985,-158.17930687617564 19.99999999999973,-158.17930687617567 9.999999999999632,-140.85879880048682 19.999999999999652,-123.53829072479792 29.999999999999673,-106.21778264910901 39.99999999999978,-123.53829072479786 29.999999999999766,-140.85879880048677 49.999999999999886,-140.8587988004867 59.99999999999991,-123.5382907247978 49.99999999999981,-106.21778264910895 59.99999999999983,-88.89727457342005 69.99999999999986,-71.57676649773114 79.99999999999996,-88.89727457341999 69.99999999999994,-106.2177826491089 90.00000000000006,-106.21778264910884 100.00000000000007,-88.89727457341993 120.0000000000002,-88.89727457341989 130.0000000000003,-106.21778264910874 140.00000000000043,-123.53829072479759 120.00000000000031,-123.53829072479765 110.0000000000002,-106.2177826491088 100.00000000000018,-123.5382907247977 110.00000000000028,-140.85879880048657 100.00000000000027,-158.17930687617547 80.00000000000014,-158.17930687617553 90.00000000000014,-140.85879880048662 80.00000000000003,-123.53829072479778 70.00000000000001,-140.85879880048668 60.0,-158.1793068761756 70.00000000000011,-175.49981495186444 90.00000000000023,-175.49981495186438 100.00000000000033,-192.82032302755323 80.0000000000002,-192.8203230275533 70.00000000000018,-210.1408311032422 90.00000000000031,-210.14083110324214 110.00000000000043,-210.14083110324208 120.00000000000044,-192.82032302755317 110.00000000000034,-175.49981495186432 120.00000000000037,-158.17930687617542 130.0000000000004,-140.8587988004865 140.0000000000005,-158.17930687617536 130.0000000000005,-175.49981495186427 150.00000000000063,-175.4998149518642 160.00000000000065,-158.1793068761753 180.00000000000077,-158.17930687617525 190.00000000000088,-175.4998149518641 170.00000000000077,-175.49981495186415 160.00000000000077,-192.82032302755306 180.00000000000088,-192.820323027553 200.000000000001,-192.82032302755294 210.00000000000102,-175.49981495186404 230.00000000000114,-175.49981495186398 240.00000000000125,-192.82032302755283 250.00000000000136,-210.14083110324168 230.00000000000125,-210.14083110324174 220.00000000000114,-192.8203230275529 210.00000000000114,-210.1408311032418 220.00000000000125,-227.46133917893064 210.00000000000125,-244.78184725461955 190.00000000000114,-244.7818472546196 170.00000000000102,-244.78184725461966 180.00000000000102,-227.46133917893076 200.00000000000114,-227.4613391789307 190.00000000000102,-210.14083110324185 170.0000000000009,-210.1408311032419 160.0000000000009,-227.4613391789308 140.0000000000008,-227.46133917893087 150.0000000000008,-210.14083110324196 140.00000000000068,-192.82032302755312 130.00000000000068,-210.14083110324202 120.00000000000067,-227.46133917893093 130.00000000000077,-244.78184725461978 150.00000000000088,-244.78184725461972 160.000000000001,-262.10235533030857 140.00000000000088,-262.1023553303086 130.00000000000088,-279.42286340599753 150.000000000001,-279.4228634059975 170.0000000000011,-279.4228634059974 180.00000000000114,-262.1023553303085 200.00000000000125,-262.10235533030846 210.00000000000136,-279.4228634059973 190.00000000000125,-279.42286340599736 180.00000000000125,-296.74337148168627 200.00000000000136,-296.7433714816862 220.00000000000148,-296.74337148168615 230.0000000000015,-279.42286340599725 220.00000000000142,-262.1023553303084 230.00000000000145,-244.7818472546195 240.00000000000148,-227.4613391789306 250.0000000000016,-244.78184725461944 240.0000000000016,-262.10235533030834 260.0000000000017,-262.1023553303083 270.0000000000017,-244.78184725461938 290.0000000000018,-244.78184725461932 300.00000000000193,-262.10235533030817 280.0000000000018,-262.1023553303082 270.0000000000018,-279.42286340599713 290.00000000000193,-279.4228634059971 310.00000000000205,-279.422863405997 320.00000000000205,-262.1023553303081 340.00000000000216,-262.10235533030806 350.0000000000023,-279.4228634059969 360.0000000000024,-296.74337148168576 340.0000000000023,-296.7433714816858 330.00000000000216,-279.42286340599696 320.00000000000216,-296.74337148168587 330.0000000000023,-314.0638795573747 350.0000000000024,-314.06387955737466 360.0000000000025,-331.3843876330635 370.0000000000026,-348.70489570875236 350.0000000000025,-348.7048957087524 340.0000000000024,-331.38438763306357 330.0000000000024,-348.7048957087525 340.0000000000025,-366.0254037844413 330.0000000000025,-383.34591186013023 310.0000000000024,-383.3459118601303 290.0000000000023,-383.34591186013034 300.0000000000023,-366.02540378444144 320.0000000000024,-366.0254037844414 310.0000000000023,-348.70489570875253 290.00000000000216,-348.7048957087526 280.00000000000205,-331.38438763306374 290.00000000000205,-314.06387955737483 300.00000000000216,-331.3843876330637 320.0000000000023,-331.3843876330636 310.00000000000216,-314.0638795573748 300.00000000000205,-296.7433714816859 280.00000000000193,-296.743371481686 270.00000000000193,-314.0638795573749 250.00000000000182,-314.06387955737495 260.0000000000018,-296.74337148168604 250.0000000000017,-279.4228634059972 240.0000000000017,-296.7433714816861 230.0000000000017,-314.063879557375 240.00000000000182,-331.38438763306385 260.00000000000193,-331.3843876330638 270.00000000000205,-348.70489570875264 280.00000000000216,-366.0254037844415 260.00000000000205,-366.02540378444155 250.00000000000193,-348.7048957087527 240.00000000000193,-366.0254037844416 250.00000000000205,-383.34591186013046 240.00000000000205,-400.66641993581936 220.00000000000193,-400.6664199358194 230.00000000000193,-383.3459118601305 220.00000000000182,-366.02540378444166 210.00000000000182,-383.34591186013057 200.00000000000182,-400.6664199358195 210.00000000000193,-417.9869280115083 200.00000000000193,-435.30743608719723 180.00000000000182,-435.3074360871973 160.0000000000017,-435.30743608719735 170.0000000000017,-417.98692801150844 190.00000000000182,-417.9869280115084 180.0000000000017,-400.66641993581953 160.0000000000016,-400.6664199358196 150.0000000000016,-417.9869280115085 130.00000000000148,-417.98692801150855 110.00000000000135,-417.9869280115086 120.00000000000135,-400.6664199358197 140.00000000000148,-400.66641993581965 130.00000000000136,-383.3459118601308 110.00000000000124,-383.34591186013085 100.00000000000111,-366.025403784442 110.00000000000111,-348.7048957087531 120.00000000000111,-331.3843876330642 130.00000000000125,-348.70489570875304 120.00000000000125,-366.02540378444195 140.0000000000014,-366.0254037844419 150.0000000000014,-348.704895708753 170.00000000000153,-348.70489570875293 180.00000000000168,-366.0254037844418 160.00000000000153,-366.02540378444183 150.00000000000153,-383.34591186013074 170.00000000000168,-383.3459118601307 190.00000000000182,-383.3459118601306 200.00000000000182,-366.0254037844417 190.0000000000017,-348.7048957087529 200.0000000000017,-331.38438763306397 210.00000000000185,-348.7048957087528 230.000000000002,-348.70489570875276 220.00000000000185,-331.3843876330639 210.0000000000017,-314.06387955737506 190.00000000000156,-314.0638795573751 180.00000000000153,-331.384387633064 160.0000000000014,-331.3843876330641 140.00000000000125,-331.38438763306414 150.00000000000125,-314.06387955737523 170.0000000000014,-314.0638795573752 160.00000000000125,-296.7433714816863 140.0000000000011,-296.7433714816864 130.00000000000108,-314.0638795573753 110.00000000000094,-314.06387955737534 120.00000000000094,-296.74337148168644 110.00000000000081,-279.4228634059976 100.0000000000008,-296.7433714816865 90.00000000000078,-314.0638795573754 100.00000000000091,-331.38438763306425 90.0000000000009,-348.70489570875316 70.00000000000075,-348.7048957087532 50.00000000000061,-348.70489570875327 60.00000000000061,-331.3843876330643 80.00000000000075,-331.38438763306425 70.00000000000061,-314.0638795573754 50.00000000000047,-314.06387955737546 40.00000000000033,-296.7433714816866 50.00000000000033,-279.42286340599765 60.00000000000033,-262.1023553303087 70.00000000000047,-279.42286340599753 60.000000000000476,-296.7433714816865 80.00000000000063,-296.74337148168644 90.00000000000063,-279.42286340599753 80.00000000000048,-262.1023553303087 90.00000000000048,-244.78184725461975 100.00000000000063,-262.1023553303086 120.00000000000077,-262.10235533030857 110.00000000000063,-244.78184725461972 100.00000000000048,-227.46133917893087 80.00000000000034,-227.46133917893096 70.00000000000033,-244.7818472546199 50.000000000000185,-244.78184725461998 60.000000000000185,-227.46133917893104 50.00000000000004,-210.1408311032422 40.000000000000036,-227.46133917893113 30.00000000000003,-244.78184725462006 40.00000000000016,-262.1023553303089 30.000000000000156,-279.4228634059979 10.000000000000014,-279.42286340599793 20.000000000000014,-262.102355330309 9.999999999999876,-244.78184725462017 -1.3322676295501878e-13,-262.1023553303091 -10.000000000000142,-279.422863405998 -8.881784197001252e-15,-296.74337148168684 20.000000000000135,-296.7433714816868 30.00000000000027,-314.0638795573756 40.000000000000405,-331.3843876330645 20.00000000000026,-331.38438763306453 10.000000000000119,-314.0638795573757 1.0835776720341528e-13,-331.38438763306465 10.000000000000242,-348.7048957087535 30.000000000000387,-348.70489570875344 40.00000000000052,-366.0254037844423 20.000000000000373,-366.02540378444235 10.000000000000362,-383.3459118601313 30.000000000000508,-383.34591186013125 50.000000000000654,-383.3459118601312 60.00000000000067,-366.0254037844423 80.00000000000081,-366.02540378444223 90.00000000000094,-383.3459118601311 100.00000000000107,-400.66641993581993 80.00000000000092,-400.66641993582 70.00000000000078,-383.34591186013114 60.00000000000077,-400.66641993582004 70.0000000000009,-417.9869280115089 60.00000000000088,-435.30743608719786 40.00000000000074,-435.3074360871979 20.000000000000593,-435.30743608719797 30.000000000000597,-417.986928011509 50.00000000000074,-417.98692801150895 40.0000000000006,-400.6664199358201 20.00000000000045,-400.66641993582016 10.000000000000442,-417.9869280115091 -9.999999999999703,-417.9869280115092 3.0020430585864233e-13,-400.6664199358202 -9.999999999999842,-383.34591186013137 -19.99999999999985,-400.6664199358203 -29.999999999999858,-417.98692801150924 -19.999999999999723,-435.3074360871981 4.227729277772596e-13,-435.307436087198 10.000000000000556,-452.6279441628869 -9.99999999999959,-452.62794416288693 -19.999999999999602,-469.9484522385759 5.435651928564766e-13,-469.94845223857584 20.00000000000069,-469.9484522385758 30.000000000000707,-452.6279441628869 50.00000000000085,-452.6279441628868 60.00000000000099,-469.94845223857567 40.00000000000084,-469.9484522385757 30.000000000000828,-487.26896031426463 50.00000000000097,-487.2689603142646 70.00000000000112,-487.2689603142645 80.00000000000114,-469.9484522385756 70.00000000000101,-452.62794416288676 80.00000000000102,-435.30743608719786 90.00000000000104,-417.9869280115089 100.00000000000117,-435.30743608719774 90.00000000000115,-452.6279441628867 110.0000000000013,-452.62794416288665 120.00000000000131,-435.30743608719774 140.00000000000145,-435.3074360871977 150.0000000000016,-452.62794416288654 130.00000000000145,-452.6279441628866 120.00000000000144,-469.94845223857556 140.0000000000016,-469.9484522385755 160.00000000000173,-469.94845223857544 170.00000000000176,-452.62794416288654 190.0000000000019,-452.6279441628865 200.00000000000205,-469.9484522385753 210.0000000000022,-487.2689603142642 190.00000000000205,-487.26896031426423 180.0000000000019,-469.9484522385754 170.0000000000019,-487.2689603142643 180.00000000000205,-504.58946838995314 170.00000000000205,-521.9099764656421 150.0000000000019,-521.9099764656422 130.00000000000176,-521.9099764656423 140.00000000000176,-504.58946838995337 160.0000000000019,-504.5894683899533 150.00000000000176,-487.26896031426446 130.00000000000162,-487.2689603142645 120.0000000000016,-504.5894683899535 100.00000000000146,-504.58946838995354 110.00000000000146,-487.2689603142646 100.00000000000132,-469.9484522385757 90.00000000000131,-487.26896031426463 80.0000000000013,-504.5894683899536 90.00000000000142,-521.9099764656424 110.00000000000156,-521.9099764656423 120.00000000000169,-539.2304845413312 100.00000000000155,-539.2304845413313 90.00000000000153,-556.5509926170203 110.00000000000168,-556.5509926170201 130.00000000000182,-556.55099261702 140.00000000000185,-539.2304845413311 160.000000000002,-539.230484541331 170.00000000000213,-556.5509926170198 150.000000000002,-556.5509926170199 140.000000000002,-573.8715006927089 160.00000000000213,-573.8715006927088 180.00000000000227,-573.8715006927087 190.0000000000023,-556.5509926170197 180.00000000000216,-539.2304845413308 190.0000000000022,-521.9099764656419 200.00000000000222,-504.5894683899529 210.00000000000236,-521.9099764656418 200.00000000000233,-539.2304845413307 220.00000000000247,-539.2304845413306 230.0000000000025,-521.9099764656416 220.0000000000024,-504.5894683899528 230.00000000000242,-487.26896031426384 240.00000000000256,-504.5894683899527 260.00000000000273,-504.58946838995263 250.00000000000261,-487.2689603142638 240.0000000000025,-469.94845223857493 220.00000000000236,-469.948452238575 210.00000000000222,-452.62794416288614 220.00000000000222,-435.30743608719723 230.00000000000222,-417.9869280115083 240.00000000000236,-435.3074360871972 230.00000000000236,-452.62794416288614 250.0000000000025,-452.6279441628861 260.0000000000025,-435.3074360871971 250.00000000000236,-417.98692801150827 260.0000000000024,-400.6664199358193 270.0000000000024,-383.34591186013034 280.0000000000025,-400.6664199358192 270.0000000000025,-417.98692801150816 290.0000000000027,-417.9869280115081 300.0000000000027,-400.66641993581914 320.00000000000284,-400.6664199358191 330.00000000000296,-417.9869280115079 340.00000000000307,-435.3074360871968 320.0000000000029,-435.30743608719683 310.00000000000273,-417.986928011508 300.00000000000273,-435.30743608719695 310.00000000000284,-452.6279441628858 300.00000000000284,-469.94845223857476 280.0000000000027,-469.9484522385748 290.0000000000027,-452.62794416288585 280.0000000000025,-435.307436087197 270.0000000000025,-452.62794416288597 260.0000000000025,-469.94845223857493 270.0000000000026,-487.2689603142638 290.0000000000028,-487.2689603142637 300.00000000000296,-504.5894683899526 280.0000000000028,-504.58946838995263 270.0000000000028,-521.9099764656415 290.00000000000296,-521.9099764656414 310.0000000000031,-521.9099764656413 320.0000000000031,-504.58946838995234 310.000000000003,-487.2689603142635 320.000000000003,-469.94845223857453 330.000000000003,-452.62794416288557 340.0000000000032,-469.9484522385744 330.0000000000032,-487.2689603142634 350.00000000000335,-487.2689603142633 360.00000000000335,-469.94845223857436 350.00000000000324,-452.62794416288546 360.00000000000324,-435.3074360871965 370.0000000000034,-452.62794416288534 390.0000000000036,-452.6279441628853 380.00000000000347,-435.3074360871964 370.00000000000335,-417.98692801150753 350.0000000000032,-417.9869280115076 340.00000000000307,-400.6664199358187 350.00000000000307,-383.3459118601297 360.00000000000307,-366.02540378444075 370.0000000000032,-383.3459118601296 360.0000000000032,-400.66641993581857 380.00000000000335,-400.6664199358185 390.00000000000335,-383.34591186012955 410.0000000000035,-383.3459118601295 420.00000000000364,-400.66641993581834 430.00000000000375,-417.9869280115072 410.0000000000036,-417.98692801150725 400.0000000000034,-400.6664199358184 390.0000000000034,-417.98692801150736 400.0000000000035,-435.3074360871962 420.0000000000037,-435.30743608719615 430.00000000000387,-452.627944162885 410.0000000000037,-452.62794416288506 400.0000000000037,-469.948452238574 420.00000000000387,-469.94845223857396 440.00000000000404,-469.9484522385739 450.00000000000404,-452.62794416288494 440.0000000000039,-435.30743608719604 450.0000000000039,-417.9869280115071 460.0000000000041,-435.3074360871959 480.00000000000426,-435.30743608719587 470.00000000000415,-417.98692801150696 460.00000000000404,-400.6664199358181 440.00000000000387,-400.66641993581817 430.00000000000375,-383.34591186012926 440.00000000000375,-366.0254037844403 450.00000000000387,-383.34591186012915 470.00000000000404,-383.3459118601291 460.0000000000039,-366.0254037844402 450.0000000000038,-348.70489570875134 430.00000000000364,-348.7048957087514 420.00000000000364,-366.02540378444036 400.00000000000347,-366.0254037844404 380.0000000000033,-366.02540378444047 390.0000000000033,-348.7048957087515 410.00000000000347,-348.70489570875145 400.00000000000335,-331.3843876330626 380.0000000000032,-331.38438763306266 370.00000000000307,-314.06387955737375 380.00000000000307,-296.7433714816848 390.0000000000032,-314.06387955737364 410.00000000000335,-314.0638795573736 400.00000000000324,-296.7433714816847 390.0000000000031,-279.4228634059958 370.00000000000296,-279.4228634059959 360.00000000000284,-262.102355330307 370.00000000000284,-244.78184725461804 380.00000000000284,-227.4613391789291 390.00000000000296,-244.781847254618 380.00000000000296,-262.1023553303069 400.0000000000031,-262.10235533030686 410.0000000000031,-244.78184725461793 400.000000000003,-227.46133917892905 410.000000000003,-210.14083110324012 420.000000000003,-192.82032302755118 430.0000000000032,-210.14083110324006 420.0000000000032,-227.461339178929 440.00000000000335,-227.46133917892894 450.00000000000335,-210.14083110324 470.0000000000035,-210.14083110323995 480.00000000000364,-227.46133917892882 490.00000000000375,-244.7818472546177 470.0000000000036,-244.7818472546178 460.0000000000034,-227.4613391789289 450.0000000000034,-244.78184725461784 460.0000000000035,-262.1023553303067 450.0000000000035,-279.42286340599566 430.00000000000335,-279.4228634059957 440.00000000000335,-262.10235533030675 430.0000000000032,-244.78184725461787 420.0000000000032,-262.1023553303068 410.0000000000032,-279.42286340599577 420.0000000000033,-296.7433714816846 440.00000000000347,-296.74337148168456 450.00000000000364,-314.0638795573734 430.00000000000347,-314.06387955737347 420.00000000000347,-331.38438763306243 440.00000000000364,-331.3843876330624 460.0000000000038,-331.3843876330623 470.0000000000038,-314.06387955737335 460.0000000000037,-296.74337148168445 470.0000000000037,-279.4228634059955 480.0000000000037,-262.1023553303065 490.00000000000387,-279.4228634059954 480.00000000000387,-296.74337148168433 500.00000000000404,-296.7433714816843 510.00000000000404,-279.4228634059953 500.0000000000039,-262.1023553303064 510.0000000000039,-244.78184725461747 520.0000000000041,-262.10235533030635 540.0000000000042,-262.1023553303063 530.0000000000041,-244.78184725461742 520.000000000004,-227.46133917892854 500.0000000000038,-227.4613391789286 490.0000000000037,-210.14083110323972 500.0000000000037,-192.82032302755078 510.0000000000037,-175.49981495186185 520.0000000000039,-192.82032302755073 510.00000000000387,-210.1408311032397 530.000000000004,-210.14083110323963 540.000000000004,-192.8203230275507 530.0000000000039,-175.49981495186182 540.0000000000039,-158.1793068761729 550.0000000000039,-140.85879880048395 560.000000000004,-158.17930687617283 550.000000000004,-175.49981495186177 570.0000000000041,-175.4998149518617 580.0000000000041,-158.17930687617277 600.0000000000042,-158.17930687617272 610.0000000000043,-175.4998149518616 620.0000000000044,-192.82032302755047 600.0000000000043,-192.82032302755056 590.0000000000042,-175.49981495186168 580.0000000000042,-192.82032302755061 590.0000000000043,-210.1408311032395 580.0000000000043,-227.46133917892843 560.0000000000042,-227.4613391789285 570.0000000000042,-210.14083110323955 560.0000000000041,-192.82032302755067 550.0000000000041,-210.14083110323963 540.0000000000041,-227.4613391789286 550.0000000000042,-244.78184725461747 570.0000000000043,-244.78184725461742 580.0000000000044,-262.1023553303063 560.0000000000043,-262.10235533030635 550.0000000000043,-279.4228634059953 570.0000000000044,-279.42286340599526 590.0000000000045,-279.4228634059952 600.0000000000045,-262.10235533030624 590.0000000000044,-244.78184725461736 600.0000000000044,-227.46133917892843 610.0000000000044,-210.1408311032395 620.0000000000045,-227.46133917892837 610.0000000000045,-244.78184725461733 630.0000000000047,-244.78184725461728 640.0000000000047,-227.46133917892834 660.0000000000048,-227.46133917892828 670.0000000000049,-244.78184725461716 650.0000000000048,-244.78184725461725 640.0000000000048,-262.1023553303062 660.0000000000049,-262.1023553303061 680.000000000005,-262.10235533030607 690.000000000005,-244.78184725461713 710.0000000000051,-244.78184725461708 720.0000000000052,-262.10235533030595 730.0000000000053,-279.4228634059948 710.0000000000052,-279.42286340599486 700.0000000000051,-262.102355330306 690.0000000000051,-279.422863405995 700.0000000000052,-296.7433714816838 720.0000000000053,-296.74337148168377 730.0000000000055,-314.0638795573726 740.0000000000056,-331.38438763306146 720.0000000000055,-331.3843876330615 710.0000000000053,-314.0638795573727 700.0000000000053,-331.38438763306164 710.0000000000055,-348.7048957087505 700.0000000000055,-366.02540378443945 680.0000000000053,-366.0254037844395 660.0000000000052,-366.02540378443956 670.0000000000052,-348.7048957087506 690.0000000000053,-348.7048957087505 680.0000000000052,-331.38438763306164 660.0000000000051,-331.3843876330617 650.000000000005,-314.06387955737284 660.000000000005,-296.7433714816839 670.0000000000051,-314.06387955737273 690.0000000000052,-314.0638795573726 680.0000000000051,-296.74337148168377 670.000000000005,-279.4228634059949 650.0000000000049,-279.422863405995 640.0000000000049,-296.74337148168394 620.0000000000048,-296.743371481684 630.0000000000048,-279.42286340599503 620.0000000000047,-262.1023553303062 610.0000000000047,-279.42286340599514 600.0000000000047,-296.7433714816841 610.0000000000048,-314.06387955737296 630.0000000000049,-314.0638795573729 640.000000000005,-331.38438763306175 650.0000000000051,-348.7048957087506 630.000000000005,-348.70489570875066 620.0000000000049,-331.3843876330618 610.0000000000049,-348.70489570875077 620.000000000005,-366.0254037844396 610.000000000005,-383.3459118601286 590.0000000000049,-383.34591186012864 600.0000000000049,-366.0254037844397 590.0000000000048,-348.7048957087508 580.0000000000048,-366.0254037844398 570.0000000000048,-383.34591186012875 580.0000000000049,-400.6664199358176 570.0000000000049,-417.98692801150656 550.0000000000048,-417.9869280115066 530.0000000000047,-417.9869280115067 540.0000000000047,-400.6664199358177 560.0000000000048,-400.6664199358176 550.0000000000047,-383.34591186012875 530.0000000000045,-383.3459118601288 520.0000000000044,-366.02540378443996 530.0000000000044,-348.704895708751 540.0000000000044,-331.38438763306203 550.0000000000045,-348.7048957087509 540.0000000000045,-366.02540378443985 560.0000000000047,-366.02540378443973 570.0000000000047,-348.70489570875077 560.0000000000045,-331.3843876330619 570.0000000000045,-314.06387955737296 580.0000000000047,-331.3843876330618 600.0000000000048,-331.3843876330617 590.0000000000047,-314.06387955737284 580.0000000000045,-296.743371481684 560.0000000000044,-296.74337148168405 550.0000000000044,-314.063879557373 530.0000000000043,-314.06387955737307 540.0000000000043,-296.7433714816841 530.0000000000042,-279.42286340599526 520.0000000000042,-296.7433714816842 510.0000000000042,-314.0638795573732 520.0000000000043,-331.38438763306203 510.0000000000043,-348.704895708751 490.00000000000415,-348.70489570875105 500.00000000000415,-331.3843876330621 490.000000000004,-314.06387955737324 480.000000000004,-331.3843876330622 470.000000000004,-348.70489570875117 480.0000000000041,-366.02540378444 500.00000000000426,-366.02540378443996 510.00000000000443,-383.3459118601288 520.0000000000045,-400.66641993581766 500.0000000000044,-400.6664199358177 490.0000000000042,-383.34591186012887 480.0000000000042,-400.6664199358178 490.0000000000043,-417.9869280115067 510.0000000000045,-417.9869280115066 520.0000000000047,-435.30743608719547 500.0000000000045,-435.3074360871955 490.0000000000045,-452.6279441628845 510.00000000000466,-452.62794416288443 530.0000000000048,-452.6279441628844 540.0000000000048,-435.3074360871954 560.0000000000049,-435.30743608719536 570.000000000005,-452.6279441628842 580.0000000000051,-469.94845223857305 560.000000000005,-469.9484522385731 550.0000000000049,-452.62794416288426 540.0000000000049,-469.9484522385732 550.000000000005,-487.2689603142621 540.000000000005,-504.58946838995104 520.0000000000049,-504.5894683899511 500.0000000000047,-504.58946838995115 510.0000000000047,-487.2689603142622 530.0000000000049,-487.2689603142621 520.0000000000048,-469.9484522385732 500.0000000000046,-469.9484522385733 490.0000000000046,-487.26896031426224 470.00000000000443,-487.2689603142623 480.00000000000443,-469.94845223857334 470.00000000000426,-452.6279441628845 460.00000000000426,-469.94845223857345 450.00000000000426,-487.2689603142624 460.00000000000443,-504.58946838995126 480.0000000000046,-504.5894683899512 490.0000000000048,-521.90997646564 470.0000000000046,-521.9099764656402 460.0000000000046,-539.2304845413291 480.0000000000048,-539.230484541329 500.00000000000495,-539.2304845413289 510.00000000000495,-521.9099764656399 530.0000000000051,-521.9099764656398 540.0000000000052,-539.2304845413287 520.0000000000051,-539.2304845413288 510.0000000000051,-556.5509926170178 530.0000000000052,-556.5509926170176 550.0000000000053,-556.5509926170175 560.0000000000053,-539.2304845413286 550.0000000000052,-521.9099764656397 560.0000000000052,-504.58946838995075 570.0000000000052,-487.2689603142618 580.0000000000053,-504.58946838995064 570.0000000000053,-521.9099764656396 590.0000000000055,-521.9099764656395 600.0000000000055,-504.5894683899505 590.0000000000053,-487.2689603142617 600.0000000000053,-469.9484522385727 610.0000000000055,-487.26896031426156 630.0000000000056,-487.2689603142615 620.0000000000055,-469.9484522385726 610.0000000000053,-452.62794416288375 590.0000000000052,-452.6279441628838 580.0000000000051,-435.3074360871949 590.0000000000051,-417.98692801150594 600.0000000000051,-400.666419935817 610.0000000000052,-417.9869280115058 600.0000000000052,-435.3074360871948 620.0000000000053,-435.30743608719473 630.0000000000053,-417.98692801150577 620.0000000000052,-400.66641993581686 630.0000000000052,-383.3459118601279 640.0000000000052,-366.02540378443894 650.0000000000053,-383.3459118601278 640.0000000000053,-400.66641993581675 660.0000000000055,-400.6664199358167 670.0000000000055,-383.3459118601277 690.0000000000056,-383.34591186012767 700.0000000000057,-400.6664199358165 710.0000000000058,-417.98692801150537 690.0000000000057,-417.9869280115054 680.0000000000056,-400.6664199358166 670.0000000000056,-417.98692801150554 680.0000000000057,-435.3074360871944 670.0000000000057,-452.62794416288335 650.0000000000056,-452.6279441628834 660.0000000000056,-435.30743608719445 650.0000000000055,-417.9869280115056 640.0000000000055,-435.30743608719456 630.0000000000055,-452.6279441628835 640.0000000000056,-469.9484522385724 660.0000000000057,-469.9484522385723 670.0000000000058,-487.26896031426116 650.0000000000057,-487.2689603142612 640.0000000000057,-504.5894683899502 660.0000000000058,-504.5894683899501 680.0000000000059,-504.58946838995007 690.0000000000059,-487.2689603142611 680.0000000000058,-469.94845223857226 690.0000000000058,-452.6279441628833 700.0000000000058,-435.30743608719433 710.0000000000059,-452.6279441628832 700.0000000000059,-469.94845223857214 720.000000000006,-469.9484522385721 730.000000000006,-452.6279441628831" style="stroke: red; fill: none; stroke-width: 1" /></svg>