<svg width="100%" height="100%" xmlns="http://www.w3.org/2000/svg"><polyline points=" 505.859375,500.0 508.7890625,494.92563239970053 502.9296875,494.92563239970053 500.0,489.85126479940106 505.859375,489.85126479940106 511.71875,489.85126479940106 514.6484375,494.92563239970053 520.5078125,494.92563239970053 523.4375,489.85126479940106 526.3671875,484.7768971991016 520.5078125,484.7768971991016 517.578125,489.85126479940106 514.6484375,484.7768971991016 517.578125,479.70252959880213 514.6484375,474.62816199850266 508.7890625,474.62816199850266 502.9296875,474.62816199850266 505.859375,479.70252959880213 511.71875,479.70252959880213 508.7890625,484.7768971991016 502.9296875,484.7768971991016 500.0,479.70252959880213 494.140625,479.70252959880213 497.0703125,484.7768971991016 494.140625,489.85126479940106 491.2109375,484.7768971991016 488.28125,479.70252959880213 491.2109375,474.62816199850266 497.0703125,474.62816199850266 500.0,469.5537943982032 494.140625,469.5537943982032 491.2109375,464.4794267979037 497.0703125,464.4794267979037 502.9296875,464.4794267979037 505.859375,469.5537943982032 511.71875,469.5537943982032 514.6484375,464.4794267979037 508.7890625,464.4794267979037 505.859375,459.40505919760426 511.71875,459.40505919760426 517.578125,459.40505919760426 520.5078125,464.4794267979037 517.578125,469.5537943982032 520.5078125,474.62816199850266 523.4375,479.70252959880213 526.3671875,474.62816199850266 523.4375,469.5537943982032 529.296875,469.5537943982032 532.2265625,474.62816199850266 538.0859375,474.62816199850266 541.015625,469.5537943982032 535.15625,469.5537943982032 532.2265625,464.4794267979037 538.0859375,464.4794267979037 543.9453125,464.4794267979037 546.875,469.5537943982032 552.734375,469.5537943982032 555.6640625,464.4794267979037 558.59375,459.40505919760426 552.734375,459.40505919760426 549.8046875,464.4794267979037 546.875,459.40505919760426 549.8046875,454.3306915973048 555.6640625,454.3306915973048 558.59375,449.2563239970053 561.5234375,444.18195639670586 555.6640625,444.18195639670586 552.734375,449.2563239970053 549.8046875,444.18195639670586 552.734375,439.1075887964064 549.8046875,434.0332211961069 543.9453125,434.0332211961069 538.0859375,434.0332211961069 541.015625,439.1075887964064 546.875,439.1075887964064 543.9453125,444.18195639670586 538.0859375,444.18195639670586 535.15625,449.2563239970053 538.0859375,454.3306915973048 541.015625,449.2563239970053 546.875,449.2563239970053 543.9453125,454.3306915973048 541.015625,459.40505919760426 535.15625,459.40505919760426 532.2265625,454.3306915973048 526.3671875,454.3306915973048 529.296875,459.40505919760426 526.3671875,464.4794267979037 523.4375,459.40505919760426 520.5078125,454.3306915973048 523.4375,449.2563239970053 529.296875,449.2563239970053 532.2265625,444.18195639670586 535.15625,439.1075887964064 529.296875,439.1075887964064 526.3671875,444.18195639670586 523.4375,439.1075887964064 526.3671875,434.0332211961069 523.4375,428.95885359580745 517.578125,428.95885359580745 520.5078125,434.0332211961069 517.578125,439.1075887964064 514.6484375,434.0332211961069 511.71875,428.95885359580745 514.6484375,423.884485995508 511.71875,418.8101183952085 505.859375,418.8101183952085 500.0,418.8101183952085 502.9296875,423.884485995508 508.7890625,423.884485995508 505.859375,428.95885359580745 500.0,428.95885359580745 497.0703125,423.884485995508 491.2109375,423.884485995508 485.3515625,423.884485995508 488.28125,428.95885359580745 494.140625,428.95885359580745 491.2109375,434.0332211961069 485.3515625,434.0332211961069 482.421875,439.1075887964064 485.3515625,444.18195639670586 488.28125,449.2563239970053 491.2109375,444.18195639670586 488.28125,439.1075887964064 494.140625,439.1075887964064 497.0703125,444.18195639670586 502.9296875,444.18195639670586 505.859375,439.1075887964064 500.0,439.1075887964064 497.0703125,434.0332211961069 502.9296875,434.0332211961069 508.7890625,434.0332211961069 511.71875,439.1075887964064 508.7890625,444.18195639670586 511.71875,449.2563239970053 514.6484375,444.18195639670586 520.5078125,444.18195639670586 517.578125,449.2563239970053 514.6484375,454.3306915973048 508.7890625,454.3306915973048 505.859375,449.2563239970053 500.0,449.2563239970053 494.140625,449.2563239970053 497.0703125,454.3306915973048 502.9296875,454.3306915973048 500.0,459.40505919760426 494.140625,459.40505919760426 491.2109375,454.3306915973048 485.3515625,454.3306915973048 488.28125,459.40505919760426 485.3515625,464.4794267979037 482.421875,459.40505919760426 479.4921875,454.3306915973048 482.421875,449.2563239970053 479.4921875,444.18195639670586 473.6328125,444.18195639670586 467.7734375,444.18195639670586 470.703125,449.2563239970053 476.5625,449.2563239970053 473.6328125,454.3306915973048 467.7734375,454.3306915973048 464.84375,459.40505919760426 467.7734375,464.4794267979037 470.703125,469.5537943982032 473.6328125,464.4794267979037 470.703125,459.40505919760426 476.5625,459.40505919760426 479.4921875,464.4794267979037 476.5625,469.5537943982032 479.4921875,474.62816199850266 482.421875,469.5537943982032 488.28125,469.5537943982032 485.3515625,474.62816199850266 482.421875,479.70252959880213 476.5625,479.70252959880213 473.6328125,474.62816199850266 467.7734375,474.62816199850266 470.703125,479.70252959880213 467.7734375,484.7768971991016 464.84375,479.70252959880213 461.9140625,474.62816199850266 464.84375,469.5537943982032 461.9140625,464.4794267979037 456.0546875,464.4794267979037 458.984375,469.5537943982032 456.0546875,474.62816199850266 453.125,469.5537943982032 450.1953125,464.4794267979037 453.125,459.40505919760426 458.984375,459.40505919760426 461.9140625,454.3306915973048 464.84375,449.2563239970053 458.984375,449.2563239970053 456.0546875,454.3306915973048 453.125,449.2563239970053 456.0546875,444.18195639670586 461.9140625,444.18195639670586 464.84375,439.1075887964064 458.984375,439.1075887964064 456.0546875,434.0332211961069 461.9140625,434.0332211961069 467.7734375,434.0332211961069 470.703125,439.1075887964064 476.5625,439.1075887964064 479.4921875,434.0332211961069 482.421875,428.95885359580745 476.5625,428.95885359580745 473.6328125,434.0332211961069 470.703125,428.95885359580745 473.6328125,423.884485995508 470.703125,418.8101183952085 464.84375,418.8101183952085 458.984375,418.8101183952085 461.9140625,423.884485995508 467.7734375,423.884485995508 464.84375,428.95885359580745 458.984375,428.95885359580745 456.0546875,423.884485995508 450.1953125,423.884485995508 453.125,428.95885359580745 450.1953125,434.0332211961069 447.265625,428.95885359580745 444.3359375,423.884485995508 447.265625,418.8101183952085 453.125,418.8101183952085 456.0546875,413.73575079490905 450.1953125,413.73575079490905 447.265625,408.6613831946096 453.125,408.6613831946096 458.984375,408.6613831946096 461.9140625,413.73575079490905 467.7734375,413.73575079490905 470.703125,408.6613831946096 464.84375,408.6613831946096 461.9140625,403.5870155943101 467.7734375,403.5870155943101 473.6328125,403.5870155943101 476.5625,408.6613831946096 473.6328125,413.73575079490905 476.5625,418.8101183952085 479.4921875,423.884485995508 482.421875,418.8101183952085 479.4921875,413.73575079490905 485.3515625,413.73575079490905 488.28125,418.8101183952085 494.140625,418.8101183952085 497.0703125,413.73575079490905 491.2109375,413.73575079490905 488.28125,408.6613831946096 494.140625,408.6613831946096 500.0,408.6613831946096 502.9296875,413.73575079490905 508.7890625,413.73575079490905 511.71875,408.6613831946096 514.6484375,403.5870155943101 508.7890625,403.5870155943101 505.859375,408.6613831946096 502.9296875,403.5870155943101 505.859375,398.51264799401065 502.9296875,393.4382803937112 497.0703125,393.4382803937112 491.2109375,393.4382803937112 494.140625,398.51264799401065 500.0,398.51264799401065 497.0703125,403.5870155943101 491.2109375,403.5870155943101 488.28125,398.51264799401065 482.421875,398.51264799401065 485.3515625,403.5870155943101 482.421875,408.6613831946096 479.4921875,403.5870155943101 476.5625,398.51264799401065 479.4921875,393.4382803937112 485.3515625,393.4382803937112 488.28125,388.3639127934117 482.421875,388.3639127934117 479.4921875,383.28954519311225 485.3515625,383.28954519311225 491.2109375,383.28954519311225 494.140625,388.3639127934117 500.0,388.3639127934117 502.9296875,383.28954519311225 497.0703125,383.28954519311225 494.140625,378.2151775928128 500.0,378.2151775928128 505.859375,378.2151775928128 508.7890625,383.28954519311225 505.859375,388.3639127934117 508.7890625,393.4382803937112 511.71875,398.51264799401065 514.6484375,393.4382803937112 511.71875,388.3639127934117 517.578125,388.3639127934117 520.5078125,393.4382803937112 517.578125,398.51264799401065 520.5078125,403.5870155943101 523.4375,398.51264799401065 529.296875,398.51264799401065 526.3671875,403.5870155943101 523.4375,408.6613831946096 517.578125,408.6613831946096 514.6484375,413.73575079490905 517.578125,418.8101183952085 520.5078125,423.884485995508 523.4375,418.8101183952085 520.5078125,413.73575079490905 526.3671875,413.73575079490905 529.296875,418.8101183952085 526.3671875,423.884485995508 529.296875,428.95885359580745 532.2265625,434.0332211961069 535.15625,428.95885359580745 532.2265625,423.884485995508 538.0859375,423.884485995508 541.015625,428.95885359580745 546.875,428.95885359580745 549.8046875,423.884485995508 552.734375,418.8101183952085 546.875,418.8101183952085 543.9453125,423.884485995508 541.015625,418.8101183952085 543.9453125,413.73575079490905 541.015625,408.6613831946096 535.15625,408.6613831946096 538.0859375,413.73575079490905 535.15625,418.8101183952085 532.2265625,413.73575079490905 529.296875,408.6613831946096 532.2265625,403.5870155943101 538.0859375,403.5870155943101 541.015625,398.51264799401065 535.15625,398.51264799401065 532.2265625,393.4382803937112 538.0859375,393.4382803937112 543.9453125,393.4382803937112 546.875,398.51264799401065 543.9453125,403.5870155943101 546.875,408.6613831946096 549.8046875,413.73575079490905 552.734375,408.6613831946096 549.8046875,403.5870155943101 555.6640625,403.5870155943101 558.59375,408.6613831946096 564.453125,408.6613831946096 567.3828125,403.5870155943101 561.5234375,403.5870155943101 558.59375,398.51264799401065 564.453125,398.51264799401065 570.3125,398.51264799401065 573.2421875,403.5870155943101 579.1015625,403.5870155943101 582.03125,398.51264799401065 584.9609375,393.4382803937112 579.1015625,393.4382803937112 576.171875,398.51264799401065 573.2421875,393.4382803937112 576.171875,388.3639127934117 573.2421875,383.28954519311225 567.3828125,383.28954519311225 561.5234375,383.28954519311225 564.453125,388.3639127934117 570.3125,388.3639127934117 567.3828125,393.4382803937112 561.5234375,393.4382803937112 558.59375,388.3639127934117 552.734375,388.3639127934117 555.6640625,393.4382803937112 552.734375,398.51264799401065 549.8046875,393.4382803937112 546.875,388.3639127934117 549.8046875,383.28954519311225 555.6640625,383.28954519311225 558.59375,378.2151775928128 552.734375,378.2151775928128 549.8046875,373.1408099925133 555.6640625,373.1408099925133 561.5234375,373.1408099925133 564.453125,378.2151775928128 570.3125,378.2151775928128 573.2421875,373.1408099925133 567.3828125,373.1408099925133 564.453125,368.06644239221384 570.3125,368.06644239221384 576.171875,368.06644239221384 579.1015625,373.1408099925133 576.171875,378.2151775928128 579.1015625,383.28954519311225 582.03125,388.3639127934117 584.9609375,383.28954519311225 582.03125,378.2151775928128 587.890625,378.2151775928128 590.8203125,383.28954519311225 596.6796875,383.28954519311225 599.609375,378.2151775928128 593.75,378.2151775928128 590.8203125,373.1408099925133 596.6796875,373.1408099925133 602.5390625,373.1408099925133 605.46875,378.2151775928128 611.328125,378.2151775928128 614.2578125,373.1408099925133 617.1875,368.06644239221384 611.328125,368.06644239221384 608.3984375,373.1408099925133 605.46875,368.06644239221384 608.3984375,362.9920747919144 614.2578125,362.9920747919144 617.1875,357.9177071916149 620.1171875,352.84333959131544 614.2578125,352.84333959131544 611.328125,357.9177071916149 608.3984375,352.84333959131544 611.328125,347.768971991016 608.3984375,342.6946043907165 602.5390625,342.6946043907165 596.6796875,342.6946043907165 599.609375,347.768971991016 605.46875,347.768971991016 602.5390625,352.84333959131544 596.6796875,352.84333959131544 593.75,357.9177071916149 596.6796875,362.9920747919144 599.609375,357.9177071916149 605.46875,357.9177071916149 602.5390625,362.9920747919144 599.609375,368.06644239221384 593.75,368.06644239221384 590.8203125,362.9920747919144 584.9609375,362.9920747919144 587.890625,368.06644239221384 584.9609375,373.1408099925133 582.03125,368.06644239221384 579.1015625,362.9920747919144 582.03125,357.9177071916149 587.890625,357.9177071916149 590.8203125,352.84333959131544 593.75,347.768971991016 587.890625,347.768971991016 584.9609375,352.84333959131544 582.03125,347.768971991016 584.9609375,342.6946043907165 590.8203125,342.6946043907165 593.75,337.62023679041704 587.890625,337.62023679041704 584.9609375,332.54586919011757 590.8203125,332.54586919011757 596.6796875,332.54586919011757 599.609375,337.62023679041704 605.46875,337.62023679041704 608.3984375,332.54586919011757 611.328125,327.4715015898181 605.46875,327.4715015898181 602.5390625,332.54586919011757 599.609375,327.4715015898181 602.5390625,322.39713398951864 608.3984375,322.39713398951864 611.328125,317.32276638921917 614.2578125,312.2483987889197 608.3984375,312.2483987889197 605.46875,317.32276638921917 602.5390625,312.2483987889197 605.46875,307.17403118862023 602.5390625,302.09966358832077 596.6796875,302.09966358832077 590.8203125,302.09966358832077 593.75,307.17403118862023 599.609375,307.17403118862023 596.6796875,312.2483987889197 590.8203125,312.2483987889197 587.890625,317.32276638921917 590.8203125,322.39713398951864 593.75,317.32276638921917 599.609375,317.32276638921917 596.6796875,322.39713398951864 593.75,327.4715015898181 587.890625,327.4715015898181 584.9609375,322.39713398951864 579.1015625,322.39713398951864 582.03125,327.4715015898181 579.1015625,332.54586919011757 576.171875,327.4715015898181 573.2421875,322.39713398951864 576.171875,317.32276638921917 582.03125,317.32276638921917 584.9609375,312.2483987889197 587.890625,307.17403118862023 582.03125,307.17403118862023 579.1015625,312.2483987889197 576.171875,307.17403118862023 579.1015625,302.09966358832077 576.171875,297.0252959880213 570.3125,297.0252959880213 573.2421875,302.09966358832077 570.3125,307.17403118862023 567.3828125,302.09966358832077 564.453125,297.0252959880213 567.3828125,291.95092838772183 564.453125,286.87656078742236 558.59375,286.87656078742236 552.734375,286.87656078742236 555.6640625,291.95092838772183 561.5234375,291.95092838772183 558.59375,297.0252959880213 552.734375,297.0252959880213 549.8046875,291.95092838772183 543.9453125,291.95092838772183 538.0859375,291.95092838772183 541.015625,297.0252959880213 546.875,297.0252959880213 543.9453125,302.09966358832077 538.0859375,302.09966358832077 535.15625,307.17403118862023 538.0859375,312.2483987889197 541.015625,317.32276638921917 543.9453125,312.2483987889197 541.015625,307.17403118862023 546.875,307.17403118862023 549.8046875,312.2483987889197 555.6640625,312.2483987889197 558.59375,307.17403118862023 552.734375,307.17403118862023 549.8046875,302.09966358832077 555.6640625,302.09966358832077 561.5234375,302.09966358832077 564.453125,307.17403118862023 561.5234375,312.2483987889197 564.453125,317.32276638921917 567.3828125,312.2483987889197 573.2421875,312.2483987889197 570.3125,317.32276638921917 567.3828125,322.39713398951864 561.5234375,322.39713398951864 558.59375,317.32276638921917 552.734375,317.32276638921917 546.875,317.32276638921917 549.8046875,322.39713398951864 555.6640625,322.39713398951864 552.734375,327.4715015898181 546.875,327.4715015898181 543.9453125,332.54586919011757 546.875,337.62023679041704 549.8046875,332.54586919011757 555.6640625,332.54586919011757 552.734375,337.62023679041704 549.8046875,342.6946043907165 543.9453125,342.6946043907165 541.015625,347.768971991016 543.9453125,352.84333959131544 546.875,357.9177071916149 549.8046875,352.84333959131544 546.875,347.768971991016 552.734375,347.768971991016 555.6640625,352.84333959131544 561.5234375,352.84333959131544 564.453125,347.768971991016 567.3828125,342.6946043907165 561.5234375,342.6946043907165 558.59375,347.768971991016 555.6640625,342.6946043907165 558.59375,337.62023679041704 564.453125,337.62023679041704 567.3828125,332.54586919011757 561.5234375,332.54586919011757 558.59375,327.4715015898181 564.453125,327.4715015898181 570.3125,327.4715015898181 573.2421875,332.54586919011757 570.3125,337.62023679041704 573.2421875,342.6946043907165 576.171875,337.62023679041704 582.03125,337.62023679041704 579.1015625,342.6946043907165 576.171875,347.768971991016 570.3125,347.768971991016 567.3828125,352.84333959131544 570.3125,357.9177071916149 573.2421875,352.84333959131544 579.1015625,352.84333959131544 576.171875,357.9177071916149 573.2421875,362.9920747919144 567.3828125,362.9920747919144 564.453125,357.9177071916149 558.59375,357.9177071916149 552.734375,357.9177071916149 555.6640625,362.9920747919144 561.5234375,362.9920747919144 558.59375,368.06644239221384 552.734375,368.06644239221384 549.8046875,362.9920747919144 543.9453125,362.9920747919144 546.875,368.06644239221384 543.9453125,373.1408099925133 541.015625,368.06644239221384 538.0859375,362.9920747919144 541.015625,357.9177071916149 538.0859375,352.84333959131544 532.2265625,352.84333959131544 526.3671875,352.84333959131544 529.296875,357.9177071916149 535.15625,357.9177071916149 532.2265625,362.9920747919144 526.3671875,362.9920747919144 523.4375,368.06644239221384 526.3671875,373.1408099925133 529.296875,378.2151775928128 532.2265625,373.1408099925133 529.296875,368.06644239221384 535.15625,368.06644239221384 538.0859375,373.1408099925133 535.15625,378.2151775928128 538.0859375,383.28954519311225 541.015625,378.2151775928128 546.875,378.2151775928128 543.9453125,383.28954519311225 541.015625,388.3639127934117 535.15625,388.3639127934117 532.2265625,383.28954519311225 526.3671875,383.28954519311225 529.296875,388.3639127934117 526.3671875,393.4382803937112 523.4375,388.3639127934117 520.5078125,383.28954519311225 523.4375,378.2151775928128 520.5078125,373.1408099925133 514.6484375,373.1408099925133 517.578125,378.2151775928128 514.6484375,383.28954519311225 511.71875,378.2151775928128 508.7890625,373.1408099925133 511.71875,368.06644239221384 517.578125,368.06644239221384 520.5078125,362.9920747919144 523.4375,357.9177071916149 517.578125,357.9177071916149 514.6484375,362.9920747919144 511.71875,357.9177071916149 514.6484375,352.84333959131544 520.5078125,352.84333959131544 523.4375,347.768971991016 517.578125,347.768971991016 514.6484375,342.6946043907165 520.5078125,342.6946043907165 526.3671875,342.6946043907165 529.296875,347.768971991016 535.15625,347.768971991016 538.0859375,342.6946043907165 541.015625,337.62023679041704 535.15625,337.62023679041704 532.2265625,342.6946043907165 529.296875,337.62023679041704 532.2265625,332.54586919011757 538.0859375,332.54586919011757 541.015625,327.4715015898181 543.9453125,322.39713398951864 538.0859375,322.39713398951864 535.15625,327.4715015898181 532.2265625,322.39713398951864 535.15625,317.32276638921917 532.2265625,312.2483987889197 526.3671875,312.2483987889197 520.5078125,312.2483987889197 523.4375,317.32276638921917 529.296875,317.32276638921917 526.3671875,322.39713398951864 520.5078125,322.39713398951864 517.578125,327.4715015898181 520.5078125,332.54586919011757 523.4375,327.4715015898181 529.296875,327.4715015898181 526.3671875,332.54586919011757 523.4375,337.62023679041704 517.578125,337.62023679041704 514.6484375,332.54586919011757 508.7890625,332.54586919011757 511.71875,337.62023679041704 508.7890625,342.6946043907165 505.859375,337.62023679041704 502.9296875,332.54586919011757 505.859375,327.4715015898181 511.71875,327.4715015898181 514.6484375,322.39713398951864 517.578125,317.32276638921917 511.71875,317.32276638921917 508.7890625,322.39713398951864 505.859375,317.32276638921917 508.7890625,312.2483987889197 505.859375,307.17403118862023 500.0,307.17403118862023 502.9296875,312.2483987889197 500.0,317.32276638921917 497.0703125,312.2483987889197 494.140625,307.17403118862023 497.0703125,302.09966358832077 494.140625,297.0252959880213 488.28125,297.0252959880213 482.421875,297.0252959880213 485.3515625,302.09966358832077 491.2109375,302.09966358832077 488.28125,307.17403118862023 482.421875,307.17403118862023 479.4921875,312.2483987889197 482.421875,317.32276638921917 485.3515625,322.39713398951864 488.28125,317.32276638921917 485.3515625,312.2483987889197 491.2109375,312.2483987889197 494.140625,317.32276638921917 491.2109375,322.39713398951864 494.140625,327.4715015898181 497.0703125,322.39713398951864 502.9296875,322.39713398951864 500.0,327.4715015898181 497.0703125,332.54586919011757 491.2109375,332.54586919011757 488.28125,327.4715015898181 482.421875,327.4715015898181 485.3515625,332.54586919011757 482.421875,337.62023679041704 479.4921875,332.54586919011757 476.5625,327.4715015898181 479.4921875,322.39713398951864 476.5625,317.32276638921917 470.703125,317.32276638921917 473.6328125,322.39713398951864 470.703125,327.4715015898181 467.7734375,322.39713398951864 464.84375,317.32276638921917 467.7734375,312.2483987889197 473.6328125,312.2483987889197 476.5625,307.17403118862023 479.4921875,302.09966358832077 473.6328125,302.09966358832077 470.703125,307.17403118862023 467.7734375,302.09966358832077 470.703125,297.0252959880213 467.7734375,291.95092838772183 461.9140625,291.95092838772183 464.84375,297.0252959880213 461.9140625,302.09966358832077 458.984375,297.0252959880213 456.0546875,291.95092838772183 458.984375,286.87656078742236 456.0546875,281.8021931871229 450.1953125,281.8021931871229 444.3359375,281.8021931871229 447.265625,286.87656078742236 453.125,286.87656078742236 450.1953125,291.95092838772183 444.3359375,291.95092838772183 441.40625,286.87656078742236 435.546875,286.87656078742236 429.6875,286.87656078742236 432.6171875,291.95092838772183 438.4765625,291.95092838772183 435.546875,297.0252959880213 429.6875,297.0252959880213 426.7578125,302.09966358832077 429.6875,307.17403118862023 432.6171875,312.2483987889197 435.546875,307.17403118862023 432.6171875,302.09966358832077 438.4765625,302.09966358832077 441.40625,307.17403118862023 447.265625,307.17403118862023 450.1953125,302.09966358832077 444.3359375,302.09966358832077 441.40625,297.0252959880213 447.265625,297.0252959880213 453.125,297.0252959880213 456.0546875,302.09966358832077 453.125,307.17403118862023 456.0546875,312.2483987889197 458.984375,307.17403118862023 464.84375,307.17403118862023 461.9140625,312.2483987889197 458.984375,317.32276638921917 453.125,317.32276638921917 450.1953125,312.2483987889197 444.3359375,312.2483987889197 438.4765625,312.2483987889197 441.40625,317.32276638921917 447.265625,317.32276638921917 444.3359375,322.39713398951864 438.4765625,322.39713398951864 435.546875,317.32276638921917 429.6875,317.32276638921917 432.6171875,322.39713398951864 429.6875,327.4715015898181 426.7578125,322.39713398951864 423.828125,317.32276638921917 426.7578125,312.2483987889197 423.828125,307.17403118862023 417.96875,307.17403118862023 412.109375,307.17403118862023 415.0390625,312.2483987889197 420.8984375,312.2483987889197 417.96875,317.32276638921917 412.109375,317.32276638921917 409.1796875,312.2483987889197 403.3203125,312.2483987889197 397.4609375,312.2483987889197 400.390625,317.32276638921917 406.25,317.32276638921917 403.3203125,322.39713398951864 397.4609375,322.39713398951864 394.53125,327.4715015898181 397.4609375,332.54586919011757 400.390625,337.62023679041704 403.3203125,332.54586919011757 400.390625,327.4715015898181 406.25,327.4715015898181 409.1796875,332.54586919011757 415.0390625,332.54586919011757 417.96875,327.4715015898181 412.109375,327.4715015898181 409.1796875,322.39713398951864 415.0390625,322.39713398951864 420.8984375,322.39713398951864 423.828125,327.4715015898181 420.8984375,332.54586919011757 423.828125,337.62023679041704 426.7578125,332.54586919011757 432.6171875,332.54586919011757 429.6875,337.62023679041704 426.7578125,342.6946043907165 420.8984375,342.6946043907165 417.96875,337.62023679041704 412.109375,337.62023679041704 406.25,337.62023679041704 409.1796875,342.6946043907165 415.0390625,342.6946043907165 412.109375,347.768971991016 406.25,347.768971991016 403.3203125,352.84333959131544 406.25,357.9177071916149 409.1796875,352.84333959131544 415.0390625,352.84333959131544 412.109375,357.9177071916149 409.1796875,362.9920747919144 403.3203125,362.9920747919144 400.390625,368.06644239221384 403.3203125,373.1408099925133 406.25,378.2151775928128 409.1796875,373.1408099925133 406.25,368.06644239221384 412.109375,368.06644239221384 415.0390625,373.1408099925133 412.109375,378.2151775928128 415.0390625,383.28954519311225 417.96875,388.3639127934117 420.8984375,383.28954519311225 417.96875,378.2151775928128 423.828125,378.2151775928128 426.7578125,383.28954519311225 432.6171875,383.28954519311225 435.546875,378.2151775928128 438.4765625,373.1408099925133 432.6171875,373.1408099925133 429.6875,378.2151775928128 426.7578125,373.1408099925133 429.6875,368.06644239221384 426.7578125,362.9920747919144 420.8984375,362.9920747919144 423.828125,368.06644239221384 420.8984375,373.1408099925133 417.96875,368.06644239221384 415.0390625,362.9920747919144 417.96875,357.9177071916149 423.828125,357.9177071916149 426.7578125,352.84333959131544 420.8984375,352.84333959131544 417.96875,347.768971991016 423.828125,347.768971991016 429.6875,347.768971991016 432.6171875,352.84333959131544 429.6875,357.9177071916149 432.6171875,362.9920747919144 435.546875,368.06644239221384 438.4765625,362.9920747919144 435.546875,357.9177071916149 441.40625,357.9177071916149 444.3359375,362.9920747919144 450.1953125,362.9920747919144 453.125,357.9177071916149 447.265625,357.9177071916149 444.3359375,352.84333959131544 450.1953125,352.84333959131544 456.0546875,352.84333959131544 458.984375,357.9177071916149 464.84375,357.9177071916149 467.7734375,352.84333959131544 470.703125,347.768971991016 464.84375,347.768971991016 461.9140625,352.84333959131544 458.984375,347.768971991016 461.9140625,342.6946043907165 458.984375,337.62023679041704 453.125,337.62023679041704 447.265625,337.62023679041704 450.1953125,342.6946043907165 456.0546875,342.6946043907165 453.125,347.768971991016 447.265625,347.768971991016 444.3359375,342.6946043907165 438.4765625,342.6946043907165 441.40625,347.768971991016 438.4765625,352.84333959131544 435.546875,347.768971991016 432.6171875,342.6946043907165 435.546875,337.62023679041704 441.40625,337.62023679041704 444.3359375,332.54586919011757 438.4765625,332.54586919011757 435.546875,327.4715015898181 441.40625,327.4715015898181 447.265625,327.4715015898181 450.1953125,332.54586919011757 456.0546875,332.54586919011757 458.984375,327.4715015898181 453.125,327.4715015898181 450.1953125,322.39713398951864 456.0546875,322.39713398951864 461.9140625,322.39713398951864 464.84375,327.4715015898181 461.9140625,332.54586919011757 464.84375,337.62023679041704 467.7734375,342.6946043907165 470.703125,337.62023679041704 467.7734375,332.54586919011757 473.6328125,332.54586919011757 476.5625,337.62023679041704 473.6328125,342.6946043907165 476.5625,347.768971991016 479.4921875,342.6946043907165 485.3515625,342.6946043907165 482.421875,347.768971991016 479.4921875,352.84333959131544 473.6328125,352.84333959131544 470.703125,357.9177071916149 473.6328125,362.9920747919144 476.5625,368.06644239221384 479.4921875,362.9920747919144 476.5625,357.9177071916149 482.421875,357.9177071916149 485.3515625,362.9920747919144 491.2109375,362.9920747919144 494.140625,357.9177071916149 497.0703125,352.84333959131544 491.2109375,352.84333959131544 488.28125,357.9177071916149 485.3515625,352.84333959131544 488.28125,347.768971991016 494.140625,347.768971991016 497.0703125,342.6946043907165 491.2109375,342.6946043907165 488.28125,337.62023679041704 494.140625,337.62023679041704 500.0,337.62023679041704 502.9296875,342.6946043907165 500.0,347.768971991016 502.9296875,352.84333959131544 505.859375,347.768971991016 511.71875,347.768971991016 508.7890625,352.84333959131544 505.859375,357.9177071916149 500.0,357.9177071916149 497.0703125,362.9920747919144 500.0,368.06644239221384 502.9296875,362.9920747919144 508.7890625,362.9920747919144 505.859375,368.06644239221384 502.9296875,373.1408099925133 497.0703125,373.1408099925133 494.140625,368.06644239221384 488.28125,368.06644239221384 482.421875,368.06644239221384 485.3515625,373.1408099925133 491.2109375,373.1408099925133 488.28125,378.2151775928128 482.421875,378.2151775928128 479.4921875,373.1408099925133 473.6328125,373.1408099925133 476.5625,378.2151775928128 473.6328125,383.28954519311225 470.703125,378.2151775928128 467.7734375,373.1408099925133 470.703125,368.06644239221384 467.7734375,362.9920747919144 461.9140625,362.9920747919144 456.0546875,362.9920747919144 458.984375,368.06644239221384 464.84375,368.06644239221384 461.9140625,373.1408099925133 456.0546875,373.1408099925133 453.125,368.06644239221384 447.265625,368.06644239221384 441.40625,368.06644239221384 444.3359375,373.1408099925133 450.1953125,373.1408099925133 447.265625,378.2151775928128 441.40625,378.2151775928128 438.4765625,383.28954519311225 441.40625,388.3639127934117 444.3359375,393.4382803937112 447.265625,388.3639127934117 444.3359375,383.28954519311225 450.1953125,383.28954519311225 453.125,388.3639127934117 458.984375,388.3639127934117 461.9140625,383.28954519311225 456.0546875,383.28954519311225 453.125,378.2151775928128 458.984375,378.2151775928128 464.84375,378.2151775928128 467.7734375,383.28954519311225 464.84375,388.3639127934117 467.7734375,393.4382803937112 470.703125,388.3639127934117 476.5625,388.3639127934117 473.6328125,393.4382803937112 470.703125,398.51264799401065 464.84375,398.51264799401065 461.9140625,393.4382803937112 456.0546875,393.4382803937112 450.1953125,393.4382803937112 453.125,398.51264799401065 458.984375,398.51264799401065 456.0546875,403.5870155943101 450.1953125,403.5870155943101 447.265625,398.51264799401065 441.40625,398.51264799401065 444.3359375,403.5870155943101 441.40625,408.6613831946096 438.4765625,403.5870155943101 435.546875,398.51264799401065 438.4765625,393.4382803937112 435.546875,388.3639127934117 429.6875,388.3639127934117 423.828125,388.3639127934117 426.7578125,393.4382803937112 432.6171875,393.4382803937112 429.6875,398.51264799401065 423.828125,398.51264799401065 420.8984375,403.5870155943101 423.828125,408.6613831946096 426.7578125,413.73575079490905 429.6875,408.6613831946096 426.7578125,403.5870155943101 432.6171875,403.5870155943101 435.546875,408.6613831946096 432.6171875,413.73575079490905 435.546875,418.8101183952085 438.4765625,413.73575079490905 444.3359375,413.73575079490905 441.40625,418.8101183952085 438.4765625,423.884485995508 432.6171875,423.884485995508 429.6875,418.8101183952085 423.828125,418.8101183952085 426.7578125,423.884485995508 423.828125,428.95885359580745 420.8984375,423.884485995508 417.96875,418.8101183952085 420.8984375,413.73575079490905 417.96875,408.6613831946096 412.109375,408.6613831946096 415.0390625,413.73575079490905 412.109375,418.8101183952085 409.1796875,413.73575079490905 406.25,408.6613831946096 409.1796875,403.5870155943101 415.0390625,403.5870155943101 417.96875,398.51264799401065 420.8984375,393.4382803937112 415.0390625,393.4382803937112 412.109375,398.51264799401065 409.1796875,393.4382803937112 412.109375,388.3639127934117 409.1796875,383.28954519311225 403.3203125,383.28954519311225 406.25,388.3639127934117 403.3203125,393.4382803937112 400.390625,388.3639127934117 397.4609375,383.28954519311225 400.390625,378.2151775928128 397.4609375,373.1408099925133 391.6015625,373.1408099925133 385.7421875,373.1408099925133 388.671875,378.2151775928128 394.53125,378.2151775928128 391.6015625,383.28954519311225 385.7421875,383.28954519311225 382.8125,378.2151775928128 376.953125,378.2151775928128 371.09375,378.2151775928128 374.0234375,383.28954519311225 379.8828125,383.28954519311225 376.953125,388.3639127934117 371.09375,388.3639127934117 368.1640625,393.4382803937112 371.09375,398.51264799401065 374.0234375,403.5870155943101 376.953125,398.51264799401065 374.0234375,393.4382803937112 379.8828125,393.4382803937112 382.8125,398.51264799401065 388.671875,398.51264799401065 391.6015625,393.4382803937112 385.7421875,393.4382803937112 382.8125,388.3639127934117 388.671875,388.3639127934117 394.53125,388.3639127934117 397.4609375,393.4382803937112 394.53125,398.51264799401065 397.4609375,403.5870155943101 400.390625,398.51264799401065 406.25,398.51264799401065 403.3203125,403.5870155943101 400.390625,408.6613831946096 394.53125,408.6613831946096 391.6015625,403.5870155943101 385.7421875,403.5870155943101 379.8828125,403.5870155943101 382.8125,408.6613831946096 388.671875,408.6613831946096 385.7421875,413.73575079490905 379.8828125,413.73575079490905 376.953125,418.8101183952085 379.8828125,423.884485995508 382.8125,418.8101183952085 388.671875,418.8101183952085 385.7421875,423.884485995508 382.8125,428.95885359580745 376.953125,428.95885359580745 374.0234375,434.0332211961069 376.953125,439.1075887964064 379.8828125,444.18195639670586 382.8125,439.1075887964064 379.8828125,434.0332211961069 385.7421875,434.0332211961069 388.671875,439.1075887964064 385.7421875,444.18195639670586 388.671875,449.2563239970053 391.6015625,454.3306915973048 394.53125,449.2563239970053 391.6015625,444.18195639670586 397.4609375,444.18195639670586 400.390625,449.2563239970053 406.25,449.2563239970053 409.1796875,444.18195639670586 412.109375,439.1075887964064 406.25,439.1075887964064 403.3203125,444.18195639670586 400.390625,439.1075887964064 403.3203125,434.0332211961069 400.390625,428.95885359580745 394.53125,428.95885359580745 397.4609375,434.0332211961069 394.53125,439.1075887964064 391.6015625,434.0332211961069 388.671875,428.95885359580745 391.6015625,423.884485995508 397.4609375,423.884485995508 400.390625,418.8101183952085 394.53125,418.8101183952085 391.6015625,413.73575079490905 397.4609375,413.73575079490905 403.3203125,413.73575079490905 406.25,418.8101183952085 403.3203125,423.884485995508 406.25,428.95885359580745 409.1796875,434.0332211961069 412.109375,428.95885359580745 409.1796875,423.884485995508 415.0390625,423.884485995508 417.96875,428.95885359580745 415.0390625,434.0332211961069 417.96875,439.1075887964064 420.8984375,434.0332211961069 426.7578125,434.0332211961069 423.828125,439.1075887964064 420.8984375,444.18195639670586 415.0390625,444.18195639670586 412.109375,449.2563239970053 415.0390625,454.3306915973048 417.96875,459.40505919760426 420.8984375,454.3306915973048 417.96875,449.2563239970053 423.828125,449.2563239970053 426.7578125,454.3306915973048 432.6171875,454.3306915973048 435.546875,449.2563239970053 438.4765625,444.18195639670586 432.6171875,444.18195639670586 429.6875,449.2563239970053 426.7578125,444.18195639670586 429.6875,439.1075887964064 435.546875,439.1075887964064 438.4765625,434.0332211961069 432.6171875,434.0332211961069 429.6875,428.95885359580745 435.546875,428.95885359580745 441.40625,428.95885359580745 444.3359375,434.0332211961069 441.40625,439.1075887964064 444.3359375,444.18195639670586 447.265625,439.1075887964064 453.125,439.1075887964064 450.1953125,444.18195639670586 447.265625,449.2563239970053 441.40625,449.2563239970053 438.4765625,454.3306915973048 441.40625,459.40505919760426 444.3359375,454.3306915973048 450.1953125,454.3306915973048 447.265625,459.40505919760426 444.3359375,464.4794267979037 438.4765625,464.4794267979037 435.546875,459.40505919760426 429.6875,459.40505919760426 423.828125,459.40505919760426 426.7578125,464.4794267979037 432.6171875,464.4794267979037 429.6875,469.5537943982032 423.828125,469.5537943982032 420.8984375,464.4794267979037 415.0390625,464.4794267979037 417.96875,469.5537943982032 415.0390625,474.62816199850266 412.109375,469.5537943982032 409.1796875,464.4794267979037 412.109375,459.40505919760426 409.1796875,454.3306915973048 403.3203125,454.3306915973048 397.4609375,454.3306915973048 400.390625,459.40505919760426 406.25,459.40505919760426 403.3203125,464.4794267979037 397.4609375,464.4794267979037 394.53125,469.5537943982032 397.4609375,474.62816199850266 400.390625,479.70252959880213 403.3203125,474.62816199850266 400.390625,469.5537943982032 406.25,469.5537943982032 409.1796875,474.62816199850266 406.25,479.70252959880213 409.1796875,484.7768971991016 412.109375,479.70252959880213 417.96875,479.70252959880213 415.0390625,484.7768971991016 412.109375,489.85126479940106 406.25,489.85126479940106 403.3203125,484.7768971991016 397.4609375,484.7768971991016 400.390625,489.85126479940106 397.4609375,494.92563239970053 394.53125,489.85126479940106 391.6015625,484.7768971991016 394.53125,479.70252959880213 391.6015625,474.62816199850266 385.7421875,474.62816199850266 388.671875,479.70252959880213 385.7421875,484.7768971991016 382.8125,479.70252959880213 379.8828125,474.62816199850266 382.8125,469.5537943982032 388.671875,469.5537943982032 391.6015625,464.4794267979037 394.53125,459.40505919760426 388.671875,459.40505919760426 385.7421875,464.4794267979037 382.8125,459.40505919760426 385.7421875,454.3306915973048 382.8125,449.2563239970053 376.953125,449.2563239970053 379.8828125,454.3306915973048 376.953125,459.40505919760426 374.0234375,454.3306915973048 371.09375,449.2563239970053 374.0234375,444.18195639670586 371.09375,439.1075887964064 365.234375,439.1075887964064 359.375,439.1075887964064 362.3046875,444.18195639670586 368.1640625,444.18195639670586 365.234375,449.2563239970053 359.375,449.2563239970053 356.4453125,454.3306915973048 359.375,459.40505919760426 362.3046875,464.4794267979037 365.234375,459.40505919760426 362.3046875,454.3306915973048 368.1640625,454.3306915973048 371.09375,459.40505919760426 368.1640625,464.4794267979037 371.09375,469.5537943982032 374.0234375,464.4794267979037 379.8828125,464.4794267979037 376.953125,469.5537943982032 374.0234375,474.62816199850266 368.1640625,474.62816199850266 365.234375,469.5537943982032 359.375,469.5537943982032 362.3046875,474.62816199850266 359.375,479.70252959880213 356.4453125,474.62816199850266 353.515625,469.5537943982032 356.4453125,464.4794267979037 353.515625,459.40505919760426 347.65625,459.40505919760426 350.5859375,464.4794267979037 347.65625,469.5537943982032 344.7265625,464.4794267979037 341.796875,459.40505919760426 344.7265625,454.3306915973048 350.5859375,454.3306915973048 353.515625,449.2563239970053 356.4453125,444.18195639670586 350.5859375,444.18195639670586 347.65625,449.2563239970053 344.7265625,444.18195639670586 347.65625,439.1075887964064 353.515625,439.1075887964064 356.4453125,434.0332211961069 350.5859375,434.0332211961069 347.65625,428.95885359580745 353.515625,428.95885359580745 359.375,428.95885359580745 362.3046875,434.0332211961069 368.1640625,434.0332211961069 371.09375,428.95885359580745 374.0234375,423.884485995508 368.1640625,423.884485995508 365.234375,428.95885359580745 362.3046875,423.884485995508 365.234375,418.8101183952085 371.09375,418.8101183952085 374.0234375,413.73575079490905 376.953125,408.6613831946096 371.09375,408.6613831946096 368.1640625,413.73575079490905 365.234375,408.6613831946096 368.1640625,403.5870155943101 365.234375,398.51264799401065 359.375,398.51264799401065 353.515625,398.51264799401065 356.4453125,403.5870155943101 362.3046875,403.5870155943101 359.375,408.6613831946096 353.515625,408.6613831946096 350.5859375,413.73575079490905 353.515625,418.8101183952085 356.4453125,413.73575079490905 362.3046875,413.73575079490905 359.375,418.8101183952085 356.4453125,423.884485995508 350.5859375,423.884485995508 347.65625,418.8101183952085 341.796875,418.8101183952085 344.7265625,423.884485995508 341.796875,428.95885359580745 338.8671875,423.884485995508 335.9375,418.8101183952085 338.8671875,413.73575079490905 344.7265625,413.73575079490905 347.65625,408.6613831946096 350.5859375,403.5870155943101 344.7265625,403.5870155943101 341.796875,408.6613831946096 338.8671875,403.5870155943101 341.796875,398.51264799401065 347.65625,398.51264799401065 350.5859375,393.4382803937112 344.7265625,393.4382803937112 341.796875,388.3639127934117 347.65625,388.3639127934117 353.515625,388.3639127934117 356.4453125,393.4382803937112 362.3046875,393.4382803937112 365.234375,388.3639127934117 368.1640625,383.28954519311225 362.3046875,383.28954519311225 359.375,388.3639127934117 356.4453125,383.28954519311225 359.375,378.2151775928128 356.4453125,373.1408099925133 350.5859375,373.1408099925133 344.7265625,373.1408099925133 347.65625,378.2151775928128 353.515625,378.2151775928128 350.5859375,383.28954519311225 344.7265625,383.28954519311225 341.796875,378.2151775928128 335.9375,378.2151775928128 338.8671875,383.28954519311225 335.9375,388.3639127934117 333.0078125,383.28954519311225 330.078125,378.2151775928128 333.0078125,373.1408099925133 338.8671875,373.1408099925133 341.796875,368.06644239221384 335.9375,368.06644239221384 333.0078125,362.9920747919144 338.8671875,362.9920747919144 344.7265625,362.9920747919144 347.65625,368.06644239221384 353.515625,368.06644239221384 356.4453125,362.9920747919144 350.5859375,362.9920747919144 347.65625,357.9177071916149 353.515625,357.9177071916149 359.375,357.9177071916149 362.3046875,362.9920747919144 359.375,368.06644239221384 362.3046875,373.1408099925133 365.234375,378.2151775928128 368.1640625,373.1408099925133 365.234375,368.06644239221384 371.09375,368.06644239221384 374.0234375,373.1408099925133 379.8828125,373.1408099925133 382.8125,368.06644239221384 376.953125,368.06644239221384 374.0234375,362.9920747919144 379.8828125,362.9920747919144 385.7421875,362.9920747919144 388.671875,368.06644239221384 394.53125,368.06644239221384 397.4609375,362.9920747919144 400.390625,357.9177071916149 394.53125,357.9177071916149 391.6015625,362.9920747919144 388.671875,357.9177071916149 391.6015625,352.84333959131544 397.4609375,352.84333959131544 400.390625,347.768971991016 403.3203125,342.6946043907165 397.4609375,342.6946043907165 394.53125,347.768971991016 391.6015625,342.6946043907165 394.53125,337.62023679041704 391.6015625,332.54586919011757 385.7421875,332.54586919011757 379.8828125,332.54586919011757 382.8125,337.62023679041704 388.671875,337.62023679041704 385.7421875,342.6946043907165 379.8828125,342.6946043907165 376.953125,347.768971991016 379.8828125,352.84333959131544 382.8125,347.768971991016 388.671875,347.768971991016 385.7421875,352.84333959131544 382.8125,357.9177071916149 376.953125,357.9177071916149 374.0234375,352.84333959131544 368.1640625,352.84333959131544 371.09375,357.9177071916149 368.1640625,362.9920747919144 365.234375,357.9177071916149 362.3046875,352.84333959131544 365.234375,347.768971991016 371.09375,347.768971991016 374.0234375,342.6946043907165 376.953125,337.62023679041704 371.09375,337.62023679041704 368.1640625,342.6946043907165 365.234375,337.62023679041704 368.1640625,332.54586919011757 365.234375,327.4715015898181 359.375,327.4715015898181 362.3046875,332.54586919011757 359.375,337.62023679041704 356.4453125,332.54586919011757 353.515625,327.4715015898181 356.4453125,322.39713398951864 353.515625,317.32276638921917 347.65625,317.32276638921917 341.796875,317.32276638921917 344.7265625,322.39713398951864 350.5859375,322.39713398951864 347.65625,327.4715015898181 341.796875,327.4715015898181 338.8671875,322.39713398951864 333.0078125,322.39713398951864 327.1484375,322.39713398951864 330.078125,327.4715015898181 335.9375,327.4715015898181 333.0078125,332.54586919011757 327.1484375,332.54586919011757 324.21875,337.62023679041704 327.1484375,342.6946043907165 330.078125,347.768971991016 333.0078125,342.6946043907165 330.078125,337.62023679041704 335.9375,337.62023679041704 338.8671875,342.6946043907165 344.7265625,342.6946043907165 347.65625,337.62023679041704 341.796875,337.62023679041704 338.8671875,332.54586919011757 344.7265625,332.54586919011757 350.5859375,332.54586919011757 353.515625,337.62023679041704 350.5859375,342.6946043907165 353.515625,347.768971991016 356.44531250000006,342.6946043907165 362.3046875000001,342.6946043907165 359.3750000000001,347.768971991016 356.4453125000001,352.84333959131544 350.5859375000001,352.84333959131544 347.6562500000001,347.768971991016 341.7968750000001,347.768971991016 335.9375000000001,347.768971991016 338.8671875000001,352.84333959131544 344.7265625000001,352.84333959131544 341.7968750000001,357.9177071916149 335.9375000000001,357.9177071916149 333.0078125000001,352.84333959131544 327.1484375000001,352.84333959131544 330.0781250000001,357.9177071916149 327.1484375000001,362.9920747919144 324.2187500000001,357.9177071916149 321.2890625000001,352.84333959131544 324.2187500000001,347.768971991016 321.2890625000001,342.6946043907165 315.42968750000006,342.6946043907165 309.5703125,342.6946043907165 312.5,347.768971991016 318.35937500000006,347.768971991016 315.4296875,352.84333959131544 309.57031249999994,352.84333959131544 306.64062499999994,357.9177071916149 309.57031249999994,362.9920747919144 312.49999999999994,368.06644239221384 315.4296875,362.9920747919144 312.5,357.9177071916149 318.35937500000006,357.9177071916149 321.28906250000006,362.9920747919144 318.359375,368.06644239221384 321.2890625,373.1408099925133 324.21875000000006,368.06644239221384 330.0781250000001,368.06644239221384 327.14843750000006,373.1408099925133 324.21875,378.2151775928128 318.35937499999994,378.2151775928128 315.42968749999994,373.1408099925133 309.5703124999999,373.1408099925133 312.4999999999999,378.2151775928128 309.57031249999983,383.28954519311225 306.64062499999983,378.2151775928128 303.71093749999983,373.1408099925133 306.6406249999999,368.06644239221384 303.7109374999999,362.9920747919144 297.85156249999983,362.9920747919144 300.78124999999983,368.06644239221384 297.8515624999998,373.1408099925133 294.9218749999998,368.06644239221384 291.9921874999998,362.9920747919144 294.92187499999983,357.9177071916149 300.7812499999999,357.9177071916149 303.71093749999994,352.84333959131544 306.640625,347.768971991016 300.78124999999994,347.768971991016 297.8515624999999,352.84333959131544 294.9218749999999,347.768971991016 297.85156249999994,342.6946043907165 303.7109375,342.6946043907165 306.64062500000006,337.62023679041704 300.78125,337.62023679041704 297.8515625,332.54586919011757 303.71093750000006,332.54586919011757 309.5703125000001,332.54586919011757 312.5000000000001,337.62023679041704 318.35937500000017,337.62023679041704 321.2890625000002,332.54586919011757 324.2187500000003,327.4715015898181 318.3593750000002,327.4715015898181 315.42968750000017,332.54586919011757 312.50000000000017,327.4715015898181 315.4296875000002,322.39713398951864 312.5000000000002,317.32276638921917 306.64062500000017,317.32276638921917 300.7812500000001,317.32276638921917 303.7109375000001,322.39713398951864 309.57031250000017,322.39713398951864 306.6406250000001,327.4715015898181 300.78125000000006,327.4715015898181 297.85156250000006,322.39713398951864 291.9921875,322.39713398951864 294.921875,327.4715015898181 291.99218749999994,332.54586919011757 289.06249999999994,327.4715015898181 286.13281249999994,322.39713398951864 289.0625,317.32276638921917 294.92187500000006,317.32276638921917 297.8515625000001,312.2483987889197 291.99218750000006,312.2483987889197 289.06250000000006,307.17403118862023 294.9218750000001,307.17403118862023 300.78125000000017,307.17403118862023 303.71093750000017,312.2483987889197 309.5703125000002,312.2483987889197 312.5000000000003,307.17403118862023 306.6406250000002,307.17403118862023 303.7109375000002,302.09966358832077 309.5703125000003,302.09966358832077 315.42968750000034,302.09966358832077 318.35937500000034,307.17403118862023 315.42968750000034,312.2483987889197 318.35937500000034,317.32276638921917 321.28906250000034,322.39713398951864 324.2187500000004,317.32276638921917 321.2890625000004,312.2483987889197 327.14843750000045,312.2483987889197 330.07812500000045,317.32276638921917 335.9375000000005,317.32276638921917 338.86718750000057,312.2483987889197 333.0078125000005,312.2483987889197 330.0781250000005,307.17403118862023 335.93750000000057,307.17403118862023 341.7968750000006,307.17403118862023 344.7265625000006,312.2483987889197 350.5859375000007,312.2483987889197 353.51562500000074,307.17403118862023 356.4453125000008,302.09966358832077 350.58593750000074,302.09966358832077 347.6562500000007,307.17403118862023 344.7265625000007,302.09966358832077 347.65625000000074,297.0252959880213 344.72656250000074,291.95092838772183 338.8671875000007,291.95092838772183 333.0078125000006,291.95092838772183 335.9375000000006,297.0252959880213 341.7968750000007,297.0252959880213 338.8671875000006,302.09966358832077 333.00781250000057,302.09966358832077 330.07812500000057,297.0252959880213 324.2187500000005,297.0252959880213 327.1484375000005,302.09966358832077 324.21875000000045,307.17403118862023 321.28906250000045,302.09966358832077 318.35937500000045,297.0252959880213 321.2890625000005,291.95092838772183 327.14843750000057,291.95092838772183 330.0781250000006,286.87656078742236 324.21875000000057,286.87656078742236 321.28906250000057,281.8021931871229 327.1484375000006,281.8021931871229 333.0078125000007,281.8021931871229 335.9375000000007,286.87656078742236 341.79687500000074,286.87656078742236 344.7265625000008,281.8021931871229 338.86718750000074,281.8021931871229 335.93750000000074,276.7278255868234 341.7968750000008,276.7278255868234 347.65625000000085,276.7278255868234 350.58593750000085,281.8021931871229 347.6562500000008,286.87656078742236 350.5859375000008,291.95092838772183 353.5156250000008,297.0252959880213 356.44531250000085,291.95092838772183 353.51562500000085,286.87656078742236 359.3750000000009,286.87656078742236 362.3046875000009,291.95092838772183 359.3750000000009,297.0252959880213 362.3046875000009,302.09966358832077 365.23437500000097,297.0252959880213 371.093750000001,297.0252959880213 368.164062500001,302.09966358832077 365.234375000001,307.17403118862023 359.37500000000097,307.17403118862023 356.4453125000009,312.2483987889197 359.3750000000009,317.32276638921917 362.3046875000009,322.39713398951864 365.23437500000097,317.32276638921917 362.30468750000097,312.2483987889197 368.164062500001,312.2483987889197 371.093750000001,317.32276638921917 368.164062500001,322.39713398951864 371.093750000001,327.4715015898181 374.023437500001,332.54586919011757 376.9531250000011,327.4715015898181 374.0234375000011,322.39713398951864 379.88281250000114,322.39713398951864 382.81250000000114,327.4715015898181 388.6718750000012,327.4715015898181 391.60156250000125,322.39713398951864 394.5312500000013,317.32276638921917 388.67187500000125,317.32276638921917 385.7421875000012,322.39713398951864 382.8125000000012,317.32276638921917 385.74218750000125,312.2483987889197 382.81250000000125,307.17403118862023 376.9531250000012,307.17403118862023 379.8828125000012,312.2483987889197 376.95312500000114,317.32276638921917 374.02343750000114,312.2483987889197 371.09375000000114,307.17403118862023 374.0234375000012,302.09966358832077 379.88281250000125,302.09966358832077 382.8125000000013,297.0252959880213 376.95312500000125,297.0252959880213 374.02343750000125,291.95092838772183 379.8828125000013,291.95092838772183 385.74218750000136,291.95092838772183 388.67187500000136,297.0252959880213 385.74218750000136,302.09966358832077 388.67187500000136,307.17403118862023 391.60156250000136,312.2483987889197 394.5312500000014,307.17403118862023 391.6015625000014,302.09966358832077 397.4609375000015,302.09966358832077 400.3906250000015,307.17403118862023 406.25000000000153,307.17403118862023 409.1796875000016,302.09966358832077 403.32031250000153,302.09966358832077 400.39062500000153,297.0252959880213 406.2500000000016,297.0252959880213 412.10937500000165,297.0252959880213 415.03906250000165,302.09966358832077 420.8984375000017,302.09966358832077 423.82812500000176,297.0252959880213 426.7578125000018,291.95092838772183 420.89843750000176,291.95092838772183 417.9687500000017,297.0252959880213 415.0390625000017,291.95092838772183 417.96875000000176,286.87656078742236 415.03906250000176,281.8021931871229 409.1796875000017,281.8021931871229 403.32031250000165,281.8021931871229 406.25000000000165,286.87656078742236 412.1093750000017,286.87656078742236 409.17968750000165,291.95092838772183 403.3203125000016,291.95092838772183 400.3906250000016,286.87656078742236 394.53125000000153,286.87656078742236 397.46093750000153,291.95092838772183 394.5312500000015,297.0252959880213 391.6015625000015,291.95092838772183 388.6718750000015,286.87656078742236 391.60156250000153,281.8021931871229 397.4609375000016,281.8021931871229 400.39062500000165,276.7278255868234 394.5312500000016,276.7278255868234 391.6015625000016,271.65345798652396 397.46093750000165,271.65345798652396 403.3203125000017,271.65345798652396 406.2500000000017,276.7278255868234 412.10937500000176,276.7278255868234 415.0390625000018,271.65345798652396 409.17968750000176,271.65345798652396 406.25000000000176,266.5790903862245 412.1093750000018,266.5790903862245 417.9687500000019,266.5790903862245 420.8984375000019,271.65345798652396 417.9687500000018,276.7278255868234 420.8984375000018,281.8021931871229 423.8281250000018,286.87656078742236 426.7578125000019,281.8021931871229 423.8281250000019,276.7278255868234 429.68750000000193,276.7278255868234 432.61718750000193,281.8021931871229 438.476562500002,281.8021931871229 441.40625000000205,276.7278255868234 435.546875000002,276.7278255868234 432.617187500002,271.65345798652396 438.47656250000205,271.65345798652396 444.3359375000021,271.65345798652396 447.2656250000021,276.7278255868234 453.12500000000216,276.7278255868234 456.0546875000022,271.65345798652396 458.9843750000023,266.5790903862245 453.1250000000022,266.5790903862245 450.19531250000216,271.65345798652396 447.26562500000216,266.5790903862245 450.1953125000022,261.504722785925 456.0546875000023,261.504722785925 458.98437500000233,256.43035518562556 461.9140625000024,251.3559875853261 456.05468750000233,251.35598758532606 453.1250000000023,256.4303551856255 450.1953125000023,251.355987585326 453.12500000000233,246.28161998502654 450.19531250000233,241.20725238472704 444.3359375000023,241.207252384727 438.4765625000022,241.20725238472698 441.4062500000022,246.28161998502648 447.2656250000023,246.2816199850265 444.3359375000022,251.35598758532598 438.47656250000216,251.35598758532595 435.5468750000021,256.43035518562544 438.4765625000021,261.5047227859249 441.40625000000216,256.43035518562544 447.2656250000022,256.43035518562544 444.33593750000216,261.5047227859249 441.4062500000021,266.5790903862244 435.54687500000205,266.5790903862244 432.61718750000205,261.5047227859249 426.757812500002,261.5047227859249 429.687500000002,266.5790903862244 426.75781250000193,271.65345798652385 423.82812500000193,266.5790903862244 420.89843750000193,261.5047227859249 423.828125000002,256.43035518562544 429.68750000000205,256.43035518562544 432.6171875000021,251.35598758532598 435.54687500000216,246.2816199850265 429.6875000000021,246.28161998502648 426.75781250000205,251.35598758532595 423.82812500000205,246.28161998502645 426.7578125000021,241.20725238472698 423.8281250000021,236.1328847844275 417.96875000000205,236.13288478442746 420.89843750000205,241.20725238472696 417.968750000002,246.28161998502642 415.039062500002,241.20725238472693 412.109375000002,236.13288478442743 415.03906250000205,231.05851718412796 412.10937500000205,225.98414958382847 406.250000000002,225.98414958382844 400.39062500000193,225.9841495838284 403.32031250000193,231.0585171841279 409.179687500002,231.05851718412794 406.25000000000193,236.1328847844274 400.3906250000019,236.13288478442738 397.4609375000019,231.05851718412788 391.6015625000018,231.05851718412785 385.74218750000176,231.05851718412782 388.67187500000176,236.13288478442732 394.5312500000018,236.13288478442735 391.60156250000176,241.20725238472681 385.7421875000017,241.2072523847268 382.81250000000165,246.28161998502625 385.74218750000165,251.35598758532575 388.67187500000165,256.4303551856252 391.6015625000017,251.35598758532575 388.6718750000017,246.28161998502625 394.53125000000176,246.28161998502628 397.46093750000176,251.35598758532578 403.3203125000018,251.3559875853258 406.2500000000019,246.28161998502634 400.3906250000018,246.2816199850263 397.4609375000018,241.20725238472681 403.3203125000019,241.20725238472684 409.17968750000193,241.20725238472687 412.10937500000193,246.28161998502637 409.1796875000019,251.35598758532583 412.1093750000019,256.43035518562533 415.03906250000193,251.35598758532586 420.898437500002,251.3559875853259 417.96875000000193,256.4303551856254 415.0390625000019,261.50472278592486 409.1796875000018,261.50472278592486 406.2500000000018,256.4303551856254 400.39062500000176,256.4303551856254 394.5312500000017,256.4303551856254 397.4609375000017,261.50472278592486 403.32031250000176,261.50472278592486 400.3906250000017,266.5790903862243 394.53125000000165,266.5790903862243 391.60156250000165,261.50472278592486 385.7421875000016,261.50472278592486 388.6718750000016,266.5790903862243 385.74218750000153,271.6534579865238 382.81250000000153,266.5790903862243 379.88281250000153,261.50472278592486 382.8125000000016,256.4303551856254 379.8828125000016,251.3559875853259 374.02343750000153,251.35598758532586 368.1640625000015,251.35598758532583 371.0937500000015,256.43035518562533 376.95312500000153,256.43035518562533 374.0234375000015,261.5047227859248 368.1640625000014,261.5047227859248 365.23437500000136,266.57909038622427 368.16406250000136,271.65345798652373 371.09375000000136,276.7278255868232 374.0234375000014,271.65345798652373 371.0937500000014,266.57909038622427 376.9531250000015,266.57909038622427 379.8828125000015,271.65345798652373 376.9531250000014,276.7278255868232 379.8828125000014,281.80219318712267 382.8125000000015,276.7278255868232 388.67187500000153,276.7278255868232 385.7421875000015,281.80219318712267 382.8125000000014,286.87656078742214 376.95312500000136,286.87656078742214 374.02343750000136,281.80219318712267 368.1640625000013,281.80219318712267 371.0937500000013,286.87656078742214 368.16406250000125,291.9509283877216 365.23437500000125,286.87656078742214 362.30468750000125,281.80219318712267 365.2343750000013,276.7278255868232 362.3046875000013,271.65345798652373 356.44531250000125,271.65345798652373 359.37500000000125,276.7278255868232 356.4453125000012,281.80219318712267 353.5156250000012,276.7278255868232 350.5859375000012,271.65345798652373 353.51562500000125,266.57909038622427 359.3750000000013,266.57909038622427 362.30468750000136,261.5047227859248 365.2343750000014,256.43035518562533 359.37500000000136,256.43035518562533 356.4453125000013,261.5047227859248 353.5156250000013,256.43035518562533 356.44531250000136,251.35598758532586 362.3046875000014,251.3559875853259 365.2343750000015,246.28161998502642 359.3750000000014,246.2816199850264 356.4453125000014,241.2072523847269 362.3046875000015,241.20725238472693 368.16406250000153,241.20725238472696 371.09375000000153,246.28161998502645 376.9531250000016,246.28161998502648 379.88281250000165,241.207252384727 382.8125000000017,236.13288478442755 376.95312500000165,236.13288478442752 374.0234375000016,241.20725238472698 371.0937500000016,236.1328847844275 374.02343750000165,231.05851718412802 371.09375000000165,225.98414958382853 365.2343750000016,225.9841495838285 359.37500000000153,225.98414958382847 362.30468750000153,231.05851718412796 368.1640625000016,231.058517184128 365.23437500000153,236.13288478442746 359.3750000000015,236.13288478442743 356.4453125000015,231.05851718412794 350.5859375000014,231.0585171841279 353.5156250000014,236.1328847844274 350.58593750000136,241.20725238472687 347.65625000000136,236.13288478442738 344.72656250000136,231.05851718412788 347.6562500000014,225.9841495838284 353.5156250000015,225.98414958382844 356.44531250000153,220.90978198352897 350.5859375000015,220.90978198352894 347.6562500000015,215.83541438322945 353.51562500000153,215.83541438322948 359.3750000000016,215.8354143832295 362.3046875000016,220.909781983529 368.16406250000165,220.90978198352903 371.0937500000017,215.83541438322956 365.23437500000165,215.83541438322953 362.30468750000165,210.76104678293004 368.1640625000017,210.76104678293007 374.02343750000176,210.7610467829301 376.95312500000176,215.8354143832296 374.0234375000017,220.90978198352906 376.9531250000017,225.98414958382855 379.8828125000017,231.05851718412805 382.81250000000176,225.98414958382858 379.88281250000176,220.9097819835291 385.7421875000018,220.90978198352911 388.6718750000018,225.9841495838286 394.5312500000019,225.98414958382864 397.46093750000193,220.90978198352917 391.6015625000019,220.90978198352914 388.6718750000019,215.83541438322965 394.53125000000193,215.83541438322968 400.390625000002,215.8354143832297 403.320312500002,220.9097819835292 409.17968750000205,220.90978198352923 412.1093750000021,215.83541438322976 415.03906250000216,210.7610467829303 409.1796875000021,210.76104678293026 406.25000000000205,215.83541438322973 403.32031250000205,210.76104678293024 406.2500000000021,205.68667918263077 403.3203125000021,200.61231158233127 397.46093750000205,200.61231158233124 391.601562500002,200.61231158233122 394.531250000002,205.6866791826307 400.39062500000205,205.68667918263074 397.460937500002,210.7610467829302 391.60156250000193,210.76104678293018 388.67187500000193,205.68667918263068 382.8125000000019,205.68667918263066 385.7421875000019,210.76104678293015 382.8125000000018,215.83541438322962 379.8828125000018,210.76104678293012 376.9531250000018,205.68667918263063 379.8828125000019,200.61231158233116 385.74218750000193,200.6123115823312 388.671875000002,195.53794398203172 382.81250000000193,195.5379439820317 379.88281250000193,190.4635763817322 385.742187500002,190.46357638173222 391.60156250000205,190.46357638173225 394.53125000000205,195.53794398203175 400.3906250000021,195.53794398203178 403.32031250000216,190.4635763817323 397.4609375000021,190.46357638173228 394.5312500000021,185.38920878143279 400.39062500000216,185.3892087814328 406.2500000000022,185.38920878143284 409.1796875000022,190.46357638173234 406.25000000000216,195.5379439820318 409.17968750000216,200.6123115823313 412.10937500000216,205.6866791826308 415.0390625000022,200.61231158233133 412.1093750000022,195.53794398203183 417.9687500000023,195.53794398203186 420.8984375000023,200.61231158233136 417.9687500000022,205.68667918263083 420.8984375000022,210.76104678293032 423.8281250000023,205.68667918263085 429.68750000000233,205.68667918263088 426.7578125000023,210.76104678293035 423.8281250000022,215.83541438322982 417.96875000000216,215.8354143832298 415.0390625000021,220.90978198352926 417.9687500000021,225.98414958382875 420.8984375000021,231.05851718412825 423.82812500000216,225.98414958382878 420.89843750000216,220.90978198352929 426.7578125000022,220.9097819835293 429.6875000000022,225.9841495838288 426.75781250000216,231.05851718412828 429.68750000000216,236.13288478442777 432.61718750000216,241.20725238472727 435.5468750000022,236.1328847844278 432.6171875000022,231.0585171841283 438.4765625000023,231.05851718412833 441.4062500000023,236.13288478442783 447.26562500000233,236.13288478442786 450.1953125000024,231.0585171841284 453.12500000000244,225.98414958382892 447.2656250000024,225.9841495838289 444.33593750000233,231.05851718412836 441.40625000000233,225.98414958382887 444.3359375000024,220.9097819835294 441.4062500000024,215.8354143832299 435.54687500000233,215.83541438322987 438.47656250000233,220.90978198352937 435.5468750000023,225.98414958382884 432.6171875000023,220.90978198352934 429.6875000000023,215.83541438322985 432.61718750000233,210.76104678293038 438.4765625000024,210.7610467829304 441.40625000000244,205.68667918263094 435.5468750000024,205.6866791826309 432.6171875000024,200.61231158233142 438.47656250000244,200.61231158233144 444.3359375000025,200.61231158233147 447.2656250000025,205.68667918263097 444.33593750000244,210.76104678293044 447.26562500000244,215.83541438322993 450.19531250000244,220.90978198352943 453.1250000000025,215.83541438322996 450.1953125000025,210.76104678293046 456.05468750000256,210.7610467829305 458.98437500000256,215.83541438323 456.0546875000025,220.90978198352946 458.9843750000025,225.98414958382895 461.91406250000256,220.90978198352948 467.7734375000026,220.9097819835295 464.84375000000256,225.98414958382898 461.9140625000025,231.05851718412845 456.05468750000244,231.05851718412842 453.1250000000024,236.1328847844279 456.0546875000024,241.20725238472738 458.9843750000024,246.28161998502688 461.91406250000244,241.2072523847274 458.98437500000244,236.13288478442792 464.8437500000025,236.13288478442794 467.7734375000025,241.20725238472744 473.63281250000256,241.20725238472747 476.5625000000026,236.132884784428 479.4921875000027,231.05851718412853 473.6328125000026,231.0585171841285 470.70312500000256,236.13288478442797 467.77343750000256,231.05851718412848 470.7031250000026,225.984149583829 476.5625000000027,225.98414958382904 479.49218750000273,220.90978198352957 473.6328125000027,220.90978198352954 470.7031250000027,215.83541438323005 476.56250000000273,215.83541438323007 482.4218750000028,215.8354143832301 485.3515625000028,220.9097819835296 482.42187500000273,225.98414958382907 485.35156250000273,231.05851718412856 488.2812500000028,225.9841495838291 494.14062500000284,225.98414958382912 491.2109375000028,231.0585171841286 488.28125000000273,236.13288478442806 482.4218750000027,236.13288478442803 479.4921875000026,241.2072523847275 482.4218750000026,246.281619985027 485.3515625000027,241.20725238472752 491.21093750000273,241.20725238472755 488.2812500000027,246.28161998502702 485.3515625000026,251.3559875853265 479.49218750000256,251.35598758532646 476.56250000000256,246.28161998502696 470.7031250000025,246.28161998502694 464.84375000000244,246.2816199850269 467.77343750000244,251.3559875853264 473.6328125000025,251.35598758532643 470.70312500000244,256.4303551856259 464.8437500000024,256.4303551856259 461.91406250000233,261.50472278592537 464.84375000000233,266.57909038622483 467.7734375000024,261.50472278592537 473.63281250000244,261.50472278592537 470.7031250000024,266.57909038622483 467.77343750000233,271.6534579865243 461.9140625000023,271.6534579865243 458.9843750000022,276.72782558682377 461.9140625000022,281.8021931871233 464.8437500000022,286.8765607874228 467.7734375000023,281.80219318712335 464.8437500000023,276.7278255868238 470.70312500000233,276.7278255868238 473.63281250000233,281.8021931871233 470.7031250000023,286.87656078742276 473.6328125000023,291.95092838772223 476.5625000000023,297.02529598802175 479.49218750000233,291.9509283877223 476.56250000000233,286.87656078742276 482.4218750000024,286.87656078742276 485.3515625000024,291.95092838772223 491.21093750000244,291.95092838772223 494.1406250000025,286.87656078742276 497.07031250000256,281.8021931871233 491.2109375000025,281.8021931871233 488.28125000000244,286.87656078742276 485.35156250000244,281.80219318712324 488.2812500000025,276.72782558682377 485.3515625000025,271.65345798652424 479.49218750000244,271.65345798652424 482.42187500000244,276.72782558682377 479.4921875000024,281.80219318712324 476.5625000000024,276.7278255868237 473.6328125000024,271.6534579865242 476.56250000000244,266.5790903862247 482.4218750000025,266.5790903862247 485.35156250000256,261.50472278592525 479.4921875000025,261.50472278592525 476.5625000000025,256.43035518562573 482.42187500000256,256.43035518562573 488.2812500000026,256.43035518562573 491.2109375000026,261.5047227859252 488.28125000000256,266.57909038622466 491.21093750000256,271.65345798652413 494.14062500000256,276.72782558682366 497.0703125000026,271.6534579865242 494.1406250000026,266.57909038622466 500.0000000000027,266.57909038622466 502.9296875000027,271.65345798652413 500.0000000000026,276.7278255868236 502.9296875000026,281.80219318712307 505.8593750000027,276.7278255868236 511.71875000000273,276.7278255868236 508.7890625000027,281.80219318712307 505.8593750000026,286.87656078742253 500.00000000000256,286.87656078742253 497.0703125000025,291.950928387722 500.0000000000025,297.0252959880215 502.9296875000025,302.09966358832105 505.85937500000256,297.0252959880216 502.92968750000256,291.95092838772206 508.7890625000026,291.95092838772206 511.7187500000026,297.0252959880215 508.78906250000256,302.099663588321 511.71875000000256,307.17403118862046 514.6484375000026,312.24839878892 517.5781250000026,307.1740311886205 514.6484375000026,302.099663588321 520.5078125000026,302.099663588321 523.4375000000026,307.17403118862046 529.2968750000026,307.17403118862046 532.2265625000026,302.099663588321 535.1562500000026,297.0252959880215 529.2968750000026,297.0252959880215 526.3671875000026,302.099663588321 523.4375000000026,297.02529598802147 526.3671875000026,291.950928387722 523.4375000000026,286.8765607874225 517.5781250000026,286.8765607874225 520.5078125000026,291.950928387722 517.5781250000026,297.02529598802147 514.6484375000026,291.95092838772194 511.7187500000026,286.8765607874224 514.6484375000026,281.80219318712295 520.5078125000026,281.80219318712295 523.4375000000026,276.7278255868235 517.5781250000026,276.7278255868235 514.6484375000026,271.65345798652396 520.5078125000026,271.65345798652396 526.3671875000026,271.65345798652396 529.2968750000026,276.7278255868234 526.3671875000026,281.8021931871229 529.2968750000026,286.87656078742236 532.2265625000026,291.9509283877219 535.1562500000026,286.8765607874224 532.2265625000026,281.8021931871229 538.0859375000026,281.8021931871229 541.0156250000026,286.87656078742236 546.8750000000026,286.87656078742236 549.8046875000026,281.8021931871229 543.9453125000026,281.8021931871229 541.0156250000026,276.72782558682337 546.8750000000026,276.72782558682337 552.7343750000026,276.72782558682337 555.6640625000026,281.80219318712284 561.5234375000026,281.80219318712284 564.4531250000026,276.72782558682337 567.3828125000026,271.6534579865239 561.5234375000026,271.6534579865239 558.5937500000026,276.72782558682337 555.6640625000026,271.65345798652385 558.5937500000026,266.5790903862244 564.4531250000026,266.5790903862244 567.3828125000026,261.5047227859249 570.3125000000026,256.43035518562544 564.4531250000026,256.43035518562544 561.5234375000026,261.5047227859249 558.5937500000026,256.4303551856254 561.5234375000026,251.35598758532592 558.5937500000026,246.28161998502642 552.7343750000026,246.2816199850264 546.8750000000026,246.28161998502637 549.8046875000026,251.35598758532586 555.6640625000026,251.3559875853259 552.7343750000026,256.4303551856254 546.8750000000026,256.4303551856254 543.9453125000026,261.50472278592486 546.8750000000026,266.5790903862244 549.8046875000026,261.5047227859249 555.6640625000026,261.5047227859249 552.7343750000026,266.5790903862244 549.8046875000026,271.65345798652385 543.9453125000026,271.65345798652385 541.0156250000026,266.5790903862243 535.1562500000026,266.5790903862243 538.0859375000026,271.65345798652385 535.1562500000026,276.7278255868233 532.2265625000026,271.6534579865238 529.2968750000026,266.57909038622427 532.2265625000026,261.5047227859248 538.0859375000026,261.5047227859248 541.0156250000026,256.43035518562533 543.9453125000026,251.35598758532586 538.0859375000026,251.35598758532583 535.1562500000026,256.43035518562533 532.2265625000026,251.35598758532583 535.1562500000026,246.28161998502637 532.2265625000026,241.20725238472687 526.3671875000026,241.20725238472684 529.2968750000026,246.28161998502634 526.3671875000026,251.3559875853258 523.4375000000026,246.2816199850263 520.5078125000026,241.20725238472681 523.4375000000026,236.13288478442735 520.5078125000026,231.05851718412785 514.6484375000026,231.05851718412782 508.78906250000256,231.0585171841278 511.71875000000256,236.1328847844273 517.5781250000026,236.13288478442732 514.6484375000026,241.2072523847268 508.78906250000256,241.20725238472676 505.8593750000025,246.28161998502623 508.7890625000025,251.35598758532572 511.7187500000025,256.4303551856252 514.6484375000025,251.35598758532575 511.7187500000025,246.28161998502625 517.5781250000025,246.28161998502628 520.5078125000025,251.35598758532578 517.5781250000025,256.4303551856253 520.5078125000025,261.5047227859248 523.4375000000025,256.43035518562533 529.2968750000025,256.43035518562533 526.3671875000025,261.5047227859248 523.4375000000025,266.57909038622427 517.5781250000025,266.57909038622427 514.6484375000025,261.50472278592474 508.78906250000244,261.50472278592474 511.71875000000244,266.57909038622427 508.7890625000024,271.65345798652373 505.8593750000024,266.5790903862242 502.9296875000024,261.5047227859247 505.85937500000244,256.4303551856252 502.92968750000244,251.35598758532572 497.0703125000024,251.3559875853257 500.0000000000024,256.4303551856252 497.07031250000233,261.5047227859247 494.14062500000233,256.43035518562516 491.21093750000233,251.35598758532566 494.1406250000024,246.2816199850262 500.00000000000244,246.28161998502623 502.9296875000025,241.20725238472676 505.85937500000256,236.1328847844273 500.0000000000025,236.13288478442726 497.07031250000244,241.20725238472673 494.14062500000244,236.13288478442723 497.0703125000025,231.05851718412777 502.92968750000256,231.0585171841278 505.8593750000026,225.98414958382833 500.00000000000256,225.9841495838283 497.07031250000256,220.9097819835288 502.9296875000026,220.90978198352883 508.7890625000027,220.90978198352886 511.7187500000027,225.98414958382835 517.5781250000027,225.98414958382838 520.5078125000027,220.90978198352892 523.4375000000027,215.83541438322945 517.5781250000027,215.83541438322942 514.6484375000027,220.9097819835289 511.71875000000273,215.8354143832294 514.6484375000027,210.76104678292992 511.71875000000273,205.68667918263043 505.8593750000027,205.6866791826304 500.0000000000026,205.68667918263037 502.9296875000026,210.76104678292987 508.7890625000027,210.7610467829299 505.8593750000026,215.83541438322936 500.00000000000256,215.83541438322933 497.07031250000256,210.76104678292984 491.2109375000025,210.7610467829298 494.1406250000025,215.8354143832293 491.21093750000244,220.90978198352877 488.28125000000244,215.83541438322928 485.35156250000244,210.76104678292978 488.2812500000025,205.68667918263031 494.14062500000256,205.68667918263034 497.0703125000026,200.61231158233088 491.21093750000256,200.61231158233085 488.28125000000256,195.53794398203135 494.1406250000026,195.53794398203138 500.0000000000027,195.5379439820314 502.9296875000027,200.6123115823309 508.78906250000273,200.61231158233093 511.7187500000028,195.53794398203146 505.85937500000273,195.53794398203144 502.92968750000273,190.46357638173194 508.7890625000028,190.46357638173197 514.6484375000028,190.463576381732 517.5781250000028,195.5379439820315 514.6484375000028,200.61231158233096 517.5781250000028,205.68667918263046 520.5078125000028,210.76104678292995 523.4375000000028,205.68667918263048 520.5078125000028,200.612311582331 526.3671875000028,200.61231158233102 529.2968750000028,205.6866791826305 526.3671875000028,210.76104678292998 529.2968750000028,215.83541438322948 532.2265625000028,210.76104678293 538.0859375000028,210.76104678293004 535.1562500000028,215.8354143832295 532.2265625000028,220.90978198352897 526.3671875000028,220.90978198352894 523.4375000000028,225.9841495838284 526.3671875000028,231.0585171841279 529.2968750000028,236.1328847844274 532.2265625000028,231.05851718412794 529.2968750000028,225.98414958382844 535.1562500000028,225.98414958382847 538.0859375000028,231.05851718412796 535.1562500000028,236.13288478442743 538.0859375000028,241.20725238472693 541.0156250000028,246.28161998502642 543.9453125000028,241.20725238472696 541.0156250000028,236.13288478442746 546.8750000000028,236.1328847844275 549.8046875000028,241.20725238472698 555.6640625000028,241.207252384727 558.5937500000028,236.13288478442755 561.5234375000028,231.05851718412808 555.6640625000028,231.05851718412805 552.7343750000028,236.13288478442752 549.8046875000028,231.05851718412802 552.7343750000028,225.98414958382855 549.8046875000028,220.90978198352906 543.9453125000028,220.90978198352903 546.8750000000028,225.98414958382853 543.9453125000028,231.058517184128 541.0156250000028,225.9841495838285 538.0859375000028,220.909781983529 541.0156250000028,215.83541438322953 546.8750000000028,215.83541438322956 549.8046875000028,210.7610467829301 543.9453125000028,210.76104678293007 541.0156250000028,205.68667918263057 546.8750000000028,205.6866791826306 552.7343750000028,205.68667918263063 555.6640625000028,210.76104678293012 552.7343750000028,215.8354143832296 555.6640625000028,220.9097819835291 558.5937500000028,225.98414958382858 561.5234375000028,220.90978198352911 558.5937500000028,215.83541438322962 564.4531250000028,215.83541438322965 567.3828125000028,220.90978198352914" style="stroke: red; fill: none; stroke-width: 1" /></svg>