<svg width="100%" height="100%" xmlns="http://www.w3.org/2000/svg"><polyline points=" 500,500 520.0,500.0 520.0,520.0 500.0,520.0 500.0,540.0 500.0,560.0 520.0,560.0 520.0,540.0 540.0,540.0 540.0,560.0 560.0,560.0 560.0,540.0 560.0,520.0 540.0,520.0 540.0,500.0 560.0,500.0 580.0,500.0 580.0,520.0 600.0,520.0 600.0,500.0 620.0,500.0 640.0,500.0 640.0,520.0 620.0,520.0 620.0,540.0 640.0,540.0 640.0,560.0 620.0,560.0 600.0,560.0 600.0,540.0 580.0,540.0 580.0,560.0 580.0,580.0 580.0,600.0 600.0,600.0 600.0,580.0 620.0,580.0 640.0,580.0 640.0,600.0 620.0,600.0 620.0,620.0 640.0,620.0 640.0,640.0 620.0,640.0 600.0,640.0 600.0,620.0 580.0,620.0 580.0,640.0 560.0,640.0 540.0,640.0 540.0,620.0 560.0,620.0 560.0,600.0 560.0,580.0 540.0,580.0 540.0,600.0 520.0,600.0 520.0,580.0 500.0,580.0 500.0,600.0 500.0,620.0 520.0,620.0 520.0,640.0 500.0,640.0 500.0,660.0 500.0,680.0 520.0,680.0 520.0,660.0 540.0,660.0 560.0,660.0 560.0,680.0 540.0,680.0 540.0,700.0 560.0,700.0 560.0,720.0 540.0,720.0 520.0,720.0 520.0,700.0 500.0,700.0 500.0,720.0 500.0,740.0 520.0,740.0 520.0,760.0 500.0,760.0 500.0,780.0 500.0,800.0 520.0,800.0 520.0,780.0 540.0,780.0 540.0,800.0 560.0,800.0 560.0,780.0 560.0,760.0 540.0,760.0 540.0,740.0 560.0,740.0 580.0,740.0 600.0,740.0 600.0,760.0 580.0,760.0 580.0,780.0 580.0,800.0 600.0,800.0 600.0,780.0 620.0,780.0 620.0,800.0 640.0,800.0 640.0,780.0 640.0,760.0 620.0,760.0 620.0,740.0 640.0,740.0 640.0,720.0 640.0,700.0 620.0,700.0 620.0,720.0 600.0,720.0 580.0,720.0 580.0,700.0 600.0,700.0 600.0,680.0 580.0,680.0 580.0,660.0 600.0,660.0 620.0,660.0 620.0,680.0 640.0,680.0 640.0,660.0 660.0,660.0 660.0,680.0 680.0,680.0 680.0,660.0 700.0,660.0 720.0,660.0 720.0,680.0 700.0,680.0 700.0,700.0 720.0,700.0 720.0,720.0 700.0,720.0 680.0,720.0 680.0,700.0 660.0,700.0 660.0,720.0 660.0,740.0 680.0,740.0 680.0,760.0 660.0,760.0 660.0,780.0 660.0,800.0 680.0,800.0 680.0,780.0 700.0,780.0 700.0,800.0 720.0,800.0 720.0,780.0 720.0,760.0 700.0,760.0 700.0,740.0 720.0,740.0 740.0,740.0 760.0,740.0 760.0,760.0 740.0,760.0 740.0,780.0 740.0,800.0 760.0,800.0 760.0,780.0 780.0,780.0 780.0,800.0 800.0,800.0 800.0,780.0 800.0,760.0 780.0,760.0 780.0,740.0 800.0,740.0 800.0,720.0 800.0,700.0 780.0,700.0 780.0,720.0 760.0,720.0 740.0,720.0 740.0,700.0 760.0,700.0 760.0,680.0 740.0,680.0 740.0,660.0 760.0,660.0 780.0,660.0 780.0,680.0 800.0,680.0 800.0,660.0 800.0,640.0 780.0,640.0 780.0,620.0 800.0,620.0 800.0,600.0 800.0,580.0 780.0,580.0 780.0,600.0 760.0,600.0 760.0,580.0 740.0,580.0 740.0,600.0 740.0,620.0 760.0,620.0 760.0,640.0 740.0,640.0 720.0,640.0 720.0,620.0 700.0,620.0 700.0,640.0 680.0,640.0 660.0,640.0 660.0,620.0 680.0,620.0 680.0,600.0 660.0,600.0 660.0,580.0 680.0,580.0 700.0,580.0 700.0,600.0 720.0,600.0 720.0,580.0 720.0,560.0 720.0,540.0 700.0,540.0 700.0,560.0 680.0,560.0 660.0,560.0 660.0,540.0 680.0,540.0 680.0,520.0 660.0,520.0 660.0,500.0 680.0,500.0 700.0,500.0 700.0,520.0 720.0,520.0 720.0,500.0 740.0,500.0 760.0,500.0 760.0,520.0 740.0,520.0 740.0,540.0 740.0,560.0 760.0,560.0 760.0,540.0 780.0,540.0 780.0,560.0 800.0,560.0 800.0,540.0 800.0,520.0 780.0,520.0 780.0,500.0 800.0,500.0" style="stroke: red; fill: none; stroke-width: 1" /></svg>