<svg width="100%" height="100%" xmlns="http://www.w3.org/2000/svg"><polyline points=" 505.859375,500.0 505.859375,505.859375 500.0,505.859375 500.0,511.71875 500.0,517.578125 505.859375,517.578125 505.859375,511.71875 511.71875,511.71875 511.71875,517.578125 517.578125,517.578125 517.578125,511.71875 517.578125,505.859375 511.71875,505.859375 511.71875,500.0 517.578125,500.0 523.4375,500.0 523.4375,505.859375 529.296875,505.859375 529.296875,500.0 535.15625,500.0 541.015625,500.0 541.015625,505.859375 535.15625,505.859375 535.15625,511.71875 541.015625,511.71875 541.015625,517.578125 535.15625,517.578125 529.296875,517.578125 529.296875,511.71875 523.4375,511.71875 523.4375,517.578125 523.4375,523.4375 523.4375,529.296875 529.296875,529.296875 529.296875,523.4375 535.15625,523.4375 541.015625,523.4375 541.015625,529.296875 535.15625,529.296875 535.15625,535.15625 541.015625,535.15625 541.015625,541.015625 535.15625,541.015625 529.296875,541.015625 529.296875,535.15625 523.4375,535.15625 523.4375,541.015625 517.578125,541.015625 511.71875,541.015625 511.71875,535.15625 517.578125,535.15625 517.578125,529.296875 517.578125,523.4375 511.71875,523.4375 511.71875,529.296875 505.859375,529.296875 505.859375,523.4375 500.0,523.4375 500.0,529.296875 500.0,535.15625 505.859375,535.15625 505.859375,541.015625 500.0,541.015625 500.0,546.875 500.0,552.734375 505.859375,552.734375 505.859375,546.875 511.71875,546.875 517.578125,546.875 517.578125,552.734375 511.71875,552.734375 511.71875,558.59375 517.578125,558.59375 517.578125,564.453125 511.71875,564.453125 505.859375,564.453125 505.859375,558.59375 500.0,558.59375 500.0,564.453125 500.0,570.3125 505.859375,570.3125 505.859375,576.171875 500.0,576.171875 500.0,582.03125 500.0,587.890625 505.859375,587.890625 505.859375,582.03125 511.71875,582.03125 511.71875,587.890625 517.578125,587.890625 517.578125,582.03125 517.578125,576.171875 511.71875,576.171875 511.71875,570.3125 517.578125,570.3125 523.4375,570.3125 529.296875,570.3125 529.296875,576.171875 523.4375,576.171875 523.4375,582.03125 523.4375,587.890625 529.296875,587.890625 529.296875,582.03125 535.15625,582.03125 535.15625,587.890625 541.015625,587.890625 541.015625,582.03125 541.015625,576.171875 535.15625,576.171875 535.15625,570.3125 541.015625,570.3125 541.015625,564.453125 541.015625,558.59375 535.15625,558.59375 535.15625,564.453125 529.296875,564.453125 523.4375,564.453125 523.4375,558.59375 529.296875,558.59375 529.296875,552.734375 523.4375,552.734375 523.4375,546.875 529.296875,546.875 535.15625,546.875 535.15625,552.734375 541.015625,552.734375 541.015625,546.875 546.875,546.875 546.875,552.734375 552.734375,552.734375 552.734375,546.875 558.59375,546.875 564.453125,546.875 564.453125,552.734375 558.59375,552.734375 558.59375,558.59375 564.453125,558.59375 564.453125,564.453125 558.59375,564.453125 552.734375,564.453125 552.734375,558.59375 546.875,558.59375 546.875,564.453125 546.875,570.3125 552.734375,570.3125 552.734375,576.171875 546.875,576.171875 546.875,582.03125 546.875,587.890625 552.734375,587.890625 552.734375,582.03125 558.59375,582.03125 558.59375,587.890625 564.453125,587.890625 564.453125,582.03125 564.453125,576.171875 558.59375,576.171875 558.59375,570.3125 564.453125,570.3125 570.3125,570.3125 576.171875,570.3125 576.171875,576.171875 570.3125,576.171875 570.3125,582.03125 570.3125,587.890625 576.171875,587.890625 576.171875,582.03125 582.03125,582.03125 582.03125,587.890625 587.890625,587.890625 587.890625,582.03125 587.890625,576.171875 582.03125,576.171875 582.03125,570.3125 587.890625,570.3125 587.890625,564.453125 587.890625,558.59375 582.03125,558.59375 582.03125,564.453125 576.171875,564.453125 570.3125,564.453125 570.3125,558.59375 576.171875,558.59375 576.171875,552.734375 570.3125,552.734375 570.3125,546.875 576.171875,546.875 582.03125,546.875 582.03125,552.734375 587.890625,552.734375 587.890625,546.875 587.890625,541.015625 582.03125,541.015625 582.03125,535.15625 587.890625,535.15625 587.890625,529.296875 587.890625,523.4375 582.03125,523.4375 582.03125,529.296875 576.171875,529.296875 576.171875,523.4375 570.3125,523.4375 570.3125,529.296875 570.3125,535.15625 576.171875,535.15625 576.171875,541.015625 570.3125,541.015625 564.453125,541.015625 564.453125,535.15625 558.59375,535.15625 558.59375,541.015625 552.734375,541.015625 546.875,541.015625 546.875,535.15625 552.734375,535.15625 552.734375,529.296875 546.875,529.296875 546.875,523.4375 552.734375,523.4375 558.59375,523.4375 558.59375,529.296875 564.453125,529.296875 564.453125,523.4375 564.453125,517.578125 564.453125,511.71875 558.59375,511.71875 558.59375,517.578125 552.734375,517.578125 546.875,517.578125 546.875,511.71875 552.734375,511.71875 552.734375,505.859375 546.875,505.859375 546.875,500.0 552.734375,500.0 558.59375,500.0 558.59375,505.859375 564.453125,505.859375 564.453125,500.0 570.3125,500.0 576.171875,500.0 576.171875,505.859375 570.3125,505.859375 570.3125,511.71875 570.3125,517.578125 576.171875,517.578125 576.171875,511.71875 582.03125,511.71875 582.03125,517.578125 587.890625,517.578125 587.890625,511.71875 587.890625,505.859375 582.03125,505.859375 582.03125,500.0 587.890625,500.0" style="stroke: red; fill: none; stroke-width: 1" /></svg>