<svg width="100%" height="100%" xmlns="http://www.w3.org/2000/svg"><rect x="33.333333333333336" y="33.333333333333336" width="33.333333333333336" height="33.333333333333336" style="stroke: red; fill: none; stroke-width: .4"  /><rect x="11.111111111111112" y="11.111111111111112" width="11.111111111111112" height="11.111111111111112" style="stroke: red; fill: none; stroke-width: .4"  /><rect x="3.703703703703704" y="3.703703703703704" width="3.703703703703704" height="3.703703703703704" style="stroke: red; fill: none; stroke-width: .4"  /><rect x="1.234567901234568" y="1.234567901234568" width="1.234567901234568" height="1.234567901234568" style="stroke: red; fill: none; stroke-width: .4"  /><rect x="1.234567901234568" y="4.938271604938272" width="1.234567901234568" height="1.234567901234568" style="stroke: red; fill: none; stroke-width: .4"  /><rect x="1.234567901234568" y="8.641975308641976" width="1.234567901234568" height="1.234567901234568" style="stroke: red; fill: none; stroke-width: .4"  /><rect x="4.938271604938272" y="1.234567901234568" width="1.234567901234568" height="1.234567901234568" style="stroke: red; fill: none; stroke-width: .4"  /><rect x="4.938271604938272" y="8.641975308641976" width="1.234567901234568" height="1.234567901234568" style="stroke: red; fill: none; stroke-width: .4"  /><rect x="8.641975308641976" y="1.234567901234568" width="1.234567901234568" height="1.234567901234568" style="stroke: red; fill: none; stroke-width: .4"  /><rect x="8.641975308641976" y="4.938271604938272" width="1.234567901234568" height="1.234567901234568" style="stroke: red; fill: none; stroke-width: .4"  /><rect x="8.641975308641976" y="8.641975308641976" width="1.234567901234568" height="1.234567901234568" style="stroke: red; fill: none; stroke-width: .4"  /><rect x="3.703703703703704" y="14.814814814814817" width="3.703703703703704" height="3.703703703703704" style="stroke: red; fill: none; stroke-width: .4"  /><rect x="1.234567901234568" y="12.34567901234568" width="1.234567901234568" height="1.234567901234568" style="stroke: red; fill: none; stroke-width: .4"  /><rect x="1.234567901234568" y="16.049382716049386" width="1.234567901234568" height="1.234567901234568" style="stroke: red; fill: none; stroke-width: .4"  /><rect x="1.234567901234568" y="19.75308641975309" width="1.234567901234568" height="1.234567901234568" style="stroke: red; fill: none; stroke-width: .4"  /><rect x="4.938271604938272" y="12.34567901234568" width="1.234567901234568" height="1.234567901234568" style="stroke: red; fill: none; stroke-width: .4"  /><rect x="4.938271604938272" y="19.75308641975309" width="1.234567901234568" height="1.234567901234568" style="stroke: red; fill: none; stroke-width: .4"  /><rect x="8.641975308641976" y="12.34567901234568" width="1.234567901234568" height="1.234567901234568" style="stroke: red; fill: none; stroke-width: .4"  /><rect x="8.641975308641976" y="16.049382716049386" width="1.234567901234568" height="1.234567901234568" style="stroke: red; fill: none; stroke-width: .4"  /><rect x="8.641975308641976" y="19.75308641975309" width="1.234567901234568" height="1.234567901234568" style="stroke: red; fill: none; stroke-width: .4"  /><rect x="3.703703703703704" y="25.92592592592593" width="3.703703703703704" height="3.703703703703704" style="stroke: red; fill: none; stroke-width: .4"  /><rect x="1.234567901234568" y="23.45679012345679" width="1.234567901234568" height="1.234567901234568" style="stroke: red; fill: none; stroke-width: .4"  /><rect x="1.234567901234568" y="27.1604938271605" width="1.234567901234568" height="1.234567901234568" style="stroke: red; fill: none; stroke-width: .4"  /><rect x="1.234567901234568" y="30.864197530864203" width="1.234567901234568" height="1.234567901234568" style="stroke: red; fill: none; stroke-width: .4"  /><rect x="4.938271604938272" y="23.45679012345679" width="1.234567901234568" height="1.234567901234568" style="stroke: red; fill: none; stroke-width: .4"  /><rect x="4.938271604938272" y="30.864197530864203" width="1.234567901234568" height="1.234567901234568" style="stroke: red; fill: none; stroke-width: .4"  /><rect x="8.641975308641976" y="23.45679012345679" width="1.234567901234568" height="1.234567901234568" style="stroke: red; fill: none; stroke-width: .4"  /><rect x="8.641975308641976" y="27.1604938271605" width="1.234567901234568" height="1.234567901234568" style="stroke: red; fill: none; stroke-width: .4"  /><rect x="8.641975308641976" y="30.864197530864203" width="1.234567901234568" height="1.234567901234568" style="stroke: red; fill: none; stroke-width: .4"  /><rect x="14.814814814814817" y="3.703703703703704" width="3.703703703703704" height="3.703703703703704" style="stroke: red; fill: none; stroke-width: .4"  /><rect x="12.34567901234568" y="1.234567901234568" width="1.234567901234568" height="1.234567901234568" style="stroke: red; fill: none; stroke-width: .4"  /><rect x="12.34567901234568" y="4.938271604938272" width="1.234567901234568" height="1.234567901234568" style="stroke: red; fill: none; stroke-width: .4"  /><rect x="12.34567901234568" y="8.641975308641976" width="1.234567901234568" height="1.234567901234568" style="stroke: red; fill: none; stroke-width: .4"  /><rect x="16.049382716049386" y="1.234567901234568" width="1.234567901234568" height="1.234567901234568" style="stroke: red; fill: none; stroke-width: .4"  /><rect x="16.049382716049386" y="8.641975308641976" width="1.234567901234568" height="1.234567901234568" style="stroke: red; fill: none; stroke-width: .4"  /><rect x="19.75308641975309" y="1.234567901234568" width="1.234567901234568" height="1.234567901234568" style="stroke: red; fill: none; stroke-width: .4"  /><rect x="19.75308641975309" y="4.938271604938272" width="1.234567901234568" height="1.234567901234568" style="stroke: red; fill: none; stroke-width: .4"  /><rect x="19.75308641975309" y="8.641975308641976" width="1.234567901234568" height="1.234567901234568" style="stroke: red; fill: none; stroke-width: .4"  /><rect x="14.814814814814817" y="25.92592592592593" width="3.703703703703704" height="3.703703703703704" style="stroke: red; fill: none; stroke-width: .4"  /><rect x="12.34567901234568" y="23.45679012345679" width="1.234567901234568" height="1.234567901234568" style="stroke: red; fill: none; stroke-width: .4"  /><rect x="12.34567901234568" y="27.1604938271605" width="1.234567901234568" height="1.234567901234568" style="stroke: red; fill: none; stroke-width: .4"  /><rect x="12.34567901234568" y="30.864197530864203" width="1.234567901234568" height="1.234567901234568" style="stroke: red; fill: none; stroke-width: .4"  /><rect x="16.049382716049386" y="23.45679012345679" width="1.234567901234568" height="1.234567901234568" style="stroke: red; fill: none; stroke-width: .4"  /><rect x="16.049382716049386" y="30.864197530864203" width="1.234567901234568" height="1.234567901234568" style="stroke: red; fill: none; stroke-width: .4"  /><rect x="19.75308641975309" y="23.45679012345679" width="1.234567901234568" height="1.234567901234568" style="stroke: red; fill: none; stroke-width: .4"  /><rect x="19.75308641975309" y="27.1604938271605" width="1.234567901234568" height="1.234567901234568" style="stroke: red; fill: none; stroke-width: .4"  /><rect x="19.75308641975309" y="30.864197530864203" width="1.234567901234568" height="1.234567901234568" style="stroke: red; fill: none; stroke-width: .4"  /><rect x="25.92592592592593" y="3.703703703703704" width="3.703703703703704" height="3.703703703703704" style="stroke: red; fill: none; stroke-width: .4"  /><rect x="23.45679012345679" y="1.234567901234568" width="1.234567901234568" height="1.234567901234568" style="stroke: red; fill: none; stroke-width: .4"  /><rect x="23.45679012345679" y="4.938271604938272" width="1.234567901234568" height="1.234567901234568" style="stroke: red; fill: none; stroke-width: .4"  /><rect x="23.45679012345679" y="8.641975308641976" width="1.234567901234568" height="1.234567901234568" style="stroke: red; fill: none; stroke-width: .4"  /><rect x="27.1604938271605" y="1.234567901234568" width="1.234567901234568" height="1.234567901234568" style="stroke: red; fill: none; stroke-width: .4"  /><rect x="27.1604938271605" y="8.641975308641976" width="1.234567901234568" height="1.234567901234568" style="stroke: red; fill: none; stroke-width: .4"  /><rect x="30.864197530864203" y="1.234567901234568" width="1.234567901234568" height="1.234567901234568" style="stroke: red; fill: none; stroke-width: .4"  /><rect x="30.864197530864203" y="4.938271604938272" width="1.234567901234568" height="1.234567901234568" style="stroke: red; fill: none; stroke-width: .4"  /><rect x="30.864197530864203" y="8.641975308641976" width="1.234567901234568" height="1.234567901234568" style="stroke: red; fill: none; stroke-width: .4"  /><rect x="25.92592592592593" y="14.814814814814817" width="3.703703703703704" height="3.703703703703704" style="stroke: red; fill: none; stroke-width: .4"  /><rect x="23.45679012345679" y="12.34567901234568" width="1.234567901234568" height="1.234567901234568" style="stroke: red; fill: none; stroke-width: .4"  /><rect x="23.45679012345679" y="16.049382716049386" width="1.234567901234568" height="1.234567901234568" style="stroke: red; fill: none; stroke-width: .4"  /><rect x="23.45679012345679" y="19.75308641975309" width="1.234567901234568" height="1.234567901234568" style="stroke: red; fill: none; stroke-width: .4"  /><rect x="27.1604938271605" y="12.34567901234568" width="1.234567901234568" height="1.234567901234568" style="stroke: red; fill: none; stroke-width: .4"  /><rect x="27.1604938271605" y="19.75308641975309" width="1.234567901234568" height="1.234567901234568" style="stroke: red; fill: none; stroke-width: .4"  /><rect x="30.864197530864203" y="12.34567901234568" width="1.234567901234568" height="1.234567901234568" style="stroke: red; fill: none; stroke-width: .4"  /><rect x="30.864197530864203" y="16.049382716049386" width="1.234567901234568" height="1.234567901234568" style="stroke: red; fill: none; stroke-width: .4"  /><rect x="30.864197530864203" y="19.75308641975309" width="1.234567901234568" height="1.234567901234568" style="stroke: red; fill: none; stroke-width: .4"  /><rect x="25.92592592592593" y="25.92592592592593" width="3.703703703703704" height="3.703703703703704" style="stroke: red; fill: none; stroke-width: .4"  /><rect x="23.45679012345679" y="23.45679012345679" width="1.234567901234568" height="1.234567901234568" style="stroke: red; fill: none; stroke-width: .4"  /><rect x="23.45679012345679" y="27.1604938271605" width="1.234567901234568" height="1.234567901234568" style="stroke: red; fill: none; stroke-width: .4"  /><rect x="23.45679012345679" y="30.864197530864203" width="1.234567901234568" height="1.234567901234568" style="stroke: red; fill: none; stroke-width: .4"  /><rect x="27.1604938271605" y="23.45679012345679" width="1.234567901234568" height="1.234567901234568" style="stroke: red; fill: none; stroke-width: .4"  /><rect x="27.1604938271605" y="30.864197530864203" width="1.234567901234568" height="1.234567901234568" style="stroke: red; fill: none; stroke-width: .4"  /><rect x="30.864197530864203" y="23.45679012345679" width="1.234567901234568" height="1.234567901234568" style="stroke: red; fill: none; stroke-width: .4"  /><rect x="30.864197530864203" y="27.1604938271605" width="1.234567901234568" height="1.234567901234568" style="stroke: red; fill: none; stroke-width: .4"  /><rect x="30.864197530864203" y="30.864197530864203" width="1.234567901234568" height="1.234567901234568" style="stroke: red; fill: none; stroke-width: .4"  /><rect x="11.111111111111112" y="44.44444444444445" width="11.111111111111112" height="11.111111111111112" style="stroke: red; fill: none; stroke-width: .4"  /><rect x="3.703703703703704" y="37.03703703703704" width="3.703703703703704" height="3.703703703703704" style="stroke: red; fill: none; stroke-width: .4"  /><rect x="1.234567901234568" y="34.567901234567906" width="1.234567901234568" height="1.234567901234568" style="stroke: red; fill: none; stroke-width: .4"  /><rect x="1.234567901234568" y="38.27160493827161" width="1.234567901234568" height="1.234567901234568" style="stroke: red; fill: none; stroke-width: .4"  /><rect x="1.234567901234568" y="41.97530864197532" width="1.234567901234568" height="1.234567901234568" style="stroke: red; fill: none; stroke-width: .4"  /><rect x="4.938271604938272" y="34.567901234567906" width="1.234567901234568" height="1.234567901234568" style="stroke: red; fill: none; stroke-width: .4"  /><rect x="4.938271604938272" y="41.97530864197532" width="1.234567901234568" height="1.234567901234568" style="stroke: red; fill: none; stroke-width: .4"  /><rect x="8.641975308641976" y="34.567901234567906" width="1.234567901234568" height="1.234567901234568" style="stroke: red; fill: none; stroke-width: .4"  /><rect x="8.641975308641976" y="38.27160493827161" width="1.234567901234568" height="1.234567901234568" style="stroke: red; fill: none; stroke-width: .4"  /><rect x="8.641975308641976" y="41.97530864197532" width="1.234567901234568" height="1.234567901234568" style="stroke: red; fill: none; stroke-width: .4"  /><rect x="3.703703703703704" y="48.14814814814815" width="3.703703703703704" height="3.703703703703704" style="stroke: red; fill: none; stroke-width: .4"  /><rect x="1.234567901234568" y="45.67901234567902" width="1.234567901234568" height="1.234567901234568" style="stroke: red; fill: none; stroke-width: .4"  /><rect x="1.234567901234568" y="49.38271604938272" width="1.234567901234568" height="1.234567901234568" style="stroke: red; fill: none; stroke-width: .4"  /><rect x="1.234567901234568" y="53.08641975308643" width="1.234567901234568" height="1.234567901234568" style="stroke: red; fill: none; stroke-width: .4"  /><rect x="4.938271604938272" y="45.67901234567902" width="1.234567901234568" height="1.234567901234568" style="stroke: red; fill: none; stroke-width: .4"  /><rect x="4.938271604938272" y="53.08641975308643" width="1.234567901234568" height="1.234567901234568" style="stroke: red; fill: none; stroke-width: .4"  /><rect x="8.641975308641976" y="45.67901234567902" width="1.234567901234568" height="1.234567901234568" style="stroke: red; fill: none; stroke-width: .4"  /><rect x="8.641975308641976" y="49.38271604938272" width="1.234567901234568" height="1.234567901234568" style="stroke: red; fill: none; stroke-width: .4"  /><rect x="8.641975308641976" y="53.08641975308643" width="1.234567901234568" height="1.234567901234568" style="stroke: red; fill: none; stroke-width: .4"  /><rect x="3.703703703703704" y="59.25925925925926" width="3.703703703703704" height="3.703703703703704" style="stroke: red; fill: none; stroke-width: .4"  /><rect x="1.234567901234568" y="56.79012345679013" width="1.234567901234568" height="1.234567901234568" style="stroke: red; fill: none; stroke-width: .4"  /><rect x="1.234567901234568" y="60.49382716049383" width="1.234567901234568" height="1.234567901234568" style="stroke: red; fill: none; stroke-width: .4"  /><rect x="1.234567901234568" y="64.19753086419753" width="1.234567901234568" height="1.234567901234568" style="stroke: red; fill: none; stroke-width: .4"  /><rect x="4.938271604938272" y="56.79012345679013" width="1.234567901234568" height="1.234567901234568" style="stroke: red; fill: none; stroke-width: .4"  /><rect x="4.938271604938272" y="64.19753086419753" width="1.234567901234568" height="1.234567901234568" style="stroke: red; fill: none; stroke-width: .4"  /><rect x="8.641975308641976" y="56.79012345679013" width="1.234567901234568" height="1.234567901234568" style="stroke: red; fill: none; stroke-width: .4"  /><rect x="8.641975308641976" y="60.49382716049383" width="1.234567901234568" height="1.234567901234568" style="stroke: red; fill: none; stroke-width: .4"  /><rect x="8.641975308641976" y="64.19753086419753" width="1.234567901234568" height="1.234567901234568" style="stroke: red; fill: none; stroke-width: .4"  /><rect x="14.814814814814817" y="37.03703703703704" width="3.703703703703704" height="3.703703703703704" style="stroke: red; fill: none; stroke-width: .4"  /><rect x="12.34567901234568" y="34.567901234567906" width="1.234567901234568" height="1.234567901234568" style="stroke: red; fill: none; stroke-width: .4"  /><rect x="12.34567901234568" y="38.27160493827161" width="1.234567901234568" height="1.234567901234568" style="stroke: red; fill: none; stroke-width: .4"  /><rect x="12.34567901234568" y="41.97530864197532" width="1.234567901234568" height="1.234567901234568" style="stroke: red; fill: none; stroke-width: .4"  /><rect x="16.049382716049386" y="34.567901234567906" width="1.234567901234568" height="1.234567901234568" style="stroke: red; fill: none; stroke-width: .4"  /><rect x="16.049382716049386" y="41.97530864197532" width="1.234567901234568" height="1.234567901234568" style="stroke: red; fill: none; stroke-width: .4"  /><rect x="19.75308641975309" y="34.567901234567906" width="1.234567901234568" height="1.234567901234568" style="stroke: red; fill: none; stroke-width: .4"  /><rect x="19.75308641975309" y="38.27160493827161" width="1.234567901234568" height="1.234567901234568" style="stroke: red; fill: none; stroke-width: .4"  /><rect x="19.75308641975309" y="41.97530864197532" width="1.234567901234568" height="1.234567901234568" style="stroke: red; fill: none; stroke-width: .4"  /><rect x="14.814814814814817" y="59.25925925925926" width="3.703703703703704" height="3.703703703703704" style="stroke: red; fill: none; stroke-width: .4"  /><rect x="12.34567901234568" y="56.79012345679013" width="1.234567901234568" height="1.234567901234568" style="stroke: red; fill: none; stroke-width: .4"  /><rect x="12.34567901234568" y="60.49382716049383" width="1.234567901234568" height="1.234567901234568" style="stroke: red; fill: none; stroke-width: .4"  /><rect x="12.34567901234568" y="64.19753086419753" width="1.234567901234568" height="1.234567901234568" style="stroke: red; fill: none; stroke-width: .4"  /><rect x="16.049382716049386" y="56.79012345679013" width="1.234567901234568" height="1.234567901234568" style="stroke: red; fill: none; stroke-width: .4"  /><rect x="16.049382716049386" y="64.19753086419753" width="1.234567901234568" height="1.234567901234568" style="stroke: red; fill: none; stroke-width: .4"  /><rect x="19.75308641975309" y="56.79012345679013" width="1.234567901234568" height="1.234567901234568" style="stroke: red; fill: none; stroke-width: .4"  /><rect x="19.75308641975309" y="60.49382716049383" width="1.234567901234568" height="1.234567901234568" style="stroke: red; fill: none; stroke-width: .4"  /><rect x="19.75308641975309" y="64.19753086419753" width="1.234567901234568" height="1.234567901234568" style="stroke: red; fill: none; stroke-width: .4"  /><rect x="25.92592592592593" y="37.03703703703704" width="3.703703703703704" height="3.703703703703704" style="stroke: red; fill: none; stroke-width: .4"  /><rect x="23.45679012345679" y="34.567901234567906" width="1.234567901234568" height="1.234567901234568" style="stroke: red; fill: none; stroke-width: .4"  /><rect x="23.45679012345679" y="38.27160493827161" width="1.234567901234568" height="1.234567901234568" style="stroke: red; fill: none; stroke-width: .4"  /><rect x="23.45679012345679" y="41.97530864197532" width="1.234567901234568" height="1.234567901234568" style="stroke: red; fill: none; stroke-width: .4"  /><rect x="27.1604938271605" y="34.567901234567906" width="1.234567901234568" height="1.234567901234568" style="stroke: red; fill: none; stroke-width: .4"  /><rect x="27.1604938271605" y="41.97530864197532" width="1.234567901234568" height="1.234567901234568" style="stroke: red; fill: none; stroke-width: .4"  /><rect x="30.864197530864203" y="34.567901234567906" width="1.234567901234568" height="1.234567901234568" style="stroke: red; fill: none; stroke-width: .4"  /><rect x="30.864197530864203" y="38.27160493827161" width="1.234567901234568" height="1.234567901234568" style="stroke: red; fill: none; stroke-width: .4"  /><rect x="30.864197530864203" y="41.97530864197532" width="1.234567901234568" height="1.234567901234568" style="stroke: red; fill: none; stroke-width: .4"  /><rect x="25.92592592592593" y="48.14814814814815" width="3.703703703703704" height="3.703703703703704" style="stroke: red; fill: none; stroke-width: .4"  /><rect x="23.45679012345679" y="45.67901234567902" width="1.234567901234568" height="1.234567901234568" style="stroke: red; fill: none; stroke-width: .4"  /><rect x="23.45679012345679" y="49.38271604938272" width="1.234567901234568" height="1.234567901234568" style="stroke: red; fill: none; stroke-width: .4"  /><rect x="23.45679012345679" y="53.08641975308643" width="1.234567901234568" height="1.234567901234568" style="stroke: red; fill: none; stroke-width: .4"  /><rect x="27.1604938271605" y="45.67901234567902" width="1.234567901234568" height="1.234567901234568" style="stroke: red; fill: none; stroke-width: .4"  /><rect x="27.1604938271605" y="53.08641975308643" width="1.234567901234568" height="1.234567901234568" style="stroke: red; fill: none; stroke-width: .4"  /><rect x="30.864197530864203" y="45.67901234567902" width="1.234567901234568" height="1.234567901234568" style="stroke: red; fill: none; stroke-width: .4"  /><rect x="30.864197530864203" y="49.38271604938272" width="1.234567901234568" height="1.234567901234568" style="stroke: red; fill: none; stroke-width: .4"  /><rect x="30.864197530864203" y="53.08641975308643" width="1.234567901234568" height="1.234567901234568" style="stroke: red; fill: none; stroke-width: .4"  /><rect x="25.92592592592593" y="59.25925925925926" width="3.703703703703704" height="3.703703703703704" style="stroke: red; fill: none; stroke-width: .4"  /><rect x="23.45679012345679" y="56.79012345679013" width="1.234567901234568" height="1.234567901234568" style="stroke: red; fill: none; stroke-width: .4"  /><rect x="23.45679012345679" y="60.49382716049383" width="1.234567901234568" height="1.234567901234568" style="stroke: red; fill: none; stroke-width: .4"  /><rect x="23.45679012345679" y="64.19753086419753" width="1.234567901234568" height="1.234567901234568" style="stroke: red; fill: none; stroke-width: .4"  /><rect x="27.1604938271605" y="56.79012345679013" width="1.234567901234568" height="1.234567901234568" style="stroke: red; fill: none; stroke-width: .4"  /><rect x="27.1604938271605" y="64.19753086419753" width="1.234567901234568" height="1.234567901234568" style="stroke: red; fill: none; stroke-width: .4"  /><rect x="30.864197530864203" y="56.79012345679013" width="1.234567901234568" height="1.234567901234568" style="stroke: red; fill: none; stroke-width: .4"  /><rect x="30.864197530864203" y="60.49382716049383" width="1.234567901234568" height="1.234567901234568" style="stroke: red; fill: none; stroke-width: .4"  /><rect x="30.864197530864203" y="64.19753086419753" width="1.234567901234568" height="1.234567901234568" style="stroke: red; fill: none; stroke-width: .4"  /><rect x="11.111111111111112" y="77.77777777777779" width="11.111111111111112" height="11.111111111111112" style="stroke: red; fill: none; stroke-width: .4"  /><rect x="3.703703703703704" y="70.37037037037038" width="3.703703703703704" height="3.703703703703704" style="stroke: red; fill: none; stroke-width: .4"  /><rect x="1.234567901234568" y="67.90123456790124" width="1.234567901234568" height="1.234567901234568" style="stroke: red; fill: none; stroke-width: .4"  /><rect x="1.234567901234568" y="71.60493827160495" width="1.234567901234568" height="1.234567901234568" style="stroke: red; fill: none; stroke-width: .4"  /><rect x="1.234567901234568" y="75.30864197530865" width="1.234567901234568" height="1.234567901234568" style="stroke: red; fill: none; stroke-width: .4"  /><rect x="4.938271604938272" y="67.90123456790124" width="1.234567901234568" height="1.234567901234568" style="stroke: red; fill: none; stroke-width: .4"  /><rect x="4.938271604938272" y="75.30864197530865" width="1.234567901234568" height="1.234567901234568" style="stroke: red; fill: none; stroke-width: .4"  /><rect x="8.641975308641976" y="67.90123456790124" width="1.234567901234568" height="1.234567901234568" style="stroke: red; fill: none; stroke-width: .4"  /><rect x="8.641975308641976" y="71.60493827160495" width="1.234567901234568" height="1.234567901234568" style="stroke: red; fill: none; stroke-width: .4"  /><rect x="8.641975308641976" y="75.30864197530865" width="1.234567901234568" height="1.234567901234568" style="stroke: red; fill: none; stroke-width: .4"  /><rect x="3.703703703703704" y="81.4814814814815" width="3.703703703703704" height="3.703703703703704" style="stroke: red; fill: none; stroke-width: .4"  /><rect x="1.234567901234568" y="79.01234567901236" width="1.234567901234568" height="1.234567901234568" style="stroke: red; fill: none; stroke-width: .4"  /><rect x="1.234567901234568" y="82.71604938271606" width="1.234567901234568" height="1.234567901234568" style="stroke: red; fill: none; stroke-width: .4"  /><rect x="1.234567901234568" y="86.41975308641976" width="1.234567901234568" height="1.234567901234568" style="stroke: red; fill: none; stroke-width: .4"  /><rect x="4.938271604938272" y="79.01234567901236" width="1.234567901234568" height="1.234567901234568" style="stroke: red; fill: none; stroke-width: .4"  /><rect x="4.938271604938272" y="86.41975308641976" width="1.234567901234568" height="1.234567901234568" style="stroke: red; fill: none; stroke-width: .4"  /><rect x="8.641975308641976" y="79.01234567901236" width="1.234567901234568" height="1.234567901234568" style="stroke: red; fill: none; stroke-width: .4"  /><rect x="8.641975308641976" y="82.71604938271606" width="1.234567901234568" height="1.234567901234568" style="stroke: red; fill: none; stroke-width: .4"  /><rect x="8.641975308641976" y="86.41975308641976" width="1.234567901234568" height="1.234567901234568" style="stroke: red; fill: none; stroke-width: .4"  /><rect x="3.703703703703704" y="92.59259259259261" width="3.703703703703704" height="3.703703703703704" style="stroke: red; fill: none; stroke-width: .4"  /><rect x="1.234567901234568" y="90.12345679012347" width="1.234567901234568" height="1.234567901234568" style="stroke: red; fill: none; stroke-width: .4"  /><rect x="1.234567901234568" y="93.82716049382718" width="1.234567901234568" height="1.234567901234568" style="stroke: red; fill: none; stroke-width: .4"  /><rect x="1.234567901234568" y="97.53086419753087" width="1.234567901234568" height="1.234567901234568" style="stroke: red; fill: none; stroke-width: .4"  /><rect x="4.938271604938272" y="90.12345679012347" width="1.234567901234568" height="1.234567901234568" style="stroke: red; fill: none; stroke-width: .4"  /><rect x="4.938271604938272" y="97.53086419753087" width="1.234567901234568" height="1.234567901234568" style="stroke: red; fill: none; stroke-width: .4"  /><rect x="8.641975308641976" y="90.12345679012347" width="1.234567901234568" height="1.234567901234568" style="stroke: red; fill: none; stroke-width: .4"  /><rect x="8.641975308641976" y="93.82716049382718" width="1.234567901234568" height="1.234567901234568" style="stroke: red; fill: none; stroke-width: .4"  /><rect x="8.641975308641976" y="97.53086419753087" width="1.234567901234568" height="1.234567901234568" style="stroke: red; fill: none; stroke-width: .4"  /><rect x="14.814814814814817" y="70.37037037037038" width="3.703703703703704" height="3.703703703703704" style="stroke: red; fill: none; stroke-width: .4"  /><rect x="12.34567901234568" y="67.90123456790124" width="1.234567901234568" height="1.234567901234568" style="stroke: red; fill: none; stroke-width: .4"  /><rect x="12.34567901234568" y="71.60493827160495" width="1.234567901234568" height="1.234567901234568" style="stroke: red; fill: none; stroke-width: .4"  /><rect x="12.34567901234568" y="75.30864197530865" width="1.234567901234568" height="1.234567901234568" style="stroke: red; fill: none; stroke-width: .4"  /><rect x="16.049382716049386" y="67.90123456790124" width="1.234567901234568" height="1.234567901234568" style="stroke: red; fill: none; stroke-width: .4"  /><rect x="16.049382716049386" y="75.30864197530865" width="1.234567901234568" height="1.234567901234568" style="stroke: red; fill: none; stroke-width: .4"  /><rect x="19.75308641975309" y="67.90123456790124" width="1.234567901234568" height="1.234567901234568" style="stroke: red; fill: none; stroke-width: .4"  /><rect x="19.75308641975309" y="71.60493827160495" width="1.234567901234568" height="1.234567901234568" style="stroke: red; fill: none; stroke-width: .4"  /><rect x="19.75308641975309" y="75.30864197530865" width="1.234567901234568" height="1.234567901234568" style="stroke: red; fill: none; stroke-width: .4"  /><rect x="14.814814814814817" y="92.59259259259261" width="3.703703703703704" height="3.703703703703704" style="stroke: red; fill: none; stroke-width: .4"  /><rect x="12.34567901234568" y="90.12345679012347" width="1.234567901234568" height="1.234567901234568" style="stroke: red; fill: none; stroke-width: .4"  /><rect x="12.34567901234568" y="93.82716049382718" width="1.234567901234568" height="1.234567901234568" style="stroke: red; fill: none; stroke-width: .4"  /><rect x="12.34567901234568" y="97.53086419753087" width="1.234567901234568" height="1.234567901234568" style="stroke: red; fill: none; stroke-width: .4"  /><rect x="16.049382716049386" y="90.12345679012347" width="1.234567901234568" height="1.234567901234568" style="stroke: red; fill: none; stroke-width: .4"  /><rect x="16.049382716049386" y="97.53086419753087" width="1.234567901234568" height="1.234567901234568" style="stroke: red; fill: none; stroke-width: .4"  /><rect x="19.75308641975309" y="90.12345679012347" width="1.234567901234568" height="1.234567901234568" style="stroke: red; fill: none; stroke-width: .4"  /><rect x="19.75308641975309" y="93.82716049382718" width="1.234567901234568" height="1.234567901234568" style="stroke: red; fill: none; stroke-width: .4"  /><rect x="19.75308641975309" y="97.53086419753087" width="1.234567901234568" height="1.234567901234568" style="stroke: red; fill: none; stroke-width: .4"  /><rect x="25.92592592592593" y="70.37037037037038" width="3.703703703703704" height="3.703703703703704" style="stroke: red; fill: none; stroke-width: .4"  /><rect x="23.45679012345679" y="67.90123456790124" width="1.234567901234568" height="1.234567901234568" style="stroke: red; fill: none; stroke-width: .4"  /><rect x="23.45679012345679" y="71.60493827160495" width="1.234567901234568" height="1.234567901234568" style="stroke: red; fill: none; stroke-width: .4"  /><rect x="23.45679012345679" y="75.30864197530865" width="1.234567901234568" height="1.234567901234568" style="stroke: red; fill: none; stroke-width: .4"  /><rect x="27.1604938271605" y="67.90123456790124" width="1.234567901234568" height="1.234567901234568" style="stroke: red; fill: none; stroke-width: .4"  /><rect x="27.1604938271605" y="75.30864197530865" width="1.234567901234568" height="1.234567901234568" style="stroke: red; fill: none; stroke-width: .4"  /><rect x="30.864197530864203" y="67.90123456790124" width="1.234567901234568" height="1.234567901234568" style="stroke: red; fill: none; stroke-width: .4"  /><rect x="30.864197530864203" y="71.60493827160495" width="1.234567901234568" height="1.234567901234568" style="stroke: red; fill: none; stroke-width: .4"  /><rect x="30.864197530864203" y="75.30864197530865" width="1.234567901234568" height="1.234567901234568" style="stroke: red; fill: none; stroke-width: .4"  /><rect x="25.92592592592593" y="81.4814814814815" width="3.703703703703704" height="3.703703703703704" style="stroke: red; fill: none; stroke-width: .4"  /><rect x="23.45679012345679" y="79.01234567901236" width="1.234567901234568" height="1.234567901234568" style="stroke: red; fill: none; stroke-width: .4"  /><rect x="23.45679012345679" y="82.71604938271606" width="1.234567901234568" height="1.234567901234568" style="stroke: red; fill: none; stroke-width: .4"  /><rect x="23.45679012345679" y="86.41975308641976" width="1.234567901234568" height="1.234567901234568" style="stroke: red; fill: none; stroke-width: .4"  /><rect x="27.1604938271605" y="79.01234567901236" width="1.234567901234568" height="1.234567901234568" style="stroke: red; fill: none; stroke-width: .4"  /><rect x="27.1604938271605" y="86.41975308641976" width="1.234567901234568" height="1.234567901234568" style="stroke: red; fill: none; stroke-width: .4"  /><rect x="30.864197530864203" y="79.01234567901236" width="1.234567901234568" height="1.234567901234568" style="stroke: red; fill: none; stroke-width: .4"  /><rect x="30.864197530864203" y="82.71604938271606" width="1.234567901234568" height="1.234567901234568" style="stroke: red; fill: none; stroke-width: .4"  /><rect x="30.864197530864203" y="86.41975308641976" width="1.234567901234568" height="1.234567901234568" style="stroke: red; fill: none; stroke-width: .4"  /><rect x="25.92592592592593" y="92.59259259259261" width="3.703703703703704" height="3.703703703703704" style="stroke: red; fill: none; stroke-width: .4"  /><rect x="23.45679012345679" y="90.12345679012347" width="1.234567901234568" height="1.234567901234568" style="stroke: red; fill: none; stroke-width: .4"  /><rect x="23.45679012345679" y="93.82716049382718" width="1.234567901234568" height="1.234567901234568" style="stroke: red; fill: none; stroke-width: .4"  /><rect x="23.45679012345679" y="97.53086419753087" width="1.234567901234568" height="1.234567901234568" style="stroke: red; fill: none; stroke-width: .4"  /><rect x="27.1604938271605" y="90.12345679012347" width="1.234567901234568" height="1.234567901234568" style="stroke: red; fill: none; stroke-width: .4"  /><rect x="27.1604938271605" y="97.53086419753087" width="1.234567901234568" height="1.234567901234568" style="stroke: red; fill: none; stroke-width: .4"  /><rect x="30.864197530864203" y="90.12345679012347" width="1.234567901234568" height="1.234567901234568" style="stroke: red; fill: none; stroke-width: .4"  /><rect x="30.864197530864203" y="93.82716049382718" width="1.234567901234568" height="1.234567901234568" style="stroke: red; fill: none; stroke-width: .4"  /><rect x="30.864197530864203" y="97.53086419753087" width="1.234567901234568" height="1.234567901234568" style="stroke: red; fill: none; stroke-width: .4"  /><rect x="44.44444444444445" y="11.111111111111112" width="11.111111111111112" height="11.111111111111112" style="stroke: red; fill: none; stroke-width: .4"  /><rect x="37.03703703703704" y="3.703703703703704" width="3.703703703703704" height="3.703703703703704" style="stroke: red; fill: none; stroke-width: .4"  /><rect x="34.567901234567906" y="1.234567901234568" width="1.234567901234568" height="1.234567901234568" style="stroke: red; fill: none; stroke-width: .4"  /><rect x="34.567901234567906" y="4.938271604938272" width="1.234567901234568" height="1.234567901234568" style="stroke: red; fill: none; stroke-width: .4"  /><rect x="34.567901234567906" y="8.641975308641976" width="1.234567901234568" height="1.234567901234568" style="stroke: red; fill: none; stroke-width: .4"  /><rect x="38.27160493827161" y="1.234567901234568" width="1.234567901234568" height="1.234567901234568" style="stroke: red; fill: none; stroke-width: .4"  /><rect x="38.27160493827161" y="8.641975308641976" width="1.234567901234568" height="1.234567901234568" style="stroke: red; fill: none; stroke-width: .4"  /><rect x="41.97530864197532" y="1.234567901234568" width="1.234567901234568" height="1.234567901234568" style="stroke: red; fill: none; stroke-width: .4"  /><rect x="41.97530864197532" y="4.938271604938272" width="1.234567901234568" height="1.234567901234568" style="stroke: red; fill: none; stroke-width: .4"  /><rect x="41.97530864197532" y="8.641975308641976" width="1.234567901234568" height="1.234567901234568" style="stroke: red; fill: none; stroke-width: .4"  /><rect x="37.03703703703704" y="14.814814814814817" width="3.703703703703704" height="3.703703703703704" style="stroke: red; fill: none; stroke-width: .4"  /><rect x="34.567901234567906" y="12.34567901234568" width="1.234567901234568" height="1.234567901234568" style="stroke: red; fill: none; stroke-width: .4"  /><rect x="34.567901234567906" y="16.049382716049386" width="1.234567901234568" height="1.234567901234568" style="stroke: red; fill: none; stroke-width: .4"  /><rect x="34.567901234567906" y="19.75308641975309" width="1.234567901234568" height="1.234567901234568" style="stroke: red; fill: none; stroke-width: .4"  /><rect x="38.27160493827161" y="12.34567901234568" width="1.234567901234568" height="1.234567901234568" style="stroke: red; fill: none; stroke-width: .4"  /><rect x="38.27160493827161" y="19.75308641975309" width="1.234567901234568" height="1.234567901234568" style="stroke: red; fill: none; stroke-width: .4"  /><rect x="41.97530864197532" y="12.34567901234568" width="1.234567901234568" height="1.234567901234568" style="stroke: red; fill: none; stroke-width: .4"  /><rect x="41.97530864197532" y="16.049382716049386" width="1.234567901234568" height="1.234567901234568" style="stroke: red; fill: none; stroke-width: .4"  /><rect x="41.97530864197532" y="19.75308641975309" width="1.234567901234568" height="1.234567901234568" style="stroke: red; fill: none; stroke-width: .4"  /><rect x="37.03703703703704" y="25.92592592592593" width="3.703703703703704" height="3.703703703703704" style="stroke: red; fill: none; stroke-width: .4"  /><rect x="34.567901234567906" y="23.45679012345679" width="1.234567901234568" height="1.234567901234568" style="stroke: red; fill: none; stroke-width: .4"  /><rect x="34.567901234567906" y="27.1604938271605" width="1.234567901234568" height="1.234567901234568" style="stroke: red; fill: none; stroke-width: .4"  /><rect x="34.567901234567906" y="30.864197530864203" width="1.234567901234568" height="1.234567901234568" style="stroke: red; fill: none; stroke-width: .4"  /><rect x="38.27160493827161" y="23.45679012345679" width="1.234567901234568" height="1.234567901234568" style="stroke: red; fill: none; stroke-width: .4"  /><rect x="38.27160493827161" y="30.864197530864203" width="1.234567901234568" height="1.234567901234568" style="stroke: red; fill: none; stroke-width: .4"  /><rect x="41.97530864197532" y="23.45679012345679" width="1.234567901234568" height="1.234567901234568" style="stroke: red; fill: none; stroke-width: .4"  /><rect x="41.97530864197532" y="27.1604938271605" width="1.234567901234568" height="1.234567901234568" style="stroke: red; fill: none; stroke-width: .4"  /><rect x="41.97530864197532" y="30.864197530864203" width="1.234567901234568" height="1.234567901234568" style="stroke: red; fill: none; stroke-width: .4"  /><rect x="48.14814814814815" y="3.703703703703704" width="3.703703703703704" height="3.703703703703704" style="stroke: red; fill: none; stroke-width: .4"  /><rect x="45.67901234567902" y="1.234567901234568" width="1.234567901234568" height="1.234567901234568" style="stroke: red; fill: none; stroke-width: .4"  /><rect x="45.67901234567902" y="4.938271604938272" width="1.234567901234568" height="1.234567901234568" style="stroke: red; fill: none; stroke-width: .4"  /><rect x="45.67901234567902" y="8.641975308641976" width="1.234567901234568" height="1.234567901234568" style="stroke: red; fill: none; stroke-width: .4"  /><rect x="49.38271604938272" y="1.234567901234568" width="1.234567901234568" height="1.234567901234568" style="stroke: red; fill: none; stroke-width: .4"  /><rect x="49.38271604938272" y="8.641975308641976" width="1.234567901234568" height="1.234567901234568" style="stroke: red; fill: none; stroke-width: .4"  /><rect x="53.08641975308643" y="1.234567901234568" width="1.234567901234568" height="1.234567901234568" style="stroke: red; fill: none; stroke-width: .4"  /><rect x="53.08641975308643" y="4.938271604938272" width="1.234567901234568" height="1.234567901234568" style="stroke: red; fill: none; stroke-width: .4"  /><rect x="53.08641975308643" y="8.641975308641976" width="1.234567901234568" height="1.234567901234568" style="stroke: red; fill: none; stroke-width: .4"  /><rect x="48.14814814814815" y="25.92592592592593" width="3.703703703703704" height="3.703703703703704" style="stroke: red; fill: none; stroke-width: .4"  /><rect x="45.67901234567902" y="23.45679012345679" width="1.234567901234568" height="1.234567901234568" style="stroke: red; fill: none; stroke-width: .4"  /><rect x="45.67901234567902" y="27.1604938271605" width="1.234567901234568" height="1.234567901234568" style="stroke: red; fill: none; stroke-width: .4"  /><rect x="45.67901234567902" y="30.864197530864203" width="1.234567901234568" height="1.234567901234568" style="stroke: red; fill: none; stroke-width: .4"  /><rect x="49.38271604938272" y="23.45679012345679" width="1.234567901234568" height="1.234567901234568" style="stroke: red; fill: none; stroke-width: .4"  /><rect x="49.38271604938272" y="30.864197530864203" width="1.234567901234568" height="1.234567901234568" style="stroke: red; fill: none; stroke-width: .4"  /><rect x="53.08641975308643" y="23.45679012345679" width="1.234567901234568" height="1.234567901234568" style="stroke: red; fill: none; stroke-width: .4"  /><rect x="53.08641975308643" y="27.1604938271605" width="1.234567901234568" height="1.234567901234568" style="stroke: red; fill: none; stroke-width: .4"  /><rect x="53.08641975308643" y="30.864197530864203" width="1.234567901234568" height="1.234567901234568" style="stroke: red; fill: none; stroke-width: .4"  /><rect x="59.25925925925926" y="3.703703703703704" width="3.703703703703704" height="3.703703703703704" style="stroke: red; fill: none; stroke-width: .4"  /><rect x="56.79012345679013" y="1.234567901234568" width="1.234567901234568" height="1.234567901234568" style="stroke: red; fill: none; stroke-width: .4"  /><rect x="56.79012345679013" y="4.938271604938272" width="1.234567901234568" height="1.234567901234568" style="stroke: red; fill: none; stroke-width: .4"  /><rect x="56.79012345679013" y="8.641975308641976" width="1.234567901234568" height="1.234567901234568" style="stroke: red; fill: none; stroke-width: .4"  /><rect x="60.49382716049383" y="1.234567901234568" width="1.234567901234568" height="1.234567901234568" style="stroke: red; fill: none; stroke-width: .4"  /><rect x="60.49382716049383" y="8.641975308641976" width="1.234567901234568" height="1.234567901234568" style="stroke: red; fill: none; stroke-width: .4"  /><rect x="64.19753086419753" y="1.234567901234568" width="1.234567901234568" height="1.234567901234568" style="stroke: red; fill: none; stroke-width: .4"  /><rect x="64.19753086419753" y="4.938271604938272" width="1.234567901234568" height="1.234567901234568" style="stroke: red; fill: none; stroke-width: .4"  /><rect x="64.19753086419753" y="8.641975308641976" width="1.234567901234568" height="1.234567901234568" style="stroke: red; fill: none; stroke-width: .4"  /><rect x="59.25925925925926" y="14.814814814814817" width="3.703703703703704" height="3.703703703703704" style="stroke: red; fill: none; stroke-width: .4"  /><rect x="56.79012345679013" y="12.34567901234568" width="1.234567901234568" height="1.234567901234568" style="stroke: red; fill: none; stroke-width: .4"  /><rect x="56.79012345679013" y="16.049382716049386" width="1.234567901234568" height="1.234567901234568" style="stroke: red; fill: none; stroke-width: .4"  /><rect x="56.79012345679013" y="19.75308641975309" width="1.234567901234568" height="1.234567901234568" style="stroke: red; fill: none; stroke-width: .4"  /><rect x="60.49382716049383" y="12.34567901234568" width="1.234567901234568" height="1.234567901234568" style="stroke: red; fill: none; stroke-width: .4"  /><rect x="60.49382716049383" y="19.75308641975309" width="1.234567901234568" height="1.234567901234568" style="stroke: red; fill: none; stroke-width: .4"  /><rect x="64.19753086419753" y="12.34567901234568" width="1.234567901234568" height="1.234567901234568" style="stroke: red; fill: none; stroke-width: .4"  /><rect x="64.19753086419753" y="16.049382716049386" width="1.234567901234568" height="1.234567901234568" style="stroke: red; fill: none; stroke-width: .4"  /><rect x="64.19753086419753" y="19.75308641975309" width="1.234567901234568" height="1.234567901234568" style="stroke: red; fill: none; stroke-width: .4"  /><rect x="59.25925925925926" y="25.92592592592593" width="3.703703703703704" height="3.703703703703704" style="stroke: red; fill: none; stroke-width: .4"  /><rect x="56.79012345679013" y="23.45679012345679" width="1.234567901234568" height="1.234567901234568" style="stroke: red; fill: none; stroke-width: .4"  /><rect x="56.79012345679013" y="27.1604938271605" width="1.234567901234568" height="1.234567901234568" style="stroke: red; fill: none; stroke-width: .4"  /><rect x="56.79012345679013" y="30.864197530864203" width="1.234567901234568" height="1.234567901234568" style="stroke: red; fill: none; stroke-width: .4"  /><rect x="60.49382716049383" y="23.45679012345679" width="1.234567901234568" height="1.234567901234568" style="stroke: red; fill: none; stroke-width: .4"  /><rect x="60.49382716049383" y="30.864197530864203" width="1.234567901234568" height="1.234567901234568" style="stroke: red; fill: none; stroke-width: .4"  /><rect x="64.19753086419753" y="23.45679012345679" width="1.234567901234568" height="1.234567901234568" style="stroke: red; fill: none; stroke-width: .4"  /><rect x="64.19753086419753" y="27.1604938271605" width="1.234567901234568" height="1.234567901234568" style="stroke: red; fill: none; stroke-width: .4"  /><rect x="64.19753086419753" y="30.864197530864203" width="1.234567901234568" height="1.234567901234568" style="stroke: red; fill: none; stroke-width: .4"  /><rect x="44.44444444444445" y="77.77777777777779" width="11.111111111111112" height="11.111111111111112" style="stroke: red; fill: none; stroke-width: .4"  /><rect x="37.03703703703704" y="70.37037037037038" width="3.703703703703704" height="3.703703703703704" style="stroke: red; fill: none; stroke-width: .4"  /><rect x="34.567901234567906" y="67.90123456790124" width="1.234567901234568" height="1.234567901234568" style="stroke: red; fill: none; stroke-width: .4"  /><rect x="34.567901234567906" y="71.60493827160495" width="1.234567901234568" height="1.234567901234568" style="stroke: red; fill: none; stroke-width: .4"  /><rect x="34.567901234567906" y="75.30864197530865" width="1.234567901234568" height="1.234567901234568" style="stroke: red; fill: none; stroke-width: .4"  /><rect x="38.27160493827161" y="67.90123456790124" width="1.234567901234568" height="1.234567901234568" style="stroke: red; fill: none; stroke-width: .4"  /><rect x="38.27160493827161" y="75.30864197530865" width="1.234567901234568" height="1.234567901234568" style="stroke: red; fill: none; stroke-width: .4"  /><rect x="41.97530864197532" y="67.90123456790124" width="1.234567901234568" height="1.234567901234568" style="stroke: red; fill: none; stroke-width: .4"  /><rect x="41.97530864197532" y="71.60493827160495" width="1.234567901234568" height="1.234567901234568" style="stroke: red; fill: none; stroke-width: .4"  /><rect x="41.97530864197532" y="75.30864197530865" width="1.234567901234568" height="1.234567901234568" style="stroke: red; fill: none; stroke-width: .4"  /><rect x="37.03703703703704" y="81.4814814814815" width="3.703703703703704" height="3.703703703703704" style="stroke: red; fill: none; stroke-width: .4"  /><rect x="34.567901234567906" y="79.01234567901236" width="1.234567901234568" height="1.234567901234568" style="stroke: red; fill: none; stroke-width: .4"  /><rect x="34.567901234567906" y="82.71604938271606" width="1.234567901234568" height="1.234567901234568" style="stroke: red; fill: none; stroke-width: .4"  /><rect x="34.567901234567906" y="86.41975308641976" width="1.234567901234568" height="1.234567901234568" style="stroke: red; fill: none; stroke-width: .4"  /><rect x="38.27160493827161" y="79.01234567901236" width="1.234567901234568" height="1.234567901234568" style="stroke: red; fill: none; stroke-width: .4"  /><rect x="38.27160493827161" y="86.41975308641976" width="1.234567901234568" height="1.234567901234568" style="stroke: red; fill: none; stroke-width: .4"  /><rect x="41.97530864197532" y="79.01234567901236" width="1.234567901234568" height="1.234567901234568" style="stroke: red; fill: none; stroke-width: .4"  /><rect x="41.97530864197532" y="82.71604938271606" width="1.234567901234568" height="1.234567901234568" style="stroke: red; fill: none; stroke-width: .4"  /><rect x="41.97530864197532" y="86.41975308641976" width="1.234567901234568" height="1.234567901234568" style="stroke: red; fill: none; stroke-width: .4"  /><rect x="37.03703703703704" y="92.59259259259261" width="3.703703703703704" height="3.703703703703704" style="stroke: red; fill: none; stroke-width: .4"  /><rect x="34.567901234567906" y="90.12345679012347" width="1.234567901234568" height="1.234567901234568" style="stroke: red; fill: none; stroke-width: .4"  /><rect x="34.567901234567906" y="93.82716049382718" width="1.234567901234568" height="1.234567901234568" style="stroke: red; fill: none; stroke-width: .4"  /><rect x="34.567901234567906" y="97.53086419753087" width="1.234567901234568" height="1.234567901234568" style="stroke: red; fill: none; stroke-width: .4"  /><rect x="38.27160493827161" y="90.12345679012347" width="1.234567901234568" height="1.234567901234568" style="stroke: red; fill: none; stroke-width: .4"  /><rect x="38.27160493827161" y="97.53086419753087" width="1.234567901234568" height="1.234567901234568" style="stroke: red; fill: none; stroke-width: .4"  /><rect x="41.97530864197532" y="90.12345679012347" width="1.234567901234568" height="1.234567901234568" style="stroke: red; fill: none; stroke-width: .4"  /><rect x="41.97530864197532" y="93.82716049382718" width="1.234567901234568" height="1.234567901234568" style="stroke: red; fill: none; stroke-width: .4"  /><rect x="41.97530864197532" y="97.53086419753087" width="1.234567901234568" height="1.234567901234568" style="stroke: red; fill: none; stroke-width: .4"  /><rect x="48.14814814814815" y="70.37037037037038" width="3.703703703703704" height="3.703703703703704" style="stroke: red; fill: none; stroke-width: .4"  /><rect x="45.67901234567902" y="67.90123456790124" width="1.234567901234568" height="1.234567901234568" style="stroke: red; fill: none; stroke-width: .4"  /><rect x="45.67901234567902" y="71.60493827160495" width="1.234567901234568" height="1.234567901234568" style="stroke: red; fill: none; stroke-width: .4"  /><rect x="45.67901234567902" y="75.30864197530865" width="1.234567901234568" height="1.234567901234568" style="stroke: red; fill: none; stroke-width: .4"  /><rect x="49.38271604938272" y="67.90123456790124" width="1.234567901234568" height="1.234567901234568" style="stroke: red; fill: none; stroke-width: .4"  /><rect x="49.38271604938272" y="75.30864197530865" width="1.234567901234568" height="1.234567901234568" style="stroke: red; fill: none; stroke-width: .4"  /><rect x="53.08641975308643" y="67.90123456790124" width="1.234567901234568" height="1.234567901234568" style="stroke: red; fill: none; stroke-width: .4"  /><rect x="53.08641975308643" y="71.60493827160495" width="1.234567901234568" height="1.234567901234568" style="stroke: red; fill: none; stroke-width: .4"  /><rect x="53.08641975308643" y="75.30864197530865" width="1.234567901234568" height="1.234567901234568" style="stroke: red; fill: none; stroke-width: .4"  /><rect x="48.14814814814815" y="92.59259259259261" width="3.703703703703704" height="3.703703703703704" style="stroke: red; fill: none; stroke-width: .4"  /><rect x="45.67901234567902" y="90.12345679012347" width="1.234567901234568" height="1.234567901234568" style="stroke: red; fill: none; stroke-width: .4"  /><rect x="45.67901234567902" y="93.82716049382718" width="1.234567901234568" height="1.234567901234568" style="stroke: red; fill: none; stroke-width: .4"  /><rect x="45.67901234567902" y="97.53086419753087" width="1.234567901234568" height="1.234567901234568" style="stroke: red; fill: none; stroke-width: .4"  /><rect x="49.38271604938272" y="90.12345679012347" width="1.234567901234568" height="1.234567901234568" style="stroke: red; fill: none; stroke-width: .4"  /><rect x="49.38271604938272" y="97.53086419753087" width="1.234567901234568" height="1.234567901234568" style="stroke: red; fill: none; stroke-width: .4"  /><rect x="53.08641975308643" y="90.12345679012347" width="1.234567901234568" height="1.234567901234568" style="stroke: red; fill: none; stroke-width: .4"  /><rect x="53.08641975308643" y="93.82716049382718" width="1.234567901234568" height="1.234567901234568" style="stroke: red; fill: none; stroke-width: .4"  /><rect x="53.08641975308643" y="97.53086419753087" width="1.234567901234568" height="1.234567901234568" style="stroke: red; fill: none; stroke-width: .4"  /><rect x="59.25925925925926" y="70.37037037037038" width="3.703703703703704" height="3.703703703703704" style="stroke: red; fill: none; stroke-width: .4"  /><rect x="56.79012345679013" y="67.90123456790124" width="1.234567901234568" height="1.234567901234568" style="stroke: red; fill: none; stroke-width: .4"  /><rect x="56.79012345679013" y="71.60493827160495" width="1.234567901234568" height="1.234567901234568" style="stroke: red; fill: none; stroke-width: .4"  /><rect x="56.79012345679013" y="75.30864197530865" width="1.234567901234568" height="1.234567901234568" style="stroke: red; fill: none; stroke-width: .4"  /><rect x="60.49382716049383" y="67.90123456790124" width="1.234567901234568" height="1.234567901234568" style="stroke: red; fill: none; stroke-width: .4"  /><rect x="60.49382716049383" y="75.30864197530865" width="1.234567901234568" height="1.234567901234568" style="stroke: red; fill: none; stroke-width: .4"  /><rect x="64.19753086419753" y="67.90123456790124" width="1.234567901234568" height="1.234567901234568" style="stroke: red; fill: none; stroke-width: .4"  /><rect x="64.19753086419753" y="71.60493827160495" width="1.234567901234568" height="1.234567901234568" style="stroke: red; fill: none; stroke-width: .4"  /><rect x="64.19753086419753" y="75.30864197530865" width="1.234567901234568" height="1.234567901234568" style="stroke: red; fill: none; stroke-width: .4"  /><rect x="59.25925925925926" y="81.4814814814815" width="3.703703703703704" height="3.703703703703704" style="stroke: red; fill: none; stroke-width: .4"  /><rect x="56.79012345679013" y="79.01234567901236" width="1.234567901234568" height="1.234567901234568" style="stroke: red; fill: none; stroke-width: .4"  /><rect x="56.79012345679013" y="82.71604938271606" width="1.234567901234568" height="1.234567901234568" style="stroke: red; fill: none; stroke-width: .4"  /><rect x="56.79012345679013" y="86.41975308641976" width="1.234567901234568" height="1.234567901234568" style="stroke: red; fill: none; stroke-width: .4"  /><rect x="60.49382716049383" y="79.01234567901236" width="1.234567901234568" height="1.234567901234568" style="stroke: red; fill: none; stroke-width: .4"  /><rect x="60.49382716049383" y="86.41975308641976" width="1.234567901234568" height="1.234567901234568" style="stroke: red; fill: none; stroke-width: .4"  /><rect x="64.19753086419753" y="79.01234567901236" width="1.234567901234568" height="1.234567901234568" style="stroke: red; fill: none; stroke-width: .4"  /><rect x="64.19753086419753" y="82.71604938271606" width="1.234567901234568" height="1.234567901234568" style="stroke: red; fill: none; stroke-width: .4"  /><rect x="64.19753086419753" y="86.41975308641976" width="1.234567901234568" height="1.234567901234568" style="stroke: red; fill: none; stroke-width: .4"  /><rect x="59.25925925925926" y="92.59259259259261" width="3.703703703703704" height="3.703703703703704" style="stroke: red; fill: none; stroke-width: .4"  /><rect x="56.79012345679013" y="90.12345679012347" width="1.234567901234568" height="1.234567901234568" style="stroke: red; fill: none; stroke-width: .4"  /><rect x="56.79012345679013" y="93.82716049382718" width="1.234567901234568" height="1.234567901234568" style="stroke: red; fill: none; stroke-width: .4"  /><rect x="56.79012345679013" y="97.53086419753087" width="1.234567901234568" height="1.234567901234568" style="stroke: red; fill: none; stroke-width: .4"  /><rect x="60.49382716049383" y="90.12345679012347" width="1.234567901234568" height="1.234567901234568" style="stroke: red; fill: none; stroke-width: .4"  /><rect x="60.49382716049383" y="97.53086419753087" width="1.234567901234568" height="1.234567901234568" style="stroke: red; fill: none; stroke-width: .4"  /><rect x="64.19753086419753" y="90.12345679012347" width="1.234567901234568" height="1.234567901234568" style="stroke: red; fill: none; stroke-width: .4"  /><rect x="64.19753086419753" y="93.82716049382718" width="1.234567901234568" height="1.234567901234568" style="stroke: red; fill: none; stroke-width: .4"  /><rect x="64.19753086419753" y="97.53086419753087" width="1.234567901234568" height="1.234567901234568" style="stroke: red; fill: none; stroke-width: .4"  /><rect x="77.77777777777779" y="11.111111111111112" width="11.111111111111112" height="11.111111111111112" style="stroke: red; fill: none; stroke-width: .4"  /><rect x="70.37037037037038" y="3.703703703703704" width="3.703703703703704" height="3.703703703703704" style="stroke: red; fill: none; stroke-width: .4"  /><rect x="67.90123456790124" y="1.234567901234568" width="1.234567901234568" height="1.234567901234568" style="stroke: red; fill: none; stroke-width: .4"  /><rect x="67.90123456790124" y="4.938271604938272" width="1.234567901234568" height="1.234567901234568" style="stroke: red; fill: none; stroke-width: .4"  /><rect x="67.90123456790124" y="8.641975308641976" width="1.234567901234568" height="1.234567901234568" style="stroke: red; fill: none; stroke-width: .4"  /><rect x="71.60493827160495" y="1.234567901234568" width="1.234567901234568" height="1.234567901234568" style="stroke: red; fill: none; stroke-width: .4"  /><rect x="71.60493827160495" y="8.641975308641976" width="1.234567901234568" height="1.234567901234568" style="stroke: red; fill: none; stroke-width: .4"  /><rect x="75.30864197530865" y="1.234567901234568" width="1.234567901234568" height="1.234567901234568" style="stroke: red; fill: none; stroke-width: .4"  /><rect x="75.30864197530865" y="4.938271604938272" width="1.234567901234568" height="1.234567901234568" style="stroke: red; fill: none; stroke-width: .4"  /><rect x="75.30864197530865" y="8.641975308641976" width="1.234567901234568" height="1.234567901234568" style="stroke: red; fill: none; stroke-width: .4"  /><rect x="70.37037037037038" y="14.814814814814817" width="3.703703703703704" height="3.703703703703704" style="stroke: red; fill: none; stroke-width: .4"  /><rect x="67.90123456790124" y="12.34567901234568" width="1.234567901234568" height="1.234567901234568" style="stroke: red; fill: none; stroke-width: .4"  /><rect x="67.90123456790124" y="16.049382716049386" width="1.234567901234568" height="1.234567901234568" style="stroke: red; fill: none; stroke-width: .4"  /><rect x="67.90123456790124" y="19.75308641975309" width="1.234567901234568" height="1.234567901234568" style="stroke: red; fill: none; stroke-width: .4"  /><rect x="71.60493827160495" y="12.34567901234568" width="1.234567901234568" height="1.234567901234568" style="stroke: red; fill: none; stroke-width: .4"  /><rect x="71.60493827160495" y="19.75308641975309" width="1.234567901234568" height="1.234567901234568" style="stroke: red; fill: none; stroke-width: .4"  /><rect x="75.30864197530865" y="12.34567901234568" width="1.234567901234568" height="1.234567901234568" style="stroke: red; fill: none; stroke-width: .4"  /><rect x="75.30864197530865" y="16.049382716049386" width="1.234567901234568" height="1.234567901234568" style="stroke: red; fill: none; stroke-width: .4"  /><rect x="75.30864197530865" y="19.75308641975309" width="1.234567901234568" height="1.234567901234568" style="stroke: red; fill: none; stroke-width: .4"  /><rect x="70.37037037037038" y="25.92592592592593" width="3.703703703703704" height="3.703703703703704" style="stroke: red; fill: none; stroke-width: .4"  /><rect x="67.90123456790124" y="23.45679012345679" width="1.234567901234568" height="1.234567901234568" style="stroke: red; fill: none; stroke-width: .4"  /><rect x="67.90123456790124" y="27.1604938271605" width="1.234567901234568" height="1.234567901234568" style="stroke: red; fill: none; stroke-width: .4"  /><rect x="67.90123456790124" y="30.864197530864203" width="1.234567901234568" height="1.234567901234568" style="stroke: red; fill: none; stroke-width: .4"  /><rect x="71.60493827160495" y="23.45679012345679" width="1.234567901234568" height="1.234567901234568" style="stroke: red; fill: none; stroke-width: .4"  /><rect x="71.60493827160495" y="30.864197530864203" width="1.234567901234568" height="1.234567901234568" style="stroke: red; fill: none; stroke-width: .4"  /><rect x="75.30864197530865" y="23.45679012345679" width="1.234567901234568" height="1.234567901234568" style="stroke: red; fill: none; stroke-width: .4"  /><rect x="75.30864197530865" y="27.1604938271605" width="1.234567901234568" height="1.234567901234568" style="stroke: red; fill: none; stroke-width: .4"  /><rect x="75.30864197530865" y="30.864197530864203" width="1.234567901234568" height="1.234567901234568" style="stroke: red; fill: none; stroke-width: .4"  /><rect x="81.4814814814815" y="3.703703703703704" width="3.703703703703704" height="3.703703703703704" style="stroke: red; fill: none; stroke-width: .4"  /><rect x="79.01234567901236" y="1.234567901234568" width="1.234567901234568" height="1.234567901234568" style="stroke: red; fill: none; stroke-width: .4"  /><rect x="79.01234567901236" y="4.938271604938272" width="1.234567901234568" height="1.234567901234568" style="stroke: red; fill: none; stroke-width: .4"  /><rect x="79.01234567901236" y="8.641975308641976" width="1.234567901234568" height="1.234567901234568" style="stroke: red; fill: none; stroke-width: .4"  /><rect x="82.71604938271606" y="1.234567901234568" width="1.234567901234568" height="1.234567901234568" style="stroke: red; fill: none; stroke-width: .4"  /><rect x="82.71604938271606" y="8.641975308641976" width="1.234567901234568" height="1.234567901234568" style="stroke: red; fill: none; stroke-width: .4"  /><rect x="86.41975308641976" y="1.234567901234568" width="1.234567901234568" height="1.234567901234568" style="stroke: red; fill: none; stroke-width: .4"  /><rect x="86.41975308641976" y="4.938271604938272" width="1.234567901234568" height="1.234567901234568" style="stroke: red; fill: none; stroke-width: .4"  /><rect x="86.41975308641976" y="8.641975308641976" width="1.234567901234568" height="1.234567901234568" style="stroke: red; fill: none; stroke-width: .4"  /><rect x="81.4814814814815" y="25.92592592592593" width="3.703703703703704" height="3.703703703703704" style="stroke: red; fill: none; stroke-width: .4"  /><rect x="79.01234567901236" y="23.45679012345679" width="1.234567901234568" height="1.234567901234568" style="stroke: red; fill: none; stroke-width: .4"  /><rect x="79.01234567901236" y="27.1604938271605" width="1.234567901234568" height="1.234567901234568" style="stroke: red; fill: none; stroke-width: .4"  /><rect x="79.01234567901236" y="30.864197530864203" width="1.234567901234568" height="1.234567901234568" style="stroke: red; fill: none; stroke-width: .4"  /><rect x="82.71604938271606" y="23.45679012345679" width="1.234567901234568" height="1.234567901234568" style="stroke: red; fill: none; stroke-width: .4"  /><rect x="82.71604938271606" y="30.864197530864203" width="1.234567901234568" height="1.234567901234568" style="stroke: red; fill: none; stroke-width: .4"  /><rect x="86.41975308641976" y="23.45679012345679" width="1.234567901234568" height="1.234567901234568" style="stroke: red; fill: none; stroke-width: .4"  /><rect x="86.41975308641976" y="27.1604938271605" width="1.234567901234568" height="1.234567901234568" style="stroke: red; fill: none; stroke-width: .4"  /><rect x="86.41975308641976" y="30.864197530864203" width="1.234567901234568" height="1.234567901234568" style="stroke: red; fill: none; stroke-width: .4"  /><rect x="92.59259259259261" y="3.703703703703704" width="3.703703703703704" height="3.703703703703704" style="stroke: red; fill: none; stroke-width: .4"  /><rect x="90.12345679012347" y="1.234567901234568" width="1.234567901234568" height="1.234567901234568" style="stroke: red; fill: none; stroke-width: .4"  /><rect x="90.12345679012347" y="4.938271604938272" width="1.234567901234568" height="1.234567901234568" style="stroke: red; fill: none; stroke-width: .4"  /><rect x="90.12345679012347" y="8.641975308641976" width="1.234567901234568" height="1.234567901234568" style="stroke: red; fill: none; stroke-width: .4"  /><rect x="93.82716049382718" y="1.234567901234568" width="1.234567901234568" height="1.234567901234568" style="stroke: red; fill: none; stroke-width: .4"  /><rect x="93.82716049382718" y="8.641975308641976" width="1.234567901234568" height="1.234567901234568" style="stroke: red; fill: none; stroke-width: .4"  /><rect x="97.53086419753087" y="1.234567901234568" width="1.234567901234568" height="1.234567901234568" style="stroke: red; fill: none; stroke-width: .4"  /><rect x="97.53086419753087" y="4.938271604938272" width="1.234567901234568" height="1.234567901234568" style="stroke: red; fill: none; stroke-width: .4"  /><rect x="97.53086419753087" y="8.641975308641976" width="1.234567901234568" height="1.234567901234568" style="stroke: red; fill: none; stroke-width: .4"  /><rect x="92.59259259259261" y="14.814814814814817" width="3.703703703703704" height="3.703703703703704" style="stroke: red; fill: none; stroke-width: .4"  /><rect x="90.12345679012347" y="12.34567901234568" width="1.234567901234568" height="1.234567901234568" style="stroke: red; fill: none; stroke-width: .4"  /><rect x="90.12345679012347" y="16.049382716049386" width="1.234567901234568" height="1.234567901234568" style="stroke: red; fill: none; stroke-width: .4"  /><rect x="90.12345679012347" y="19.75308641975309" width="1.234567901234568" height="1.234567901234568" style="stroke: red; fill: none; stroke-width: .4"  /><rect x="93.82716049382718" y="12.34567901234568" width="1.234567901234568" height="1.234567901234568" style="stroke: red; fill: none; stroke-width: .4"  /><rect x="93.82716049382718" y="19.75308641975309" width="1.234567901234568" height="1.234567901234568" style="stroke: red; fill: none; stroke-width: .4"  /><rect x="97.53086419753087" y="12.34567901234568" width="1.234567901234568" height="1.234567901234568" style="stroke: red; fill: none; stroke-width: .4"  /><rect x="97.53086419753087" y="16.049382716049386" width="1.234567901234568" height="1.234567901234568" style="stroke: red; fill: none; stroke-width: .4"  /><rect x="97.53086419753087" y="19.75308641975309" width="1.234567901234568" height="1.234567901234568" style="stroke: red; fill: none; stroke-width: .4"  /><rect x="92.59259259259261" y="25.92592592592593" width="3.703703703703704" height="3.703703703703704" style="stroke: red; fill: none; stroke-width: .4"  /><rect x="90.12345679012347" y="23.45679012345679" width="1.234567901234568" height="1.234567901234568" style="stroke: red; fill: none; stroke-width: .4"  /><rect x="90.12345679012347" y="27.1604938271605" width="1.234567901234568" height="1.234567901234568" style="stroke: red; fill: none; stroke-width: .4"  /><rect x="90.12345679012347" y="30.864197530864203" width="1.234567901234568" height="1.234567901234568" style="stroke: red; fill: none; stroke-width: .4"  /><rect x="93.82716049382718" y="23.45679012345679" width="1.234567901234568" height="1.234567901234568" style="stroke: red; fill: none; stroke-width: .4"  /><rect x="93.82716049382718" y="30.864197530864203" width="1.234567901234568" height="1.234567901234568" style="stroke: red; fill: none; stroke-width: .4"  /><rect x="97.53086419753087" y="23.45679012345679" width="1.234567901234568" height="1.234567901234568" style="stroke: red; fill: none; stroke-width: .4"  /><rect x="97.53086419753087" y="27.1604938271605" width="1.234567901234568" height="1.234567901234568" style="stroke: red; fill: none; stroke-width: .4"  /><rect x="97.53086419753087" y="30.864197530864203" width="1.234567901234568" height="1.234567901234568" style="stroke: red; fill: none; stroke-width: .4"  /><rect x="77.77777777777779" y="44.44444444444445" width="11.111111111111112" height="11.111111111111112" style="stroke: red; fill: none; stroke-width: .4"  /><rect x="70.37037037037038" y="37.03703703703704" width="3.703703703703704" height="3.703703703703704" style="stroke: red; fill: none; stroke-width: .4"  /><rect x="67.90123456790124" y="34.567901234567906" width="1.234567901234568" height="1.234567901234568" style="stroke: red; fill: none; stroke-width: .4"  /><rect x="67.90123456790124" y="38.27160493827161" width="1.234567901234568" height="1.234567901234568" style="stroke: red; fill: none; stroke-width: .4"  /><rect x="67.90123456790124" y="41.97530864197532" width="1.234567901234568" height="1.234567901234568" style="stroke: red; fill: none; stroke-width: .4"  /><rect x="71.60493827160495" y="34.567901234567906" width="1.234567901234568" height="1.234567901234568" style="stroke: red; fill: none; stroke-width: .4"  /><rect x="71.60493827160495" y="41.97530864197532" width="1.234567901234568" height="1.234567901234568" style="stroke: red; fill: none; stroke-width: .4"  /><rect x="75.30864197530865" y="34.567901234567906" width="1.234567901234568" height="1.234567901234568" style="stroke: red; fill: none; stroke-width: .4"  /><rect x="75.30864197530865" y="38.27160493827161" width="1.234567901234568" height="1.234567901234568" style="stroke: red; fill: none; stroke-width: .4"  /><rect x="75.30864197530865" y="41.97530864197532" width="1.234567901234568" height="1.234567901234568" style="stroke: red; fill: none; stroke-width: .4"  /><rect x="70.37037037037038" y="48.14814814814815" width="3.703703703703704" height="3.703703703703704" style="stroke: red; fill: none; stroke-width: .4"  /><rect x="67.90123456790124" y="45.67901234567902" width="1.234567901234568" height="1.234567901234568" style="stroke: red; fill: none; stroke-width: .4"  /><rect x="67.90123456790124" y="49.38271604938272" width="1.234567901234568" height="1.234567901234568" style="stroke: red; fill: none; stroke-width: .4"  /><rect x="67.90123456790124" y="53.08641975308643" width="1.234567901234568" height="1.234567901234568" style="stroke: red; fill: none; stroke-width: .4"  /><rect x="71.60493827160495" y="45.67901234567902" width="1.234567901234568" height="1.234567901234568" style="stroke: red; fill: none; stroke-width: .4"  /><rect x="71.60493827160495" y="53.08641975308643" width="1.234567901234568" height="1.234567901234568" style="stroke: red; fill: none; stroke-width: .4"  /><rect x="75.30864197530865" y="45.67901234567902" width="1.234567901234568" height="1.234567901234568" style="stroke: red; fill: none; stroke-width: .4"  /><rect x="75.30864197530865" y="49.38271604938272" width="1.234567901234568" height="1.234567901234568" style="stroke: red; fill: none; stroke-width: .4"  /><rect x="75.30864197530865" y="53.08641975308643" width="1.234567901234568" height="1.234567901234568" style="stroke: red; fill: none; stroke-width: .4"  /><rect x="70.37037037037038" y="59.25925925925926" width="3.703703703703704" height="3.703703703703704" style="stroke: red; fill: none; stroke-width: .4"  /><rect x="67.90123456790124" y="56.79012345679013" width="1.234567901234568" height="1.234567901234568" style="stroke: red; fill: none; stroke-width: .4"  /><rect x="67.90123456790124" y="60.49382716049383" width="1.234567901234568" height="1.234567901234568" style="stroke: red; fill: none; stroke-width: .4"  /><rect x="67.90123456790124" y="64.19753086419753" width="1.234567901234568" height="1.234567901234568" style="stroke: red; fill: none; stroke-width: .4"  /><rect x="71.60493827160495" y="56.79012345679013" width="1.234567901234568" height="1.234567901234568" style="stroke: red; fill: none; stroke-width: .4"  /><rect x="71.60493827160495" y="64.19753086419753" width="1.234567901234568" height="1.234567901234568" style="stroke: red; fill: none; stroke-width: .4"  /><rect x="75.30864197530865" y="56.79012345679013" width="1.234567901234568" height="1.234567901234568" style="stroke: red; fill: none; stroke-width: .4"  /><rect x="75.30864197530865" y="60.49382716049383" width="1.234567901234568" height="1.234567901234568" style="stroke: red; fill: none; stroke-width: .4"  /><rect x="75.30864197530865" y="64.19753086419753" width="1.234567901234568" height="1.234567901234568" style="stroke: red; fill: none; stroke-width: .4"  /><rect x="81.4814814814815" y="37.03703703703704" width="3.703703703703704" height="3.703703703703704" style="stroke: red; fill: none; stroke-width: .4"  /><rect x="79.01234567901236" y="34.567901234567906" width="1.234567901234568" height="1.234567901234568" style="stroke: red; fill: none; stroke-width: .4"  /><rect x="79.01234567901236" y="38.27160493827161" width="1.234567901234568" height="1.234567901234568" style="stroke: red; fill: none; stroke-width: .4"  /><rect x="79.01234567901236" y="41.97530864197532" width="1.234567901234568" height="1.234567901234568" style="stroke: red; fill: none; stroke-width: .4"  /><rect x="82.71604938271606" y="34.567901234567906" width="1.234567901234568" height="1.234567901234568" style="stroke: red; fill: none; stroke-width: .4"  /><rect x="82.71604938271606" y="41.97530864197532" width="1.234567901234568" height="1.234567901234568" style="stroke: red; fill: none; stroke-width: .4"  /><rect x="86.41975308641976" y="34.567901234567906" width="1.234567901234568" height="1.234567901234568" style="stroke: red; fill: none; stroke-width: .4"  /><rect x="86.41975308641976" y="38.27160493827161" width="1.234567901234568" height="1.234567901234568" style="stroke: red; fill: none; stroke-width: .4"  /><rect x="86.41975308641976" y="41.97530864197532" width="1.234567901234568" height="1.234567901234568" style="stroke: red; fill: none; stroke-width: .4"  /><rect x="81.4814814814815" y="59.25925925925926" width="3.703703703703704" height="3.703703703703704" style="stroke: red; fill: none; stroke-width: .4"  /><rect x="79.01234567901236" y="56.79012345679013" width="1.234567901234568" height="1.234567901234568" style="stroke: red; fill: none; stroke-width: .4"  /><rect x="79.01234567901236" y="60.49382716049383" width="1.234567901234568" height="1.234567901234568" style="stroke: red; fill: none; stroke-width: .4"  /><rect x="79.01234567901236" y="64.19753086419753" width="1.234567901234568" height="1.234567901234568" style="stroke: red; fill: none; stroke-width: .4"  /><rect x="82.71604938271606" y="56.79012345679013" width="1.234567901234568" height="1.234567901234568" style="stroke: red; fill: none; stroke-width: .4"  /><rect x="82.71604938271606" y="64.19753086419753" width="1.234567901234568" height="1.234567901234568" style="stroke: red; fill: none; stroke-width: .4"  /><rect x="86.41975308641976" y="56.79012345679013" width="1.234567901234568" height="1.234567901234568" style="stroke: red; fill: none; stroke-width: .4"  /><rect x="86.41975308641976" y="60.49382716049383" width="1.234567901234568" height="1.234567901234568" style="stroke: red; fill: none; stroke-width: .4"  /><rect x="86.41975308641976" y="64.19753086419753" width="1.234567901234568" height="1.234567901234568" style="stroke: red; fill: none; stroke-width: .4"  /><rect x="92.59259259259261" y="37.03703703703704" width="3.703703703703704" height="3.703703703703704" style="stroke: red; fill: none; stroke-width: .4"  /><rect x="90.12345679012347" y="34.567901234567906" width="1.234567901234568" height="1.234567901234568" style="stroke: red; fill: none; stroke-width: .4"  /><rect x="90.12345679012347" y="38.27160493827161" width="1.234567901234568" height="1.234567901234568" style="stroke: red; fill: none; stroke-width: .4"  /><rect x="90.12345679012347" y="41.97530864197532" width="1.234567901234568" height="1.234567901234568" style="stroke: red; fill: none; stroke-width: .4"  /><rect x="93.82716049382718" y="34.567901234567906" width="1.234567901234568" height="1.234567901234568" style="stroke: red; fill: none; stroke-width: .4"  /><rect x="93.82716049382718" y="41.97530864197532" width="1.234567901234568" height="1.234567901234568" style="stroke: red; fill: none; stroke-width: .4"  /><rect x="97.53086419753087" y="34.567901234567906" width="1.234567901234568" height="1.234567901234568" style="stroke: red; fill: none; stroke-width: .4"  /><rect x="97.53086419753087" y="38.27160493827161" width="1.234567901234568" height="1.234567901234568" style="stroke: red; fill: none; stroke-width: .4"  /><rect x="97.53086419753087" y="41.97530864197532" width="1.234567901234568" height="1.234567901234568" style="stroke: red; fill: none; stroke-width: .4"  /><rect x="92.59259259259261" y="48.14814814814815" width="3.703703703703704" height="3.703703703703704" style="stroke: red; fill: none; stroke-width: .4"  /><rect x="90.12345679012347" y="45.67901234567902" width="1.234567901234568" height="1.234567901234568" style="stroke: red; fill: none; stroke-width: .4"  /><rect x="90.12345679012347" y="49.38271604938272" width="1.234567901234568" height="1.234567901234568" style="stroke: red; fill: none; stroke-width: .4"  /><rect x="90.12345679012347" y="53.08641975308643" width="1.234567901234568" height="1.234567901234568" style="stroke: red; fill: none; stroke-width: .4"  /><rect x="93.82716049382718" y="45.67901234567902" width="1.234567901234568" height="1.234567901234568" style="stroke: red; fill: none; stroke-width: .4"  /><rect x="93.82716049382718" y="53.08641975308643" width="1.234567901234568" height="1.234567901234568" style="stroke: red; fill: none; stroke-width: .4"  /><rect x="97.53086419753087" y="45.67901234567902" width="1.234567901234568" height="1.234567901234568" style="stroke: red; fill: none; stroke-width: .4"  /><rect x="97.53086419753087" y="49.38271604938272" width="1.234567901234568" height="1.234567901234568" style="stroke: red; fill: none; stroke-width: .4"  /><rect x="97.53086419753087" y="53.08641975308643" width="1.234567901234568" height="1.234567901234568" style="stroke: red; fill: none; stroke-width: .4"  /><rect x="92.59259259259261" y="59.25925925925926" width="3.703703703703704" height="3.703703703703704" style="stroke: red; fill: none; stroke-width: .4"  /><rect x="90.12345679012347" y="56.79012345679013" width="1.234567901234568" height="1.234567901234568" style="stroke: red; fill: none; stroke-width: .4"  /><rect x="90.12345679012347" y="60.49382716049383" width="1.234567901234568" height="1.234567901234568" style="stroke: red; fill: none; stroke-width: .4"  /><rect x="90.12345679012347" y="64.19753086419753" width="1.234567901234568" height="1.234567901234568" style="stroke: red; fill: none; stroke-width: .4"  /><rect x="93.82716049382718" y="56.79012345679013" width="1.234567901234568" height="1.234567901234568" style="stroke: red; fill: none; stroke-width: .4"  /><rect x="93.82716049382718" y="64.19753086419753" width="1.234567901234568" height="1.234567901234568" style="stroke: red; fill: none; stroke-width: .4"  /><rect x="97.53086419753087" y="56.79012345679013" width="1.234567901234568" height="1.234567901234568" style="stroke: red; fill: none; stroke-width: .4"  /><rect x="97.53086419753087" y="60.49382716049383" width="1.234567901234568" height="1.234567901234568" style="stroke: red; fill: none; stroke-width: .4"  /><rect x="97.53086419753087" y="64.19753086419753" width="1.234567901234568" height="1.234567901234568" style="stroke: red; fill: none; stroke-width: .4"  /><rect x="77.77777777777779" y="77.77777777777779" width="11.111111111111112" height="11.111111111111112" style="stroke: red; fill: none; stroke-width: .4"  /><rect x="70.37037037037038" y="70.37037037037038" width="3.703703703703704" height="3.703703703703704" style="stroke: red; fill: none; stroke-width: .4"  /><rect x="67.90123456790124" y="67.90123456790124" width="1.234567901234568" height="1.234567901234568" style="stroke: red; fill: none; stroke-width: .4"  /><rect x="67.90123456790124" y="71.60493827160495" width="1.234567901234568" height="1.234567901234568" style="stroke: red; fill: none; stroke-width: .4"  /><rect x="67.90123456790124" y="75.30864197530865" width="1.234567901234568" height="1.234567901234568" style="stroke: red; fill: none; stroke-width: .4"  /><rect x="71.60493827160495" y="67.90123456790124" width="1.234567901234568" height="1.234567901234568" style="stroke: red; fill: none; stroke-width: .4"  /><rect x="71.60493827160495" y="75.30864197530865" width="1.234567901234568" height="1.234567901234568" style="stroke: red; fill: none; stroke-width: .4"  /><rect x="75.30864197530865" y="67.90123456790124" width="1.234567901234568" height="1.234567901234568" style="stroke: red; fill: none; stroke-width: .4"  /><rect x="75.30864197530865" y="71.60493827160495" width="1.234567901234568" height="1.234567901234568" style="stroke: red; fill: none; stroke-width: .4"  /><rect x="75.30864197530865" y="75.30864197530865" width="1.234567901234568" height="1.234567901234568" style="stroke: red; fill: none; stroke-width: .4"  /><rect x="70.37037037037038" y="81.4814814814815" width="3.703703703703704" height="3.703703703703704" style="stroke: red; fill: none; stroke-width: .4"  /><rect x="67.90123456790124" y="79.01234567901236" width="1.234567901234568" height="1.234567901234568" style="stroke: red; fill: none; stroke-width: .4"  /><rect x="67.90123456790124" y="82.71604938271606" width="1.234567901234568" height="1.234567901234568" style="stroke: red; fill: none; stroke-width: .4"  /><rect x="67.90123456790124" y="86.41975308641976" width="1.234567901234568" height="1.234567901234568" style="stroke: red; fill: none; stroke-width: .4"  /><rect x="71.60493827160495" y="79.01234567901236" width="1.234567901234568" height="1.234567901234568" style="stroke: red; fill: none; stroke-width: .4"  /><rect x="71.60493827160495" y="86.41975308641976" width="1.234567901234568" height="1.234567901234568" style="stroke: red; fill: none; stroke-width: .4"  /><rect x="75.30864197530865" y="79.01234567901236" width="1.234567901234568" height="1.234567901234568" style="stroke: red; fill: none; stroke-width: .4"  /><rect x="75.30864197530865" y="82.71604938271606" width="1.234567901234568" height="1.234567901234568" style="stroke: red; fill: none; stroke-width: .4"  /><rect x="75.30864197530865" y="86.41975308641976" width="1.234567901234568" height="1.234567901234568" style="stroke: red; fill: none; stroke-width: .4"  /><rect x="70.37037037037038" y="92.59259259259261" width="3.703703703703704" height="3.703703703703704" style="stroke: red; fill: none; stroke-width: .4"  /><rect x="67.90123456790124" y="90.12345679012347" width="1.234567901234568" height="1.234567901234568" style="stroke: red; fill: none; stroke-width: .4"  /><rect x="67.90123456790124" y="93.82716049382718" width="1.234567901234568" height="1.234567901234568" style="stroke: red; fill: none; stroke-width: .4"  /><rect x="67.90123456790124" y="97.53086419753087" width="1.234567901234568" height="1.234567901234568" style="stroke: red; fill: none; stroke-width: .4"  /><rect x="71.60493827160495" y="90.12345679012347" width="1.234567901234568" height="1.234567901234568" style="stroke: red; fill: none; stroke-width: .4"  /><rect x="71.60493827160495" y="97.53086419753087" width="1.234567901234568" height="1.234567901234568" style="stroke: red; fill: none; stroke-width: .4"  /><rect x="75.30864197530865" y="90.12345679012347" width="1.234567901234568" height="1.234567901234568" style="stroke: red; fill: none; stroke-width: .4"  /><rect x="75.30864197530865" y="93.82716049382718" width="1.234567901234568" height="1.234567901234568" style="stroke: red; fill: none; stroke-width: .4"  /><rect x="75.30864197530865" y="97.53086419753087" width="1.234567901234568" height="1.234567901234568" style="stroke: red; fill: none; stroke-width: .4"  /><rect x="81.4814814814815" y="70.37037037037038" width="3.703703703703704" height="3.703703703703704" style="stroke: red; fill: none; stroke-width: .4"  /><rect x="79.01234567901236" y="67.90123456790124" width="1.234567901234568" height="1.234567901234568" style="stroke: red; fill: none; stroke-width: .4"  /><rect x="79.01234567901236" y="71.60493827160495" width="1.234567901234568" height="1.234567901234568" style="stroke: red; fill: none; stroke-width: .4"  /><rect x="79.01234567901236" y="75.30864197530865" width="1.234567901234568" height="1.234567901234568" style="stroke: red; fill: none; stroke-width: .4"  /><rect x="82.71604938271606" y="67.90123456790124" width="1.234567901234568" height="1.234567901234568" style="stroke: red; fill: none; stroke-width: .4"  /><rect x="82.71604938271606" y="75.30864197530865" width="1.234567901234568" height="1.234567901234568" style="stroke: red; fill: none; stroke-width: .4"  /><rect x="86.41975308641976" y="67.90123456790124" width="1.234567901234568" height="1.234567901234568" style="stroke: red; fill: none; stroke-width: .4"  /><rect x="86.41975308641976" y="71.60493827160495" width="1.234567901234568" height="1.234567901234568" style="stroke: red; fill: none; stroke-width: .4"  /><rect x="86.41975308641976" y="75.30864197530865" width="1.234567901234568" height="1.234567901234568" style="stroke: red; fill: none; stroke-width: .4"  /><rect x="81.4814814814815" y="92.59259259259261" width="3.703703703703704" height="3.703703703703704" style="stroke: red; fill: none; stroke-width: .4"  /><rect x="79.01234567901236" y="90.12345679012347" width="1.234567901234568" height="1.234567901234568" style="stroke: red; fill: none; stroke-width: .4"  /><rect x="79.01234567901236" y="93.82716049382718" width="1.234567901234568" height="1.234567901234568" style="stroke: red; fill: none; stroke-width: .4"  /><rect x="79.01234567901236" y="97.53086419753087" width="1.234567901234568" height="1.234567901234568" style="stroke: red; fill: none; stroke-width: .4"  /><rect x="82.71604938271606" y="90.12345679012347" width="1.234567901234568" height="1.234567901234568" style="stroke: red; fill: none; stroke-width: .4"  /><rect x="82.71604938271606" y="97.53086419753087" width="1.234567901234568" height="1.234567901234568" style="stroke: red; fill: none; stroke-width: .4"  /><rect x="86.41975308641976" y="90.12345679012347" width="1.234567901234568" height="1.234567901234568" style="stroke: red; fill: none; stroke-width: .4"  /><rect x="86.41975308641976" y="93.82716049382718" width="1.234567901234568" height="1.234567901234568" style="stroke: red; fill: none; stroke-width: .4"  /><rect x="86.41975308641976" y="97.53086419753087" width="1.234567901234568" height="1.234567901234568" style="stroke: red; fill: none; stroke-width: .4"  /><rect x="92.59259259259261" y="70.37037037037038" width="3.703703703703704" height="3.703703703703704" style="stroke: red; fill: none; stroke-width: .4"  /><rect x="90.12345679012347" y="67.90123456790124" width="1.234567901234568" height="1.234567901234568" style="stroke: red; fill: none; stroke-width: .4"  /><rect x="90.12345679012347" y="71.60493827160495" width="1.234567901234568" height="1.234567901234568" style="stroke: red; fill: none; stroke-width: .4"  /><rect x="90.12345679012347" y="75.30864197530865" width="1.234567901234568" height="1.234567901234568" style="stroke: red; fill: none; stroke-width: .4"  /><rect x="93.82716049382718" y="67.90123456790124" width="1.234567901234568" height="1.234567901234568" style="stroke: red; fill: none; stroke-width: .4"  /><rect x="93.82716049382718" y="75.30864197530865" width="1.234567901234568" height="1.234567901234568" style="stroke: red; fill: none; stroke-width: .4"  /><rect x="97.53086419753087" y="67.90123456790124" width="1.234567901234568" height="1.234567901234568" style="stroke: red; fill: none; stroke-width: .4"  /><rect x="97.53086419753087" y="71.60493827160495" width="1.234567901234568" height="1.234567901234568" style="stroke: red; fill: none; stroke-width: .4"  /><rect x="97.53086419753087" y="75.30864197530865" width="1.234567901234568" height="1.234567901234568" style="stroke: red; fill: none; stroke-width: .4"  /><rect x="92.59259259259261" y="81.4814814814815" width="3.703703703703704" height="3.703703703703704" style="stroke: red; fill: none; stroke-width: .4"  /><rect x="90.12345679012347" y="79.01234567901236" width="1.234567901234568" height="1.234567901234568" style="stroke: red; fill: none; stroke-width: .4"  /><rect x="90.12345679012347" y="82.71604938271606" width="1.234567901234568" height="1.234567901234568" style="stroke: red; fill: none; stroke-width: .4"  /><rect x="90.12345679012347" y="86.41975308641976" width="1.234567901234568" height="1.234567901234568" style="stroke: red; fill: none; stroke-width: .4"  /><rect x="93.82716049382718" y="79.01234567901236" width="1.234567901234568" height="1.234567901234568" style="stroke: red; fill: none; stroke-width: .4"  /><rect x="93.82716049382718" y="86.41975308641976" width="1.234567901234568" height="1.234567901234568" style="stroke: red; fill: none; stroke-width: .4"  /><rect x="97.53086419753087" y="79.01234567901236" width="1.234567901234568" height="1.234567901234568" style="stroke: red; fill: none; stroke-width: .4"  /><rect x="97.53086419753087" y="82.71604938271606" width="1.234567901234568" height="1.234567901234568" style="stroke: red; fill: none; stroke-width: .4"  /><rect x="97.53086419753087" y="86.41975308641976" width="1.234567901234568" height="1.234567901234568" style="stroke: red; fill: none; stroke-width: .4"  /><rect x="92.59259259259261" y="92.59259259259261" width="3.703703703703704" height="3.703703703703704" style="stroke: red; fill: none; stroke-width: .4"  /><rect x="90.12345679012347" y="90.12345679012347" width="1.234567901234568" height="1.234567901234568" style="stroke: red; fill: none; stroke-width: .4"  /><rect x="90.12345679012347" y="93.82716049382718" width="1.234567901234568" height="1.234567901234568" style="stroke: red; fill: none; stroke-width: .4"  /><rect x="90.12345679012347" y="97.53086419753087" width="1.234567901234568" height="1.234567901234568" style="stroke: red; fill: none; stroke-width: .4"  /><rect x="93.82716049382718" y="90.12345679012347" width="1.234567901234568" height="1.234567901234568" style="stroke: red; fill: none; stroke-width: .4"  /><rect x="93.82716049382718" y="97.53086419753087" width="1.234567901234568" height="1.234567901234568" style="stroke: red; fill: none; stroke-width: .4"  /><rect x="97.53086419753087" y="90.12345679012347" width="1.234567901234568" height="1.234567901234568" style="stroke: red; fill: none; stroke-width: .4"  /><rect x="97.53086419753087" y="93.82716049382718" width="1.234567901234568" height="1.234567901234568" style="stroke: red; fill: none; stroke-width: .4"  /><rect x="97.53086419753087" y="97.53086419753087" width="1.234567901234568" height="1.234567901234568" style="stroke: red; fill: none; stroke-width: .4"  /><rect x="0" y="0" width="100" height="100" style="stroke: red; fill: none; stroke-width: .4"  /></svg>