<svg width="200mm" height="200mm" xmlns="http://www.w3.org/2000/svg"><line x1="8.0mm" y1="40.0mm" x2="72.0mm" y2="40.0mm" style="stroke: black; fill: none; stroke-width: 0.4"  /><line x1="32.3940301664565mm" y1="8.917058972947455mm" x2="32.3940301664565mm" y2="71.08294102705254mm" style="stroke: black; fill: none; stroke-width: 0.4"  /><polyline points=" 16.263739281643183,40.0 16.310101135039336,40.96369795696721 16.448032488450142,41.915711938657566 16.674139745245768,42.84482827032535 16.982989445784824,43.7407337611045 17.367416978778998,44.594371387640805 17.8189129958088,45.39819735068495 18.328050913319675,46.146328079007624 18.884919055443678,46.83457854224175 19.479525678528958,47.460404045981484 20.10215283058233,48.022765173693124 20.743643998306872,48.52193923419053 21.395619218866827,48.95930176558842 22.050618665377563,49.33709914767178 22.70218107172637,49.65822921070405 23.3448666405865,49.92604188660427 23.974235516905825,50.14416721358085 24.58679292972354,50.31637389692235 25.179911178085213,50.446458409769896 25.7517371882479,50.5381623482065 26.301092733654176,50.595114359012484 26.827372816005642,50.62079228696067 27.330446289809974,50.61850106766414 27.810561634012394,50.591362154355664 28.26825984093565,50.54231076886362 28.70429568170185,50.474097894633275 29.11956808031323,50.389294598725186 29.515059943277826,50.29029692181716 29.891787508590212,50.17933017245522 30.250759064013042,50.05845198174002 30.592942714850256,49.929553906050316 30.919242738414685,49.79436170474471 31.23048393574743,49.65443466873806 31.527403275990366,49.511164539566124 31.810648024509,49.365774644523604 32.080779454599245,49.219319890716505 32.33828116823266,49.07268821954665 32.583570998272194,48.92660403399505 32.81701543717041,48.78163398536141 33.038945538808164,48.63819535511532 33.24967327297165,48.49656710245929 33.44950737663643,48.35690347976889 33.638767841627185,48.21924995630752 33.817798301614296,48.08356104443359 33.98697572848393,47.9497194995976 34.14671701323678,47.81755627187229 34.297482183060154,47.686870526964825 34.43977418671316,47.55744903115578 34.57413535719812,47.42908420804233 34.701140826290626,47.30159022411823 34.821389312769874,47.174816542107465 34.93549182888195,47.04865849105788 35.04405894256837,46.92306453459045 35.14768729261543,46.79804006654718 35.24694607799877,46.673647719022675 35.34236423088484,46.550004323586116 35.434418936258375,46.42727481468714 35.52352608286406,46.30566349755031 35.61003312442926,46.185403214881056 35.69421470258519,46.066743032141886 35.77627124010742,45.94993511610828 35.85633056226719,45.835221503496044 35.934452452737276,45.72282144494464 36.01063590605806,45.61291996549622 36.08482870812496,45.50565820842257 36.15693886573086,45.401126028837204 36.226847321021225,45.2993571821869 36.294421330645044,45.20032731662896 36.35952786476233,45.103954834328015 36.42204638868086,45.01010454196359 36.481880428931994,44.918593872364866 36.53896739368472,44.82920133384737 36.593286210806525,44.74167673752334 36.644862460615656,44.655752670554776 36.69377080855392,44.5711566287287 36.740134679077876,44.48762319719591 36.78412324916781,44.40490567448643 36.825945971174626,44.32278657130118 36.86584495379254,44.24108647981895 36.90408563102178,44.15967089781292 36.94094622724709,44.07845469997213 36.97670657841594,43.99740407084277 37.011636892495304,43.916535843453666 37.04598702613645,43.83591431839589 37.079976819461706,43.755645763336204 37.113787969221555,43.67587090645903 37.14755783568754,43.596755833612825 37.181375475067725,43.51848177337086 37.21528007240881,43.44123430333943 37.2492618258839,43.365192532707155 37.28326520839717,43.29051880946558 37.317194412847535,43.21734946662971 37.350920679135776,43.14578706217562 37.384291109394965,43.075894485625646 37.41713850737793,43.00769120460329 37.44929173176802,42.94115181251143 37.480586033424196,42.87620691955111 37.5108728539277,42.81274630968966 37.54002859656861,42.750624171950456 37.567961939097685,42.68966611126228 37.594619336940106,42.62967755716004 37.61998846186596,42.570453122100076 37.64409942926839,42.51178641818293 37.667023781593734,42.453479823590776 37.688871310223476,42.39535369865768 37.70978490739126,42.33725458546671 37.729933738031406,42.279061982234374 37.74950510391507,42.22069336131145 37.76869543499749,42.16210719325753 37.787700882604256,42.10330384419772 37.80670800412422,42.044324324087924 37.825885018739385,41.98524697391651 37.845374079173595,41.926182284629334 37.865284947487204,41.867266134379555 37.88569038670773,41.80865180889789 37.906623488645465,41.750501228505776 37.92807705642618,41.69297584173687 37.950005053370724,41.63622765803458 37.972326023391304,41.58039088014191 37.99492828749925,41.5255745614217 38.01767663142204,41.471856656464716 38.04042012520795,41.41927975807196 38.0630006607121,41.36784872404869 38.0852617596641,41.3175302979551 38.10705719512744,41.26825472418566 38.12825898288541,41.21991925487807 38.14876433572745,41.172393349439744 38.1685012306962,41.125525281861066 38.18743231399434,41.079149800748766 38.20555695646005,41.03309643567407 38.22291136965323,40.987198013450936 38.23956679358925,40.9412989407348 38.25562586677767,40.89526282505371 38.271217382360334,40.84897904406405 38.28648971603583,40.8023679303574 38.30160327797943,40.75538431343235 38.316722388793686,40.708019247517676 38.33200700632927,40.660299849225716 38.34760473475338,40.61228726754754 38.36364352945044,40.564072905363325 38.38022547226673,40.51577310147066 38.39742193343565,40.467522560516464 38.415270362360346,40.41946688120728 38.43377286322962,40.371754577593435 38.45289661772148,40.324529011903905 38.47257612071411,40.277920659266506 38.492717100953776,40.23204010470107 38.51320191188478,40.1869721322035 38.5338961027669,40.14277120675629 38.55465582060363,40.099458575866265 38.57533565228473,40.05702113167955 38.595796495730305,40.01541208234157 38.61591304965922,39.974553386878696 38.635580533751906,39.93433981639007 38.65472029315269,39.89464442045602 38.67328400118532,39.85532510572204 38.691256248645324,39.81623197726322 38.70865539312874,39.77721505541666 38.725532633120096,39.738131963170545 38.74196936421209,39.69885518273301 38.75807296405806,39.65927850428762 38.77397123385128,39.61932233381697 38.78980579311276,39.578937587884525 38.80572477779366,39.53810797815127 38.82187522650921,39.4968505732377 38.83839555434116,39.45521461586883 38.85540850742214,39.4132786643412 38.87301496484541,39.37114621450606 38.891288908795914,39.32894003714159 38.91027382159957,39.28679553174241 38.92998069295512,39.24485344798915 38.95038773588533,39.203252357920604 38.97144182038674,39.162121273521514 38.9930615440195,39.12157279552856 39.015141773439176,39.08169715025894 39.03755941455736,39.04255742377136 39.06018010555256,39.0041862391757 39.08286547962625,38.966584046797365 39.10548061560856,38.92971911214066 39.12790128572449,38.89352919763664 39.15002062144464,38.85792484563976 39.171754849696455,38.82279408666012 39.19304780113695,38.788008322720266 39.213873957065395,38.753429074847205 39.23423987847712,38.71891523919037 39.25418394568618,38.684330470380054 39.27377442545391,38.64955030482762 39.2931059700099,38.61446865097557 39.312294734217055,38.57900330726972 39.33147236912359,38.543100220042454 39.350779208556965,38.50673625986375 39.37035700719636,38.469920372758686 39.39034161157605,38.43269304792757 39.41085594852759,38.395124131788954 39.43200369854417,38.35730910469893 39.45386398533736,38.31936401706371 39.476487359373664,38.2814193515823 39.499893285217894,38.243613134381775 39.52406926363878,38.20608365693182 39.548971633754114,38.16896219081377 39.57452801249474,38.13236607763358 39.60064124293074,38.0963925566013 39.627194644003055,38.061113653589395 39.65405828605934,38.026572399853976 39.68109596286145,37.99278057895655 39.708172494205506,37.9597181203968 39.73516097590111,37.927334172229706 39.761949596482594,37.89554979699513 39.78844766255866,37.86426215021685 39.814590515975276,37.83334992298109 39.84034308381993,37.802679763730346 39.86570187373072,37.77211334288826 39.89069530827691,37.74151468995839 39.9153823791025,37.71075741810305 39.93984968954573,37.679731456689325 39.96420703897959,37.64834893762473 39.98858177873094,37.616548925188205 40.013112234131874,37.58430073923695 40.03794053664112,37.5516056950028 40.06320524144382,37.5184971653894 40.089034117828554,37.48503895942764 40.115537491294674,37.45132209878383 40.14280248816384,37.41746015832566 40.17088848689316,37.38358341234635 40.199824017699775,37.34983209116343 40.229605276759045,37.31634910012186 40.26019633700942,37.28327258204479 40.291531048899046,37.25072871332626 40.323516535815266,37.21882511263343 40.356038105121904,37.187645210105636 40.3889653210309,37.157243875587895 40.42215892391174,37.1276445393316 40.455478235325934,37.098837961098305 40.488788661483404,37.07078271771729 40.521968901399006,37.04340738933043 40.554917480165855,37.016614335485926 40.58755826180653,36.99028486856276 40.61984464837425,36.96428555810438 40.65176223972306,36.93847533940368 40.68332980814069,36.912713056299204 40.7145985297443,36.886865043940226 40.74564950561757,36.86081235358922 40.77658969538705,36.83445723862584 40.807546469610955,36.80772855798362 40.83866106059821,36.78058580844031 40.87008125021653,36.75302156769258 40.901953674775505,36.725062212357 40.93441614890654,36.696766864729256 40.967590411328324,36.66822461464549 41.00157567528214,36.63955015332786 41.03644332625218,36.610878039919804 41.07223305130082,36.582355894138075 41.10895061093275,36.55413686622936 41.146567379582606,36.52637177514985 41.18502168896507,36.49920132541405 41.22422191438942,36.47274881126605 41.26405115260425,36.44711369369285 41.304373255584224,36.42236639241236 41.3450399123326,36.398544573476954 41.38589841406796,36.37565113663395 41.42679970014571,36.35365401897853 41.46760626481761,36.33248783720788 41.50819950948041,36.312057294809705 41.5484861512938,36.29224218777771 41.58840334574607,36.27290375777431 41.62792224559666,36.25389206952739 41.667049798379004,36.23505403347489 41.70582867525628,36.21624165826736 41.7443353208466,36.19732010272724 41.78267621168102,36.17817510416954 41.82098250514503,36.15871938937921 41.859403346155005,36.138897724655855 41.89809817094567,36.11869032970343 41.93722840234141,36.098114463359046 41.976948965784175,36.077224082992934 42.0174000682186,36.05610757909691 42.05869967187708,36.034883686960804 42.10093706238676,36.0136957732344 42.14416785698051,35.99270478155758 42.18841072652206,35.97208119377714 42.23364601817363,35.95199641767256 42.279816368182914,35.9326140456409 42.3268292914554,35.91408143951644 42.37456163153309,35.8965220838899 42.42286565670402,35.88002911439457 42.47157650029377,35.86466037013112 42.520520570393096,35.85043524344391 42.56952450023356,35.83733350945718 42.61842417810777,35.825296216647644 42.66707338701086,35.81422861343117 42.715351599711866,35.80400497972219 42.76317051418134,35.79447513214903 42.81047897539399,35.78547228232408 42.857266009551665,35.776821853985574 42.90356179178052,35.768350810887796 42.94943647358979,35.759897016010235 42.994996906526154,35.75131813578779 43.04038140786482,35.74249962128221 43.08575281722989,35.73336134077396 43.13129018433217,35.7238625032622 43.177179502760445,35.71400459667115 43.22360395892067,35.703832164044954 43.270734195789906,35.693431350729654 43.3187190963365,35.682926269927556 43.367677570672825,35.67247334727448 43.41769178508507,35.66225391138573 43.46880220206782,35.652465391098545 43.52100471168687,35.64331155650756 43.57425003031984,35.63499229565791 43.62844542825915,35.62769344896233 43.6834587285391,35.6215772271376 43.739124401736554,35.61677371528307 43.79525147139206,35.61337391646907 43.85163284785613,35.61142471510999 43.90805562986539,35.61092604690255 43.96431185722905,35.61183045274461 44.020209167782056,35.61404507420351 44.07558080909151,35.61743602375156 44.130294480772434,35.62183494042604 44.18425953569664,35.627047427029396 44.237432145598525,35.632862964435816 44.289818134905346,35.639065817250895 44.34147330138547,35.64544638739224 44.392501167762305,35.65181244133393 44.44304823857077,35.65799963468822 44.493296964700065,35.66388078498027 44.543456737757474,35.669373398886904 44.59375334144703,35.674445041451406 44.64441737205801,35.67911623806128 44.695672200383406,35.68346072038369 44.74772207952805,35.687602959143234 44.80074100517862,35.69171306310482 44.85486290641448,35.695999258097196 44.910173687122125,35.70069828558616 44.96670555301045,35.70606417073859 45.02443395102474,35.71235589937032 45.08327732172239,35.719824606865096 45.14309972699044,35.72870091654031 45.20371627209168,35.73918306789602 45.26490109951845,35.75142644614517 45.32639759959592,35.76553506435735 45.387930365962205,35.781555461068294 45.44921832896844,35.79947336327358 45.50998843173713,35.81921333265206 45.569989175864606,35.84064146791846 45.62900335883208,35.86357108541707 45.686859353833626,35.887771150819574 45.74344034393913,35.91297709449185 45.79869101378381,35.93890351879567 45.85262131916073,35.96525820367245 45.905307092610386,35.99175674262728 45.956887394852636,36.018137098745235 46.007558680416295,36.044173362155846 46.05756600339331,36.069688017281166 46.107191638184986,36.094562089434405 46.15674162293469,36.11874263333494 46.20653084342772,36.14224714677741 46.256867356812315,36.16516463549473 46.30803670329912,36.18765321354409 46.3602869671173,36.20993428982729 46.4138153244142,36.23228355761957 46.46875675610134,36.2550191622123 46.52517551030775,36.27848756415042 46.583059776214824,36.30304773500145 46.64231988409473,36.32905441307437 46.70279018229674,36.35684120324697 46.764234568196244,36.386704324960924 46.82635547523463,36.41888779405435 46.88880595026202,36.45357076787944 46.95120430282089,36.490857691306694 47.013150678053485,36.53077175778962 47.074244804215965,36.573252050130066 47.13410409937265,36.6181545568468 47.192381293303946,36.665257079909104 47.248780731756625,36.714267866522455 47.30307258076743,36.76483762031847 47.35510423693294,36.816574384175304 47.40480837132541,36.86906064585428 47.45220718489002,36.921871905591985 47.49741262468745,36.97459586729053 47.54062249547785,37.02685137594493 47.582112591112335,37.07830622571284 47.62222515626758,37.128693005690586 47.661354162299155,37.17782223246791 47.69992803324571,37.22559213625498 47.738390581951016,37.27199461560857 47.777181005859354,37.31711704776254 47.816713842860324,37.36113982941978 47.85735979698871,37.40432971788995 47.89942831108395,37.44702923561227 47.94315269000394,37.48964258331319 47.98867846684924,37.53261866982842 48.03605556087618,37.57643200222723 48.08523460591216,37.62156228191081 48.13606763994729,37.668473615943796 48.18831314882094,37.71759427487595 48.24164525874803,37.76929790758549 48.295666683072724,37.823887061038604 48.34992485685338,37.8815797510493 48.40393054679887,37.942499693801935 48.457178110348835,38.00667064324235 48.509166501816,38.07401509404045 48.55942008880497,38.14435741224403 48.60750835035175,38.217431255132645 48.65306357896146,38.2928909474012 48.69579579952972,38.3703263018116 48.7355042449353,38.44928021699185 48.772084884900714,38.5292682604846 48.805533684337284,38.6097993570846 48.835945461465734,38.69039665499972 48.86350841558972,38.77061763752744 48.88849459016774,38.85007258583567 48.91124671984743,38.92844057718272 48.932162071810836,39.005482318723196 48.95167402484262,39.0810492644192 48.970232227799215,39.1550886345111 48.988282238270926,39.22764414554905 49.00624555964462,39.29885245515684 49.02450096982142,39.3689355205363 49.04336796899037,39.4381892540895 49.06309307036724,39.506969024959254 49.083839521704924,39.57567269426772 49.10568088326997,39.64472197795649 49.12859870749022,39.71454299984564 49.152484375275726,39.78554692575257 49.17714495288421,39.85811155633756 49.20231275021788,39.93256470268665 49.22765809495027,40.00917007728829 49.25280469460331,40.08811630867975 49.277346847047546,40.16950953666109 49.300867683793655,40.253369873972765 49.322957593190736,40.33963183789724 49.34323197352455,40.42814867001768 49.36134750858399,40.51870028311048 49.37701623800797,40.611004409179415 49.3900168076802,40.70473037965093 49.40020242568284,40.79951485412031 49.40750521020034,40.894978733018604 49.41193678925814,40.99074444547619 49.413585190029465,41.08645279824749 49.41260822918067,41.1817786046053 49.409223777103136,41.27644438159027 49.40369741047556,41.37023150622291 49.396328082823615,41.46298835092691 49.38743252650973,41.55463506904222 49.37732914826356,41.64516486544018 49.36632219205792,41.73464175689362 49.35468691778421,41.8231949938484 49.342656483460665,41.91101047161015 49.33041112595464,41.99831959735453 49.31807011535513,42.08538619339409 49.3056868172349,42.1724921016153 49.293247042172965,42.25992220527754 49.280670700757256,42.347949600409486 49.26781662263439,42.43682162953931 49.25449024779088,42.52674743688775 49.24045376421484,42.61788761947967 49.22543815472221,42.71034643742323 49.20915653211144,42.8041669146137 49.191318089595754,42.89932901504473 49.17164197479397,42.995750927043694 49.14987041087236,43.09329333562497 49.12578043649434,43.19176641919202 49.09919371429194,43.29093917792005 49.06998396133303,43.390550593413465 49.03808167917235,43.490322037650316 49.00347599908962,43.58997029739952 48.96621360313873,43.689220560420765 48.92639482642409,43.78781872230404 48.884167183421425,43.88554241675269 48.839716684575215,43.98221024487423 48.79325741289717,44.077688776592026 48.74501990900396,44.17189701453042 48.69523896348939,44.264808141555875 48.64414143551913,44.356448510945306 48.59193470555577,44.44689397595896 48.538796329095334,44.53626378662243 48.484865389667085,44.62471239931827 48.43023595689242,44.712419643697245 48.374952944033645,44.799579766784234 48.3190105349742,44.88638992249246 48.26235321934537,44.97303869406778 48.20487934316497,45.05969522662163 48.14644695747244,45.14649950783854 48.08688163515065,45.233554269416004 48.02598583191545,45.32091889348919 47.96354929578347,45.40860560187454 47.89935998352944,45.49657808702478 47.83321492467691,45.58475261822791 47.76493048399382,45.67300153119087 47.69435151141028,45.76115889001716 47.62135893150416,45.84902800362799 47.54587540969789,45.936390389150596 47.4678688345827,46.02301570696073 47.387353469904866,46.10867214911782 47.30438874988717,46.193136746741565 47.21907581151776,46.27620507291621 47.131551971216155,46.35769985515089 47.04198345513831,46.43747807302948 46.9505567773699,46.515436199097906 46.85746922416674,46.59151333980575 46.76291894234798,46.66569214331766 46.66709514404779,46.73799745646407 46.57016892796729,46.80849282816774 46.47228517984763,46.877275065453084 46.373555954327884,46.94446714521592 46.27405565998347,47.01020986546862 46.17381827342216,47.07465267985336 46.07283670193179,47.137944195995416 45.97106430283135,47.20022283012554 45.8684184570814,47.26160809696947 45.764785990544375,47.32219297612367 45.660030143735085,47.38203773619853 45.55399871462029,47.44116551916152 45.44653294275187,47.49955989379678 45.337476669387044,47.55716448389526 45.22668529882836,47.61388466911153 45.11403410122072,47.66959124989851 44.99942543547239,47.72412586799369 44.88279453067761,47.77730788565476 44.76411354212029,47.82894235463085 44.64339368951079,47.87882865327299 44.520685385727106,47.92676933973928 44.396076368755615,47.97257876233454 44.26968795237583,48.01609098476672 44.14166960712894,48.057166623453526 44.01219216738061,48.09569825376683 43.88144002862065,48.131614119012625 43.749602748115606,48.16487996592197 43.616866489328224,48.19549892874311 43.48340575487593,48.2235094855545 43.34937583417311,48.24898160990984 43.214906351457934,48.272011333273234 43.080096239838674,48.292714014212535 42.94501039061021,48.31121667492805 42.80967813837888,48.32764981117789 42.67409364621807,48.34213910584355 42.53821815611873,48.35479747812811 42.40198397358457,48.365717879795994 42.26529996624491,48.37496720814478 42.128058279402204,48.38258164483233 41.990141910397355,48.38856365356899 41.85143274154061,48.39288078197763 41.71181961029383,48.3954663183217 41.57120599621979,48.39622175715313 41.42951692687479,48.3950209343082 41.28670474791281,48.39171560585824 41.142753463929,48.38614217204116 40.99768143262112,48.37812918952747 40.85154228176347,48.367505276582605 40.70442401165433,48.35410699760811 40.556446340254325,48.337786317037136 40.40775643930172,48.318417237302626 40.25852329257042,48.295901280226566 40.10893097783415,48.27017153322209 39.95917122849633,48.24119505792044 39.80943566645233,48.20897354514845 39.659908112832646,48.17354219210928 39.510757377156814,48.13496687032995 39.36213089850315,48.09333974165068 39.214149566097134,48.048773559638406 39.06690398368985,48.00139496120242 38.92045236560809,47.95133710442921 38.77482016642024,47.89873204114571 38.63000145530896,47.843703224857336 38.485961955158075,47.78635854594417 38.342643579844676,47.72678425686962 38.199970225697825,47.66504010226159 38.05785450857393,47.60115590461352 37.91620508979033,47.53512977942957 37.77493420471085,47.46692806793197 37.63396499855316,47.39648698545771 37.49323828539323,47.32371589408426 37.35271837773152,47.24850202349878 37.21239768364063,47.17071638903906 37.07229983381902,47.090220594071205 36.932481178374566,47.00687415860019 36.79303057878554,46.92054198953161 36.6540675097598,46.83110160166919 36.515738573996096,46.73844971258954 36.37821261550463,46.64250786822038 36.241674689950074,46.54322680745104 36.10631920958985,46.44058934070069 35.972342622815994,46.33461159556677 35.83993601185492,46.22534256836217 35.709277995657075,46.11286200906432 35.580528308282446,45.99727675429337 35.45382238706041,45.87871570390821 35.32926725138299,45.7573237074022 35.206938884992454,45.63325468288886 35.086881255617755,45.50666433111576 34.969107019920216,45.377702827616005 34.853599873428905,45.24650787674194 34.740318419077134,45.11319849191249 34.629201348569225,44.97786982798279 34.52017366226528,44.84058933623397 34.41315359911245,44.701394442983165 34.308059911204445,44.56029187286894 34.20481909971174,44.417258651649064 34.10337223114134,44.27224473535606 34.00368097499601,44.125177127482274 33.90573254478113,43.97596526795196 33.80954328178597,43.82450741104438 33.71516069217013,43.67069765763138 33.62266382888061,43.51443327278444 33.53216199660407,43.355621904786894 33.44379184578772,43.194188326631256 33.35771300616582,43.030080345937456 33.27410248680018,42.86327357261507 33.193148134380905,42.69377479322259 33.11504149105673,42.52162377379315 33.0399704247804,42.346893395057634 32.96811191738672,42.16968811126913 32.89962538772921,41.99014081162168 32.834646899562195,41.808408247023046 32.77328455791004,41.62466526031344 32.71561533576568,41.43909812100346 32.661683498349014,41.251897312921216 32.611500708680076,41.063250152322766 32.565047810245545,40.87333362348063 32.52227819463302,40.68230780800918 32.483122578776445,40.490310253719514 32.44749494223415,40.29745158020227 32.415299313612806,40.103812554097345 32.38643705007373,39.90944279045243 32.360814227206774,39.71436115167613 32.33834874985842,39.51855782675603 32.318976808155625,39.32199798527336 32.30265833630434,39.12462681790437 32.289381183074276,38.92637570189031 32.2791637695783,38.727169170220414 32.27205608856728,38.52693232017959 32.268138985936446,38.32559827273146 32.267521754967476,38.12311529027817 32.270338162352076,37.91945317691786 32.276741107626464,37.714608621597264 32.28689618995972,37.508609198724784 32.30097451449135,37.30151581007291 32.3191451114973,37.09342343262058 32.34156736339275,36.88446012517337 32.36838383574375,36.674784337591234 32.39971388891533,36.46458065549966 32.43564840768653,36.25405419583083 32.476245929067616,36.04342394008085 32.52153037657667,35.832915349031396 32.5714905260663,35.622752641822025 32.62608123811258,35.41315114156704 32.68522639966993,35.20431008809713 32.748823427941346,34.996406295848644 32.8167491069255,34.78958899252163 32.88886645619096,34.583976113982615 32.96503227586156,34.37965225605521 33.04510497453717,34.176668398152366 33.12895226995854,33.975043421563335 33.21645835663428,33.77476735138003 33.30753016026795,33.57580616042942 33.40210234443053,33.378107890877374 33.500140798254876,33.181609778763395 33.601644411771986,32.986246012335776 33.70664503391724,32.79195571959964 33.81520560264179,32.598690765939644 33.92741653210793,32.40642294989665 34.043390533654474,32.21515021392054 34.16325613029631,32.02490153584847 34.28715019460244,31.835740233504048 34.41520989313021,31.647765495875376 34.547564454331464,31.461112045645663 34.684327189077194,31.27594793475464 34.82558818290456,31.09247057216921 34.971408047151876,30.910901176054924 35.1218130638044,30.73147792621667 35.27679198872464,30.55444816260486 35.436294693482274,30.38006002811496 35.60023273152581,30.208553986030182 35.768481814790334,30.040154652397995 35.94088608711361,29.875063370774292 36.11726398625862,29.713451921561266 36.29741540181969,29.555457702270978 36.48112976630569,29.4011806412295 36.668194664984014,29.250682019151625 36.85840451946443,29.10398527512948 37.05156889225485,28.96107877088656 37.2475199752255,28.821920384930497 37.44611886345257,28.686443711778935 37.64726027548329,28.554565555809358 37.85087545875358,28.426194338977815 38.05693311085095,28.301238990471724 38.265438248907564,28.17961785710896 38.47642906545497,28.06126716767642 38.6899719141658,27.946148602918903 38.90615466754818,27.834255564831217 39.125078775760954,27.725617802275124 39.34685042660982,27.620304131730215 39.571571257705564,27.518423088079757 39.799329099853644,27.420121445972267 40.03018923435771,27.325580662071545 40.264186625615245,27.235011396844616 40.501319545015285,27.14864637580532 40.74154493481231,27.066731939047763 40.98477577458161,26.989518699789727 41.23088061231813,26.917251783583794 41.47968531221274,26.850161147045227 41.7309769572073,26.788452476702908 41.984509732421785,26.73229914459202 42.240012511178406,26.68183564835263 42.49719777414795,26.63715289221436 42.75577141884995,26.59829557465322 43.01544296538227,26.565261843206393 43.27593563766284,26.538005262108957 43.536995799309274,26.5164390198917 43.798401249867275,26.500442187836455 44.05996793935801,26.489867732223964 44.32155473470089,26.484551889253936 44.58306596686722,26.484324436305418 44.84445159801531,26.489019340946847 45.10570496789077,26.498485242700884 45.366858202426315,26.512595223707187 45.62797548851695,26.53125535337582 45.88914453113508,26.55441154774476 46.15046660652079,26.58205436404249 46.41204570292347,26.614221451197455 46.673977294159386,26.65099749280736 46.93633731797049,26.692511604803002 47.199171929192374,26.73893227936199 47.46248856673344,26.79046009313349 47.726248814586285,26.84731851496985 47.99036345309381,26.909743250204347 48.25468999144162,26.977970639567914 48.519032850852554,27.05222568689168 48.783146236144844,27.13271031746388 49.046739597699975,27.219592466695776 49.30948545324507,27.31299656616231 49.57102921590376,27.41299593244686 49.831000568025004,27.519607476204357 50.08902583496072,27.632789038535133 50.344740753786525,27.752439534340525 50.597803002292224,27.878401944021643 50.84790385530374,28.0104690523873 51.09477836883514,28.14839169408931 51.33821355657445,28.29188913527581 51.57805411487807,28.44066110808215 51.81420536774059,28.594400923897503 52.046633236575346,28.752809027922467 52.27536118482784,28.91560632487297 52.500464237285414,29.082546605836097 52.722060321188906,29.253427439733045 52.94029931346017,29.428098958355548 53.155350298664374,29.606470058744783 53.36738763955486,29.78851166649846 53.57657653101982,29.974256842863994 53.783058745234506,30.163797670564136 53.98693927852922,30.357279010982666 54.188274578299286,30.554889380844454 54.387062962323014,30.75684934227462 54.58323774588297,30.963397928754144 54.77666346841107,31.174777734582527 54.96713546671279,31.391219371430008 55.15438288292359,31.61292603842781 55.338075029760304,31.840058959372897 55.517830871362484,32.07272441128625 55.69323122300114,32.310963003610205 55.863833134892076,32.55474176952387 56.02918581112677,32.803949504476705 56.1888473301962,33.05839563781328 56.3424013831646,33.31781275827149 56.489473232161686,33.58186274087406 56.62974411651138,33.850146249587596 56.762963395890736,34.122215225421435 56.88895781679676,34.39758782136404 57.00763741611317,34.67576512103268 57.11899772789698,34.95624888338839 57.22311812975579,35.2385594961595 57.320156345287614,35.522253299041225 57.41033930067454,35.80693845563528 57.49395070791386,36.09228861014936 57.5713159060423,36.3780536586836 57.642784627317646,36.66406709150611 57.70871246105773,36.95024951628073 57.76944185830699,37.236608145881846 57.825283552206336,37.523232220045806 57.87649925982496,37.81028451915039 57.92328648155324,38.097989311855365 57.965766125801444,38.38661724766203 58.003973563583045,38.67646785236929 58.03785356516878,38.9678504020546 58.06725939618835,39.2610640336771 58.091956161455684,39.55637799366283 58.11162829017971,39.8540129275135 58.1258908650276,40.15412407339337 58.134304318887395,40.45678714210747 58.13639186536484,40.7619875487681 58.131658899594974,41.06961351271397 58.1196135110457,41.37945336886815 58.09978719413227,41.69119724353031 58.07175482846271,42.00444304947241 58.03515302918636,42.31870655828082 57.989696038020874,42.63343512134836 57.93518843400522,42.9480244434971 57.87153408489934,43.26183767272075 57.79874092899998,43.5742259625987 57.71692136519424,43.884549595499564 57.62628822765457,44.19219872805639 57.52714652154021,44.49661283675297 57.419881288128764,44.79729800007758 57.30494214305176,45.09384125180441 57.18282518157805,45.385921373108 57.05405306327698,45.6733156530495 56.91915416930346,45.95590233023437 56.77864176540578,46.23365862435913 56.632994100663694,46.50665446623979 56.482636326266146,46.77504222911905 56.32792503254284,47.03904294398466 56.16913608002321,47.2989296387367 56.006456247482994,47.55500856826954 55.83997904374355,47.807599194006926 55.66970483883887,48.057013823107425 55.49554527289946,48.303537827123876 55.317331706891224,48.54741132717986 55.13482729720746,48.788813159426574 54.947742114419455,49.02784782424254 54.75575059257038,49.264535980797675 54.558510495400384,49.498808881806 54.35568252412756,49.730506959712486 54.146949670575054,49.959382583644825 53.932035440150955,50.1851068153055 53.71072013020551,50.40727981051179 53.4828544474117,50.62544434961172 53.24836987822155,50.83910184206769 53.007285382678454,51.04773004433211 52.759710156475556,51.25080166034998 52.50584239075762,51.44780296367118 52.24596414501739,51.63825159015563 51.98043262683108,51.821712699878724 51.70966833479308,51.99781279325503 51.434140660387364,52.166250585244214 51.154351654306815,52.32680448680624 50.87081873811156,52.479336407400396 50.58405717984341,52.62379176834966 50.294563151027674,52.76019579580271 50.00279814275892,52.8886463353799 49.70917544274747,53.009303590238794 49.414049267215155,53.122377322795266 49.11770700691839,53.2281121714064 48.82036489209694,53.32677181198428 48.52216721431942,53.41862273744175 48.223189072207646,53.50391843344313 47.92344244100866,53.58288469737086 47.622885210954685,53.65570678069634 47.3214327034971,53.722518936684025 47.01897106411644,53.783396830737914 46.71537185051375,53.8383531259364 46.410507088866595,53.88733639875902 46.104264060462846,53.930233377275826 45.796559106240764,53.96687433423164 45.48734979598251,53.99704131798827 45.176644898796106,54.0204787724822 44.86451170725896,54.03690598915737 44.551080403298506,54.046030754289504 44.23654530264844,54.04756350765955 43.92116296915644,54.04123131499151 43.60524734274994,54.026790977198246 43.289162168048264,54.004040652753815 42.973311137677214,53.972829452416626 42.658126269183946,53.93306457358052 42.344055112384815,53.884715669142274 42.031547431459835,53.827816286380724 41.721042021267806,53.762462357910394 41.41295429991459,53.68880787201581 41.10766527081248,53.6070579864722 40.805512370229884,53.517459971693604 40.5067826147372,53.42029246996344 40.21170834247543,53.31585363284298 39.920465708879874,53.20444874534112 39.633175958257574,53.08637796104311 39.34990935432632,52.96192475688369 39.070691522375704,52.831345670762346 38.79551183942501,52.6948618123388 38.524333412227485,52.5526525412061 38.25710411076014,52.40485159220196 37.99376808016831,52.25154580087597 37.73427713890879,52.09277644953677 37.47860148540751,51.92854312254367 37.22673917880965,51.75880983515202 36.978723928810076,51.583513089363485 36.73463082133381,51.402571418282506 36.49457971606803,51.21589591173848 36.25873617289163,51.02340117361011 36.027309890829855,50.82501614712117 35.800550768929554,50.62069425876047 35.578742817028605,50.4104223733255 35.36219624997284,50.194228119440595 35.15123818622237,49.97218523313627 34.94620243682643,49.74441667193377 34.74741891042436,49.511095367937415 34.555203172539144,49.27244260966446 34.36984668267196,49.028724162598685 34.19160819161648,48.78024435164354 34.02070671641366,48.52733842917096 33.857316424983225,48.270363635247236 33.701563661267976,48.00968941789527 33.553526230016864,47.74568731804298 33.413234943885314,47.4787210345475 33.28067732030028,47.20913716908811 33.15580320736308,46.93725710988651 33.038532022352044,46.663370449489065 32.928761207896834,46.387730248693444 32.82637545336551,46.110550360598154 32.73125619524606,45.83200492078308 32.6432909016741,45.55222999745894 32.5623816630228,45.271327284757035 32.48845265148094,44.989369618819595 32.42145607545964,44.706408005185125 32.36137633608677,44.422479771692515 32.308232188606404,44.13761740734765 32.26207681619295,43.85185761687897 32.22299583208698,43.565250114391354 32.19110333246034,43.27786569770106 32.16653622162529,42.98980318644283 32.14944711807525,42.70119486954464 32.139996220073265,42.4122101877679 32.13834255962897,42.12305747045204 32.14463510133399,41.83398364748646 32.15900414645394,41.54527196253107 32.181553482895495,41.25723781625277 32.2123536793993,40.970222963538724 32.25143685991899,40.68458837150491 32.29879321500326,40.40070611145867 32.354369415302564,40.118950704546116 32.41806899289369,39.83969036537591 32.489754654122656,39.563278589371635 32.56925238839075,39.29004650808794 32.656357145808194,39.020296393489666 32.750839777599786,38.754296629673156 32.85245487051103,38.4922783920184 32.960949063364346,38.23443418350983 33.076069412396265,37.98091828066201 33.197571373064534,37.73184904219829 33.325225989386006,37.48731293752331 33.458825926224854,37.24737006398348 33.598190042853474,37.01206084647393 33.743166284164275,36.78141355387869 33.89363275501788,36.55545222710405 34.04949693867272,36.334204594975155 34.210693117089725,36.11770955787112 34.37717814413405,35.90602384429361 34.548925807492374,35.69922749120943 34.72592008717103,35.497427862460164 34.90814767408573,35.30076199739905 35.09559014869718,35.109397170118406 35.28821623514417,34.92352963350165 35.48597454016554,34.74338161701097 35.68878715874579,34.56919673769211 35.896544481378264,34.401234065661754 36.10910147368129,34.23976115416751 36.32627562121447,34.085046396669554 36.547846644853465,33.937351106655086 36.773557999563295,33.7969217284416 37.0031200766811,33.663982578497595 37.23621494171191,33.53872948737008 37.472502360659114,33.42132466378128 37.71162680217037,33.31189303743663 37.95322505356817,33.2105202590497 38.196934058685834,33.11725244910368 38.442398575791536,33.03209769552955 38.68927826518772,32.955029209510585 38.93725384764527,32.88598996278384 39.186032024939955,32.82489855349178 39.435348919743696,32.771655984824605 39.68497187048186,32.726152994543 39.93469950339215,32.68827754636793 40.1843600943725,32.657922087468904 40.43380832257478,32.63499019018937 40.68292060145101,32.619402229895535 40.93158924674474,32.6110998026284 41.179715800931305,32.610048653308496 41.42720387678748,32.61623996405915 41.673951906891354,32.629689938653065 41.919846189728986,32.6504377086053 42.1647546065741,32.678541674384284 42.40852134730854,32.71407447702404 42.650962929798986,32.75711686681565 42.89186572917416,32.807750793094755 43.13098515391923,32.86605207942422 43.368046519326214,32.932083069662454 43.60274757997295,33.00588563144611 43.83476259621798,33.08747488445995 44.063747729709625,33.176833982606965 44.289347493718964,33.27391022377448 44.51120192937967,33.37861269133075 44.7289541414186,33.49081155134053 44.942257808649806,33.61033904300583 45.15078428630237,33.73699211151674 45.35422893902546,33.8705365469317 45.552316384044545,34.0107124143858 45.74480438121614,34.15724049387717 45.9314861777425,34.30982939564192 46.11219119624403,34.46818298236363 46.28678404160507,34.63200771400146 46.45516188992338,34.801019535633976 46.6172504074397,34.97494995317698 46.77299842410538,35.15355098481782 46.92237165144152,35.33659873531362 47.06534578417098,35.52389541278784 47.20189935717685,35.715269689564124 47.33200674197608,35.91057539562995 47.455631659443206,36.109688620957805 47.5727215583501,36.3125033865942 47.68320316383784,36.518926119745 47.78697943855039,36.728869231148295 47.88392812504155,36.94224414050425 47.973901955087335,37.15895412516449 48.056730524002916,37.378887377100774 48.13222374055643,37.60191064286165 48.200176680133936,37.82786379131682 48.26037559482651,38.056555605984556 48.3126047728802,38.28776103518195 48.356653894734656,38.521220057370975 48.39232550604993,38.756638234891234 48.41944222108921,38.99368894110996 48.437853282988456,39.23201715851509 48.447440140179445,39.471244662965354 48.448120748800655,39.71097633651697 48.439852376795066,39.950807291778126 48.422632763092,40.19033044772236 48.39649957079258,40.429144172612396 48.36152816217454,40.6668596054364 48.317827810989236,40.90310728331476 48.265536549301444,41.13754273790125 48.204814917839904,41.36985077707085 48.135838946613546,41.59974823641154 48.05879273342187,41.826985064710186 47.97386100965313,42.05134369461513 47.881222084200054,42.27263673942714 47.78104153736261,42.49070314488056 47.67346699809823,42.705403006198736 47.558624281952675,42.91661133138658 47.436615096248964,43.12421108795138 47.307516437344944,43.32808590900073 47.171381716156745,43.528112853922565 47.028243557318994,43.724155617484136 46.87811812905685,43.91605855922842 46.721010779636885,44.103641883547056 46.556922686478856,44.28669824185552 46.38585816928353,44.46499095491447 46.20783228179054,44.63825396927624 46.02287828002982,44.80619357143837 45.8310545691143,44.968491791243636 45.63245075560193,45.12481133716684 45.42719247708318,45.27480182501762 45.21544474258042,45.41810699254076 44.99741359356822,45.554372539046746 44.77334598190641,45.683254194442775 44.54352785335887,45.80442560771489 44.30828051881486,45.91758565193481 44.06795548500093,46.0224647709448 43.82292799764997,46.118830040627344 43.57358961855518,46.2064886828267 43.32034020999129,46.28528984907586 43.0635797328691,46.35512458044093 42.803700276872405,46.415923944321044 42.54107873096358,46.467655444067326 42.27607047143175,46.510317887924195 42.00900439357211,46.54393498521668 41.74017954470276,46.56854800570249 41.4698635339391,46.58420788888708 41.19829280221539,46.59096722117012 40.925674739114925,46.588872508146075 40.652191536231335,46.577957156654485 40.37800557498336,46.558235546724724 40.10326606493076,46.52969851905455 39.82811658094886,46.49231053180906 39.55270309777153,46.44600865489716 39.27718209110853,46.39070347488385 39.00172826743718,46.32628188412764 38.726541500239406,46.25261162880041 38.45185258819336,46.16954739722782 38.177927508915005,46.07693814741031 37.905069917353096,45.974635304989796 37.63362172715334,45.862501413942866 37.36396171165351,45.74041879460264 37.096502163664496,45.60829775883441 36.83168375453276,45.466083950757294 36.569968827916796,45.31376442254033 36.31183344727296,45.15137211657212 36.057758583803555,44.97898850467706 35.80822087993942,44.79674422807371 35.5636834496389,44.60481768375977 35.32458717932104,44.40343160874125 35.09134297179148,44.192847817590994 34.86432533094191,43.973360345821696 34.64386761940356,43.745287336400374 34.430259237907215,43.508962074943796 34.22374487798951,43.264723627017965 34.02452589376586,43.01290755586512 33.83276372914094,42.753837199288824 33.6485852296851,42.487815960087545 33.472089568955184,42.21512101634445 33.30335643255995,41.93599878829937 33.14245503427961,41.65066241082045 32.989453490824225,41.35929135898906 32.84442805801744,41.06203326407715 32.707471732773406,40.75900784385526 32.57870175243763,40.4503127604575 32.4582655746842,40.13603111672286 32.3463449948971,39.81624021334125 32.24315815019083,39.49102111896388 32.148959265479235,39.16046855751193 32.064036111938066,38.82470059391505 31.98870526606789,38.48386760290876 31.92330537231599,38.13816003543814 31.868188717977077,37.7878145524344 31.823711520310795,37.43311817369409 31.790223397692223,37.074410186613605 31.76805654521652,36.7120816708469 31.75751515777184,36.34657261506615 31.758865638701266,35.97836672488095 31.77232809971423,35.60798414037898 31.79806959899321,35.235972391577846 31.83619948215479,34.86289601455842 31.886767088746478,34.489325325277456 31.949761970225588,34.11582489791063 32.02511663966281,33.74294231726867 32.11271174494276,33.37119776885986 32.21238343254747,33.00107499546299 32.3239325544241,32.63301408701622 32.44713527193291,32.26740648403032 32.58175453359085,31.904592467646324 32.727551851522655,31.54486128701527 32.884298778079696,31.188453942897063 33.051787490623276,30.8355685117537 33.229839928996185,30.486367763914522 33.4183149953511,30.140988709264636 33.61711341679917,29.799553600513292 33.826179983650476,29.462181842904762 34.04550300440743,29.129002204574793 34.275110956997494,28.800164696777095 34.51506645712939,28.47585149953376 34.765457802128374,28.156286346051385 35.02638847520745,27.841741846980803 35.29796510438464,27.532544330393392 35.58028445647043,27.22907589073766 35.87342010510569,26.931773474622585 36.17740943942813,26.641124976448893 36.49224167477365,26.35766246571728 36.8178474886871,26.081952812881315 37.154090835843945,25.81458611463479 37.50076339730456,25.556162435808446 37.85758199722854,25.307277477447812 38.22418917960489,25.06850784446376 38.600156985209956,24.84039661770316 38.984993812404205,24.623439932619725 39.37815409205685,24.418075229374722 39.77905036444088,24.224671768693263 40.187067221588315,24.043523907034285 40.6015764785415,23.87484749816916 41.02195286656148,23.718779641982536 41.44758950436155,23.575381841958553 41.8779124021797,23.444646468199394 42.31239328848553,23.32650626066506 42.750560119088014,23.220846455745836 43.192004730499136,23.127518985641746 43.63638722901546,23.046358091129942 44.08343685821866,22.977196609714948 44.53294925340992,22.91988215704487 44.98478016407982,22.874292412468435 45.43883589660313,22.840348750442995 45.895060890695255,22.818027527171196 46.35342298691817,22.807368433606552 46.81389706151548,22.80847945722558 47.276447793138544,22.82153814989412 47.74101237897622,22.846789070538776 48.207484032554234,22.884537451164356 48.67569707076788,22.93513931462701 49.14541433446516,22.99898844375197 49.61631758755804,23.076500755819882 50.08800140864825,23.16809676648814 50.5599709323475,23.27418292641424 51.03164362207102,23.395132677432176 51.5023550701705,23.53126809936748 51.97136863355937,23.68284300235538 52.437888532351934,23.85002826289187 52.901075873934936,24.032900107410697 53.36006692343218,24.23143191881339 53.81399283033426,24.445489985076456 54.26199994579447,24.6748334317463 54.70326982937235,24.919118390124957 55.13703804996314,25.177906258979355 55.56261093315532,25.450675728747164 55.97937949442334,25.73683806239376 56.386829920582244,26.03575497440073 56.78455011517663,26.346758326299724 57.17223200015091,26.66917076941295 57.54966945786289,27.002326417381042 57.9167519957135,27.345590625023444 58.27345441095146,27.698377986582745 58.61982291648773,28.060167743835134 58.95595835142058,28.430515909458823 59.28199723455195,28.809063558351188 59.59809151926928,29.19554091226566 59.90438796905513,29.589767033585474 60.201008091521146,29.991645143265266 60.48802954455007,30.401153776855335 60.765469861784624,30.81833418186912 61.03327323947977,31.243274530798647 61.291300987579845,31.67609166882979 61.53932608115109,32.11691122712661 61.777032061789875,32.56584700612368 62.00401634096119,33.02298056535905 62.21979775756601,33.48834194529923 62.423828049498454,33.96189239327284 62.61550672255406,34.443509872194696 62.79419864779992,34.932978002131705 62.95925359733755,35.42997892655343 63.11002684404647,35.93409041512317 63.245899906740334,36.44478732137797 63.36630052059478,36.961447315605966 63.47072095320552,37.48336062002364 63.5587338673465,38.00974329368811 63.63000504844003,38.53975345696474 63.684302462257065,39.072509716710385 63.72150127946129,39.607110959701515 63.74158469013702,40.14265662712716 63.74464052470283,40.67826656966927 63.730853888473874,41.21309961091441 63.70049619681769,41.74637001521802 63.6539111579776,42.27736116090367 63.59149838401013,42.80543585595565 63.51369541070687,43.33004289420784 63.42095897069674,43.85071962803853 63.31374638726746,44.36709052001659 63.19249793921822,44.8788618221305 63.05762099045273,45.385812708494385 62.90947658497387,45.88778334735092 62.74836908332717,46.38466053365518 62.57453926641984,46.87636160826659 62.38816116439512,47.362817459211165 62.18934269003763,47.843955431790505 61.97812997642766,48.31968296632017 61.7545151459062,48.7898727358969 61.518447079806926,49.25434997440527 61.26984462323585,49.71288257127802 61.008611552546796,50.16517437012514 60.73465255981408,50.610861950109715 60.44788947160157,51.049514999681776 60.14827691996904,51.48064022014276 59.835816721576386,51.90368852974298 59.510570293414645,52.31806518554111 59.17266853750361,52.723142307192525 58.82231875618451,53.11827318033445 58.459808308136445,53.50280764202853 58.08550487537416,53.87610781003963 57.699853375531625,54.23756341300811 57.30336971368891,54.586606009686406 56.89663171623236,54.922721450211434 56.480267718743896,55.24546002745123 56.054943384694226,55.55444388671302 55.62134740704447,55.84937140138386 55.1801767874728,56.13001837338634 54.732122396234814,56.39623607320436 54.27785548970006,56.64794628697168 53.818015804104185,56.88513368038406 53.35320175635295,57.10783591418145 52.883963170426796,57.31613204782336 52.41079681696023,57.51012984203635 51.9341449104862,57.68995261399809 51.45439656091551,57.85572630924344 50.97189203026811,58.007567432018355 50.48692950970755,58.1455724221477 49.99977401199999,58.26980898477814 49.51066787641564,58.38030977382891 49.01984231121713,58.47706870630603 48.527529356557636,58.56004004905776 48.03397363942399,58.62914027896008 47.53944331238546,58.68425257897074 47.044239617940484,58.72523370274382 46.548704597266976,58.75192282589763 46.05322656204166,58.76415190808359 45.558243065404675,58.76175702104002 45.06424123707765,58.744590056986326 44.57175548147189,58.712530220646556 44.081362669706444,58.66549472704962 43.59367508012909,58.60344817474324 43.109331451239534,58.526410137377795 42.62898660049635,58.43446061183506 42.15330012817352,58.32774307310454 41.68292476421362,58.206465009157384 41.218494926310385,58.07089593683996 40.76061603907613,57.92136302580521 40.30985511840616,57.75824457546785 39.86673305465331,57.58196169405632 39.431718936843076,57.39296861398999 39.00522665272713,57.19174213999473 38.587613881600326,56.97877076269732 38.17918347454553,56.75454397944242 37.78018709636559,56.5195423455835 37.390830890923304,56.27422873477552 37.01128283255982,56.01904121845361 36.64168134554909,55.754387886361656 36.2821447150212,55.48064382647787 35.93278077916026,55.198150369364775 35.59369638521149,54.907216584613934 35.26500611093228,54.60812290180724 34.94683979739157,54.30112662096983 34.639348505885565,53.98646898324561 34.34270859759622,53.66438339618882 34.05712373488668,53.3351043532237 33.78282471254576,52.99887655611978 33.52006714022417,52.65596374402902 33.2691271079285,52.30665675275969 33.03029506917798,51.95128037222041 32.80386826610586,51.59019863586445 32.59014209295452,51.22381825993411 32.389400845596334,50.85259004785173 32.20190833245107,50.477008181149415 32.02789882533095,50.09760742737021 31.86756880734827,49.714958401777864 31.721069930438127,49.32966111811923 31.588503529741196,48.94233714908114 31.46991695961398,48.55362078527804 31.365301920752167,48.164149629190625 31.274594844832365,47.77455508528956 31.197679297535096,47.38545320847579 31.13439025825563,46.997436350150466 31.084520040457573,46.61106599607303 31.047825535254333,46.22686712516581 31.02403639647843,45.84532433710567 31.012863741387974,45.46687990318366 31.014008919334977,45.091933794464964 31.02717190216392,44.72084563889991 31.052058874508383,44.353938460054 31.08838864811901,43.99150395957211 31.135897589318706,43.63380902798693 31.194342829156056,43.28110310788895 31.263503617576916,42.93362599281587 31.3431807811084,42.5916156264116 31.433194343063263,42.25531547026867 31.53337946098977,41.924981035058565 31.643580923080627,41.60088521651402 31.763646519108434,41.28332214304463 31.89341965844273,40.97260932170965 32.0327316449913,40.669087959722454 32.18139403472121,40.373121434896554 32.33919149504372,40.08509198542673 32.50587555729791,39.805395782132 32.68115960539936,39.53443663000731 32.8647153780605,39.27261861633704 33.05617118233738,39.02033807620749 33.25511192680515,38.77797528027929 33.46108098812531,38.54588626256506 33.673583830016675,38.3243951971031 33.892093203633955,38.11378770244308 34.11605567768918,37.91430540340848 34.34489917945605,37.72614201335905 34.57804117750228,37.5494411206378 34.814897106091436,37.38429577428376 35.054888621188496,37.230749871006985 35.29745128933052,37.08880125275443 35.54204134255223,36.95840633670608 35.78814118336311,36.83948602176935 36.035263390720694,36.73193255154626 36.282953057471246,36.63561696662716 36.530788377688104,36.55039675124212 36.778379494070734,36.47612327217951 37.02536570636235,36.41264862169388 37.27141122681923,36.35983151010865 37.51619974378906,36.31754190609273 37.759428115520876,36.28566419038285 38.000799560358224,36.26409866843525 38.24001673419692,36.252761374954495 38.47677509034087,36.251582193874 38.710756900492015,36.2605014064092 38.94162627948801,36.27946486271308 39.169025502525095,36.30841804503228 39.39257283478357,36.347299348489116 39.611862013291734,36.39603294658908 39.826463433684054,36.45452163030796 40.03592700478991,36.52264001095873 40.23978654643513,36.600228458080075 40.43756552496184,36.68708810525035 40.62878385099546,36.78297720115208 40.81296540851725,36.887609013264 40.98964594616858,37.00065141095438 41.158380942927636,37.12172816768207 41.31875306169893,37.25042193305954 41.47037882593363,37.38627873928564 41.612914194902146,37.528813827453874 41.746058770581996,37.67751851153743 41.86955844025906,37.831867744977004 41.98320634014065,37.99132801947753 42.086842112327496,38.15536520965289 42.180349515787384,38.3234519813647 42.2636525369836,38.49507440571348 42.3367102230497,38.669737463392764 42.39951052589055,38.84696918324464 42.45206349591338,39.026323231256306 42.494394196648614,39.20737984814087 42.526535724617816,39.38974512073804 42.54852271180676,39.573048660247814 42.560385661335104,39.75693984414645 42.56214642186937,39.9410828542075 42.553815045247354,40.12515080637634 42.53538819800805,40.30881931606011 42.50684921475196,40.491759872187 42.46816979394907,40.673633403614026 42.419313249421364,40.85408441158884 42.36023914788001,41.03273601250456 42.290909088880404,41.209186187681496 42.211293322258335,41.383005473805625 42.121377852723356,41.55373625228125 42.02117165419093,41.72089371200095 41.91071360904971,41.88396847229854 41.790078800313076,42.042430765668676 41.65938381679786,42.195735997821465 41.51879078149571,42.34333142998429 41.36850987853084,42.48466366897783 41.20880023115593,42.619186607481325 41.03996906812535,42.74636943243187 40.862369204056485,42.865704314887005 40.67639494649991,42.976713410264956 40.48247662376275,43.07895483282017 40.28107399890556,43.17202732074349 40.07266889293082,43.25557337570533 39.85775738104873,43.329280739439724 39.63684194783263,43.392882156072154 39.41042398890189,43.446153457792484 39.17899702835402,43.48891009856296 38.94304098343304,43.52100234127724 38.70301775279332,43.54230937390888 38.45936833502057,43.55273268604408 38.21251160345084,43.55218907582137 37.96284477588692,43.540603676633246 37.71074552820132,43.517903391951855 37.456575613588136,43.48401110528116 37.200685769064464,43.43884099159622 36.9434216218144,43.382295198762726 36.68513025385667,43.3142620952902 36.42616704708801,43.23461619811342 36.16690241403034,43.14321980515578 35.90772802348904,43.039926266852405 35.64906215471725,42.92458474333117 35.39135385735425,42.797046214097676 35.1350856551732,42.657170439096596 34.88077460643285,42.504833517472875 34.62897161853182,42.339935656072754 34.38025900532617,42.16240874553855 34.13524636719306,41.97222334860686 33.89456496193097,41.76939473265946 33.658860814256826,41.55398762534595 33.42878687883966,41.32611943585503 33.20499462289421,41.085961761926825 32.98812542664846,40.83374008996952 32.77880221170547,40.56973168820971 32.577621697722144,40.2942617858287 32.38514765733911,40.00769821970946 32.20190548940009,39.71044481008785 32.028378363646546,39.40293379286457 31.86500510973378,39.08561768607797 31.712179933623375,38.75896099836895 31.570253949831475,38.42343219650023 31.439538423535012,38.0794963365607 31.320309527074226,37.727608729839964 31.212814335627247,37.36820996122642 31.117277720986998,37.00172250792175 31.033909753937166,36.62854912288005 30.962913197345173,36.24907305490408 30.904490665355638,35.863660080517946 30.858851039477848,35.47266222660715 30.826214769249034,35.07642297235337 30.806817741750947,34.6752836389713 30.800913477749628,34.26959061037222 30.808773498913222,33.8597029806561 30.83068580603957,33.44600019785569 30.866951507558326,33.028889269130524 30.91787973570183,32.60881111103 30.983781079456534,32.186245668732 31.064959844019832,31.76171548835916 31.161705511620703,31.33578750366256 31.274283824787766,30.9090728885917 31.40292793788696,30.48222492606541 31.547830084553574,30.0559349454422 31.709134187231548,29.63092648163085 31.886929791328342,29.20794790213894 32.081247642566254,28.787763829806167 32.29205714510783,28.371145754199496 32.51926584399949,27.958862270071023 32.76272097316982,27.551669404483405 33.02221300483343,27.150301493684353 33.29748103316901,26.755463046488217 33.58821972981571,26.367821983743468 33.89408752616194,25.98800457574726 34.214715611873544,25.616592314473873 34.549717294246406,25.254120859445017 34.89869724119825,24.901081089952925 35.26126013346992,24.557922187552386 35.63701827888888,24.22505656678633 36.02559779225343,23.90286637462337 36.426643016103974,23.591711195028413 36.839818946881934,23.29193652904599 37.264811533322415,23.003882576253698 37.701325824209114,22.727892822995337" style="stroke: black; fill: none; stroke-width: 0.4" /><circle cx="40.0mm" cy="40.0mm" r="35.0mm" style="stroke: red; fill: none; stroke-width: 0.4"  /></svg>